<?xml version="1.0" encoding="ISO-8859-1" standalone="yes"?>
<svg xmlns="http://www.w3.org/2000/svg" width="486.5" height="698.898">
  <defs> 
    <marker id="ArrowEnd" viewBox="0 0 10 10" refX="0" refY="5" 
     markerUnits="strokeWidth" 
     markerWidth="4" 
     markerHeight="3" 
     orient="auto"> 
        <path d="M 0 0 L 10 5 L 0 10 z" /> 
    </marker>
    <marker id="ArrowStart" viewBox="0 0 10 10" refX="10" refY="5" 
     markerUnits="strokeWidth" 
     markerWidth="4" 
     markerHeight="3" 
     orient="auto"> 
        <path d="M 10 0 L 0 5 L 10 10 z" /> 
    </marker> </defs>
<g>
<path style="stroke:#000000; stroke-width:1; fill:none" d="M 446.5 635.801L 446.5 629.5M 446.5 11L 446.5 17.301"/>
<path style="stroke:none; fill-rule:evenodd; fill:#000000" d="M 446.801 667.601L 447.801 667.601L 447.801 664.301L 446.801 664.301L 446.801 667.601z"/>
<path style="stroke:none; fill-rule:evenodd; fill:#000000" d="M 441.301 659.847C 441.301 660.773 441.711 661.613 442.398 662.133C 443.266 662.777 444.586 663.097 446.406 663.097C 449.734 663.097 451.5 661.976 451.5 659.847C 451.5 657.746 449.734 656.597 446.492 656.597C 444.57 656.597 443.293 656.906 442.398 657.566C 441.695 658.082 441.301 658.91 441.301 659.847zM 442.398 659.847C 442.398 658.476 443.738 657.801 446.387 657.801C 449.191 657.801 450.5 658.465 450.5 659.879C 450.5 661.219 449.133 661.898 446.43 661.898C 443.727 661.898 442.398 661.219 442.398 659.847"/>
<path style="stroke:none; fill-rule:evenodd; fill:#000000" d="M 449.699 654.699L 451.199 654.699L 451.199 653.199L 449.699 653.199L 449.699 654.699z"/>
<path style="stroke:none; fill-rule:evenodd; fill:#000000" d="M 441.301 645.32L 441.301 650.457L 446.68 651.203L 446.68 650.051C 446.027 649.469 445.801 648.984 445.801 648.203C 445.801 646.851 446.695 646 448.141 646C 449.547 646 450.398 646.84 450.398 648.203C 450.398 649.293 449.863 649.961 448.766 650.261L 448.766 651.511C 449.57 651.34 449.961 651.203 450.32 650.906C 451.07 650.344 451.5 649.336 451.5 648.211C 451.5 646.203 450.059 644.801 447.977 644.801C 446.031 644.801 444.699 646.105 444.699 648.015C 444.699 648.719 444.871 649.277 445.262 649.855L 442.5 649.461L 442.5 645.32"/>
<path style="stroke:#000000; stroke-width:1; fill:none" d="M 386.5 635.801L 386.5 629.5M 386.5 11L 386.5 17.301"/>
<path style="stroke:none; fill-rule:evenodd; fill:#000000" d="M 381.301 648.148C 381.301 649.074 381.711 649.914 382.398 650.433C 383.266 651.078 384.586 651.398 386.406 651.398C 389.734 651.398 391.5 650.277 391.5 648.148C 391.5 646.047 389.734 644.898 386.492 644.898C 384.57 644.898 383.293 645.207 382.398 645.863C 381.695 646.383 381.301 647.211 381.301 648.148zM 382.398 648.148C 382.398 646.777 383.738 646.097 386.387 646.097C 389.191 646.097 390.5 646.761 390.5 648.179C 390.5 649.519 389.133 650.199 386.43 650.199C 383.727 650.199 382.398 649.519 382.398 648.148"/>
<path style="stroke:#000000; stroke-width:1; fill:none" d="M 326.5 635.801L 326.5 629.5M 326.5 11L 326.5 17.301"/>
<path style="stroke:none; fill-rule:evenodd; fill:#000000" d="M 321.301 659.847C 321.301 660.773 321.711 661.613 322.398 662.133C 323.266 662.777 324.586 663.097 326.406 663.097C 329.734 663.097 331.5 661.976 331.5 659.847C 331.5 657.746 329.734 656.597 326.492 656.597C 324.57 656.597 323.293 656.906 322.398 657.566C 321.695 658.082 321.301 658.91 321.301 659.847zM 322.398 659.847C 322.398 658.476 323.738 657.801 326.387 657.801C 329.191 657.801 330.5 658.465 330.5 659.879C 330.5 661.219 329.133 661.898 326.43 661.898C 323.727 661.898 322.398 661.219 322.398 659.847"/>
<path style="stroke:none; fill-rule:evenodd; fill:#000000" d="M 329.699 654.699L 331.199 654.699L 331.199 653.199L 329.699 653.199L 329.699 654.699z"/>
<path style="stroke:none; fill-rule:evenodd; fill:#000000" d="M 321.301 645.32L 321.301 650.457L 326.68 651.203L 326.68 650.051C 326.027 649.469 325.801 648.984 325.801 648.203C 325.801 646.851 326.695 646 328.141 646C 329.547 646 330.398 646.84 330.398 648.203C 330.398 649.293 329.863 649.961 328.766 650.261L 328.766 651.511C 329.57 651.34 329.961 651.203 330.32 650.906C 331.07 650.344 331.5 649.336 331.5 648.211C 331.5 646.203 330.059 644.801 327.977 644.801C 326.031 644.801 324.699 646.105 324.699 648.015C 324.699 648.719 324.871 649.277 325.262 649.855L 322.5 649.461L 322.5 645.32"/>
<path style="stroke:#000000; stroke-width:1; fill:none" d="M 266.5 635.801L 266.5 629.5M 266.5 11L 266.5 17.301"/>
<path style="stroke:none; fill-rule:evenodd; fill:#000000" d="M 264.148 648.398L 271.199 648.398L 271.199 647.199L 261.297 647.199L 261.297 648C 262.82 648.426 263.031 648.699 263.27 650.57L 264.148 650.57"/>
<path style="stroke:#000000; stroke-width:1; fill:none" d="M 206.5 635.801L 206.5 629.5M 206.5 11L 206.5 17.301"/>
<path style="stroke:none; fill-rule:evenodd; fill:#000000" d="M 204.148 660.097L 211.199 660.097L 211.199 658.898L 201.297 658.898L 201.297 659.699C 202.82 660.125 203.031 660.398 203.27 662.269L 204.148 662.269"/>
<path style="stroke:none; fill-rule:evenodd; fill:#000000" d="M 209.699 654.699L 211.199 654.699L 211.199 653.199L 209.699 653.199L 209.699 654.699z"/>
<path style="stroke:none; fill-rule:evenodd; fill:#000000" d="M 201.301 645.32L 201.301 650.457L 206.68 651.203L 206.68 650.051C 206.027 649.469 205.801 648.984 205.801 648.203C 205.801 646.851 206.695 646 208.141 646C 209.547 646 210.398 646.84 210.398 648.203C 210.398 649.293 209.863 649.961 208.766 650.261L 208.766 651.511C 209.57 651.34 209.961 651.203 210.32 650.906C 211.07 650.344 211.5 649.336 211.5 648.211C 211.5 646.203 210.059 644.801 207.977 644.801C 206.031 644.801 204.699 646.105 204.699 648.015C 204.699 648.719 204.871 649.277 205.262 649.855L 202.5 649.461L 202.5 645.32"/>
<path style="stroke:#000000; stroke-width:1; fill:none" d="M 146.5 635.801L 146.5 629.5M 146.5 11L 146.5 17.301"/>
<path style="stroke:none; fill-rule:evenodd; fill:#000000" d="M 150 644.969L 150 650.148C 149.188 650.023 148.672 649.578 147.961 648.371L 147.203 646.98C 146.449 645.605 145.43 644.898 144.211 644.898C 143.387 644.898 142.617 645.234 142.086 645.816C 141.555 646.398 141.301 647.121 141.301 648.051C 141.301 649.301 141.746 650.23 142.582 650.773C 143.109 651.121 143.719 651.273 144.719 651.301L 144.719 650.066C 144.062 650.023 143.664 649.941 143.348 649.773C 142.758 649.449 142.402 648.804 142.402 648.062C 142.402 646.941 143.199 646.097 144.258 646.097C 145.035 646.097 145.703 646.562 146.203 647.445L 146.93 648.734C 148.098 650.808 149.031 651.41 151.203 651.523L 151.203 644.969"/>
<path style="stroke:#000000; stroke-width:1; fill:none" d="M 86.5 635.801L 86.5 629.5M 86.5 11L 86.5 17.301"/>
<path style="stroke:none; fill-rule:evenodd; fill:#000000" d="M 90 656.668L 90 661.847C 89.188 661.722 88.672 661.277 87.961 660.07L 87.203 658.679C 86.449 657.304 85.43 656.597 84.211 656.597C 83.387 656.597 82.617 656.933 82.086 657.515C 81.555 658.097 81.301 658.82 81.301 659.75C 81.301 661 81.746 661.929 82.582 662.472C 83.109 662.82 83.719 662.972 84.719 663L 84.719 661.765C 84.062 661.722 83.664 661.64 83.348 661.472C 82.758 661.148 82.402 660.504 82.402 659.761C 82.402 658.64 83.199 657.801 84.258 657.801C 85.035 657.801 85.703 658.261 86.203 659.144L 86.93 660.433C 88.098 662.508 89.031 663.109 91.203 663.222L 91.203 656.668"/>
<path style="stroke:none; fill-rule:evenodd; fill:#000000" d="M 89.699 654.699L 91.199 654.699L 91.199 653.199L 89.699 653.199L 89.699 654.699z"/>
<path style="stroke:none; fill-rule:evenodd; fill:#000000" d="M 81.301 645.32L 81.301 650.457L 86.68 651.203L 86.68 650.051C 86.027 649.469 85.801 648.984 85.801 648.203C 85.801 646.851 86.695 646 88.141 646C 89.547 646 90.398 646.84 90.398 648.203C 90.398 649.293 89.863 649.961 88.766 650.261L 88.766 651.511C 89.57 651.34 89.961 651.203 90.32 650.906C 91.07 650.344 91.5 649.336 91.5 648.211C 91.5 646.203 90.059 644.801 87.977 644.801C 86.031 644.801 84.699 646.105 84.699 648.015C 84.699 648.719 84.871 649.277 85.262 649.855L 82.5 649.461L 82.5 645.32"/>
<path style="stroke:#000000; stroke-width:1; fill:none" d="M 26.5 635.801L 26.5 629.5M 26.5 11L 26.5 17.301"/>
<path style="stroke:none; fill-rule:evenodd; fill:#000000" d="M 26.6016 648.906L 26.6016 648.215C 26.6016 646.82 27.2188 646.101 28.4102 646.101C 29.6562 646.101 30.3984 646.883 30.3984 648.187C 30.3984 649.551 29.7383 650.219 28.3164 650.301L 28.3164 651.551C 29.1094 651.496 29.6211 651.355 30.0664 651.117C 31.0156 650.609 31.5 649.629 31.5 648.269C 31.5 646.219 30.2891 644.898 28.4219 644.898C 27.168 644.898 26.4727 645.394 26.0664 646.597C 25.7031 645.668 25.0078 645.199 24.0195 645.199C 22.3203 645.199 21.3008 646.336 21.3008 648.23C 21.3008 650.234 22.3828 651.301 24.4805 651.344L 24.4805 650.094C 23.8945 650.078 23.5664 650.019 23.2617 649.863C 22.7305 649.582 22.4023 648.957 22.4023 648.176C 22.4023 647.07 23.0352 646.402 24.0703 646.402C 24.7578 646.402 25.1719 646.66 25.3945 647.222C 25.5312 647.566 25.5859 648.015 25.6016 648.906"/>
<path style="stroke:#000000; stroke-width:1; fill:none" d="M 446.5 635.801L 440.199 635.801M 26.5 635.801L 32.8008 635.801"/>
<path style="stroke:none; fill-rule:evenodd; fill:#000000" d="M 460.801 647.199L 461.801 647.199L 461.801 643.898L 460.801 643.898L 460.801 647.199z"/>
<path style="stroke:none; fill-rule:evenodd; fill:#000000" d="M 455.301 639.347C 455.301 640.273 455.711 641.113 456.398 641.633C 457.266 642.277 458.586 642.597 460.406 642.597C 463.734 642.597 465.5 641.476 465.5 639.347C 465.5 637.246 463.734 636.097 460.492 636.097C 458.57 636.097 457.289 636.406 456.398 637.066C 455.695 637.582 455.301 638.41 455.301 639.347zM 456.398 639.347C 456.398 637.976 457.738 637.301 460.387 637.301C 463.191 637.301 464.5 637.965 464.5 639.379C 464.5 640.719 463.133 641.398 460.43 641.398C 457.727 641.398 456.398 640.719 456.398 639.347"/>
<path style="stroke:none; fill-rule:evenodd; fill:#000000" d="M 463.699 634.199L 465.199 634.199L 465.199 632.699L 463.699 632.699L 463.699 634.199z"/>
<path style="stroke:none; fill-rule:evenodd; fill:#000000" d="M 464 624.469L 464 629.648C 463.188 629.523 462.672 629.078 461.961 627.871L 461.203 626.48C 460.449 625.105 459.43 624.398 458.211 624.398C 457.387 624.398 456.617 624.734 456.086 625.316C 455.555 625.898 455.301 626.621 455.301 627.551C 455.301 628.801 455.746 629.73 456.582 630.273C 457.109 630.621 457.719 630.773 458.719 630.801L 458.719 629.566C 458.062 629.523 457.664 629.441 457.348 629.273C 456.758 628.949 456.402 628.304 456.402 627.562C 456.402 626.441 457.199 625.597 458.258 625.597C 459.035 625.597 459.703 626.062 460.203 626.945L 460.93 628.234C 462.098 630.308 463.031 630.91 465.203 631.023L 465.203 624.469"/>
<path style="stroke:#000000; stroke-width:1; fill:none" d="M 446.5 546.5L 440.199 546.5M 26.5 546.5L 32.8008 546.5"/>
<path style="stroke:none; fill-rule:evenodd; fill:#000000" d="M 455.301 544.551C 455.301 545.472 455.711 546.312 456.398 546.832C 457.266 547.476 458.586 547.797 460.406 547.797C 463.734 547.797 465.5 546.679 465.5 544.547C 465.5 542.445 463.734 541.297 460.492 541.297C 458.57 541.297 457.289 541.605 456.398 542.265C 455.695 542.781 455.301 543.609 455.301 544.547L 455.301 544.551zM 456.398 544.551C 456.398 543.179 457.738 542.5 460.387 542.5C 463.191 542.5 464.5 543.164 464.5 544.578C 464.5 545.922 463.133 546.597 460.43 546.597C 457.727 546.597 456.398 545.918 456.398 544.551"/>
<path style="stroke:#000000; stroke-width:1; fill:none" d="M 446.5 457.301L 440.199 457.301M 26.5 457.301L 32.8008 457.301"/>
<path style="stroke:none; fill-rule:evenodd; fill:#000000" d="M 455.301 461.25C 455.301 462.176 455.711 463.015 456.398 463.531C 457.266 464.176 458.586 464.5 460.406 464.5C 463.734 464.5 465.5 463.379 465.5 461.25C 465.5 459.148 463.734 458 460.492 458C 458.57 458 457.289 458.304 456.398 458.965C 455.695 459.484 455.301 460.308 455.301 461.25zM 456.398 461.25C 456.398 459.879 457.738 459.199 460.387 459.199C 463.191 459.199 464.5 459.863 464.5 461.277C 464.5 462.621 463.133 463.297 460.43 463.297C 457.727 463.297 456.398 462.621 456.398 461.25"/>
<path style="stroke:none; fill-rule:evenodd; fill:#000000" d="M 463.699 456.097L 465.199 456.097L 465.199 454.597L 463.699 454.597L 463.699 456.097z"/>
<path style="stroke:none; fill-rule:evenodd; fill:#000000" d="M 464 446.367L 464 451.547C 463.188 451.422 462.672 450.976 461.961 449.769L 461.203 448.383C 460.449 447.008 459.43 446.297 458.211 446.297C 457.387 446.297 456.617 446.633 456.086 447.215C 455.555 447.801 455.301 448.519 455.301 449.453C 455.301 450.699 455.746 451.629 456.582 452.172C 457.109 452.519 457.719 452.672 458.719 452.699L 458.719 451.465C 458.062 451.426 457.664 451.34 457.348 451.172C 456.758 450.851 456.402 450.207 456.402 449.461C 456.402 448.34 457.199 447.5 458.258 447.5C 459.035 447.5 459.703 447.961 460.203 448.844L 460.93 450.133C 462.098 452.207 463.031 452.812 465.203 452.922L 465.203 446.367"/>
<path style="stroke:#000000; stroke-width:1; fill:none" d="M 446.5 368L 440.199 368M 26.5 368L 32.8008 368"/>
<path style="stroke:none; fill-rule:evenodd; fill:#000000" d="M 455.301 371.949C 455.301 372.875 455.711 373.715 456.398 374.23C 457.266 374.879 458.586 375.199 460.406 375.199C 463.734 375.199 465.5 374.078 465.5 371.949C 465.5 369.847 463.734 368.699 460.492 368.699C 458.57 368.699 457.289 369.008 456.398 369.664C 455.695 370.183 455.301 371.011 455.301 371.949zM 456.398 371.949C 456.398 370.578 457.738 369.898 460.387 369.898C 463.191 369.898 464.5 370.562 464.5 371.976C 464.5 373.32 463.133 374 460.43 374C 457.727 374 456.398 373.32 456.398 371.949"/>
<path style="stroke:none; fill-rule:evenodd; fill:#000000" d="M 463.699 366.801L 465.199 366.801L 465.199 365.301L 463.699 365.301L 463.699 366.801z"/>
<path style="stroke:none; fill-rule:evenodd; fill:#000000" d="M 462.801 359.5L 465.199 359.5L 465.199 358.301L 462.801 358.301L 462.801 356.82L 461.699 356.82L 461.699 358.301L 455.301 358.301L 455.301 359.207L 461.508 363.707L 462.801 363.707L 462.801 359.5zM 461.699 359.5L 461.699 362.629L 457.375 359.5"/>
<path style="stroke:#000000; stroke-width:1; fill:none" d="M 446.5 278.801L 440.199 278.801M 26.5 278.801L 32.8008 278.801"/>
<path style="stroke:none; fill-rule:evenodd; fill:#000000" d="M 455.301 282.75C 455.301 283.676 455.711 284.515 456.398 285.031C 457.266 285.676 458.586 286 460.406 286C 463.734 286 465.5 284.879 465.5 282.75C 465.5 280.648 463.734 279.5 460.492 279.5C 458.57 279.5 457.289 279.804 456.398 280.465C 455.695 280.984 455.301 281.808 455.301 282.75zM 456.398 282.75C 456.398 281.379 457.738 280.699 460.387 280.699C 463.191 280.699 464.5 281.363 464.5 282.777C 464.5 284.121 463.133 284.797 460.43 284.797C 457.727 284.797 456.398 284.121 456.398 282.75"/>
<path style="stroke:none; fill-rule:evenodd; fill:#000000" d="M 463.699 277.597L 465.199 277.597L 465.199 276.097L 463.699 276.097L 463.699 277.597z"/>
<path style="stroke:none; fill-rule:evenodd; fill:#000000" d="M 457.898 267.926C 456.27 268.164 455.301 269.23 455.301 270.742C 455.301 271.836 455.832 272.812 456.711 273.402C 457.672 274.019 458.883 274.301 460.68 274.301C 462.336 274.301 463.395 274.047 464.273 273.457C 465.066 272.922 465.5 272.054 465.5 270.957C 465.5 269.062 464.098 267.699 462.152 267.699C 460.305 267.699 459 268.976 459 270.781C 459 271.777 459.379 272.558 460.102 273.097C 457.723 273.086 456.402 272.293 456.402 270.859C 456.402 269.98 456.949 269.371 457.902 269.176L 457.898 267.926zM 460.102 270.871C 460.102 269.656 460.926 268.898 462.25 268.898C 463.492 268.898 464.402 269.758 464.402 270.91C 464.402 272.082 463.453 272.965 462.18 272.965C 460.953 272.965 460.102 272.109 460.102 270.867"/>
<path style="stroke:#000000; stroke-width:1; fill:none" d="M 446.5 189.5L 440.199 189.5M 26.5 189.5L 32.8008 189.5"/>
<path style="stroke:none; fill-rule:evenodd; fill:#000000" d="M 455.301 193.449C 455.301 194.375 455.711 195.215 456.398 195.73C 457.266 196.379 458.586 196.699 460.406 196.699C 463.734 196.699 465.5 195.578 465.5 193.449C 465.5 191.347 463.734 190.199 460.492 190.199C 458.57 190.199 457.289 190.508 456.398 191.164C 455.695 191.683 455.301 192.511 455.301 193.449zM 456.398 193.449C 456.398 192.078 457.738 191.398 460.387 191.398C 463.191 191.398 464.5 192.062 464.5 193.476C 464.5 194.82 463.133 195.5 460.43 195.5C 457.727 195.5 456.398 194.82 456.398 193.449"/>
<path style="stroke:none; fill-rule:evenodd; fill:#000000" d="M 463.699 188.301L 465.199 188.301L 465.199 186.797L 463.699 186.797L 463.699 188.301z"/>
<path style="stroke:none; fill-rule:evenodd; fill:#000000" d="M 459.984 180.125C 459.371 179.129 458.867 178.797 457.934 178.797C 456.391 178.797 455.301 180.004 455.301 181.75C 455.301 183.48 456.391 184.699 457.934 184.699C 458.855 184.699 459.355 184.371 459.984 183.387C 460.527 184.531 461.348 185.097 462.434 185.097C 464.246 185.097 465.5 183.719 465.5 181.75C 465.5 179.777 464.246 178.398 462.449 178.398C 461.348 178.398 460.527 178.965 459.984 180.125zM 456.398 181.75C 456.398 180.683 457.012 180 457.973 180C 458.887 180 459.5 180.695 459.5 181.75C 459.5 182.801 458.887 183.5 457.957 183.5C 457.012 183.5 456.398 182.801 456.398 181.75zM 460.5 181.75C 460.5 180.469 461.281 179.597 462.441 179.597C 463.617 179.597 464.398 180.472 464.398 181.777C 464.398 183.027 463.602 183.898 462.441 183.898C 461.281 183.898 460.5 183.027 460.5 181.75"/>
<path style="stroke:#000000; stroke-width:1; fill:none" d="M 446.5 100.301L 440.199 100.301M 26.5 100.301L 32.8008 100.301"/>
<path style="stroke:none; fill-rule:evenodd; fill:#000000" d="M 458.148 98.597L 465.199 98.597L 465.199 97.3979L 455.297 97.3979L 455.297 98.199C 456.82 98.625 457.031 98.8979 457.27 100.769L 458.148 100.769"/>
<path style="stroke:#000000; stroke-width:1; fill:none" d="M 446.5 11L 440.199 11M 26.5 11L 32.8008 11"/>
<path style="stroke:none; fill-rule:evenodd; fill:#000000" d="M 458.148 15.199L 465.199 15.199L 465.199 14L 455.297 14L 455.297 14.797C 456.82 15.226 457.031 15.5 457.27 17.371L 458.148 17.371"/>
<path style="stroke:none; fill-rule:evenodd; fill:#000000" d="M 463.699 9.80096L 465.199 9.80096L 465.199 8.297L 463.699 8.297L 463.699 9.80096z"/>
<path style="stroke:none; fill-rule:evenodd; fill:#000000" d="M 464 0.065979L 464 5.25C 463.188 5.125 462.672 4.67896 461.961 3.46899L 461.203 2.08197C 460.449 0.70697 459.43 0 458.211 0C 457.387 0 456.617 0.33197 456.086 0.917969C 455.555 1.5 455.301 2.22198 455.301 3.15198C 455.301 4.39795 455.746 5.33197 456.582 5.87097C 457.109 6.21899 457.719 6.37097 458.719 6.39795L 458.719 5.16797C 458.062 5.125 457.664 5.039 457.348 4.87097C 456.758 4.55096 456.402 3.90594 456.402 3.164C 456.402 2.04297 457.199 1.19897 458.258 1.19897C 459.035 1.19897 459.703 1.664 460.203 2.547L 460.93 3.836C 462.098 5.90594 463.031 6.51099 465.203 6.625L 465.203 0.065979"/>
<path style="stroke:#000000; stroke-width:1; fill:none" d="M 446.5 635.801L 446.5 11L 26.5 11L 26.5 635.801L 446.5 635.801"/>
<path style="stroke:none; fill-rule:evenodd; fill:#000000" d="M 294.199 695.789L 294.199 688.5L 293 688.5L 293 693.086C 293 694.148 292.25 695 291.324 695C 290.477 695 290 694.469 290 693.535L 290 688.5L 288.801 688.5L 288.801 693.086C 288.801 694.148 288.023 695 287.066 695C 286.211 695 285.699 694.453 285.699 693.535L 285.699 688.5L 284.5 688.5L 284.5 693.965C 284.5 695.273 285.258 696 286.625 696C 287.605 696 288.191 695.715 288.879 694.926C 289.312 695.676 289.898 696 290.848 696C 291.828 696 292.473 695.636 293.102 694.758L 293.102 695.789"/>
<path style="stroke:none; fill-rule:evenodd; fill:#000000" d="M 275.699 692.898L 279 692.898L 279 691.898L 275.699 691.898L 275.699 692.898z"/>
<path style="stroke:none; fill-rule:evenodd; fill:#000000" d="M 263.609 689.183C 263.738 689.199 263.793 689.199 263.863 689.199C 264.273 689.199 264.5 689.406 264.5 689.765L 264.5 694.023C 264.5 695.308 265.449 696 267.254 696C 268.316 696 269.195 695.695 269.688 695.16C 270.023 694.789 270.16 694.379 270.188 693.664L 269.023 693.664C 268.93 694.515 268.402 694.898 267.32 694.898C 266.281 694.898 265.699 694.511 265.699 693.82L 265.699 693.515C 265.699 693.031 265.988 692.824 266.902 692.715C 268.535 692.508 268.785 692.453 269.227 692.273C 270.07 691.929 270.5 691.277 270.5 690.34C 270.5 689.027 269.578 688.199 268.098 688.199C 267.176 688.199 266.434 688.511 265.609 689.254C 265.523 688.527 265.16 688.199 264.406 688.199C 264.168 688.199 263.988 688.226 263.609 688.32L 263.609 689.183zM 265.699 690.808C 265.699 690.418 265.812 690.179 266.156 689.855C 266.629 689.422 267.195 689.199 267.875 689.199C 268.773 689.199 269.301 689.633 269.301 690.375C 269.301 691.144 268.789 691.539 267.555 691.719C 266.34 691.886 266.09 691.941 265.699 692.125"/>
<path style="stroke:none; fill-rule:evenodd; fill:#000000" d="M 261.199 698.699L 262.402 698.699L 262.402 688.5L 261.199 688.5L 261.199 698.699z"/>
<path style="stroke:none; fill-rule:evenodd; fill:#000000" d="M 259.5 685.445L 258.301 685.445L 258.301 689.301C 257.684 688.539 256.996 688.199 256.043 688.199C 254.148 688.199 252.898 689.711 252.898 692.027C 252.898 694.472 254.105 696 256.059 696C 257.055 696 257.852 695.554 258.398 694.687L 258.398 695.789L 259.5 695.789L 259.5 685.445zM 256.242 694.898C 254.945 694.898 254.102 693.781 254.102 692.058C 254.102 690.418 254.961 689.301 256.242 689.301C 257.48 689.301 258.301 690.402 258.301 692.097C 258.301 693.793 257.484 694.898 256.242 694.898"/>
<path style="stroke:none; fill-rule:evenodd; fill:#000000" d="M 251.398 698.699L 251.398 688.5L 250.199 688.5L 250.199 692.527C 250.199 694.019 249.438 695 248.27 695C 247.902 695 247.535 694.871 247.262 694.664C 246.938 694.426 246.801 694.078 246.801 693.558L 246.801 688.5L 245.602 688.5L 245.602 694.008C 245.602 695.23 246.473 696 247.879 696C 248.902 696 249.523 695.687 250.199 694.828L 250.199 698.699"/>
<path style="stroke:none; fill-rule:evenodd; fill:#000000" d="M 237.211 689.183C 237.336 689.199 237.395 689.199 237.465 689.199C 237.871 689.199 238.102 689.406 238.102 689.765L 238.102 694.023C 238.102 695.308 239.051 696 240.855 696C 241.918 696 242.797 695.695 243.285 695.16C 243.621 694.789 243.762 694.379 243.789 693.664L 242.625 693.664C 242.527 694.515 242.004 694.898 240.922 694.898C 239.883 694.898 239.301 694.511 239.301 693.82L 239.301 693.515C 239.301 693.031 239.59 692.824 240.504 692.715C 242.137 692.508 242.383 692.453 242.828 692.273C 243.672 691.929 244.102 691.277 244.102 690.34C 244.102 689.027 243.18 688.199 241.695 688.199C 240.773 688.199 240.031 688.511 239.211 689.254C 239.125 688.527 238.762 688.199 238.008 688.199C 237.77 688.199 237.586 688.226 237.211 688.32L 237.211 689.183zM 239.301 690.808C 239.301 690.418 239.41 690.179 239.758 689.855C 240.23 689.422 240.797 689.199 241.473 689.199C 242.375 689.199 242.898 689.633 242.898 690.375C 242.898 691.144 242.387 691.539 241.156 691.719C 239.938 691.886 239.688 691.941 239.301 692.125"/>
<path style="stroke:none; fill-rule:evenodd; fill:#000000" d="M 229.703 698.699C 231.113 696.863 232 694.32 232 692.121C 232 689.91 231.113 687.363 229.703 685.531L 228.926 685.531C 230.195 687.531 230.898 689.883 230.898 692.121C 230.898 694.347 230.195 696.711 228.926 698.699"/>
<path style="stroke:none; fill-rule:evenodd; fill:#000000" d="M 220 695.711C 220.016 697.726 221.375 698.898 223.707 698.898C 225.926 698.898 227.301 697.746 227.301 695.886C 227.301 694.633 226.645 693.844 225.301 693.492L 222.773 692.816C 221.488 692.48 220.902 691.957 220.902 691.156C 220.902 690.605 221.195 690.043 221.633 689.734C 222.039 689.453 222.684 689.297 223.512 689.297C 224.617 689.297 225.375 689.566 225.863 690.16C 226.242 690.613 226.41 691.109 226.402 691.746L 227.602 691.746C 227.59 690.812 227.406 690.203 227.004 689.644C 226.305 688.699 225.133 688.199 223.582 688.199C 222.367 688.199 221.375 688.476 220.719 688.98C 220.035 689.527 219.602 690.437 219.602 691.32C 219.602 692.578 220.387 693.504 221.77 693.879L 224.324 694.566C 225.555 694.902 226.004 695.293 226.004 696.078C 226.004 697.113 225.098 697.801 223.734 697.801C 222.121 697.801 221.215 697.051 221.203 695.711"/>
<path style="stroke:none; fill-rule:evenodd; fill:#000000" d="M 215 692.898L 218.301 692.898L 218.301 691.898L 215 691.898L 215 692.898z"/>
<path style="stroke:none; fill-rule:evenodd; fill:#000000" d="M 210.699 695.551L 210.699 688.5L 209.5 688.5L 209.5 698.402L 210.301 698.402C 210.727 696.879 211 696.668 212.871 696.429L 212.871 695.551"/>
<path style="stroke:none; fill-rule:evenodd; fill:#000000" d="M 205.195 685.531C 203.785 687.363 202.898 689.91 202.898 692.109C 202.898 694.32 203.785 696.867 205.195 698.699L 205.969 698.699C 204.703 696.695 204 694.347 204 692.109C 204 689.883 204.703 687.519 205.969 685.531"/>
<path style="stroke:none; fill-rule:evenodd; fill:#000000" d="M 194 692.898L 197.301 692.898L 197.301 691.898L 194 691.898L 194 692.898z"/>
<path style="stroke:none; fill-rule:evenodd; fill:#000000" d="M 182.855 688.5L 180 697.054L 180 688.5L 178.801 688.5L 178.801 698.699L 180.59 698.699L 183.523 689.816L 186.516 698.699L 188.301 698.699L 188.301 688.5L 187.102 688.5L 187.102 697.054L 184.219 688.5"/>
<path style="stroke:none; fill-rule:evenodd; fill:#000000" d="M 479.156 330.832C 476.898 331.238 475.801 332.519 475.801 334.754C 475.801 336.121 476.234 337.222 477.074 337.976C 478.082 338.898 479.539 339.398 481.191 339.398C 482.871 339.398 484.316 338.883 485.309 337.922C 486.121 337.14 486.5 336.133 486.5 334.808C 486.5 332.324 485.164 330.929 482.477 330.621L 482.477 331.961C 483.18 332.074 483.66 332.215 484.07 332.422C 484.918 332.84 485.398 333.707 485.398 334.793C 485.398 336.816 483.758 338.097 481.18 338.097C 478.531 338.097 476.898 336.871 476.898 334.902C 476.898 334.082 477.16 333.312 477.566 332.894C 477.926 332.519 478.375 332.308 479.156 332.156"/>
<path style="stroke:none; fill-rule:evenodd; fill:#000000" d="M 478.699 326.215C 478.699 328.261 480.156 329.5 482.602 329.5C 485.043 329.5 486.5 328.273 486.5 326.199C 486.5 324.152 485.043 322.898 482.656 322.898C 480.145 322.898 478.699 324.109 478.699 326.211L 478.699 326.215zM 479.801 326.199C 479.801 324.883 480.859 324.097 482.641 324.097C 484.328 324.097 485.402 324.91 485.402 326.199C 485.402 327.5 484.344 328.301 482.602 328.301C 480.871 328.301 479.801 327.5 479.801 326.199"/>
<path style="stroke:none; fill-rule:evenodd; fill:#000000" d="M 476 321.301L 486.199 321.301L 486.199 320.097L 476 320.097L 476 321.301z"/>
<path style="stroke:none; fill-rule:evenodd; fill:#000000" d="M 478.699 315.312C 478.699 317.359 480.156 318.597 482.602 318.597C 485.043 318.597 486.5 317.375 486.5 315.301C 486.5 313.254 485.043 312 482.656 312C 480.145 312 478.699 313.211 478.699 315.312zM 479.801 315.301C 479.801 313.984 480.859 313.199 482.641 313.199C 484.328 313.199 485.402 314.011 485.402 315.301C 485.402 316.601 484.344 317.398 482.602 317.398C 480.871 317.398 479.801 316.601 479.801 315.301"/>
<path style="stroke:none; fill-rule:evenodd; fill:#000000" d="M 478.91 310.301L 486.199 310.301L 486.199 309.097L 482.402 309.097C 481.355 309.097 480.668 308.84 480.266 308.293C 480 307.937 479.914 307.597 479.898 306.804L 478.742 306.804C 478.715 307 478.699 307.094 478.699 307.246C 478.699 307.98 479.148 308.543 480.23 309.199L 478.91 309.199"/>
<path style="stroke:none; fill-rule:evenodd; fill:#000000" d="M 5.5 365.5L 5.5 360.664L 4.3984 360.664L 4.3984 365.5L 1.1016 365.5L 1.1016 359.996L 0 359.996L 0 366.801L 10.1992 366.801L 10.1992 365.5"/>
<path style="stroke:none; fill-rule:evenodd; fill:#000000" d="M 2.8984 357.5L 2.8984 358.699L 10.1992 358.699L 10.1992 357.5L 2.8984 357.5zM 0 357.5L 0 358.699L 1.4648 358.699L 1.4648 357.5"/>
<path style="stroke:none; fill-rule:evenodd; fill:#000000" d="M 2.8984 352.898L 2.8984 354.097L 0.847702 354.097L 0.847702 355.301L 2.8984 355.301L 2.8984 356.297L 3.8984 356.297L 3.8984 355.301L 9.3555 355.301C 10.0859 355.301 10.5 354.789 10.5 353.863C 10.5 353.582 10.4727 353.297 10.4023 352.898L 9.4453 352.898C 9.4844 353.051 9.5 353.234 9.5 353.457C 9.5 353.961 9.3633 354.097 8.8516 354.097L 3.8984 354.097L 3.8984 352.898"/>
<path style="stroke:none; fill-rule:evenodd; fill:#000000" d="M 2.8984 349L 2.8984 350.199L 0.847702 350.199L 0.847702 351.398L 2.8984 351.398L 2.8984 352.398L 3.8984 352.398L 3.8984 351.398L 9.3555 351.398C 10.0859 351.398 10.5 350.887 10.5 349.965C 10.5 349.679 10.4727 349.394 10.4023 349L 9.4453 349C 9.4844 349.152 9.5 349.336 9.5 349.558C 9.5 350.058 9.3633 350.199 8.8516 350.199L 3.8984 350.199L 3.8984 349"/>
<path style="stroke:none; fill-rule:evenodd; fill:#000000" d="M 2.8984 346.597L 2.8984 347.801L 10.1992 347.801L 10.1992 346.597L 2.8984 346.597zM 0 346.597L 0 347.801L 1.4648 347.801L 1.4648 346.597"/>
<path style="stroke:none; fill-rule:evenodd; fill:#000000" d="M 2.9102 344.597L 10.1992 344.597L 10.1992 343.398L 6.1719 343.398C 4.6797 343.398 3.6992 342.637 3.6992 341.469C 3.6992 340.57 4.2617 340 5.1367 340L 10.1992 340L 10.1992 338.801L 4.6914 338.801C 3.4805 338.801 2.6992 339.699 2.6992 341.094C 2.6992 342.172 3.1172 342.863 4.1328 343.5L 2.9102 343.5"/>
<path style="stroke:none; fill-rule:evenodd; fill:#000000" d="M 2.8984 332L 3.9297 332C 3.0938 332.594 2.6992 333.312 2.6992 334.254C 2.6992 336.129 4.3125 337.398 6.6719 337.398C 7.8633 337.398 8.8359 337.082 9.5273 336.484C 10.1406 335.941 10.5 335.168 10.5 334.402C 10.5 333.488 10.1133 332.851 9.207 332.199L 9.5898 332.199C 10.5898 332.199 11.1992 332.324 11.6094 332.613C 12.0469 332.918 12.3008 333.515 12.3008 334.219C 12.3008 334.746 12.1562 335.215 11.8984 335.535C 11.6836 335.797 11.4844 335.91 11.0391 335.976L 11.0391 337.152C 12.457 337.027 13.3008 335.957 13.3008 334.25C 13.3008 333.164 12.9492 332.234 12.3594 331.761C 11.6875 331.207 10.7617 330.996 9.0391 330.996L 2.8984 330.996L 2.8984 332zM 3.8008 334.187C 3.8008 332.937 4.8438 332.199 6.6406 332.199C 8.3594 332.199 9.4023 332.949 9.4023 334.172C 9.4023 335.433 8.3438 336.199 6.6016 336.199C 4.8711 336.199 3.8008 335.422 3.8008 334.187"/>
<path style="stroke:none; fill-rule:evenodd; fill:#000000" d="M 2.8984 322.5L 2.8984 323.699L 1.7461 323.699C 1.2539 323.699 1 323.422 1 322.898C 1 322.804 1 322.761 1 322.5L 0.0663986 322.5C 0.0156021 322.765 0 322.922 0 323.164C 0 324.25 0.613297 324.898 1.6602 324.898L 2.8984 324.898L 2.8984 325.898L 3.8984 325.898L 3.8984 324.898L 10.1992 324.898L 10.1992 323.699L 3.8984 323.699L 3.8984 322.5"/>
<path style="stroke:none; fill-rule:evenodd; fill:#000000" d="M 2.6992 318.414C 2.6992 320.461 4.1562 321.699 6.6016 321.699C 9.043 321.699 10.5 320.472 10.5 318.398C 10.5 316.351 9.043 315.097 6.6562 315.097C 4.1445 315.097 2.6992 316.308 2.6992 318.414zM 3.8008 318.398C 3.8008 317.082 4.8594 316.301 6.6406 316.301C 8.3281 316.301 9.4023 317.109 9.4023 318.398C 9.4023 319.703 8.3438 320.5 6.6016 320.5C 4.8711 320.5 3.8008 319.703 3.8008 318.398"/>
<path style="stroke:none; fill-rule:evenodd; fill:#000000" d="M 2.9102 313.5L 10.1992 313.5L 10.1992 312.301L 6.4023 312.301C 5.3555 312.301 4.668 312.039 4.2656 311.496C 4 311.14 3.9141 310.797 3.8984 310.008L 2.7422 310.008C 2.7148 310.199 2.6992 310.293 2.6992 310.445C 2.6992 311.183 3.1484 311.742 4.2305 312.398L 2.9102 312.398"/>
<path style="stroke:none; fill-rule:evenodd; fill:#000000" d="M 0 305.097L 10.1992 305.097L 10.1992 304.097L 9.2617 304.097C 10.1016 303.543 10.5 302.801 10.5 301.781C 10.5 299.855 8.9336 298.597 6.5195 298.597C 4.1602 298.597 2.6992 299.781 2.6992 301.676C 2.6992 302.664 3.0664 303.363 3.8594 303.898L 0 303.898L 0 305.097zM 3.8008 301.898C 3.8008 300.621 4.918 299.801 6.6406 299.801C 8.2812 299.801 9.3984 300.648 9.3984 301.898C 9.3984 303.101 8.2969 303.898 6.6016 303.898C 4.9062 303.898 3.8008 303.105 3.8008 301.898"/>
<path style="stroke:none; fill-rule:evenodd; fill:#000000" d="M 6.8984 290.898C 5.7969 290.898 5.1367 290.984 4.6016 291.191C 3.418 291.668 2.6992 292.785 2.6992 294.152C 2.6992 296.187 4.2539 297.5 6.6406 297.5C 9.0273 297.5 10.5 296.234 10.5 294.187C 10.5 292.519 9.5586 291.363 7.9727 291.07L 7.9727 292.242C 8.9102 292.562 9.3984 293.219 9.3984 294.152C 9.3984 294.89 9.0664 295.519 8.457 295.906C 8.0391 296.187 7.6211 296.285 6.9023 296.297L 6.8984 290.898zM 5.8984 296.293C 4.6289 296.195 3.8008 295.371 3.8008 294.191C 3.8008 293.047 4.6914 292.164 5.8203 292.164C 5.8477 292.164 5.875 292.164 5.9023 292.176"/>
<path style="stroke:none; fill-rule:evenodd; fill:#000000" d="M 2.8984 286.699L 2.8984 287.898L 0.847702 287.898L 0.847702 289.097L 2.8984 289.097L 2.8984 290.097L 3.8984 290.097L 3.8984 289.097L 9.3555 289.097C 10.0859 289.097 10.5 288.59 10.5 287.664C 10.5 287.379 10.4727 287.097 10.4023 286.699L 9.4453 286.699C 9.4844 286.851 9.5 287.035 9.5 287.258C 9.5 287.761 9.3633 287.898 8.8516 287.898L 3.8984 287.898L 3.8984 286.699"/>
<path style="stroke:none; fill-rule:evenodd; fill:#000000" d="M 9.5156 278.91C 9.5 279.035 9.5 279.094 9.5 279.164C 9.5 279.57 9.293 279.801 8.9336 279.801L 4.6758 279.801C 3.3906 279.801 2.6992 280.75 2.6992 282.554C 2.6992 283.613 3.0039 284.496 3.5391 284.984C 3.9102 285.32 4.3203 285.461 5.0352 285.488L 5.0352 284.324C 4.1836 284.226 3.8008 283.703 3.8008 282.621C 3.8008 281.582 4.1875 281 4.8789 281L 5.1836 281C 5.668 281 5.875 281.289 5.9844 282.203C 6.1914 283.836 6.2461 284.082 6.4258 284.527C 6.7695 285.371 7.4219 285.801 8.3594 285.801C 9.6719 285.801 10.5 284.879 10.5 283.394C 10.5 282.472 10.1875 281.73 9.4453 280.906C 10.1719 280.824 10.5 280.461 10.5 279.707C 10.5 279.469 10.4727 279.285 10.3789 278.91L 9.5156 278.91zM 7.8906 281C 8.2812 281 8.5195 281.109 8.8438 281.457C 9.2773 281.929 9.5 282.496 9.5 283.172C 9.5 284.074 9.0664 284.597 8.3242 284.597C 7.5547 284.597 7.1602 284.086 6.9805 282.855C 6.8125 281.637 6.7578 281.387 6.5742 281"/>
<path style="stroke:#ff0000; stroke-width:0.5; fill:none" d="M 74 297.097L 71.102 297.097M 74 300.199L 74 294M 71.102 300.199L 71.102 294M 382.801 530.699L 381.602 530.699M 382.801 533.801L 382.801 527.597M 381.602 533.801L 381.602 527.597M 364.199 601.699L 363.602 601.699M 364.199 604.801L 364.199 598.597M 363.602 604.801L 363.602 598.597M 245.398 426.199L 244 426.199M 245.398 429.301L 245.398 423.097M 244 429.301L 244 423.097M 95 281.597L 92.801 281.597M 95 284.699L 95 278.5M 92.801 284.699L 92.801 278.5M 327.398 488.5L 325.5 488.5M 327.398 491.597L 327.398 485.398M 325.5 491.597L 325.5 485.398M 302.602 468.699L 298.5 468.699M 302.602 471.801L 302.602 465.597M 298.5 471.801L 298.5 465.597M 350 529L 348 529M 350 532.097L 350 525.898M 348 532.097L 348 525.898M 369.102 516L 367.602 516M 369.102 519.097L 369.102 512.898M 367.602 519.097L 367.602 512.898M 382.699 563.898L 381.801 563.898M 382.699 567L 382.699 560.801M 381.801 567L 381.801 560.801M 343.801 496.597L 342.801 496.597M 343.801 499.699L 343.801 493.5M 342.801 499.699L 342.801 493.5M 357.102 527.301L 354.898 527.301M 357.102 530.398L 357.102 524.199M 354.898 530.398L 354.898 524.199M 240.102 11.199L 237 11.199M 240.102 14.301L 240.102 8.09698M 237 14.301L 237 8.09698M 387.301 494.301L 386.301 494.301M 387.301 497.398L 387.301 491.199M 386.301 497.398L 386.301 491.199M 297.602 529.5L 294.602 529.5M 297.602 532.597L 297.602 526.398M 294.602 532.597L 294.602 526.398M 200.5 336.801L 198.199 336.801M 200.5 339.898L 200.5 333.699M 198.199 339.898L 198.199 333.699M 346.602 519.097L 345.5 519.097M 346.602 522.199L 346.602 516M 345.5 522.199L 345.5 516M 354.5 542.199L 351.699 542.199M 354.5 545.301L 354.5 539.097"/>
<path style="stroke:#ff0000; stroke-width:0.5; fill:none" d="M 351.699 545.301L 351.699 539.097M 403 576.699L 401 576.699M 403 579.801L 403 573.597M 401 579.801L 401 573.597M 365.398 516.801L 364.301 516.801M 365.398 519.898L 365.398 513.699M 364.301 519.898L 364.301 513.699M 355.398 512.301L 354 512.301M 355.398 515.398L 355.398 509.199M 354 515.398L 354 509.199"/>
<path style="stroke:#ff0000; stroke-width:0.5; fill:none" d="M 75.648 297.097L 69.352 297.097"/>
<path style="stroke:#ff0000; stroke-width:0.5; fill:none" d="M 72.5 300.25L 72.5 293.949"/>
<path style="stroke:#ff0000; stroke-width:0.5; fill:none" d="M 385.352 530.699L 379.051 530.699"/>
<path style="stroke:#ff0000; stroke-width:0.5; fill:none" d="M 382.199 533.847L 382.199 527.551"/>
<path style="stroke:#ff0000; stroke-width:0.5; fill:none" d="M 367.051 601.699L 360.75 601.699"/>
<path style="stroke:#ff0000; stroke-width:0.5; fill:none" d="M 363.898 604.847L 363.898 598.551"/>
<path style="stroke:#ff0000; stroke-width:0.5; fill:none" d="M 247.852 426.199L 241.551 426.199"/>
<path style="stroke:#ff0000; stroke-width:0.5; fill:none" d="M 244.699 429.347L 244.699 423.051"/>
<path style="stroke:#ff0000; stroke-width:0.5; fill:none" d="M 97.051 281.597L 90.75 281.597"/>
<path style="stroke:#ff0000; stroke-width:0.5; fill:none" d="M 93.898 284.75L 93.898 278.449"/>
<path style="stroke:#ff0000; stroke-width:0.5; fill:none" d="M 329.551 488.5L 323.25 488.5"/>
<path style="stroke:#ff0000; stroke-width:0.5; fill:none" d="M 326.398 491.648L 326.398 485.347"/>
<path style="stroke:#ff0000; stroke-width:0.5; fill:none" d="M 303.648 468.699L 297.352 468.699"/>
<path style="stroke:#ff0000; stroke-width:0.5; fill:none" d="M 300.5 471.847L 300.5 465.551"/>
<path style="stroke:#ff0000; stroke-width:0.5; fill:none" d="M 352.148 529L 345.852 529"/>
<path style="stroke:#ff0000; stroke-width:0.5; fill:none" d="M 349 532.148L 349 525.847"/>
<path style="stroke:#ff0000; stroke-width:0.5; fill:none" d="M 371.449 516L 365.148 516"/>
<path style="stroke:#ff0000; stroke-width:0.5; fill:none" d="M 368.301 519.148L 368.301 512.847"/>
<path style="stroke:#ff0000; stroke-width:0.5; fill:none" d="M 385.449 563.898L 379.148 563.898"/>
<path style="stroke:#ff0000; stroke-width:0.5; fill:none" d="M 382.301 567.051L 382.301 560.75"/>
<path style="stroke:#ff0000; stroke-width:0.5; fill:none" d="M 346.449 496.597L 340.148 496.597"/>
<path style="stroke:#ff0000; stroke-width:0.5; fill:none" d="M 343.301 499.75L 343.301 493.449"/>
<path style="stroke:#ff0000; stroke-width:0.5; fill:none" d="M 359.148 527.301L 352.852 527.301"/>
<path style="stroke:#ff0000; stroke-width:0.5; fill:none" d="M 356 530.449L 356 524.148"/>
<path style="stroke:#ff0000; stroke-width:0.5; fill:none" d="M 241.648 11.199L 235.352 11.199"/>
<path style="stroke:#ff0000; stroke-width:0.5; fill:none" d="M 238.5 14.347L 238.5 8.05096"/>
<path style="stroke:#ff0000; stroke-width:0.5; fill:none" d="M 389.949 494.301L 383.648 494.301"/>
<path style="stroke:#ff0000; stroke-width:0.5; fill:none" d="M 386.801 497.449L 386.801 491.148"/>
<path style="stroke:#ff0000; stroke-width:0.5; fill:none" d="M 299.25 529.5L 292.949 529.5"/>
<path style="stroke:#ff0000; stroke-width:0.5; fill:none" d="M 296.102 532.648L 296.102 526.347"/>
<path style="stroke:#ff0000; stroke-width:0.5; fill:none" d="M 202.449 336.801L 196.148 336.801"/>
<path style="stroke:#ff0000; stroke-width:0.5; fill:none" d="M 199.301 339.949L 199.301 333.648"/>
<path style="stroke:#ff0000; stroke-width:0.5; fill:none" d="M 349.25 519.097L 342.949 519.097"/>
<path style="stroke:#ff0000; stroke-width:0.5; fill:none" d="M 346.102 522.25L 346.102 515.949"/>
<path style="stroke:#ff0000; stroke-width:0.5; fill:none" d="M 356.25 542.199L 349.949 542.199"/>
<path style="stroke:#ff0000; stroke-width:0.5; fill:none" d="M 353.102 545.347L 353.102 539.051"/>
<path style="stroke:#ff0000; stroke-width:0.5; fill:none" d="M 405.148 576.699L 398.852 576.699"/>
<path style="stroke:#ff0000; stroke-width:0.5; fill:none" d="M 402 579.847L 402 573.551"/>
<path style="stroke:#ff0000; stroke-width:0.5; fill:none" d="M 367.949 516.801L 361.648 516.801"/>
<path style="stroke:#ff0000; stroke-width:0.5; fill:none" d="M 364.801 519.949L 364.801 513.648"/>
<path style="stroke:#ff0000; stroke-width:0.5; fill:none" d="M 357.852 512.301L 351.551 512.301"/>
<path style="stroke:#ff0000; stroke-width:0.5; fill:none" d="M 354.699 515.449L 354.699 509.148"/>
<path style="stroke:none; fill-rule:evenodd; fill:#000000" d="M 34.3008 145.699L 44.5 145.699L 44.5 144.699L 43.562 144.699C 44.402 144.14 44.801 143.402 44.801 142.383C 44.801 140.457 43.23 139.199 40.816 139.199C 38.461 139.199 37 140.379 37 142.273C 37 143.265 37.363 143.965 38.16 144.5L 34.3008 144.5L 34.3008 145.699zM 38.102 142.496C 38.102 141.222 39.219 140.398 40.941 140.398C 42.582 140.398 43.699 141.25 43.699 142.496C 43.699 143.703 42.598 144.5 40.902 144.5C 39.203 144.5 38.102 143.703 38.102 142.496"/>
<path style="stroke:none; fill-rule:evenodd; fill:#000000" d="M 41.199 131.597C 40.098 131.597 39.438 131.683 38.902 131.894C 37.719 132.367 37 133.484 37 134.851C 37 136.89 38.555 138.203 40.941 138.203C 43.328 138.203 44.801 136.933 44.801 134.89C 44.801 133.219 43.855 132.062 42.273 131.769L 42.273 132.941C 43.211 133.261 43.699 133.918 43.699 134.851C 43.699 135.59 43.367 136.219 42.758 136.609C 42.34 136.887 41.922 136.984 41.199 137L 41.199 131.597zM 40.199 136.992C 38.926 136.894 38.102 136.07 38.102 134.894C 38.102 133.746 38.992 132.863 40.121 132.863C 40.148 132.863 40.176 132.863 40.199 132.879"/>
<path style="stroke:none; fill-rule:evenodd; fill:#000000" d="M 37.199 127.398L 37.199 128.597L 35.148 128.597L 35.148 129.801L 37.199 129.801L 37.199 130.797L 38.199 130.797L 38.199 129.801L 43.656 129.801C 44.387 129.801 44.801 129.289 44.801 128.363C 44.801 128.082 44.773 127.797 44.703 127.398L 43.742 127.398C 43.785 127.551 43.801 127.734 43.801 127.957C 43.801 128.461 43.66 128.597 43.152 128.597L 38.199 128.597L 38.199 127.398"/>
<path style="stroke:none; fill-rule:evenodd; fill:#000000" d="M 43.812 119.609C 43.801 119.734 43.801 119.793 43.801 119.863C 43.801 120.273 43.594 120.5 43.234 120.5L 38.977 120.5C 37.691 120.5 37 121.449 37 123.254C 37 124.316 37.301 125.195 37.84 125.683C 38.211 126.019 38.621 126.16 39.336 126.187L 39.336 125.023C 38.484 124.926 38.102 124.402 38.102 123.32C 38.102 122.281 38.488 121.699 39.18 121.699L 39.484 121.699C 39.969 121.699 40.176 121.988 40.285 122.902C 40.492 124.535 40.547 124.781 40.727 125.226C 41.07 126.07 41.719 126.5 42.66 126.5C 43.973 126.5 44.801 125.578 44.801 124.094C 44.801 123.172 44.484 122.433 43.746 121.605C 44.473 121.523 44.801 121.16 44.801 120.406C 44.801 120.168 44.773 119.984 44.68 119.609L 43.812 119.609zM 42.191 121.699C 42.582 121.699 42.82 121.812 43.141 122.156C 43.574 122.629 43.801 123.195 43.801 123.875C 43.801 124.773 43.367 125.301 42.625 125.301C 41.855 125.301 41.461 124.789 41.281 123.554C 41.113 122.336 41.055 122.09 40.871 121.699"/>
<path style="stroke:none; fill-rule:evenodd; fill:#000000" d="M 39.602 107.898L 39.602 114.699L 40.602 114.699L 40.602 107.898L 39.602 107.898zM 41.898 107.898L 41.898 114.699L 42.898 114.699L 42.898 107.898"/>
<path style="stroke:none; fill-rule:evenodd; fill:#000000" d="M 43.301 96.269L 43.301 101.449C 42.488 101.324 41.973 100.879 41.258 99.672L 40.504 98.2809C 39.75 96.9059 38.727 96.199 37.512 96.199C 36.688 96.199 35.918 96.5309 35.387 97.117C 34.855 97.699 34.602 98.422 34.602 99.351C 34.602 100.601 35.047 101.531 35.883 102.07C 36.41 102.418 37.02 102.57 38.02 102.597L 38.02 101.367C 37.363 101.324 36.965 101.238 36.648 101.07C 36.059 100.75 35.703 100.105 35.703 99.363C 35.703 98.242 36.496 97.3979 37.555 97.3979C 38.336 97.3979 39.004 97.863 39.504 98.746L 40.23 100.035C 41.398 102.109 42.332 102.711 44.504 102.824L 44.504 96.269"/>
<path style="stroke:none; fill-rule:evenodd; fill:#000000" d="M 43 94.3979L 44.5 94.3979L 44.5 92.8979L 43 92.8979L 43 94.3979z"/>
<path style="stroke:none; fill-rule:evenodd; fill:#000000" d="M 43.301 84.668L 43.301 89.847C 42.488 89.722 41.973 89.277 41.258 88.0699L 40.504 86.679C 39.75 85.304 38.727 84.597 37.512 84.597C 36.688 84.597 35.918 84.933 35.387 85.515C 34.855 86.097 34.602 86.8199 34.602 87.75C 34.602 89 35.047 89.929 35.883 90.472C 36.41 90.8199 37.02 90.972 38.02 91L 38.02 89.765C 37.363 89.722 36.965 89.64 36.648 89.472C 36.059 89.1479 35.703 88.504 35.703 87.761C 35.703 86.64 36.496 85.801 37.555 85.801C 38.336 85.801 39.004 86.261 39.504 87.144L 40.23 88.433C 41.398 90.508 42.332 91.1089 44.504 91.222L 44.504 84.668"/>
<path style="stroke:none; fill-rule:evenodd; fill:#000000" d="M 39.281 78.426C 38.672 77.426 38.168 77.097 37.234 77.097C 35.688 77.097 34.602 78.304 34.602 80.051C 34.602 81.7809 35.688 83 37.234 83C 38.156 83 38.656 82.672 39.281 81.687C 39.824 82.832 40.648 83.3979 41.734 83.3979C 43.547 83.3979 44.801 82.019 44.801 80.047C 44.801 78.078 43.547 76.6949 41.75 76.6949C 40.648 76.6949 39.824 77.261 39.281 78.426zM 35.699 80.051C 35.699 78.98 36.312 78.301 37.27 78.301C 38.188 78.301 38.801 78.996 38.801 80.051C 38.801 81.101 38.188 81.801 37.258 81.801C 36.312 81.801 35.699 81.101 35.699 80.051zM 39.801 80.051C 39.801 78.769 40.582 77.8979 41.742 77.8979C 42.918 77.8979 43.699 78.769 43.699 80.078C 43.699 81.328 42.902 82.199 41.742 82.199C 40.582 82.199 39.801 81.328 39.801 80.051"/>
<path style="stroke:#0000ff; stroke-width:0.5; fill:none" d="M 39.801 67.699L 39.801 27.801M 420.301 601.699L 416.699 595.699L 413 589.801L 409.301 583.801L 405.699 577.801L 402 571.898L 398.398 565.898L 394.699 560L 391.102 554L 387.398 548L 383.801 542.097L 380.102 536.097L 376.398 530.097L 372.801 524.199L 369.102 518.199L 365.5 512.199L 361.801 506.301L 358.199 500.301L 354.5 494.301L 350.801 488.398L 347.199 482.398L 343.5 476.5L 339.898 470.5L 336.199 464.5L 332.602 458.597L 328.898 452.597L 325.199 446.597L 321.602 440.699L 317.898 434.699L 314.301 428.699L 310.602 422.801L 307 416.801L 303.301 410.801L 299.699 404.898L 296 398.898L 292.301 392.898L 288.699 387L 285 381L 281.398 375.097L 277.699 369.097L 274.102 363.097L 270.398 357.199L 266.699 351.199L 263.102 345.199L 259.398 339.301L 255.801 333.301L 252.102 327.301L 248.5 321.398L 244.801 315.398L 241.102 309.398L 237.5 303.5L 233.801 297.5L 230.199 291.597L 226.5 285.597L 222.898 279.597L 219.199 273.699L 215.5 267.699L 211.898 261.699L 208.199 255.801L 204.602 249.801L 200.898 243.801L 197.301 237.898L 193.602 231.898L 190 225.898L 186.301 220L 182.602 214L 179 208L 175.301 202.097L 171.699 196.097L 168 190.199L 164.398 184.199L 160.699 178.199L 157 172.301L 153.398 166.301L 149.699 160.301L 146.102 154.398L 142.398 148.398L 138.801 142.398L 135.102 136.5L 131.398 130.5L 127.801 124.5L 124.102 118.597L 120.5 112.597L 116.801 106.699L 113.199 100.699L 109.5 94.699L 105.898 88.801L 102.199 82.801L 98.5 76.801L 94.898 70.8979L 91.199 64.8979L 87.602 58.8979L 83.898 53L 80.301 47L 76.602 41L 72.898 35.097L 69.301 29.097L 65.602 23.097L 62 17.199L 58.301 11.199"/>
<path style="stroke:#000000; stroke-width:1; fill:none" d="M 446.5 635.801L 446.5 11L 26.5 11L 26.5 635.801L 446.5 635.801"/>
</g>
</svg>