<?xml version="1.0" encoding="ISO-8859-1" standalone="yes"?>
<svg xmlns="http://www.w3.org/2000/svg" width="486.5" height="698.699">
  <defs> 
    <marker id="ArrowEnd" viewBox="0 0 10 10" refX="0" refY="5" 
     markerUnits="strokeWidth" 
     markerWidth="4" 
     markerHeight="3" 
     orient="auto"> 
        <path d="M 0 0 L 10 5 L 0 10 z" /> 
    </marker>
    <marker id="ArrowStart" viewBox="0 0 10 10" refX="10" refY="5" 
     markerUnits="strokeWidth" 
     markerWidth="4" 
     markerHeight="3" 
     orient="auto"> 
        <path d="M 10 0 L 0 5 L 10 10 z" /> 
    </marker> </defs>
<g>
<path style="stroke:#000000; stroke-width:1; fill:none" d="M 446.5 635.801L 446.5 629.5M 446.5 11L 446.5 17.301"/>
<path style="stroke:none; fill-rule:evenodd; fill:#000000" d="M 446.801 667.601L 447.801 667.601L 447.801 664.301L 446.801 664.301L 446.801 667.601z"/>
<path style="stroke:none; fill-rule:evenodd; fill:#000000" d="M 444.148 660.097L 451.199 660.097L 451.199 658.898L 441.297 658.898L 441.297 659.699C 442.82 660.125 443.031 660.398 443.27 662.269L 444.148 662.269"/>
<path style="stroke:none; fill-rule:evenodd; fill:#000000" d="M 449.699 654.699L 451.199 654.699L 451.199 653.199L 449.699 653.199L 449.699 654.699z"/>
<path style="stroke:none; fill-rule:evenodd; fill:#000000" d="M 441.301 645.32L 441.301 650.457L 446.68 651.203L 446.68 650.051C 446.027 649.469 445.801 648.984 445.801 648.203C 445.801 646.851 446.695 646 448.141 646C 449.547 646 450.398 646.84 450.398 648.203C 450.398 649.293 449.863 649.961 448.766 650.261L 448.766 651.511C 449.57 651.34 449.961 651.203 450.32 650.906C 451.07 650.344 451.5 649.336 451.5 648.211C 451.5 646.203 450.059 644.801 447.977 644.801C 446.031 644.801 444.699 646.105 444.699 648.015C 444.699 648.719 444.871 649.277 445.262 649.855L 442.5 649.461L 442.5 645.32"/>
<path style="stroke:#000000; stroke-width:1; fill:none" d="M 376.5 635.801L 376.5 629.5M 376.5 11L 376.5 17.301"/>
<path style="stroke:none; fill-rule:evenodd; fill:#000000" d="M 376.801 655.898L 377.801 655.898L 377.801 652.597L 376.801 652.597L 376.801 655.898z"/>
<path style="stroke:none; fill-rule:evenodd; fill:#000000" d="M 374.148 648.398L 381.199 648.398L 381.199 647.199L 371.297 647.199L 371.297 648C 372.82 648.426 373.031 648.699 373.27 650.57L 374.148 650.57"/>
<path style="stroke:#000000; stroke-width:1; fill:none" d="M 306.5 635.801L 306.5 629.5M 306.5 11L 306.5 17.301"/>
<path style="stroke:none; fill-rule:evenodd; fill:#000000" d="M 306.801 667.601L 307.801 667.601L 307.801 664.301L 306.801 664.301L 306.801 667.601z"/>
<path style="stroke:none; fill-rule:evenodd; fill:#000000" d="M 301.301 659.847C 301.301 660.773 301.711 661.613 302.398 662.133C 303.266 662.777 304.586 663.097 306.406 663.097C 309.734 663.097 311.5 661.976 311.5 659.847C 311.5 657.746 309.734 656.597 306.492 656.597C 304.57 656.597 303.293 656.906 302.398 657.566C 301.695 658.082 301.301 658.91 301.301 659.847zM 302.398 659.847C 302.398 658.476 303.738 657.801 306.387 657.801C 309.191 657.801 310.5 658.465 310.5 659.879C 310.5 661.219 309.133 661.898 306.43 661.898C 303.727 661.898 302.398 661.219 302.398 659.847"/>
<path style="stroke:none; fill-rule:evenodd; fill:#000000" d="M 309.699 654.699L 311.199 654.699L 311.199 653.199L 309.699 653.199L 309.699 654.699z"/>
<path style="stroke:none; fill-rule:evenodd; fill:#000000" d="M 301.301 645.32L 301.301 650.457L 306.68 651.203L 306.68 650.051C 306.027 649.469 305.801 648.984 305.801 648.203C 305.801 646.851 306.695 646 308.141 646C 309.547 646 310.398 646.84 310.398 648.203C 310.398 649.293 309.863 649.961 308.766 650.261L 308.766 651.511C 309.57 651.34 309.961 651.203 310.32 650.906C 311.07 650.344 311.5 649.336 311.5 648.211C 311.5 646.203 310.059 644.801 307.977 644.801C 306.031 644.801 304.699 646.105 304.699 648.015C 304.699 648.719 304.871 649.277 305.262 649.855L 302.5 649.461L 302.5 645.32"/>
<path style="stroke:#000000; stroke-width:1; fill:none" d="M 236.5 635.801L 236.5 629.5M 236.5 11L 236.5 17.301"/>
<path style="stroke:none; fill-rule:evenodd; fill:#000000" d="M 231.301 648.148C 231.301 649.074 231.711 649.914 232.398 650.433C 233.266 651.078 234.586 651.398 236.406 651.398C 239.734 651.398 241.5 650.277 241.5 648.148C 241.5 646.047 239.734 644.898 236.492 644.898C 234.57 644.898 233.293 645.207 232.398 645.863C 231.695 646.383 231.301 647.211 231.301 648.148zM 232.398 648.148C 232.398 646.777 233.738 646.097 236.387 646.097C 239.191 646.097 240.5 646.761 240.5 648.179C 240.5 649.519 239.133 650.199 236.43 650.199C 233.727 650.199 232.398 649.519 232.398 648.148"/>
<path style="stroke:#000000; stroke-width:1; fill:none" d="M 166.5 635.801L 166.5 629.5M 166.5 11L 166.5 17.301"/>
<path style="stroke:none; fill-rule:evenodd; fill:#000000" d="M 161.301 659.847C 161.301 660.773 161.711 661.613 162.398 662.133C 163.266 662.777 164.586 663.097 166.406 663.097C 169.734 663.097 171.5 661.976 171.5 659.847C 171.5 657.746 169.734 656.597 166.492 656.597C 164.57 656.597 163.289 656.906 162.398 657.566C 161.695 658.082 161.301 658.91 161.301 659.847zM 162.398 659.847C 162.398 658.476 163.738 657.801 166.387 657.801C 169.191 657.801 170.5 658.465 170.5 659.879C 170.5 661.219 169.133 661.898 166.43 661.898C 163.727 661.898 162.398 661.219 162.398 659.847"/>
<path style="stroke:none; fill-rule:evenodd; fill:#000000" d="M 169.699 654.699L 171.199 654.699L 171.199 653.199L 169.699 653.199L 169.699 654.699z"/>
<path style="stroke:none; fill-rule:evenodd; fill:#000000" d="M 161.301 645.32L 161.301 650.457L 166.68 651.203L 166.68 650.051C 166.027 649.469 165.801 648.984 165.801 648.203C 165.801 646.851 166.695 646 168.141 646C 169.547 646 170.398 646.84 170.398 648.203C 170.398 649.293 169.863 649.961 168.766 650.261L 168.766 651.511C 169.57 651.34 169.961 651.203 170.32 650.906C 171.07 650.344 171.5 649.336 171.5 648.211C 171.5 646.203 170.059 644.801 167.977 644.801C 166.031 644.801 164.699 646.105 164.699 648.015C 164.699 648.719 164.871 649.277 165.262 649.855L 162.5 649.461L 162.5 645.32"/>
<path style="stroke:#000000; stroke-width:1; fill:none" d="M 96.5 635.801L 96.5 629.5M 96.5 11L 96.5 17.301"/>
<path style="stroke:none; fill-rule:evenodd; fill:#000000" d="M 94.148 648.398L 101.199 648.398L 101.199 647.199L 91.297 647.199L 91.297 648C 92.82 648.426 93.031 648.699 93.27 650.57L 94.148 650.57"/>
<path style="stroke:#000000; stroke-width:1; fill:none" d="M 26.5 635.801L 26.5 629.5M 26.5 11L 26.5 17.301"/>
<path style="stroke:none; fill-rule:evenodd; fill:#000000" d="M 24.1484 660.097L 31.1992 660.097L 31.1992 658.898L 21.2969 658.898L 21.2969 659.699C 22.8203 660.125 23.0312 660.398 23.2695 662.269L 24.1484 662.269"/>
<path style="stroke:none; fill-rule:evenodd; fill:#000000" d="M 29.6992 654.699L 31.1992 654.699L 31.1992 653.199L 29.6992 653.199L 29.6992 654.699z"/>
<path style="stroke:none; fill-rule:evenodd; fill:#000000" d="M 21.3008 645.32L 21.3008 650.457L 26.6797 651.203L 26.6797 650.051C 26.0273 649.469 25.8008 648.984 25.8008 648.203C 25.8008 646.851 26.6953 646 28.1406 646C 29.5469 646 30.3984 646.84 30.3984 648.203C 30.3984 649.293 29.8633 649.961 28.7656 650.261L 28.7656 651.511C 29.5703 651.34 29.9609 651.203 30.3203 650.906C 31.0703 650.344 31.5 649.336 31.5 648.211C 31.5 646.203 30.0586 644.801 27.9766 644.801C 26.0312 644.801 24.6992 646.105 24.6992 648.015C 24.6992 648.719 24.8711 649.277 25.2617 649.855L 22.5 649.461L 22.5 645.32"/>
<path style="stroke:#000000; stroke-width:1; fill:none" d="M 446.5 635.801L 440.199 635.801M 26.5 635.801L 32.8008 635.801"/>
<path style="stroke:none; fill-rule:evenodd; fill:#000000" d="M 460.801 647.199L 461.801 647.199L 461.801 643.898L 460.801 643.898L 460.801 647.199z"/>
<path style="stroke:none; fill-rule:evenodd; fill:#000000" d="M 455.301 639.347C 455.301 640.273 455.711 641.113 456.398 641.633C 457.266 642.277 458.586 642.597 460.406 642.597C 463.734 642.597 465.5 641.476 465.5 639.347C 465.5 637.246 463.734 636.097 460.492 636.097C 458.57 636.097 457.289 636.406 456.398 637.066C 455.695 637.582 455.301 638.41 455.301 639.347zM 456.398 639.347C 456.398 637.976 457.738 637.301 460.387 637.301C 463.191 637.301 464.5 637.965 464.5 639.379C 464.5 640.719 463.133 641.398 460.43 641.398C 457.727 641.398 456.398 640.719 456.398 639.347"/>
<path style="stroke:none; fill-rule:evenodd; fill:#000000" d="M 463.699 634.199L 465.199 634.199L 465.199 632.699L 463.699 632.699L 463.699 634.199z"/>
<path style="stroke:none; fill-rule:evenodd; fill:#000000" d="M 460.602 628.406L 460.602 627.715C 460.602 626.32 461.219 625.601 462.41 625.601C 463.656 625.601 464.398 626.383 464.398 627.687C 464.398 629.051 463.738 629.719 462.316 629.801L 462.316 631.051C 463.109 630.996 463.621 630.855 464.066 630.617C 465.016 630.109 465.5 629.129 465.5 627.769C 465.5 625.719 464.289 624.398 462.422 624.398C 461.168 624.398 460.473 624.894 460.066 626.097C 459.703 625.168 459.008 624.699 458.02 624.699C 456.32 624.699 455.301 625.836 455.301 627.73C 455.301 629.734 456.383 630.801 458.48 630.844L 458.48 629.594C 457.895 629.578 457.566 629.519 457.262 629.363C 456.73 629.082 456.402 628.457 456.402 627.676C 456.402 626.57 457.035 625.902 458.07 625.902C 458.758 625.902 459.172 626.16 459.395 626.722C 459.531 627.066 459.586 627.515 459.602 628.406"/>
<path style="stroke:#000000; stroke-width:1; fill:none" d="M 446.5 573.301L 440.199 573.301M 26.5 573.301L 32.8008 573.301"/>
<path style="stroke:none; fill-rule:evenodd; fill:#000000" d="M 460.801 588.601L 461.801 588.601L 461.801 585.301L 460.801 585.301L 460.801 588.601z"/>
<path style="stroke:none; fill-rule:evenodd; fill:#000000" d="M 455.301 580.75C 455.301 581.676 455.711 582.515 456.398 583.031C 457.266 583.676 458.586 584 460.406 584C 463.734 584 465.5 582.879 465.5 580.75C 465.5 578.648 463.734 577.5 460.492 577.5C 458.57 577.5 457.289 577.804 456.398 578.465C 455.695 578.984 455.301 579.808 455.301 580.75zM 456.398 580.75C 456.398 579.379 457.738 578.699 460.387 578.699C 463.191 578.699 464.5 579.363 464.5 580.777C 464.5 582.121 463.133 582.797 460.43 582.797C 457.727 582.797 456.398 582.121 456.398 580.75"/>
<path style="stroke:none; fill-rule:evenodd; fill:#000000" d="M 463.699 575.597L 465.199 575.597L 465.199 574.097L 463.699 574.097L 463.699 575.597z"/>
<path style="stroke:none; fill-rule:evenodd; fill:#000000" d="M 464 565.867L 464 571.047C 463.188 570.922 462.672 570.476 461.961 569.269L 461.203 567.883C 460.449 566.508 459.43 565.797 458.211 565.797C 457.387 565.797 456.617 566.133 456.086 566.715C 455.555 567.301 455.301 568.019 455.301 568.953C 455.301 570.199 455.746 571.129 456.582 571.672C 457.109 572.019 457.719 572.172 458.719 572.199L 458.719 570.965C 458.062 570.926 457.664 570.84 457.348 570.672C 456.758 570.351 456.402 569.707 456.402 568.961C 456.402 567.84 457.199 567 458.258 567C 459.035 567 459.703 567.461 460.203 568.344L 460.93 569.633C 462.098 571.707 463.031 572.312 465.203 572.422L 465.203 565.867"/>
<path style="stroke:none; fill-rule:evenodd; fill:#000000" d="M 455.301 558.418L 455.301 563.558L 460.68 564.301L 460.68 563.148C 460.027 562.566 459.801 562.086 459.801 561.304C 459.801 559.953 460.695 559.097 462.141 559.097C 463.547 559.097 464.398 559.937 464.398 561.301C 464.398 562.394 463.863 563.062 462.766 563.359L 462.766 564.609C 463.57 564.441 463.961 564.301 464.32 564.008C 465.07 563.445 465.5 562.433 465.5 561.312C 465.5 559.304 464.059 557.898 461.977 557.898C 460.031 557.898 458.699 559.207 458.699 561.113C 458.699 561.816 458.871 562.379 459.262 562.953L 456.5 562.562L 456.5 558.422"/>
<path style="stroke:#000000; stroke-width:1; fill:none" d="M 446.5 510.801L 440.199 510.801M 26.5 510.801L 32.8008 510.801"/>
<path style="stroke:none; fill-rule:evenodd; fill:#000000" d="M 460.801 522.199L 461.801 522.199L 461.801 518.898L 460.801 518.898L 460.801 522.199z"/>
<path style="stroke:none; fill-rule:evenodd; fill:#000000" d="M 455.301 514.347C 455.301 515.273 455.711 516.113 456.398 516.633C 457.266 517.277 458.586 517.597 460.406 517.597C 463.734 517.597 465.5 516.476 465.5 514.347C 465.5 512.246 463.734 511.097 460.492 511.097C 458.57 511.097 457.289 511.406 456.398 512.066C 455.695 512.582 455.301 513.41 455.301 514.347zM 456.398 514.347C 456.398 512.976 457.738 512.301 460.387 512.301C 463.191 512.301 464.5 512.965 464.5 514.379C 464.5 515.719 463.133 516.398 460.43 516.398C 457.727 516.398 456.398 515.719 456.398 514.347"/>
<path style="stroke:none; fill-rule:evenodd; fill:#000000" d="M 463.699 509.199L 465.199 509.199L 465.199 507.699L 463.699 507.699L 463.699 509.199z"/>
<path style="stroke:none; fill-rule:evenodd; fill:#000000" d="M 464 499.469L 464 504.648C 463.188 504.523 462.672 504.078 461.961 502.871L 461.203 501.48C 460.449 500.105 459.43 499.398 458.211 499.398C 457.387 499.398 456.617 499.734 456.086 500.316C 455.555 500.898 455.301 501.621 455.301 502.551C 455.301 503.801 455.746 504.73 456.582 505.273C 457.109 505.621 457.719 505.773 458.719 505.801L 458.719 504.566C 458.062 504.523 457.664 504.441 457.348 504.273C 456.758 503.949 456.402 503.304 456.402 502.562C 456.402 501.441 457.199 500.597 458.258 500.597C 459.035 500.597 459.703 501.062 460.203 501.945L 460.93 503.234C 462.098 505.308 463.031 505.91 465.203 506.023L 465.203 499.469"/>
<path style="stroke:#000000; stroke-width:1; fill:none" d="M 446.5 448.398L 440.199 448.398M 26.5 448.398L 32.8008 448.398"/>
<path style="stroke:none; fill-rule:evenodd; fill:#000000" d="M 460.801 463.699L 461.801 463.699L 461.801 460.398L 460.801 460.398L 460.801 463.699z"/>
<path style="stroke:none; fill-rule:evenodd; fill:#000000" d="M 455.301 455.847C 455.301 456.773 455.711 457.613 456.398 458.133C 457.266 458.777 458.586 459.097 460.406 459.097C 463.734 459.097 465.5 457.976 465.5 455.847C 465.5 453.746 463.734 452.597 460.492 452.597C 458.57 452.597 457.289 452.906 456.398 453.566C 455.695 454.082 455.301 454.91 455.301 455.847zM 456.398 455.847C 456.398 454.476 457.738 453.801 460.387 453.801C 463.191 453.801 464.5 454.465 464.5 455.879C 464.5 457.219 463.133 457.898 460.43 457.898C 457.727 457.898 456.398 457.219 456.398 455.847"/>
<path style="stroke:none; fill-rule:evenodd; fill:#000000" d="M 463.699 450.699L 465.199 450.699L 465.199 449.199L 463.699 449.199L 463.699 450.699z"/>
<path style="stroke:none; fill-rule:evenodd; fill:#000000" d="M 458.148 444.398L 465.199 444.398L 465.199 443.199L 455.297 443.199L 455.297 444C 456.82 444.426 457.031 444.699 457.27 446.57L 458.148 446.57"/>
<path style="stroke:none; fill-rule:evenodd; fill:#000000" d="M 455.301 433.519L 455.301 438.656L 460.68 439.402L 460.68 438.25C 460.027 437.668 459.801 437.183 459.801 436.402C 459.801 435.054 460.695 434.199 462.141 434.199C 463.547 434.199 464.398 435.039 464.398 436.402C 464.398 437.496 463.863 438.164 462.766 438.461L 462.766 439.711C 463.57 439.543 463.961 439.402 464.32 439.105C 465.07 438.547 465.5 437.535 465.5 436.41C 465.5 434.402 464.059 433 461.977 433C 460.031 433 458.699 434.304 458.699 436.215C 458.699 436.918 458.871 437.476 459.262 438.054L 456.5 437.66L 456.5 433.519"/>
<path style="stroke:#000000; stroke-width:1; fill:none" d="M 446.5 385.898L 440.199 385.898M 26.5 385.898L 32.8008 385.898"/>
<path style="stroke:none; fill-rule:evenodd; fill:#000000" d="M 460.801 397.301L 461.801 397.301L 461.801 394L 460.801 394L 460.801 397.301z"/>
<path style="stroke:none; fill-rule:evenodd; fill:#000000" d="M 455.301 389.449C 455.301 390.375 455.711 391.215 456.398 391.73C 457.266 392.379 458.586 392.699 460.406 392.699C 463.734 392.699 465.5 391.578 465.5 389.449C 465.5 387.347 463.734 386.199 460.492 386.199C 458.57 386.199 457.289 386.508 456.398 387.164C 455.695 387.683 455.301 388.511 455.301 389.449zM 456.398 389.449C 456.398 388.078 457.738 387.398 460.387 387.398C 463.191 387.398 464.5 388.062 464.5 389.476C 464.5 390.82 463.133 391.5 460.43 391.5C 457.727 391.5 456.398 390.82 456.398 389.449"/>
<path style="stroke:none; fill-rule:evenodd; fill:#000000" d="M 463.699 384.301L 465.199 384.301L 465.199 382.801L 463.699 382.801L 463.699 384.301z"/>
<path style="stroke:none; fill-rule:evenodd; fill:#000000" d="M 458.148 378L 465.199 378L 465.199 376.801L 455.297 376.801L 455.297 377.597C 456.82 378.023 457.031 378.301 457.27 380.172L 458.148 380.172"/>
<path style="stroke:#000000; stroke-width:1; fill:none" d="M 446.5 323.398L 440.199 323.398M 26.5 323.398L 32.8008 323.398"/>
<path style="stroke:none; fill-rule:evenodd; fill:#000000" d="M 460.801 338.699L 461.801 338.699L 461.801 335.398L 460.801 335.398L 460.801 338.699z"/>
<path style="stroke:none; fill-rule:evenodd; fill:#000000" d="M 455.301 330.847C 455.301 331.773 455.711 332.613 456.398 333.133C 457.266 333.777 458.586 334.097 460.406 334.097C 463.734 334.097 465.5 332.976 465.5 330.847C 465.5 328.746 463.734 327.597 460.492 327.597C 458.57 327.597 457.289 327.906 456.398 328.566C 455.695 329.082 455.301 329.91 455.301 330.847zM 456.398 330.847C 456.398 329.476 457.738 328.801 460.387 328.801C 463.191 328.801 464.5 329.465 464.5 330.879C 464.5 332.219 463.133 332.898 460.43 332.898C 457.727 332.898 456.398 332.219 456.398 330.847"/>
<path style="stroke:none; fill-rule:evenodd; fill:#000000" d="M 463.699 325.699L 465.199 325.699L 465.199 324.199L 463.699 324.199L 463.699 325.699z"/>
<path style="stroke:none; fill-rule:evenodd; fill:#000000" d="M 455.301 319.148C 455.301 320.074 455.711 320.914 456.398 321.433C 457.266 322.078 458.586 322.398 460.406 322.398C 463.734 322.398 465.5 321.277 465.5 319.148C 465.5 317.047 463.734 315.898 460.492 315.898C 458.57 315.898 457.289 316.207 456.398 316.863C 455.695 317.383 455.301 318.211 455.301 319.148zM 456.398 319.148C 456.398 317.777 457.738 317.097 460.387 317.097C 463.191 317.097 464.5 317.761 464.5 319.179C 464.5 320.519 463.133 321.199 460.43 321.199C 457.727 321.199 456.398 320.519 456.398 319.148"/>
<path style="stroke:none; fill-rule:evenodd; fill:#000000" d="M 455.301 308.519L 455.301 313.656L 460.68 314.402L 460.68 313.25C 460.027 312.668 459.801 312.183 459.801 311.402C 459.801 310.054 460.695 309.199 462.141 309.199C 463.547 309.199 464.398 310.039 464.398 311.402C 464.398 312.496 463.863 313.164 462.766 313.461L 462.766 314.711C 463.57 314.543 463.961 314.402 464.32 314.105C 465.07 313.547 465.5 312.535 465.5 311.41C 465.5 309.402 464.059 308 461.977 308C 460.031 308 458.699 309.304 458.699 311.215C 458.699 311.918 458.871 312.476 459.262 313.054L 456.5 312.66L 456.5 308.519"/>
<path style="stroke:#000000; stroke-width:1; fill:none" d="M 446.5 260.898L 440.199 260.898M 26.5 260.898L 32.8008 260.898"/>
<path style="stroke:none; fill-rule:evenodd; fill:#000000" d="M 455.301 258.949C 455.301 259.875 455.711 260.715 456.398 261.23C 457.266 261.879 458.586 262.199 460.406 262.199C 463.734 262.199 465.5 261.078 465.5 258.949C 465.5 256.847 463.734 255.699 460.492 255.699C 458.57 255.699 457.289 256.008 456.398 256.664C 455.695 257.183 455.301 258.011 455.301 258.949zM 456.398 258.949C 456.398 257.578 457.738 256.898 460.387 256.898C 463.191 256.898 464.5 257.562 464.5 258.976C 464.5 260.32 463.133 261 460.43 261C 457.727 261 456.398 260.32 456.398 258.949"/>
<path style="stroke:#000000; stroke-width:1; fill:none" d="M 446.5 198.398L 440.199 198.398M 26.5 198.398L 32.8008 198.398"/>
<path style="stroke:none; fill-rule:evenodd; fill:#000000" d="M 455.301 206.25C 455.301 207.176 455.711 208.015 456.398 208.531C 457.266 209.176 458.586 209.5 460.406 209.5C 463.734 209.5 465.5 208.379 465.5 206.25C 465.5 204.148 463.734 203 460.492 203C 458.57 203 457.289 203.304 456.398 203.965C 455.695 204.484 455.301 205.308 455.301 206.25zM 456.398 206.25C 456.398 204.879 457.738 204.199 460.387 204.199C 463.191 204.199 464.5 204.863 464.5 206.277C 464.5 207.621 463.133 208.297 460.43 208.297C 457.727 208.297 456.398 207.621 456.398 206.25"/>
<path style="stroke:none; fill-rule:evenodd; fill:#000000" d="M 463.699 201.097L 465.199 201.097L 465.199 199.597L 463.699 199.597L 463.699 201.097z"/>
<path style="stroke:none; fill-rule:evenodd; fill:#000000" d="M 455.301 194.551C 455.301 195.472 455.711 196.312 456.398 196.832C 457.266 197.476 458.586 197.797 460.406 197.797C 463.734 197.797 465.5 196.679 465.5 194.547C 465.5 192.445 463.734 191.297 460.492 191.297C 458.57 191.297 457.289 191.605 456.398 192.265C 455.695 192.781 455.301 193.609 455.301 194.547L 455.301 194.551zM 456.398 194.551C 456.398 193.179 457.738 192.5 460.387 192.5C 463.191 192.5 464.5 193.164 464.5 194.578C 464.5 195.922 463.133 196.597 460.43 196.597C 457.727 196.597 456.398 195.918 456.398 194.551"/>
<path style="stroke:none; fill-rule:evenodd; fill:#000000" d="M 455.301 183.918L 455.301 189.058L 460.68 189.801L 460.68 188.648C 460.027 188.066 459.801 187.586 459.801 186.804C 459.801 185.453 460.695 184.597 462.141 184.597C 463.547 184.597 464.398 185.437 464.398 186.801C 464.398 187.894 463.863 188.562 462.766 188.859L 462.766 190.109C 463.57 189.941 463.961 189.801 464.32 189.508C 465.07 188.945 465.5 187.933 465.5 186.812C 465.5 184.804 464.059 183.398 461.977 183.398C 460.031 183.398 458.699 184.707 458.699 186.617C 458.699 187.316 458.871 187.879 459.262 188.453L 456.5 188.062L 456.5 183.922"/>
<path style="stroke:#000000; stroke-width:1; fill:none" d="M 446.5 136L 440.199 136M 26.5 136L 32.8008 136"/>
<path style="stroke:none; fill-rule:evenodd; fill:#000000" d="M 455.301 139.949C 455.301 140.875 455.711 141.715 456.398 142.23C 457.266 142.879 458.586 143.199 460.406 143.199C 463.734 143.199 465.5 142.078 465.5 139.949C 465.5 137.847 463.734 136.699 460.492 136.699C 458.57 136.699 457.289 137.008 456.398 137.664C 455.695 138.183 455.301 139.011 455.301 139.949zM 456.398 139.949C 456.398 138.578 457.738 137.898 460.387 137.898C 463.191 137.898 464.5 138.562 464.5 139.976C 464.5 141.32 463.133 142 460.43 142C 457.727 142 456.398 141.32 456.398 139.949"/>
<path style="stroke:none; fill-rule:evenodd; fill:#000000" d="M 463.699 134.801L 465.199 134.801L 465.199 133.297L 463.699 133.297L 463.699 134.801z"/>
<path style="stroke:none; fill-rule:evenodd; fill:#000000" d="M 458.148 128.5L 465.199 128.5L 465.199 127.301L 455.297 127.301L 455.297 128.097C 456.82 128.523 457.031 128.801 457.27 130.672L 458.148 130.672"/>
<path style="stroke:#000000; stroke-width:1; fill:none" d="M 446.5 73.5L 440.199 73.5M 26.5 73.5L 32.8008 73.5"/>
<path style="stroke:none; fill-rule:evenodd; fill:#000000" d="M 455.301 81.347C 455.301 82.2729 455.711 83.113 456.398 83.633C 457.266 84.277 458.586 84.597 460.406 84.597C 463.734 84.597 465.5 83.476 465.5 81.347C 465.5 79.246 463.734 78.097 460.492 78.097C 458.57 78.097 457.289 78.4059 456.398 79.066C 455.695 79.582 455.301 80.41 455.301 81.347zM 456.398 81.347C 456.398 79.976 457.738 79.301 460.387 79.301C 463.191 79.301 464.5 79.965 464.5 81.379C 464.5 82.719 463.133 83.3979 460.43 83.3979C 457.727 83.3979 456.398 82.719 456.398 81.347"/>
<path style="stroke:none; fill-rule:evenodd; fill:#000000" d="M 463.699 76.199L 465.199 76.199L 465.199 74.699L 463.699 74.699L 463.699 76.199z"/>
<path style="stroke:none; fill-rule:evenodd; fill:#000000" d="M 458.148 69.8979L 465.199 69.8979L 465.199 68.699L 455.297 68.699L 455.297 69.5C 456.82 69.926 457.031 70.199 457.27 72.0699L 458.148 72.0699"/>
<path style="stroke:none; fill-rule:evenodd; fill:#000000" d="M 455.301 59.019L 455.301 64.1559L 460.68 64.902L 460.68 63.75C 460.027 63.168 459.801 62.683 459.801 61.902C 459.801 60.554 460.695 59.699 462.141 59.699C 463.547 59.699 464.398 60.539 464.398 61.902C 464.398 62.996 463.863 63.664 462.766 63.961L 462.766 65.211C 463.57 65.043 463.961 64.902 464.32 64.605C 465.07 64.047 465.5 63.035 465.5 61.91C 465.5 59.902 464.059 58.5 461.977 58.5C 460.031 58.5 458.699 59.804 458.699 61.715C 458.699 62.418 458.871 62.976 459.262 63.554L 456.5 63.16L 456.5 59.019"/>
<path style="stroke:#000000; stroke-width:1; fill:none" d="M 446.5 11L 440.199 11M 26.5 11L 32.8008 11"/>
<path style="stroke:none; fill-rule:evenodd; fill:#000000" d="M 455.301 14.949C 455.301 15.875 455.711 16.715 456.398 17.23C 457.266 17.879 458.586 18.199 460.406 18.199C 463.734 18.199 465.5 17.078 465.5 14.949C 465.5 12.847 463.734 11.699 460.492 11.699C 458.57 11.699 457.289 12.008 456.398 12.664C 455.695 13.183 455.301 14.011 455.301 14.949zM 456.398 14.949C 456.398 13.578 457.738 12.8979 460.387 12.8979C 463.191 12.8979 464.5 13.562 464.5 14.976C 464.5 16.3199 463.133 17 460.43 17C 457.727 17 456.398 16.3199 456.398 14.949"/>
<path style="stroke:none; fill-rule:evenodd; fill:#000000" d="M 463.699 9.80096L 465.199 9.80096L 465.199 8.297L 463.699 8.297L 463.699 9.80096z"/>
<path style="stroke:none; fill-rule:evenodd; fill:#000000" d="M 464 0.065979L 464 5.25C 463.188 5.125 462.672 4.67896 461.961 3.46899L 461.203 2.08197C 460.449 0.70697 459.43 0 458.211 0C 457.387 0 456.617 0.33197 456.086 0.917969C 455.555 1.5 455.301 2.22198 455.301 3.15198C 455.301 4.39795 455.746 5.33197 456.582 5.87097C 457.109 6.21899 457.719 6.37097 458.719 6.39795L 458.719 5.16797C 458.062 5.125 457.664 5.039 457.348 4.87097C 456.758 4.55096 456.402 3.90594 456.402 3.164C 456.402 2.04297 457.199 1.19897 458.258 1.19897C 459.035 1.19897 459.703 1.664 460.203 2.547L 460.93 3.836C 462.098 5.90594 463.031 6.51099 465.203 6.625L 465.203 0.065979"/>
<path style="stroke:#000000; stroke-width:1; fill:none" d="M 446.5 635.801L 446.5 11L 26.5 11L 26.5 635.801L 446.5 635.801"/>
<path style="stroke:none; fill-rule:evenodd; fill:#000000" d="M 281.398 695.789L 281.398 688.5L 280.199 688.5L 280.199 693.086C 280.199 694.148 279.449 695 278.523 695C 277.68 695 277.199 694.469 277.199 693.535L 277.199 688.5L 276 688.5L 276 693.086C 276 694.148 275.227 695 274.27 695C 273.41 695 272.902 694.453 272.902 693.535L 272.902 688.5L 271.699 688.5L 271.699 693.965C 271.699 695.273 272.457 696 273.824 696C 274.805 696 275.391 695.715 276.078 694.926C 276.512 695.676 277.098 696 278.051 696C 279.027 696 279.672 695.636 280.301 694.758L 280.301 695.789"/>
<path style="stroke:none; fill-rule:evenodd; fill:#000000" d="M 262.801 692.898L 266.102 692.898L 266.102 691.898L 262.801 691.898L 262.801 692.898z"/>
<path style="stroke:none; fill-rule:evenodd; fill:#000000" d="M 257.602 698.699L 257.602 688.5L 256.602 688.5L 256.602 689.437C 256.031 688.597 255.277 688.199 254.242 688.199C 252.281 688.199 251 689.765 251 692.179C 251 694.539 252.203 696 254.133 696C 255.141 696 255.855 695.633 256.398 694.84L 256.398 698.699L 257.602 698.699zM 254.348 694.898C 253.043 694.898 252.199 693.781 252.199 692.058C 252.199 690.418 253.07 689.301 254.348 689.301C 255.586 689.301 256.398 690.402 256.398 692.097C 256.398 693.793 255.586 694.898 254.348 694.898"/>
<path style="stroke:none; fill-rule:evenodd; fill:#000000" d="M 243.301 691.801C 243.301 692.902 243.383 693.562 243.594 694.097C 244.07 695.281 245.184 696 246.555 696C 248.59 696 249.902 694.445 249.902 692.058C 249.902 689.672 248.637 688.199 246.59 688.199C 244.922 688.199 243.766 689.14 243.473 690.726L 244.645 690.726C 244.965 689.789 245.621 689.301 246.555 689.301C 247.293 689.301 247.918 689.633 248.309 690.242C 248.59 690.66 248.688 691.078 248.699 691.797L 243.301 691.801zM 248.695 692.801C 248.598 694.07 247.77 694.898 246.594 694.898C 245.445 694.898 244.562 694.008 244.562 692.879C 244.562 692.851 244.562 692.824 244.578 692.797"/>
<path style="stroke:none; fill-rule:evenodd; fill:#000000" d="M 239.102 695.801L 240.301 695.801L 240.301 697.851L 241.5 697.851L 241.5 695.801L 242.5 695.801L 242.5 694.801L 241.5 694.801L 241.5 689.344C 241.5 688.613 240.988 688.199 240.066 688.199C 239.781 688.199 239.496 688.226 239.098 688.297L 239.098 689.254C 239.254 689.215 239.434 689.199 239.656 689.199C 240.16 689.199 240.301 689.336 240.301 689.847L 240.301 694.801L 239.102 694.801"/>
<path style="stroke:none; fill-rule:evenodd; fill:#000000" d="M 231.309 689.183C 231.438 689.199 231.492 689.199 231.562 689.199C 231.973 689.199 232.199 689.406 232.199 689.765L 232.199 694.023C 232.199 695.308 233.152 696 234.953 696C 236.016 696 236.898 695.695 237.387 695.16C 237.723 694.789 237.859 694.379 237.891 693.664L 236.727 693.664C 236.629 694.515 236.102 694.898 235.02 694.898C 233.98 694.898 233.398 694.511 233.398 693.82L 233.398 693.515C 233.398 693.031 233.691 692.824 234.602 692.715C 236.234 692.508 236.484 692.453 236.926 692.273C 237.77 691.929 238.199 691.277 238.199 690.34C 238.199 689.027 237.277 688.199 235.797 688.199C 234.875 688.199 234.133 688.511 233.309 689.254C 233.227 688.527 232.863 688.199 232.105 688.199C 231.867 688.199 231.688 688.226 231.309 688.32L 231.309 689.183zM 233.398 690.808C 233.398 690.418 233.512 690.179 233.859 689.855C 234.328 689.422 234.895 689.199 235.574 689.199C 236.473 689.199 237 689.633 237 690.375C 237 691.144 236.488 691.539 235.258 691.719C 234.039 691.886 233.789 691.941 233.398 692.125"/>
<path style="stroke:none; fill-rule:evenodd; fill:#000000" d="M 228.762 698.699L 228.691 697.133L 230.176 697.664L 230.441 696.84L 228.93 696.422L 229.895 695.176L 229.195 694.672L 228.312 695.972L 227.445 694.672L 226.73 695.176L 227.711 696.422L 226.199 696.84L 226.465 697.664L 227.949 697.133L 227.879 698.699"/>
<path style="stroke:none; fill-rule:evenodd; fill:#000000" d="M 219.008 693.371C 219.062 694.058 219.219 694.508 219.5 694.898C 220.008 695.59 220.895 696 221.922 696C 223.906 696 225.199 694.441 225.199 692.027C 225.199 689.683 223.934 688.199 221.934 688.199C 220.176 688.199 219.062 689.238 218.922 691.019L 220.109 691.019C 220.309 689.871 220.918 689.297 221.922 689.297C 223.223 689.297 224 690.328 224 692.027C 224 693.828 223.234 694.898 221.949 694.898C 220.961 694.898 220.336 694.347 220.195 693.371"/>
<path style="stroke:none; fill-rule:evenodd; fill:#000000" d="M 206.801 692.898L 210.102 692.898L 210.102 691.898L 206.801 691.898L 206.801 692.898z"/>
<path style="stroke:none; fill-rule:evenodd; fill:#000000" d="M 195.754 688.5L 192.898 697.054L 192.898 688.5L 191.699 688.5L 191.699 698.699L 193.488 698.699L 196.426 689.816L 199.414 698.699L 201.199 698.699L 201.199 688.5L 200 688.5L 200 697.054L 197.121 688.5"/>
<path style="stroke:none; fill-rule:evenodd; fill:#000000" d="M 478.988 347.398C 476.973 347.414 475.801 348.773 475.801 351.105C 475.801 353.324 476.953 354.699 478.812 354.699C 480.066 354.699 480.855 354.043 481.207 352.703L 481.883 350.172C 482.219 348.887 482.742 348.301 483.543 348.301C 484.094 348.301 484.656 348.594 484.965 349.027C 485.246 349.437 485.402 350.082 485.402 350.906C 485.402 352.015 485.133 352.773 484.539 353.261C 484.086 353.64 483.59 353.808 482.953 353.801L 482.953 355C 483.887 354.984 484.496 354.804 485.055 354.398C 486 353.703 486.5 352.527 486.5 350.98C 486.5 349.765 486.223 348.773 485.719 348.117C 485.172 347.433 484.262 347 483.379 347C 482.121 347 481.195 347.781 480.82 349.168L 480.133 351.722C 479.797 352.953 479.406 353.398 478.621 353.398C 477.586 353.398 476.898 352.496 476.898 351.133C 476.898 349.519 477.648 348.613 478.988 348.601"/>
<path style="stroke:none; fill-rule:evenodd; fill:#000000" d="M 478.898 342.797L 478.898 344L 476.848 344L 476.848 345.199L 478.898 345.199L 478.898 346.199L 479.898 346.199L 479.898 345.199L 485.355 345.199C 486.086 345.199 486.5 344.687 486.5 343.765C 486.5 343.48 486.473 343.195 486.402 342.797L 485.445 342.797C 485.484 342.953 485.5 343.133 485.5 343.355C 485.5 343.859 485.363 344 484.852 344L 479.898 344L 479.898 342.797"/>
<path style="stroke:none; fill-rule:evenodd; fill:#000000" d="M 478.91 341.5L 486.199 341.5L 486.199 340.301L 482.402 340.301C 481.355 340.301 480.668 340.039 480.266 339.496C 480 339.14 479.914 338.797 479.898 338.008L 478.742 338.008C 478.715 338.199 478.699 338.293 478.699 338.445C 478.699 339.183 479.148 339.742 480.23 340.398L 478.91 340.398"/>
<path style="stroke:none; fill-rule:evenodd; fill:#000000" d="M 482.898 330.597C 481.797 330.597 481.137 330.683 480.602 330.894C 479.418 331.367 478.699 332.484 478.699 333.851C 478.699 335.89 480.254 337.203 482.641 337.203C 485.027 337.203 486.5 335.933 486.5 333.89C 486.5 332.219 485.559 331.062 483.973 330.769L 483.973 331.941C 484.91 332.261 485.398 332.918 485.398 333.851C 485.398 334.59 485.066 335.219 484.457 335.609C 484.039 335.887 483.621 335.984 482.902 336L 482.898 330.597zM 481.898 335.992C 480.629 335.894 479.801 335.07 479.801 333.894C 479.801 332.746 480.691 331.863 481.82 331.863C 481.848 331.863 481.875 331.863 481.902 331.879"/>
<path style="stroke:none; fill-rule:evenodd; fill:#000000" d="M 478.898 326.398L 478.898 327.597L 476.848 327.597L 476.848 328.801L 478.898 328.801L 478.898 329.797L 479.898 329.797L 479.898 328.801L 485.355 328.801C 486.086 328.801 486.5 328.289 486.5 327.363C 486.5 327.082 486.473 326.797 486.402 326.398L 485.445 326.398C 485.484 326.551 485.5 326.734 485.5 326.957C 485.5 327.461 485.363 327.597 484.852 327.597L 479.898 327.597L 479.898 326.398"/>
<path style="stroke:none; fill-rule:evenodd; fill:#000000" d="M 481.328 319.504C 480.641 319.562 480.191 319.719 479.801 320C 479.109 320.508 478.699 321.39 478.699 322.422C 478.699 324.402 480.258 325.699 482.672 325.699C 485.016 325.699 486.5 324.433 486.5 322.433C 486.5 320.676 485.461 319.562 483.68 319.422L 483.68 320.609C 484.828 320.808 485.402 321.418 485.402 322.422C 485.402 323.722 484.371 324.5 482.672 324.5C 480.871 324.5 479.801 323.734 479.801 322.449C 479.801 321.457 480.352 320.836 481.328 320.695"/>
<path style="stroke:none; fill-rule:evenodd; fill:#000000" d="M 476 318.097L 486.199 318.097L 486.199 316.898L 482.172 316.898C 480.68 316.898 479.699 316.137 479.699 314.969C 479.699 314.601 479.828 314.234 480.035 313.965C 480.273 313.637 480.621 313.5 481.141 313.5L 486.199 313.5L 486.199 312.301L 480.691 312.301C 479.469 312.301 478.699 313.172 478.699 314.578C 478.699 315.601 479.012 316.222 479.871 316.898L 476 316.898"/>
<path style="stroke:none; fill-rule:evenodd; fill:#000000" d="M 481.801 306.699L 482.801 306.699L 482.801 303.398L 481.801 303.398L 481.801 306.699z"/>
<path style="stroke:none; fill-rule:evenodd; fill:#000000" d="M 479.148 295.301L 486.199 295.301L 486.199 294.097L 476.297 294.097L 476.297 294.898C 477.82 295.324 478.031 295.601 478.27 297.472L 479.148 297.472"/>
<path style="stroke:none; fill-rule:evenodd; fill:#000000" d="M 5.5 369L 5.5 364.164L 4.3984 364.164L 4.3984 369L 1.1016 369L 1.1016 363.496L 0 363.496L 0 370.301L 10.1992 370.301L 10.1992 369"/>
<path style="stroke:none; fill-rule:evenodd; fill:#000000" d="M 2.8984 361L 2.8984 362.199L 10.1992 362.199L 10.1992 361L 2.8984 361zM 0 361L 0 362.199L 1.4648 362.199L 1.4648 361"/>
<path style="stroke:none; fill-rule:evenodd; fill:#000000" d="M 2.8984 356.398L 2.8984 357.597L 0.847702 357.597L 0.847702 358.801L 2.8984 358.801L 2.8984 359.797L 3.8984 359.797L 3.8984 358.801L 9.3555 358.801C 10.0859 358.801 10.5 358.289 10.5 357.363C 10.5 357.082 10.4727 356.797 10.4023 356.398L 9.4453 356.398C 9.4844 356.551 9.5 356.734 9.5 356.957C 9.5 357.461 9.3633 357.597 8.8516 357.597L 3.8984 357.597L 3.8984 356.398"/>
<path style="stroke:none; fill-rule:evenodd; fill:#000000" d="M 2.8984 352.5L 2.8984 353.699L 0.847702 353.699L 0.847702 354.898L 2.8984 354.898L 2.8984 355.898L 3.8984 355.898L 3.8984 354.898L 9.3555 354.898C 10.0859 354.898 10.5 354.387 10.5 353.465C 10.5 353.179 10.4727 352.894 10.4023 352.5L 9.4453 352.5C 9.4844 352.652 9.5 352.836 9.5 353.058C 9.5 353.558 9.3633 353.699 8.8516 353.699L 3.8984 353.699L 3.8984 352.5"/>
<path style="stroke:none; fill-rule:evenodd; fill:#000000" d="M 2.8984 350.097L 2.8984 351.301L 10.1992 351.301L 10.1992 350.097L 2.8984 350.097zM 0 350.097L 0 351.301L 1.4648 351.301L 1.4648 350.097"/>
<path style="stroke:none; fill-rule:evenodd; fill:#000000" d="M 2.9102 348.097L 10.1992 348.097L 10.1992 346.898L 6.1719 346.898C 4.6797 346.898 3.6992 346.137 3.6992 344.969C 3.6992 344.07 4.2617 343.5 5.1367 343.5L 10.1992 343.5L 10.1992 342.301L 4.6914 342.301C 3.4805 342.301 2.6992 343.199 2.6992 344.594C 2.6992 345.672 3.1172 346.363 4.1328 347L 2.9102 347"/>
<path style="stroke:none; fill-rule:evenodd; fill:#000000" d="M 2.8984 335.5L 3.9297 335.5C 3.0938 336.094 2.6992 336.812 2.6992 337.754C 2.6992 339.629 4.3125 340.898 6.6719 340.898C 7.8633 340.898 8.8359 340.582 9.5273 339.984C 10.1406 339.441 10.5 338.668 10.5 337.902C 10.5 336.988 10.1133 336.351 9.207 335.699L 9.5898 335.699C 10.5898 335.699 11.1992 335.824 11.6094 336.113C 12.0469 336.418 12.3008 337.015 12.3008 337.719C 12.3008 338.246 12.1562 338.715 11.8984 339.035C 11.6836 339.297 11.4844 339.41 11.0391 339.476L 11.0391 340.652C 12.457 340.527 13.3008 339.457 13.3008 337.75C 13.3008 336.664 12.9492 335.734 12.3594 335.261C 11.6875 334.707 10.7617 334.496 9.0391 334.496L 2.8984 334.496L 2.8984 335.5zM 3.8008 337.687C 3.8008 336.437 4.8438 335.699 6.6406 335.699C 8.3594 335.699 9.4023 336.449 9.4023 337.672C 9.4023 338.933 8.3438 339.699 6.6016 339.699C 4.8711 339.699 3.8008 338.922 3.8008 337.687"/>
<path style="stroke:none; fill-rule:evenodd; fill:#000000" d="M 2.8984 326L 2.8984 327.199L 1.7461 327.199C 1.2539 327.199 1 326.922 1 326.398C 1 326.304 1 326.261 1 326L 0.0663986 326C 0.0156021 326.265 0 326.422 0 326.664C 0 327.75 0.613297 328.398 1.6602 328.398L 2.8984 328.398L 2.8984 329.398L 3.8984 329.398L 3.8984 328.398L 10.1992 328.398L 10.1992 327.199L 3.8984 327.199L 3.8984 326"/>
<path style="stroke:none; fill-rule:evenodd; fill:#000000" d="M 2.6992 321.914C 2.6992 323.961 4.1562 325.199 6.6016 325.199C 9.043 325.199 10.5 323.972 10.5 321.898C 10.5 319.851 9.043 318.597 6.6562 318.597C 4.1445 318.597 2.6992 319.808 2.6992 321.914zM 3.8008 321.898C 3.8008 320.582 4.8594 319.801 6.6406 319.801C 8.3281 319.801 9.4023 320.609 9.4023 321.898C 9.4023 323.203 8.3438 324 6.6016 324C 4.8711 324 3.8008 323.203 3.8008 321.898"/>
<path style="stroke:none; fill-rule:evenodd; fill:#000000" d="M 2.9102 317L 10.1992 317L 10.1992 315.801L 6.4023 315.801C 5.3555 315.801 4.668 315.539 4.2656 314.996C 4 314.64 3.9141 314.297 3.8984 313.508L 2.7422 313.508C 2.7148 313.699 2.6992 313.793 2.6992 313.945C 2.6992 314.683 3.1484 315.242 4.2305 315.898L 2.9102 315.898"/>
<path style="stroke:none; fill-rule:evenodd; fill:#000000" d="M 9.5156 301.91C 9.5 302.035 9.5 302.094 9.5 302.164C 9.5 302.57 9.293 302.801 8.9336 302.801L 4.6758 302.801C 3.3906 302.801 2.6992 303.75 2.6992 305.554C 2.6992 306.613 3.0039 307.496 3.5391 307.984C 3.9102 308.32 4.3203 308.461 5.0352 308.488L 5.0352 307.324C 4.1836 307.226 3.8008 306.703 3.8008 305.621C 3.8008 304.582 4.1875 304 4.8789 304L 5.1836 304C 5.668 304 5.875 304.289 5.9844 305.203C 6.1914 306.836 6.2461 307.082 6.4258 307.527C 6.7695 308.371 7.4219 308.801 8.3594 308.801C 9.6719 308.801 10.5 307.879 10.5 306.394C 10.5 305.472 10.1875 304.73 9.4453 303.906C 10.1719 303.824 10.5 303.461 10.5 302.707C 10.5 302.469 10.4727 302.285 10.3789 301.91L 9.5156 301.91zM 7.8906 304C 8.2812 304 8.5195 304.109 8.8438 304.457C 9.2773 304.929 9.5 305.496 9.5 306.172C 9.5 307.074 9.0664 307.597 8.3242 307.597C 7.5547 307.597 7.1602 307.086 6.9805 305.855C 6.8125 304.637 6.7578 304.387 6.5742 304"/>
<path style="stroke:none; fill-rule:evenodd; fill:#000000" d="M 0 300.699L 10.1992 300.699L 10.1992 299.5L 0 299.5L 0 300.699z"/>
<path style="stroke:none; fill-rule:evenodd; fill:#000000" d="M 13.2539 297.699L 13.2539 296.5L 9.3984 296.5C 10.1602 295.894 10.5 295.219 10.5 294.285C 10.5 292.426 8.9883 291.199 6.6719 291.199C 4.2266 291.199 2.6992 292.383 2.6992 294.301C 2.6992 295.277 3.1445 296.062 4.0117 296.597L 2.9102 296.597L 2.9102 297.699L 13.2539 297.699zM 3.8008 294.492C 3.8008 293.226 4.918 292.398 6.6406 292.398C 8.2812 292.398 9.3984 293.238 9.3984 294.492C 9.3984 295.703 8.2969 296.5 6.6016 296.5C 4.9062 296.5 3.8008 295.703 3.8008 294.492"/>
<path style="stroke:none; fill-rule:evenodd; fill:#000000" d="M 0 289.699L 10.1992 289.699L 10.1992 288.5L 6.1719 288.5C 4.6797 288.5 3.6992 287.738 3.6992 286.57C 3.6992 286.203 3.8281 285.836 4.0352 285.562C 4.2734 285.234 4.6211 285.101 5.1406 285.101L 10.1992 285.101L 10.1992 283.898L 4.6914 283.898C 3.4688 283.898 2.6992 284.769 2.6992 286.179C 2.6992 287.203 3.0117 287.82 3.8711 288.5L 0 288.5"/>
<path style="stroke:none; fill-rule:evenodd; fill:#000000" d="M 9.5156 275.41C 9.5 275.535 9.5 275.594 9.5 275.664C 9.5 276.07 9.293 276.301 8.9336 276.301L 4.6758 276.301C 3.3906 276.301 2.6992 277.25 2.6992 279.054C 2.6992 280.113 3.0039 280.996 3.5391 281.484C 3.9102 281.82 4.3203 281.961 5.0352 281.988L 5.0352 280.824C 4.1836 280.726 3.8008 280.203 3.8008 279.121C 3.8008 278.082 4.1875 277.5 4.8789 277.5L 5.1836 277.5C 5.668 277.5 5.875 277.789 5.9844 278.703C 6.1914 280.336 6.2461 280.582 6.4258 281.027C 6.7695 281.871 7.4219 282.301 8.3594 282.301C 9.6719 282.301 10.5 281.379 10.5 279.894C 10.5 278.972 10.1875 278.23 9.4453 277.406C 10.1719 277.324 10.5 276.961 10.5 276.207C 10.5 275.969 10.4727 275.785 10.3789 275.41L 9.5156 275.41zM 7.8906 277.5C 8.2812 277.5 8.5195 277.609 8.8438 277.957C 9.2773 278.429 9.5 278.996 9.5 279.672C 9.5 280.574 9.0664 281.097 8.3242 281.097C 7.5547 281.097 7.1602 280.586 6.9805 279.355C 6.8125 278.137 6.7578 277.887 6.5742 277.5"/>
<path style="stroke:#ff0000; stroke-width:0.5; fill:none" d="M 33.8008 379.301L 30.3984 379.301M 33.8008 382.398L 33.8008 376.199M 30.3984 382.398L 30.3984 376.199M 238.199 299.097L 236.801 299.097M 238.199 302.199L 238.199 296M 236.801 302.199L 236.801 296M 157.398 358.801L 156.699 358.801M 157.398 361.898L 157.398 355.699M 156.699 361.898L 156.699 355.699M 112.898 585.5L 111.301 585.5M 112.898 588.597L 112.898 582.398M 111.301 588.597L 111.301 582.398M 52.398 502.5L 49.801 502.5M 52.398 505.597L 52.398 499.398M 49.801 505.597L 49.801 499.398M 191.301 388.801L 189.102 388.801M 191.301 391.898L 191.301 385.699M 189.102 391.898L 189.102 385.699M 190.801 285.597L 186.102 285.597M 190.801 288.699L 190.801 282.5M 186.102 288.699L 186.102 282.5M 190.898 373.301L 188.602 373.301M 190.898 376.398L 190.898 370.199M 188.602 376.398L 188.602 370.199M 246.199 201.898L 244.398 201.898M 246.199 205L 246.199 198.801M 244.398 205L 244.398 198.801M 227.699 203.301L 226.602 203.301M 227.699 206.398L 227.699 200.199M 226.602 206.398L 226.602 200.199M 220.5 274.898L 219.301 274.898M 220.5 278L 220.5 271.801M 219.301 278L 219.301 271.801M 183.801 492.301L 181.301 492.301M 183.801 495.398L 183.801 489.199M 181.301 495.398L 181.301 489.199M 433.801 367.398L 430.199 367.398M 433.801 370.5L 433.801 364.301M 430.199 370.5L 430.199 364.301M 284.301 191.898L 283.199 191.898M 284.301 195L 284.301 188.801M 283.199 195L 283.199 188.801M 115.5 473L 111.898 473M 115.5 476.097L 115.5 469.898M 111.898 476.097L 111.898 469.898M 158.5 340.097L 155.801 340.097M 158.5 343.199L 158.5 337M 155.801 343.199L 155.801 337M 237.898 56.8979L 236.699 56.8979M 237.898 60L 237.898 53.801M 236.699 60L 236.699 53.801M 187.898 364.301L 184.699 364.301M 187.898 367.398L 187.898 361.199"/>
<path style="stroke:#ff0000; stroke-width:0.5; fill:none" d="M 184.699 367.398L 184.699 361.199M 205.398 468.5L 203 468.5M 205.398 471.597L 205.398 465.398M 203 471.597L 203 465.398M 192.398 553.898L 191.199 553.898M 192.398 557L 192.398 550.801M 191.199 557L 191.199 550.801M 218.801 303.699L 217.102 303.699M 218.801 306.801L 218.801 300.597M 217.102 306.801L 217.102 300.597"/>
<path style="stroke:#ff0000; stroke-width:0.5; fill:none" d="M 35.25 379.301L 28.9492 379.301"/>
<path style="stroke:#ff0000; stroke-width:0.5; fill:none" d="M 32.1016 382.449L 32.1016 376.148"/>
<path style="stroke:#ff0000; stroke-width:0.5; fill:none" d="M 240.648 299.097L 234.352 299.097"/>
<path style="stroke:#ff0000; stroke-width:0.5; fill:none" d="M 237.5 302.25L 237.5 295.949"/>
<path style="stroke:#ff0000; stroke-width:0.5; fill:none" d="M 160.148 358.801L 153.852 358.801"/>
<path style="stroke:#ff0000; stroke-width:0.5; fill:none" d="M 157 361.949L 157 355.648"/>
<path style="stroke:#ff0000; stroke-width:0.5; fill:none" d="M 115.25 585.5L 108.949 585.5"/>
<path style="stroke:#ff0000; stroke-width:0.5; fill:none" d="M 112.102 588.648L 112.102 582.347"/>
<path style="stroke:#ff0000; stroke-width:0.5; fill:none" d="M 54.25 502.5L 47.949 502.5"/>
<path style="stroke:#ff0000; stroke-width:0.5; fill:none" d="M 51.102 505.648L 51.102 499.347"/>
<path style="stroke:#ff0000; stroke-width:0.5; fill:none" d="M 193.352 388.801L 187.051 388.801"/>
<path style="stroke:#ff0000; stroke-width:0.5; fill:none" d="M 190.199 391.949L 190.199 385.648"/>
<path style="stroke:#ff0000; stroke-width:0.5; fill:none" d="M 191.648 285.597L 185.352 285.597"/>
<path style="stroke:#ff0000; stroke-width:0.5; fill:none" d="M 188.5 288.75L 188.5 282.449"/>
<path style="stroke:#ff0000; stroke-width:0.5; fill:none" d="M 192.852 373.301L 186.551 373.301"/>
<path style="stroke:#ff0000; stroke-width:0.5; fill:none" d="M 189.699 376.449L 189.699 370.148"/>
<path style="stroke:#ff0000; stroke-width:0.5; fill:none" d="M 248.449 201.898L 242.148 201.898"/>
<path style="stroke:#ff0000; stroke-width:0.5; fill:none" d="M 245.301 205.051L 245.301 198.75"/>
<path style="stroke:#ff0000; stroke-width:0.5; fill:none" d="M 230.25 203.301L 223.949 203.301"/>
<path style="stroke:#ff0000; stroke-width:0.5; fill:none" d="M 227.102 206.449L 227.102 200.148"/>
<path style="stroke:#ff0000; stroke-width:0.5; fill:none" d="M 223.051 274.898L 216.75 274.898"/>
<path style="stroke:#ff0000; stroke-width:0.5; fill:none" d="M 219.898 278.051L 219.898 271.75"/>
<path style="stroke:#ff0000; stroke-width:0.5; fill:none" d="M 185.75 492.301L 179.449 492.301"/>
<path style="stroke:#ff0000; stroke-width:0.5; fill:none" d="M 182.602 495.449L 182.602 489.148"/>
<path style="stroke:#ff0000; stroke-width:0.5; fill:none" d="M 435.148 367.398L 428.852 367.398"/>
<path style="stroke:#ff0000; stroke-width:0.5; fill:none" d="M 432 370.551L 432 364.25"/>
<path style="stroke:#ff0000; stroke-width:0.5; fill:none" d="M 286.949 191.898L 280.648 191.898"/>
<path style="stroke:#ff0000; stroke-width:0.5; fill:none" d="M 283.801 195.051L 283.801 188.75"/>
<path style="stroke:#ff0000; stroke-width:0.5; fill:none" d="M 116.852 473L 110.551 473"/>
<path style="stroke:#ff0000; stroke-width:0.5; fill:none" d="M 113.699 476.148L 113.699 469.847"/>
<path style="stroke:#ff0000; stroke-width:0.5; fill:none" d="M 160.25 340.097L 153.949 340.097"/>
<path style="stroke:#ff0000; stroke-width:0.5; fill:none" d="M 157.102 343.25L 157.102 336.949"/>
<path style="stroke:#ff0000; stroke-width:0.5; fill:none" d="M 240.449 56.8979L 234.148 56.8979"/>
<path style="stroke:#ff0000; stroke-width:0.5; fill:none" d="M 237.301 60.051L 237.301 53.75"/>
<path style="stroke:#ff0000; stroke-width:0.5; fill:none" d="M 189.449 364.301L 183.148 364.301"/>
<path style="stroke:#ff0000; stroke-width:0.5; fill:none" d="M 186.301 367.449L 186.301 361.148"/>
<path style="stroke:#ff0000; stroke-width:0.5; fill:none" d="M 207.352 468.5L 201.051 468.5"/>
<path style="stroke:#ff0000; stroke-width:0.5; fill:none" d="M 204.199 471.648L 204.199 465.347"/>
<path style="stroke:#ff0000; stroke-width:0.5; fill:none" d="M 194.949 553.898L 188.648 553.898"/>
<path style="stroke:#ff0000; stroke-width:0.5; fill:none" d="M 191.801 557.051L 191.801 550.75"/>
<path style="stroke:#ff0000; stroke-width:0.5; fill:none" d="M 221.051 303.699L 214.75 303.699"/>
<path style="stroke:#ff0000; stroke-width:0.5; fill:none" d="M 217.898 306.847L 217.898 300.551"/>
<path style="stroke:none; fill-rule:evenodd; fill:#000000" d="M 43.812 150.711C 43.801 150.836 43.801 150.894 43.801 150.965C 43.801 151.371 43.594 151.597 43.234 151.597L 38.977 151.597C 37.691 151.597 37 152.551 37 154.351C 37 155.414 37.301 156.297 37.84 156.785C 38.211 157.121 38.621 157.261 39.336 157.289L 39.336 156.125C 38.484 156.027 38.102 155.5 38.102 154.422C 38.102 153.383 38.488 152.797 39.18 152.797L 39.484 152.797C 39.969 152.797 40.176 153.09 40.285 154.004C 40.492 155.633 40.547 155.883 40.727 156.328C 41.07 157.172 41.719 157.597 42.66 157.597C 43.973 157.597 44.801 156.676 44.801 155.195C 44.801 154.273 44.484 153.531 43.746 152.707C 44.473 152.625 44.801 152.261 44.801 151.504C 44.801 151.265 44.773 151.086 44.68 150.707L 43.812 150.711zM 42.191 152.801C 42.582 152.801 42.82 152.91 43.141 153.258C 43.574 153.726 43.801 154.297 43.801 154.972C 43.801 155.875 43.367 156.398 42.625 156.398C 41.855 156.398 41.461 155.887 41.281 154.656C 41.113 153.437 41.055 153.187 40.871 152.801"/>
<path style="stroke:none; fill-rule:evenodd; fill:#000000" d="M 34.3008 149.5L 44.5 149.5L 44.5 148.297L 34.3008 148.297L 34.3008 149.5z"/>
<path style="stroke:none; fill-rule:evenodd; fill:#000000" d="M 47.551 146.5L 47.551 145.301L 43.699 145.301C 44.461 144.695 44.801 144.019 44.801 143.082C 44.801 141.226 43.289 140 40.969 140C 38.527 140 37 141.183 37 143.097C 37 144.078 37.445 144.863 38.312 145.398L 37.211 145.398L 37.211 146.5L 47.551 146.5zM 38.102 143.293C 38.102 142.027 39.219 141.199 40.941 141.199C 42.582 141.199 43.699 142.039 43.699 143.293C 43.699 144.504 42.598 145.301 40.902 145.301C 39.203 145.301 38.102 144.5 38.102 143.293"/>
<path style="stroke:none; fill-rule:evenodd; fill:#000000" d="M 34.3008 138.5L 44.5 138.5L 44.5 137.301L 40.469 137.301C 38.977 137.301 38 136.539 38 135.371C 38 135.004 38.129 134.637 38.336 134.363C 38.574 134.035 38.922 133.898 39.438 133.898L 44.5 133.898L 44.5 132.699L 38.992 132.699C 37.77 132.699 37 133.57 37 134.98C 37 136 37.312 136.621 38.172 137.301L 34.3008 137.301"/>
<path style="stroke:none; fill-rule:evenodd; fill:#000000" d="M 43.812 124.211C 43.801 124.336 43.801 124.394 43.801 124.465C 43.801 124.871 43.594 125.097 43.234 125.097L 38.977 125.097C 37.691 125.097 37 126.051 37 127.851C 37 128.914 37.301 129.797 37.84 130.285C 38.211 130.621 38.621 130.761 39.336 130.789L 39.336 129.625C 38.484 129.527 38.102 129 38.102 127.922C 38.102 126.883 38.488 126.297 39.18 126.297L 39.484 126.297C 39.969 126.297 40.176 126.59 40.285 127.504C 40.492 129.133 40.547 129.383 40.727 129.828C 41.07 130.672 41.719 131.097 42.66 131.097C 43.973 131.097 44.801 130.176 44.801 128.695C 44.801 127.773 44.484 127.031 43.746 126.207C 44.473 126.125 44.801 125.761 44.801 125.004C 44.801 124.765 44.773 124.586 44.68 124.207L 43.812 124.211zM 42.191 126.301C 42.582 126.301 42.82 126.41 43.141 126.758C 43.574 127.226 43.801 127.797 43.801 128.472C 43.801 129.375 43.367 129.898 42.625 129.898C 41.855 129.898 41.461 129.387 41.281 128.156C 41.113 126.937 41.055 126.687 40.871 126.301"/>
<path style="stroke:none; fill-rule:evenodd; fill:#000000" d="M 39.602 112.597L 39.602 119.398L 40.602 119.398L 40.602 112.597L 39.602 112.597zM 41.898 112.597L 41.898 119.398L 42.898 119.398L 42.898 112.597"/>
<path style="stroke:none; fill-rule:evenodd; fill:#000000" d="M 40.102 107.301L 41.102 107.301L 41.102 104L 40.102 104L 40.102 107.301z"/>
<path style="stroke:none; fill-rule:evenodd; fill:#000000" d="M 37.445 99.699L 44.5 99.699L 44.5 98.5L 34.598 98.5L 34.598 99.297C 36.121 99.726 36.328 100 36.566 101.871L 37.449 101.871"/>
<path style="stroke:none; fill-rule:evenodd; fill:#000000" d="M 43 94.3979L 44.5 94.3979L 44.5 92.8979L 43 92.8979L 43 94.3979z"/>
<path style="stroke:none; fill-rule:evenodd; fill:#000000" d="M 43.301 84.668L 43.301 89.847C 42.488 89.722 41.973 89.277 41.258 88.0699L 40.504 86.679C 39.75 85.304 38.727 84.597 37.512 84.597C 36.688 84.597 35.918 84.933 35.387 85.515C 34.855 86.097 34.602 86.8199 34.602 87.75C 34.602 89 35.047 89.929 35.883 90.472C 36.41 90.8199 37.02 90.972 38.02 91L 38.02 89.765C 37.363 89.722 36.965 89.64 36.648 89.472C 36.059 89.1479 35.703 88.504 35.703 87.761C 35.703 86.64 36.496 85.801 37.555 85.801C 38.336 85.801 39.004 86.261 39.504 87.144L 40.23 88.433C 41.398 90.508 42.332 91.1089 44.504 91.222L 44.504 84.668"/>
<path style="stroke:none; fill-rule:evenodd; fill:#000000" d="M 42.102 79.301L 44.5 79.301L 44.5 78.097L 42.102 78.097L 42.102 76.621L 41 76.621L 41 78.097L 34.602 78.097L 34.602 79.008L 40.805 83.508L 42.102 83.508L 42.102 79.301zM 41 79.301L 41 82.429L 36.676 79.301"/>
<path style="stroke:#0000ff; stroke-width:0.5; fill:none" d="M 39.801 67.699L 39.801 27.801M 191.398 585.5L 192.199 580.097L 192.898 574.801L 193.602 569.5L 194.398 564.097L 195.102 558.801L 195.898 553.398L 196.602 548.097L 197.301 542.801L 198.102 537.398L 198.801 532.097L 199.602 526.699L 200.301 521.398L 201.102 516.097L 201.801 510.699L 202.5 505.398L 203.301 500.097L 204 494.699L 204.801 489.398L 205.5 484L 206.199 478.699L 207 473.398L 207.699 468L 208.5 462.699L 209.199 457.301L 210 452L 210.699 446.699L 211.398 441.301L 212.199 436L 212.898 430.597L 213.699 425.301L 214.398 420L 215.102 414.597L 215.898 409.301L 216.602 404L 217.398 398.597L 218.102 393.301L 218.898 387.898L 219.602 382.597L 220.301 377.301L 221.102 371.898L 221.801 366.597L 222.602 361.199L 223.301 355.898L 224 350.597L 224.801 345.199L 225.5 339.898L 226.301 334.597L 227 329.199L 227.801 323.898L 228.5 318.5L 229.199 313.199L 230 307.898L 230.699 302.5L 231.5 297.199L 232.199 291.801L 232.898 286.5L 233.699 281.199L 234.398 275.801L 235.199 270.5L 235.898 265.097L 236.699 259.801L 237.398 254.5L 238.102 249.097L 238.898 243.801L 239.602 238.5L 240.398 233.097L 241.102 227.801L 241.801 222.398L 242.602 217.097L 243.301 211.801L 244.102 206.398L 244.801 201.097L 245.602 195.699L 246.301 190.398L 247 185.097L 247.801 179.699L 248.5 174.398L 249.301 169.097L 250 163.699L 250.699 158.398L 251.5 153L 252.199 147.699L 253 142.398L 253.699 137L 254.5 131.699L 255.199 126.301L 255.898 121L 256.699 115.699L 257.398 110.301L 258.199 105L 258.898 99.699L 259.602 94.301L 260.398 89L 261.102 83.597L 261.898 78.301L 262.602 73L 263.398 67.597L 264.102 62.301L 264.801 56.8979"/>
<path style="stroke:#000000; stroke-width:1; fill:none" d="M 446.5 635.801L 446.5 11L 26.5 11L 26.5 635.801L 446.5 635.801"/>
</g>
</svg>