<?xml version="1.0" encoding="ISO-8859-1" standalone="yes"?>
<svg xmlns="http://www.w3.org/2000/svg" width="486.5" height="708.402">
  <defs> 
    <marker id="ArrowEnd" viewBox="0 0 10 10" refX="0" refY="5" 
     markerUnits="strokeWidth" 
     markerWidth="4" 
     markerHeight="3" 
     orient="auto"> 
        <path d="M 0 0 L 10 5 L 0 10 z" /> 
    </marker>
    <marker id="ArrowStart" viewBox="0 0 10 10" refX="10" refY="5" 
     markerUnits="strokeWidth" 
     markerWidth="4" 
     markerHeight="3" 
     orient="auto"> 
        <path d="M 10 0 L 0 5 L 10 10 z" /> 
    </marker> </defs>
<g>
<path style="stroke:#000000; stroke-width:1; fill:none" d="M 446.5 653.902L 446.5 647.601M 446.5 20.703L 446.5 27.004"/>
<path style="stroke:none; fill-rule:evenodd; fill:#000000" d="M 444.148 674.3L 451.199 674.3L 451.199 673.101L 441.297 673.101L 441.297 673.902C 442.82 674.328 443.031 674.601 443.27 676.472L 444.148 676.472"/>
<path style="stroke:none; fill-rule:evenodd; fill:#000000" d="M 444.148 666.504L 451.199 666.504L 451.199 665.3L 441.297 665.3L 441.297 666.101C 442.82 666.527 443.031 666.804 443.27 668.675L 444.148 668.675"/>
<path style="stroke:#000000; stroke-width:1; fill:none" d="M 386.5 653.902L 386.5 647.601M 386.5 20.703L 386.5 27.004"/>
<path style="stroke:none; fill-rule:evenodd; fill:#000000" d="M 384.148 674.3L 391.199 674.3L 391.199 673.101L 381.297 673.101L 381.297 673.902C 382.82 674.328 383.031 674.601 383.27 676.472L 384.148 676.472"/>
<path style="stroke:none; fill-rule:evenodd; fill:#000000" d="M 390 663.07L 390 668.25C 389.188 668.125 388.672 667.679 387.961 666.472L 387.203 665.086C 386.449 663.711 385.43 663 384.211 663C 383.387 663 382.617 663.336 382.086 663.918C 381.555 664.504 381.301 665.222 381.301 666.156C 381.301 667.402 381.746 668.332 382.582 668.875C 383.109 669.222 383.719 669.375 384.719 669.402L 384.719 668.168C 384.062 668.129 383.664 668.043 383.348 667.875C 382.758 667.554 382.402 666.91 382.402 666.164C 382.402 665.043 383.199 664.203 384.258 664.203C 385.035 664.203 385.703 664.664 386.203 665.547L 386.93 666.836C 388.098 668.91 389.031 669.515 391.203 669.625L 391.203 663.07"/>
<path style="stroke:#000000; stroke-width:1; fill:none" d="M 326.5 653.902L 326.5 647.601M 326.5 20.703L 326.5 27.004"/>
<path style="stroke:none; fill-rule:evenodd; fill:#000000" d="M 324.148 674.3L 331.199 674.3L 331.199 673.101L 321.297 673.101L 321.297 673.902C 322.82 674.328 323.031 674.601 323.27 676.472L 324.148 676.472"/>
<path style="stroke:none; fill-rule:evenodd; fill:#000000" d="M 326.602 667.007L 326.602 666.32C 326.602 664.922 327.219 664.203 328.41 664.203C 329.656 664.203 330.398 664.984 330.398 666.289C 330.398 667.652 329.738 668.32 328.316 668.406L 328.316 669.656C 329.109 669.597 329.621 669.457 330.066 669.218C 331.016 668.714 331.5 667.73 331.5 666.371C 331.5 664.324 330.289 663.004 328.422 663.004C 327.168 663.004 326.473 663.5 326.066 664.699C 325.703 663.769 325.008 663.304 324.02 663.304C 322.32 663.304 321.301 664.437 321.301 666.332C 321.301 668.336 322.383 669.402 324.48 669.445L 324.48 668.195C 323.895 668.179 323.566 668.125 323.262 667.968C 322.73 667.683 322.402 667.058 322.402 666.281C 322.402 665.172 323.035 664.504 324.07 664.504C 324.758 664.504 325.172 664.761 325.395 665.324C 325.531 665.672 325.586 666.117 325.602 667.007"/>
<path style="stroke:#000000; stroke-width:1; fill:none" d="M 266.5 653.902L 266.5 647.601M 266.5 20.703L 266.5 27.004"/>
<path style="stroke:none; fill-rule:evenodd; fill:#000000" d="M 264.148 674.3L 271.199 674.3L 271.199 673.101L 261.297 673.101L 261.297 673.902C 262.82 674.328 263.031 674.601 263.27 676.472L 264.148 676.472"/>
<path style="stroke:none; fill-rule:evenodd; fill:#000000" d="M 268.801 665.504L 271.199 665.504L 271.199 664.3L 268.801 664.3L 268.801 662.824L 267.699 662.824L 267.699 664.3L 261.301 664.3L 261.301 665.211L 267.508 669.711L 268.801 669.711L 268.801 665.504zM 267.699 665.504L 267.699 668.632L 263.375 665.504"/>
<path style="stroke:#000000; stroke-width:1; fill:none" d="M 206.5 653.902L 206.5 647.601M 206.5 20.703L 206.5 27.004"/>
<path style="stroke:none; fill-rule:evenodd; fill:#000000" d="M 204.148 674.3L 211.199 674.3L 211.199 673.101L 201.297 673.101L 201.297 673.902C 202.82 674.328 203.031 674.601 203.27 676.472L 204.148 676.472"/>
<path style="stroke:none; fill-rule:evenodd; fill:#000000" d="M 201.301 663.422L 201.301 668.558L 206.68 669.304L 206.68 668.152C 206.027 667.57 205.801 667.086 205.801 666.304C 205.801 664.957 206.695 664.101 208.141 664.101C 209.547 664.101 210.398 664.941 210.398 666.304C 210.398 667.398 209.863 668.066 208.766 668.363L 208.766 669.613C 209.57 669.445 209.961 669.304 210.32 669.007C 211.07 668.449 211.5 667.437 211.5 666.312C 211.5 664.308 210.059 662.902 207.977 662.902C 206.031 662.902 204.699 664.211 204.699 666.117C 204.699 666.82 204.871 667.382 205.262 667.957L 202.5 667.562L 202.5 663.422"/>
<path style="stroke:#000000; stroke-width:1; fill:none" d="M 146.5 653.902L 146.5 647.601M 146.5 20.703L 146.5 27.004"/>
<path style="stroke:none; fill-rule:evenodd; fill:#000000" d="M 144.148 674.3L 151.199 674.3L 151.199 673.101L 141.297 673.101L 141.297 673.902C 142.82 674.328 143.031 674.601 143.27 676.472L 144.148 676.472"/>
<path style="stroke:none; fill-rule:evenodd; fill:#000000" d="M 143.898 663.129C 142.27 663.367 141.301 664.433 141.301 665.945C 141.301 667.039 141.832 668.015 142.711 668.605C 143.672 669.222 144.883 669.504 146.68 669.504C 148.336 669.504 149.395 669.25 150.273 668.66C 151.066 668.125 151.5 667.257 151.5 666.16C 151.5 664.265 150.098 662.902 148.152 662.902C 146.305 662.902 145 664.179 145 665.988C 145 666.98 145.379 667.761 146.102 668.3C 143.723 668.289 142.402 667.496 142.402 666.062C 142.402 665.183 142.949 664.574 143.902 664.379L 143.898 663.129zM 146.102 666.074C 146.102 664.859 146.926 664.101 148.25 664.101C 149.492 664.101 150.402 664.961 150.402 666.113C 150.402 667.285 149.453 668.168 148.18 668.168C 146.953 668.168 146.102 667.312 146.102 666.07"/>
<path style="stroke:#000000; stroke-width:1; fill:none" d="M 86.5 653.902L 86.5 647.601M 86.5 20.703L 86.5 27.004"/>
<path style="stroke:none; fill-rule:evenodd; fill:#000000" d="M 84.148 674.3L 91.199 674.3L 91.199 673.101L 81.297 673.101L 81.297 673.902C 82.82 674.328 83.031 674.601 83.27 676.472L 84.148 676.472"/>
<path style="stroke:none; fill-rule:evenodd; fill:#000000" d="M 81.301 662.8L 81.301 669.406L 82.5 669.406L 82.5 664.07C 85.871 666.425 87.941 667.386 91.199 668.125L 91.199 666.812C 88.031 666.269 85.309 665.031 82.336 662.804"/>
<path style="stroke:#000000; stroke-width:1; fill:none" d="M 26.5 653.902L 26.5 647.601M 26.5 20.703L 26.5 27.004"/>
<path style="stroke:none; fill-rule:evenodd; fill:#000000" d="M 24.1484 674.3L 31.1992 674.3L 31.1992 673.101L 21.2969 673.101L 21.2969 673.902C 22.8203 674.328 23.0312 674.601 23.2695 676.472L 24.1484 676.472"/>
<path style="stroke:none; fill-rule:evenodd; fill:#000000" d="M 25.9844 664.629C 25.3711 663.629 24.8672 663.3 23.9336 663.3C 22.3906 663.3 21.3008 664.507 21.3008 666.254C 21.3008 667.984 22.3906 669.203 23.9336 669.203C 24.8555 669.203 25.3555 668.875 25.9844 667.89C 26.5273 669.035 27.3477 669.601 28.4336 669.601C 30.2461 669.601 31.5 668.222 31.5 666.25C 31.5 664.281 30.2461 662.898 28.4492 662.898C 27.3477 662.898 26.5273 663.464 25.9844 664.629zM 22.3984 666.254C 22.3984 665.183 23.0117 664.504 23.9727 664.504C 24.8867 664.504 25.5 665.199 25.5 666.254C 25.5 667.304 24.8867 668.004 23.957 668.004C 23.0117 668.004 22.3984 667.304 22.3984 666.254zM 26.5 666.254C 26.5 664.972 27.2812 664.101 28.4414 664.101C 29.6172 664.101 30.3984 664.972 30.3984 666.281C 30.3984 667.531 29.6016 668.402 28.4414 668.402C 27.2812 668.402 26.5 667.531 26.5 666.254"/>
<path style="stroke:#000000; stroke-width:1; fill:none" d="M 446.5 653.902L 440.199 653.902M 26.5 653.902L 32.8008 653.902"/>
<path style="stroke:none; fill-rule:evenodd; fill:#000000" d="M 458.148 663.902L 465.199 663.902L 465.199 662.703L 455.297 662.703L 455.297 663.5C 456.82 663.929 457.031 664.203 457.27 666.074L 458.148 666.074"/>
<path style="stroke:none; fill-rule:evenodd; fill:#000000" d="M 455.301 655.851C 455.301 656.777 455.711 657.617 456.398 658.136C 457.266 658.781 458.586 659.101 460.406 659.101C 463.734 659.101 465.5 657.98 465.5 655.851C 465.5 653.75 463.734 652.601 460.492 652.601C 458.57 652.601 457.289 652.91 456.398 653.566C 455.695 654.086 455.301 654.914 455.301 655.851zM 456.398 655.851C 456.398 654.48 457.738 653.8 460.387 653.8C 463.191 653.8 464.5 654.464 464.5 655.882C 464.5 657.222 463.133 657.902 460.43 657.902C 457.727 657.902 456.398 657.222 456.398 655.851"/>
<path style="stroke:none; fill-rule:evenodd; fill:#000000" d="M 455.301 648.152C 455.301 649.078 455.711 649.918 456.398 650.433C 457.266 651.082 458.586 651.402 460.406 651.402C 463.734 651.402 465.5 650.281 465.5 648.152C 465.5 646.05 463.734 644.902 460.492 644.902C 458.57 644.902 457.289 645.211 456.398 645.867C 455.695 646.386 455.301 647.214 455.301 648.152zM 456.398 648.152C 456.398 646.781 457.738 646.101 460.387 646.101C 463.191 646.101 464.5 646.765 464.5 648.179C 464.5 649.523 463.133 650.203 460.43 650.203C 457.727 650.203 456.398 649.523 456.398 648.152"/>
<path style="stroke:none; fill-rule:evenodd; fill:#000000" d="M 455.301 640.351C 455.301 641.277 455.711 642.117 456.398 642.636C 457.266 643.281 458.586 643.601 460.406 643.601C 463.734 643.601 465.5 642.48 465.5 640.351C 465.5 638.25 463.734 637.101 460.492 637.101C 458.57 637.101 457.289 637.41 456.398 638.066C 455.695 638.586 455.301 639.414 455.301 640.351zM 456.398 640.351C 456.398 638.98 457.738 638.3 460.387 638.3C 463.191 638.3 464.5 638.964 464.5 640.382C 464.5 641.722 463.133 642.402 460.43 642.402C 457.727 642.402 456.398 641.722 456.398 640.351"/>
<path style="stroke:#000000; stroke-width:1; fill:none" d="M 446.5 590.601L 440.199 590.601M 26.5 590.601L 32.8008 590.601"/>
<path style="stroke:none; fill-rule:evenodd; fill:#000000" d="M 464 597.172L 464 602.351C 463.188 602.226 462.672 601.781 461.961 600.574L 461.203 599.183C 460.449 597.808 459.43 597.101 458.211 597.101C 457.387 597.101 456.617 597.437 456.086 598.019C 455.555 598.601 455.301 599.324 455.301 600.254C 455.301 601.504 455.746 602.433 456.582 602.976C 457.109 603.324 457.719 603.476 458.719 603.504L 458.719 602.269C 458.062 602.226 457.664 602.144 457.348 601.976C 456.758 601.652 456.402 601.007 456.402 600.265C 456.402 599.144 457.199 598.3 458.258 598.3C 459.035 598.3 459.703 598.765 460.203 599.648L 460.93 600.937C 462.098 603.011 463.031 603.613 465.203 603.726L 465.203 597.172"/>
<path style="stroke:none; fill-rule:evenodd; fill:#000000" d="M 455.301 592.55C 455.301 593.476 455.711 594.316 456.398 594.836C 457.266 595.48 458.586 595.8 460.406 595.8C 463.734 595.8 465.5 594.679 465.5 592.55C 465.5 590.449 463.734 589.3 460.492 589.3C 458.57 589.3 457.289 589.609 456.398 590.269C 455.695 590.785 455.301 591.613 455.301 592.55zM 456.398 592.55C 456.398 591.179 457.738 590.504 460.387 590.504C 463.191 590.504 464.5 591.168 464.5 592.582C 464.5 593.922 463.133 594.601 460.43 594.601C 457.727 594.601 456.398 593.922 456.398 592.55"/>
<path style="stroke:none; fill-rule:evenodd; fill:#000000" d="M 455.301 584.851C 455.301 585.777 455.711 586.617 456.398 587.136C 457.266 587.781 458.586 588.101 460.406 588.101C 463.734 588.101 465.5 586.98 465.5 584.851C 465.5 582.75 463.734 581.601 460.492 581.601C 458.57 581.601 457.289 581.91 456.398 582.566C 455.695 583.086 455.301 583.914 455.301 584.851zM 456.398 584.851C 456.398 583.48 457.738 582.8 460.387 582.8C 463.191 582.8 464.5 583.464 464.5 584.882C 464.5 586.222 463.133 586.902 460.43 586.902C 457.727 586.902 456.398 586.222 456.398 584.851"/>
<path style="stroke:none; fill-rule:evenodd; fill:#000000" d="M 455.301 577.05C 455.301 577.976 455.711 578.816 456.398 579.336C 457.266 579.98 458.586 580.3 460.406 580.3C 463.734 580.3 465.5 579.179 465.5 577.05C 465.5 574.949 463.734 573.8 460.492 573.8C 458.57 573.8 457.289 574.109 456.398 574.769C 455.695 575.285 455.301 576.113 455.301 577.05zM 456.398 577.05C 456.398 575.679 457.738 575.004 460.387 575.004C 463.191 575.004 464.5 575.668 464.5 577.082C 464.5 578.422 463.133 579.101 460.43 579.101C 457.727 579.101 456.398 578.422 456.398 577.05"/>
<path style="stroke:#000000; stroke-width:1; fill:none" d="M 446.5 527.3L 440.199 527.3M 26.5 527.3L 32.8008 527.3"/>
<path style="stroke:none; fill-rule:evenodd; fill:#000000" d="M 460.602 537.808L 460.602 537.117C 460.602 535.722 461.219 535.004 462.41 535.004C 463.656 535.004 464.398 535.785 464.398 537.09C 464.398 538.453 463.738 539.121 462.316 539.207L 462.316 540.453C 463.109 540.398 463.621 540.257 464.066 540.019C 465.016 539.515 465.5 538.531 465.5 537.172C 465.5 535.125 464.289 533.804 462.422 533.804C 461.168 533.804 460.473 534.297 460.066 535.5C 459.703 534.57 459.008 534.101 458.02 534.101C 456.32 534.101 455.301 535.238 455.301 537.132C 455.301 539.136 456.383 540.203 458.48 540.246L 458.48 538.996C 457.895 538.98 457.566 538.925 457.262 538.769C 456.73 538.484 456.402 537.859 456.402 537.078C 456.402 535.972 457.035 535.304 458.07 535.304C 458.758 535.304 459.172 535.562 459.395 536.125C 459.531 536.472 459.586 536.918 459.602 537.808"/>
<path style="stroke:none; fill-rule:evenodd; fill:#000000" d="M 455.301 529.254C 455.301 530.175 455.711 531.015 456.398 531.535C 457.266 532.179 458.586 532.5 460.406 532.5C 463.734 532.5 465.5 531.382 465.5 529.25C 465.5 527.148 463.734 526 460.492 526C 458.57 526 457.289 526.308 456.398 526.968C 455.695 527.484 455.301 528.312 455.301 529.25L 455.301 529.254zM 456.398 529.254C 456.398 527.882 457.738 527.203 460.387 527.203C 463.191 527.203 464.5 527.867 464.5 529.281C 464.5 530.625 463.133 531.3 460.43 531.3C 457.727 531.3 456.398 530.621 456.398 529.254"/>
<path style="stroke:none; fill-rule:evenodd; fill:#000000" d="M 455.301 521.55C 455.301 522.476 455.711 523.316 456.398 523.836C 457.266 524.48 458.586 524.8 460.406 524.8C 463.734 524.8 465.5 523.679 465.5 521.55C 465.5 519.449 463.734 518.3 460.492 518.3C 458.57 518.3 457.289 518.609 456.398 519.269C 455.695 519.785 455.301 520.613 455.301 521.55zM 456.398 521.55C 456.398 520.179 457.738 519.504 460.387 519.504C 463.191 519.504 464.5 520.168 464.5 521.582C 464.5 522.922 463.133 523.601 460.43 523.601C 457.727 523.601 456.398 522.922 456.398 521.55"/>
<path style="stroke:none; fill-rule:evenodd; fill:#000000" d="M 455.301 513.754C 455.301 514.675 455.711 515.515 456.398 516.035C 457.266 516.679 458.586 517 460.406 517C 463.734 517 465.5 515.882 465.5 513.75C 465.5 511.648 463.734 510.5 460.492 510.5C 458.57 510.5 457.289 510.808 456.398 511.468C 455.695 511.984 455.301 512.812 455.301 513.75L 455.301 513.754zM 456.398 513.754C 456.398 512.382 457.738 511.703 460.387 511.703C 463.191 511.703 464.5 512.367 464.5 513.781C 464.5 515.125 463.133 515.8 460.43 515.8C 457.727 515.8 456.398 515.121 456.398 513.754"/>
<path style="stroke:#000000; stroke-width:1; fill:none" d="M 446.5 463.902L 440.199 463.902M 26.5 463.902L 32.8008 463.902"/>
<path style="stroke:none; fill-rule:evenodd; fill:#000000" d="M 462.801 472.902L 465.199 472.902L 465.199 471.703L 462.801 471.703L 462.801 470.222L 461.699 470.222L 461.699 471.703L 455.301 471.703L 455.301 472.613L 461.508 477.109L 462.801 477.109L 462.801 472.902zM 461.699 472.902L 461.699 476.031L 457.375 472.902"/>
<path style="stroke:none; fill-rule:evenodd; fill:#000000" d="M 455.301 465.851C 455.301 466.777 455.711 467.617 456.398 468.136C 457.266 468.781 458.586 469.101 460.406 469.101C 463.734 469.101 465.5 467.98 465.5 465.851C 465.5 463.75 463.734 462.601 460.492 462.601C 458.57 462.601 457.289 462.91 456.398 463.566C 455.695 464.086 455.301 464.914 455.301 465.851zM 456.398 465.851C 456.398 464.48 457.738 463.8 460.387 463.8C 463.191 463.8 464.5 464.464 464.5 465.882C 464.5 467.222 463.133 467.902 460.43 467.902C 457.727 467.902 456.398 467.222 456.398 465.851"/>
<path style="stroke:none; fill-rule:evenodd; fill:#000000" d="M 455.301 458.152C 455.301 459.078 455.711 459.918 456.398 460.433C 457.266 461.082 458.586 461.402 460.406 461.402C 463.734 461.402 465.5 460.281 465.5 458.152C 465.5 456.05 463.734 454.902 460.492 454.902C 458.57 454.902 457.289 455.211 456.398 455.867C 455.695 456.386 455.301 457.214 455.301 458.152zM 456.398 458.152C 456.398 456.781 457.738 456.101 460.387 456.101C 463.191 456.101 464.5 456.765 464.5 458.179C 464.5 459.523 463.133 460.203 460.43 460.203C 457.727 460.203 456.398 459.523 456.398 458.152"/>
<path style="stroke:none; fill-rule:evenodd; fill:#000000" d="M 455.301 450.351C 455.301 451.277 455.711 452.117 456.398 452.636C 457.266 453.281 458.586 453.601 460.406 453.601C 463.734 453.601 465.5 452.48 465.5 450.351C 465.5 448.25 463.734 447.101 460.492 447.101C 458.57 447.101 457.289 447.41 456.398 448.066C 455.695 448.586 455.301 449.414 455.301 450.351zM 456.398 450.351C 456.398 448.98 457.738 448.3 460.387 448.3C 463.191 448.3 464.5 448.964 464.5 450.382C 464.5 451.722 463.133 452.402 460.43 452.402C 457.727 452.402 456.398 451.722 456.398 450.351"/>
<path style="stroke:#000000; stroke-width:1; fill:none" d="M 446.5 400.601L 440.199 400.601M 26.5 400.601L 32.8008 400.601"/>
<path style="stroke:none; fill-rule:evenodd; fill:#000000" d="M 455.301 407.523L 455.301 412.66L 460.68 413.406L 460.68 412.254C 460.027 411.672 459.801 411.187 459.801 410.406C 459.801 409.054 460.695 408.203 462.141 408.203C 463.547 408.203 464.398 409.043 464.398 410.406C 464.398 411.496 463.863 412.164 462.766 412.464L 462.766 413.714C 463.57 413.543 463.961 413.406 464.32 413.109C 465.07 412.547 465.5 411.539 465.5 410.414C 465.5 408.406 464.059 407.004 461.977 407.004C 460.031 407.004 458.699 408.308 458.699 410.218C 458.699 410.922 458.871 411.48 459.262 412.058L 456.5 411.664L 456.5 407.523"/>
<path style="stroke:none; fill-rule:evenodd; fill:#000000" d="M 455.301 402.55C 455.301 403.476 455.711 404.316 456.398 404.836C 457.266 405.48 458.586 405.8 460.406 405.8C 463.734 405.8 465.5 404.679 465.5 402.55C 465.5 400.449 463.734 399.3 460.492 399.3C 458.57 399.3 457.289 399.609 456.398 400.269C 455.695 400.785 455.301 401.613 455.301 402.55zM 456.398 402.55C 456.398 401.179 457.738 400.504 460.387 400.504C 463.191 400.504 464.5 401.168 464.5 402.582C 464.5 403.922 463.133 404.601 460.43 404.601C 457.727 404.601 456.398 403.922 456.398 402.55"/>
<path style="stroke:none; fill-rule:evenodd; fill:#000000" d="M 455.301 394.851C 455.301 395.777 455.711 396.617 456.398 397.136C 457.266 397.781 458.586 398.101 460.406 398.101C 463.734 398.101 465.5 396.98 465.5 394.851C 465.5 392.75 463.734 391.601 460.492 391.601C 458.57 391.601 457.289 391.91 456.398 392.566C 455.695 393.086 455.301 393.914 455.301 394.851zM 456.398 394.851C 456.398 393.48 457.738 392.8 460.387 392.8C 463.191 392.8 464.5 393.464 464.5 394.882C 464.5 396.222 463.133 396.902 460.43 396.902C 457.727 396.902 456.398 396.222 456.398 394.851"/>
<path style="stroke:none; fill-rule:evenodd; fill:#000000" d="M 455.301 387.05C 455.301 387.976 455.711 388.816 456.398 389.336C 457.266 389.98 458.586 390.3 460.406 390.3C 463.734 390.3 465.5 389.179 465.5 387.05C 465.5 384.949 463.734 383.8 460.492 383.8C 458.57 383.8 457.289 384.109 456.398 384.769C 455.695 385.285 455.301 386.113 455.301 387.05zM 456.398 387.05C 456.398 385.679 457.738 385.004 460.387 385.004C 463.191 385.004 464.5 385.668 464.5 387.082C 464.5 388.422 463.133 389.101 460.43 389.101C 457.727 389.101 456.398 388.422 456.398 387.05"/>
<path style="stroke:#000000; stroke-width:1; fill:none" d="M 446.5 337.3L 440.199 337.3M 26.5 337.3L 32.8008 337.3"/>
<path style="stroke:none; fill-rule:evenodd; fill:#000000" d="M 457.898 343.929C 456.27 344.168 455.301 345.23 455.301 346.746C 455.301 347.836 455.832 348.816 456.711 349.406C 457.672 350.023 458.883 350.3 460.68 350.3C 462.336 350.3 463.395 350.05 464.273 349.461C 465.066 348.925 465.5 348.054 465.5 346.961C 465.5 345.066 464.098 343.703 462.152 343.703C 460.305 343.703 459 344.98 459 346.785C 459 347.781 459.379 348.562 460.102 349.101C 457.723 349.09 456.402 348.293 456.402 346.863C 456.402 345.984 456.949 345.375 457.902 345.175L 457.898 343.929zM 460.102 346.871C 460.102 345.66 460.926 344.902 462.25 344.902C 463.492 344.902 464.402 345.757 464.402 346.914C 464.402 348.086 463.453 348.968 462.18 348.968C 460.953 348.968 460.102 348.113 460.102 346.871"/>
<path style="stroke:none; fill-rule:evenodd; fill:#000000" d="M 455.301 339.254C 455.301 340.175 455.711 341.015 456.398 341.535C 457.266 342.179 458.586 342.5 460.406 342.5C 463.734 342.5 465.5 341.382 465.5 339.25C 465.5 337.148 463.734 336 460.492 336C 458.57 336 457.289 336.308 456.398 336.968C 455.695 337.488 455.301 338.312 455.301 339.25L 455.301 339.254zM 456.398 339.254C 456.398 337.882 457.738 337.203 460.387 337.203C 463.191 337.203 464.5 337.867 464.5 339.281C 464.5 340.625 463.133 341.3 460.43 341.3C 457.727 341.3 456.398 340.621 456.398 339.254"/>
<path style="stroke:none; fill-rule:evenodd; fill:#000000" d="M 455.301 331.55C 455.301 332.476 455.711 333.316 456.398 333.836C 457.266 334.48 458.586 334.8 460.406 334.8C 463.734 334.8 465.5 333.679 465.5 331.55C 465.5 329.449 463.734 328.3 460.492 328.3C 458.57 328.3 457.289 328.609 456.398 329.269C 455.695 329.785 455.301 330.613 455.301 331.55zM 456.398 331.55C 456.398 330.179 457.738 329.504 460.387 329.504C 463.191 329.504 464.5 330.168 464.5 331.582C 464.5 332.922 463.133 333.601 460.43 333.601C 457.727 333.601 456.398 332.922 456.398 331.55"/>
<path style="stroke:none; fill-rule:evenodd; fill:#000000" d="M 455.301 323.754C 455.301 324.675 455.711 325.515 456.398 326.035C 457.266 326.679 458.586 327 460.406 327C 463.734 327 465.5 325.882 465.5 323.75C 465.5 321.648 463.734 320.5 460.492 320.5C 458.57 320.5 457.289 320.808 456.398 321.468C 455.695 321.988 455.301 322.812 455.301 323.75L 455.301 323.754zM 456.398 323.754C 456.398 322.382 457.738 321.703 460.387 321.703C 463.191 321.703 464.5 322.367 464.5 323.781C 464.5 325.125 463.133 325.8 460.43 325.8C 457.727 325.8 456.398 325.121 456.398 323.754"/>
<path style="stroke:#000000; stroke-width:1; fill:none" d="M 446.5 274.004L 440.199 274.004M 26.5 274.004L 32.8008 274.004"/>
<path style="stroke:none; fill-rule:evenodd; fill:#000000" d="M 455.301 280.3L 455.301 286.906L 456.5 286.906L 456.5 281.57C 459.871 283.925 461.941 284.886 465.199 285.625L 465.199 284.312C 462.031 283.769 459.309 282.531 456.336 280.304"/>
<path style="stroke:none; fill-rule:evenodd; fill:#000000" d="M 455.301 275.953C 455.301 276.879 455.711 277.718 456.398 278.234C 457.266 278.879 458.586 279.203 460.406 279.203C 463.734 279.203 465.5 278.082 465.5 275.953C 465.5 273.851 463.734 272.703 460.492 272.703C 458.57 272.703 457.289 273.007 456.398 273.668C 455.695 274.187 455.301 275.011 455.301 275.953zM 456.398 275.953C 456.398 274.582 457.738 273.902 460.387 273.902C 463.191 273.902 464.5 274.566 464.5 275.98C 464.5 277.324 463.133 278 460.43 278C 457.727 278 456.398 277.324 456.398 275.953"/>
<path style="stroke:none; fill-rule:evenodd; fill:#000000" d="M 455.301 268.254C 455.301 269.175 455.711 270.015 456.398 270.535C 457.266 271.179 458.586 271.5 460.406 271.5C 463.734 271.5 465.5 270.382 465.5 268.25C 465.5 266.148 463.734 265 460.492 265C 458.57 265 457.289 265.308 456.398 265.968C 455.695 266.488 455.301 267.312 455.301 268.25L 455.301 268.254zM 456.398 268.254C 456.398 266.882 457.738 266.203 460.387 266.203C 463.191 266.203 464.5 266.867 464.5 268.281C 464.5 269.625 463.133 270.3 460.43 270.3C 457.727 270.3 456.398 269.621 456.398 268.254"/>
<path style="stroke:none; fill-rule:evenodd; fill:#000000" d="M 455.301 260.453C 455.301 261.379 455.711 262.218 456.398 262.734C 457.266 263.379 458.586 263.703 460.406 263.703C 463.734 263.703 465.5 262.582 465.5 260.453C 465.5 258.351 463.734 257.203 460.492 257.203C 458.57 257.203 457.289 257.507 456.398 258.168C 455.695 258.687 455.301 259.511 455.301 260.453zM 456.398 260.453C 456.398 259.082 457.738 258.402 460.387 258.402C 463.191 258.402 464.5 259.066 464.5 260.48C 464.5 261.824 463.133 262.5 460.43 262.5C 457.727 262.5 456.398 261.824 456.398 260.453"/>
<path style="stroke:#000000; stroke-width:1; fill:none" d="M 446.5 210.703L 440.199 210.703M 26.5 210.703L 32.8008 210.703"/>
<path style="stroke:none; fill-rule:evenodd; fill:#000000" d="M 459.984 218.828C 459.371 217.832 458.867 217.5 457.934 217.5C 456.391 217.5 455.301 218.707 455.301 220.453C 455.301 222.183 456.391 223.402 457.934 223.402C 458.855 223.402 459.355 223.074 459.984 222.09C 460.527 223.234 461.348 223.8 462.434 223.8C 464.246 223.8 465.5 222.422 465.5 220.453C 465.5 218.48 464.246 217.101 462.449 217.101C 461.348 217.101 460.527 217.668 459.984 218.828zM 456.398 220.453C 456.398 219.386 457.012 218.703 457.973 218.703C 458.887 218.703 459.5 219.398 459.5 220.453C 459.5 221.504 458.887 222.203 457.957 222.203C 457.012 222.203 456.398 221.504 456.398 220.453zM 460.5 220.453C 460.5 219.172 461.281 218.3 462.441 218.3C 463.617 218.3 464.398 219.175 464.398 220.48C 464.398 221.73 463.602 222.601 462.441 222.601C 461.281 222.601 460.5 221.73 460.5 220.453"/>
<path style="stroke:none; fill-rule:evenodd; fill:#000000" d="M 455.301 212.652C 455.301 213.578 455.711 214.418 456.398 214.933C 457.266 215.582 458.586 215.902 460.406 215.902C 463.734 215.902 465.5 214.781 465.5 212.652C 465.5 210.55 463.734 209.402 460.492 209.402C 458.57 209.402 457.289 209.711 456.398 210.367C 455.695 210.886 455.301 211.714 455.301 212.652zM 456.398 212.652C 456.398 211.281 457.738 210.601 460.387 210.601C 463.191 210.601 464.5 211.265 464.5 212.679C 464.5 214.023 463.133 214.703 460.43 214.703C 457.727 214.703 456.398 214.023 456.398 212.652"/>
<path style="stroke:none; fill-rule:evenodd; fill:#000000" d="M 455.301 204.953C 455.301 205.879 455.711 206.718 456.398 207.234C 457.266 207.879 458.586 208.203 460.406 208.203C 463.734 208.203 465.5 207.082 465.5 204.953C 465.5 202.851 463.734 201.703 460.492 201.703C 458.57 201.703 457.289 202.007 456.398 202.668C 455.695 203.187 455.301 204.011 455.301 204.953zM 456.398 204.953C 456.398 203.582 457.738 202.902 460.387 202.902C 463.191 202.902 464.5 203.566 464.5 204.98C 464.5 206.324 463.133 207 460.43 207C 457.727 207 456.398 206.324 456.398 204.953"/>
<path style="stroke:none; fill-rule:evenodd; fill:#000000" d="M 455.301 197.152C 455.301 198.078 455.711 198.918 456.398 199.433C 457.266 200.082 458.586 200.402 460.406 200.402C 463.734 200.402 465.5 199.281 465.5 197.152C 465.5 195.05 463.734 193.902 460.492 193.902C 458.57 193.902 457.289 194.211 456.398 194.867C 455.695 195.386 455.301 196.214 455.301 197.152zM 456.398 197.152C 456.398 195.781 457.738 195.101 460.387 195.101C 463.191 195.101 464.5 195.765 464.5 197.179C 464.5 198.523 463.133 199.203 460.43 199.203C 457.727 199.203 456.398 198.523 456.398 197.152"/>
<path style="stroke:#000000; stroke-width:1; fill:none" d="M 446.5 147.3L 440.199 147.3M 26.5 147.3L 32.8008 147.3"/>
<path style="stroke:none; fill-rule:evenodd; fill:#000000" d="M 462.934 160.16C 464.543 159.922 465.5 158.863 465.5 157.359C 465.5 156.269 464.973 155.281 464.094 154.711C 463.133 154.082 461.922 153.804 460.121 153.804C 458.465 153.804 457.406 154.05 456.527 154.632C 455.734 155.172 455.301 156.027 455.301 157.101C 455.301 158.964 456.699 160.304 458.648 160.304C 460.496 160.304 461.801 159.047 461.801 157.261C 461.801 156.328 461.465 155.644 460.699 155.004C 463.078 155.015 464.398 155.808 464.398 157.238C 464.398 158.113 463.863 158.718 462.934 158.918L 462.934 160.16zM 456.398 157.132C 456.398 155.988 457.348 155.121 458.629 155.121C 459.836 155.121 460.699 155.972 460.699 157.172C 460.699 158.359 459.879 159.101 458.559 159.101C 457.305 159.101 456.402 158.261 456.402 157.132"/>
<path style="stroke:none; fill-rule:evenodd; fill:#000000" d="M 455.301 149.254C 455.301 150.175 455.711 151.015 456.398 151.535C 457.266 152.179 458.586 152.5 460.406 152.5C 463.734 152.5 465.5 151.382 465.5 149.25C 465.5 147.148 463.734 146 460.492 146C 458.57 146 457.289 146.308 456.398 146.968C 455.695 147.484 455.301 148.312 455.301 149.25L 455.301 149.254zM 456.398 149.254C 456.398 147.882 457.738 147.203 460.387 147.203C 463.191 147.203 464.5 147.867 464.5 149.281C 464.5 150.625 463.133 151.3 460.43 151.3C 457.727 151.3 456.398 150.621 456.398 149.254"/>
<path style="stroke:none; fill-rule:evenodd; fill:#000000" d="M 455.301 141.55C 455.301 142.476 455.711 143.316 456.398 143.836C 457.266 144.48 458.586 144.8 460.406 144.8C 463.734 144.8 465.5 143.679 465.5 141.55C 465.5 139.449 463.734 138.3 460.492 138.3C 458.57 138.3 457.289 138.609 456.398 139.269C 455.695 139.785 455.301 140.613 455.301 141.55zM 456.398 141.55C 456.398 140.179 457.738 139.504 460.387 139.504C 463.191 139.504 464.5 140.168 464.5 141.582C 464.5 142.922 463.133 143.601 460.43 143.601C 457.727 143.601 456.398 142.922 456.398 141.55"/>
<path style="stroke:none; fill-rule:evenodd; fill:#000000" d="M 455.301 133.754C 455.301 134.675 455.711 135.515 456.398 136.035C 457.266 136.679 458.586 137 460.406 137C 463.734 137 465.5 135.882 465.5 133.75C 465.5 131.648 463.734 130.5 460.492 130.5C 458.57 130.5 457.289 130.808 456.398 131.468C 455.695 131.984 455.301 132.812 455.301 133.75L 455.301 133.754zM 456.398 133.754C 456.398 132.382 457.738 131.703 460.387 131.703C 463.191 131.703 464.5 132.367 464.5 133.781C 464.5 135.125 463.133 135.8 460.43 135.8C 457.727 135.8 456.398 135.121 456.398 133.754"/>
<path style="stroke:#000000; stroke-width:1; fill:none" d="M 446.5 84.004L 440.199 84.004M 26.5 84.004L 32.8008 84.004"/>
<path style="stroke:none; fill-rule:evenodd; fill:#000000" d="M 458.148 97.902L 465.199 97.902L 465.199 96.703L 455.297 96.703L 455.297 97.5C 456.82 97.929 457.031 98.203 457.27 100.074L 458.148 100.074"/>
<path style="stroke:none; fill-rule:evenodd; fill:#000000" d="M 455.301 89.851C 455.301 90.777 455.711 91.617 456.398 92.136C 457.266 92.781 458.586 93.101 460.406 93.101C 463.734 93.101 465.5 91.98 465.5 89.851C 465.5 87.75 463.734 86.601 460.492 86.601C 458.57 86.601 457.289 86.91 456.398 87.566C 455.695 88.086 455.301 88.914 455.301 89.851zM 456.398 89.851C 456.398 88.48 457.738 87.8 460.387 87.8C 463.191 87.8 464.5 88.464 464.5 89.882C 464.5 91.222 463.133 91.902 460.43 91.902C 457.727 91.902 456.398 91.222 456.398 89.851"/>
<path style="stroke:none; fill-rule:evenodd; fill:#000000" d="M 455.301 82.05C 455.301 82.976 455.711 83.816 456.398 84.336C 457.266 84.98 458.586 85.3 460.406 85.3C 463.734 85.3 465.5 84.179 465.5 82.05C 465.5 79.949 463.734 78.8 460.492 78.8C 458.57 78.8 457.289 79.1089 456.398 79.769C 455.695 80.285 455.301 81.113 455.301 82.05zM 456.398 82.05C 456.398 80.679 457.738 80.004 460.387 80.004C 463.191 80.004 464.5 80.668 464.5 82.082C 464.5 83.422 463.133 84.101 460.43 84.101C 457.727 84.101 456.398 83.422 456.398 82.05"/>
<path style="stroke:none; fill-rule:evenodd; fill:#000000" d="M 455.301 74.351C 455.301 75.277 455.711 76.117 456.398 76.636C 457.266 77.281 458.586 77.601 460.406 77.601C 463.734 77.601 465.5 76.48 465.5 74.351C 465.5 72.25 463.734 71.101 460.492 71.101C 458.57 71.101 457.289 71.41 456.398 72.066C 455.695 72.586 455.301 73.414 455.301 74.351zM 456.398 74.351C 456.398 72.98 457.738 72.3 460.387 72.3C 463.191 72.3 464.5 72.964 464.5 74.382C 464.5 75.722 463.133 76.402 460.43 76.402C 457.727 76.402 456.398 75.722 456.398 74.351"/>
<path style="stroke:none; fill-rule:evenodd; fill:#000000" d="M 455.301 66.55C 455.301 67.476 455.711 68.316 456.398 68.836C 457.266 69.48 458.586 69.8 460.406 69.8C 463.734 69.8 465.5 68.679 465.5 66.55C 465.5 64.449 463.734 63.3 460.492 63.3C 458.57 63.3 457.289 63.6089 456.398 64.269C 455.695 64.785 455.301 65.613 455.301 66.55zM 456.398 66.55C 456.398 65.179 457.738 64.504 460.387 64.504C 463.191 64.504 464.5 65.168 464.5 66.582C 464.5 67.922 463.133 68.601 460.43 68.601C 457.727 68.601 456.398 67.922 456.398 66.55"/>
<path style="stroke:#000000; stroke-width:1; fill:none" d="M 446.5 20.703L 440.199 20.703M 26.5 20.703L 32.8008 20.703"/>
<path style="stroke:none; fill-rule:evenodd; fill:#000000" d="M 458.148 34.601L 465.199 34.601L 465.199 33.402L 455.297 33.402L 455.297 34.203C 456.82 34.629 457.031 34.902 457.27 36.7729L 458.148 36.7729"/>
<path style="stroke:none; fill-rule:evenodd; fill:#000000" d="M 458.148 26.8L 465.199 26.8L 465.199 25.601L 455.297 25.601L 455.297 26.402C 456.82 26.828 457.031 27.101 457.27 28.972L 458.148 28.972"/>
<path style="stroke:none; fill-rule:evenodd; fill:#000000" d="M 455.301 18.754C 455.301 19.675 455.711 20.515 456.398 21.035C 457.266 21.679 458.586 22 460.406 22C 463.734 22 465.5 20.882 465.5 18.75C 465.5 16.6479 463.734 15.5 460.492 15.5C 458.57 15.5 457.289 15.808 456.398 16.468C 455.695 16.9839 455.301 17.812 455.301 18.75L 455.301 18.754zM 456.398 18.754C 456.398 17.382 457.738 16.703 460.387 16.703C 463.191 16.703 464.5 17.367 464.5 18.781C 464.5 20.125 463.133 20.8 460.43 20.8C 457.727 20.8 456.398 20.121 456.398 18.754"/>
<path style="stroke:none; fill-rule:evenodd; fill:#000000" d="M 455.301 11.05C 455.301 11.976 455.711 12.816 456.398 13.336C 457.266 13.98 458.586 14.3 460.406 14.3C 463.734 14.3 465.5 13.179 465.5 11.05C 465.5 8.94897 463.734 7.79999 460.492 7.79999C 458.57 7.79999 457.289 8.10895 456.398 8.76898C 455.695 9.28497 455.301 10.113 455.301 11.05zM 456.398 11.05C 456.398 9.67896 457.738 9.00397 460.387 9.00397C 463.191 9.00397 464.5 9.66797 464.5 11.082C 464.5 12.422 463.133 13.101 460.43 13.101C 457.727 13.101 456.398 12.422 456.398 11.05"/>
<path style="stroke:none; fill-rule:evenodd; fill:#000000" d="M 455.301 3.25397C 455.301 4.17499 455.711 5.01495 456.398 5.53497C 457.266 6.17896 458.586 6.5 460.406 6.5C 463.734 6.5 465.5 5.38196 465.5 3.25C 465.5 1.14795 463.734 0 460.492 0C 458.57 0 457.289 0.307983 456.398 0.967957C 455.695 1.48395 455.301 2.31195 455.301 3.25L 455.301 3.25397zM 456.398 3.25397C 456.398 1.88196 457.738 1.203 460.387 1.203C 463.191 1.203 464.5 1.867 464.5 3.28101C 464.5 4.625 463.133 5.29999 460.43 5.29999C 457.727 5.29999 456.398 4.62097 456.398 3.25397"/>
<path style="stroke:#000000; stroke-width:1; fill:none" d="M 446.5 653.902L 446.5 20.703L 26.5 20.703L 26.5 653.902L 446.5 653.902"/>
<path style="stroke:none; fill-rule:evenodd; fill:#000000" d="M 291 698.203L 286.402 698.203C 285.441 698.203 284.727 698.468 284.184 699.054C 283.68 699.586 283.398 700.316 283.398 701.113C 283.398 702.343 283.953 703.086 285.238 703.589C 284.301 704.023 283.801 704.777 283.801 705.812C 283.801 706.554 284.082 707.211 284.617 707.687C 285.152 708.175 285.855 708.402 286.84 708.402L 291 708.402L 291 698.203zM 289.699 704.004L 289.699 707.3L 287.16 707.3C 286.426 707.3 286.016 707.203 285.664 706.929C 285.297 706.648 285.102 706.218 285.102 705.652C 285.102 705.097 285.297 704.656 285.664 704.371C 286.016 704.101 286.426 704 287.16 704L 289.699 704.004zM 289.699 699.3L 289.699 702.902L 286.531 702.902C 285.902 702.902 285.484 702.746 285.176 702.398C 284.867 702.07 284.699 701.613 284.699 701.093C 284.699 700.593 284.867 700.132 285.176 699.804C 285.484 699.461 285.902 699.3 286.531 699.3"/>
<path style="stroke:none; fill-rule:evenodd; fill:#000000" d="M 277.801 698.203L 273.203 698.203C 272.238 698.203 271.527 698.468 270.984 699.054C 270.48 699.586 270.199 700.316 270.199 701.113C 270.199 702.343 270.754 703.086 272.039 703.589C 271.098 704.023 270.602 704.777 270.602 705.812C 270.602 706.554 270.883 707.211 271.418 707.687C 271.949 708.175 272.652 708.402 273.637 708.402L 277.801 708.402L 277.801 698.203zM 276.5 704.004L 276.5 707.3L 273.961 707.3C 273.227 707.3 272.816 707.203 272.465 706.929C 272.098 706.648 271.898 706.218 271.898 705.652C 271.898 705.097 272.098 704.656 272.465 704.371C 272.816 704.101 273.227 704 273.961 704L 276.5 704.004zM 276.5 699.3L 276.5 702.902L 273.328 702.902C 272.699 702.902 272.281 702.746 271.977 702.398C 271.668 702.07 271.5 701.613 271.5 701.093C 271.5 700.593 271.668 700.132 271.977 699.804C 272.281 699.461 272.703 699.3 273.328 699.3"/>
<path style="stroke:none; fill-rule:evenodd; fill:#000000" d="M 262.109 698.886C 262.238 698.902 262.293 698.902 262.363 698.902C 262.773 698.902 263 699.109 263 699.468L 263 703.726C 263 705.011 263.949 705.703 265.754 705.703C 266.816 705.703 267.695 705.398 268.188 704.863C 268.523 704.492 268.66 704.082 268.688 703.367L 267.523 703.367C 267.43 704.218 266.902 704.601 265.82 704.601C 264.781 704.601 264.199 704.214 264.199 703.523L 264.199 703.218C 264.199 702.734 264.488 702.527 265.402 702.418C 267.035 702.211 267.285 702.156 267.727 701.976C 268.57 701.632 269 700.98 269 700.043C 269 698.73 268.078 697.902 266.598 697.902C 265.676 697.902 264.934 698.214 264.109 698.957C 264.023 698.23 263.66 697.902 262.906 697.902C 262.668 697.902 262.488 697.929 262.109 698.023L 262.109 698.886zM 264.199 700.511C 264.199 700.121 264.312 699.882 264.656 699.558C 265.129 699.125 265.695 698.902 266.375 698.902C 267.273 698.902 267.801 699.336 267.801 700.078C 267.801 700.847 267.289 701.242 266.055 701.422C 264.84 701.589 264.59 701.644 264.199 701.828"/>
<path style="stroke:none; fill-rule:evenodd; fill:#000000" d="M 260.801 705.492L 260.801 698.203L 259.602 698.203L 259.602 702.23C 259.602 703.722 258.84 704.703 257.672 704.703C 256.773 704.703 256.199 704.14 256.199 703.265L 256.199 698.203L 255 698.203L 255 703.711C 255 704.922 255.898 705.703 257.297 705.703C 258.375 705.703 259.066 705.285 259.699 704.269L 259.699 705.492"/>
<path style="stroke:none; fill-rule:evenodd; fill:#000000" d="M 247.102 708.402L 248.301 708.402L 248.301 704.613C 248.781 705.324 249.551 705.703 250.512 705.703C 252.379 705.703 253.602 704.187 253.602 701.871C 253.602 699.414 252.391 697.902 250.426 697.902C 249.426 697.902 248.727 698.273 248.102 699.168L 248.102 698.203L 247.102 698.203L 247.102 708.402zM 250.316 704.601C 249.082 704.601 248.301 703.496 248.301 701.773C 248.301 700.105 249.098 699.004 250.301 699.004C 251.562 699.004 252.398 700.121 252.398 701.8C 252.398 703.484 251.562 704.601 250.316 704.601"/>
<path style="stroke:none; fill-rule:evenodd; fill:#000000" d="M 235.754 698.203L 232.898 706.757L 232.898 698.203L 231.699 698.203L 231.699 708.402L 233.488 708.402L 236.426 699.519L 239.414 708.402L 241.199 708.402L 241.199 698.203L 240 698.203L 240 706.757L 237.121 698.203"/>
<path style="stroke:none; fill-rule:evenodd; fill:#000000" d="M 223.211 698.886C 223.336 698.902 223.395 698.902 223.465 698.902C 223.871 698.902 224.102 699.109 224.102 699.468L 224.102 703.726C 224.102 705.011 225.051 705.703 226.855 705.703C 227.918 705.703 228.797 705.398 229.285 704.863C 229.621 704.492 229.762 704.082 229.789 703.367L 228.625 703.367C 228.527 704.218 228.004 704.601 226.922 704.601C 225.883 704.601 225.301 704.214 225.301 703.523L 225.301 703.218C 225.301 702.734 225.59 702.527 226.504 702.418C 228.137 702.211 228.383 702.156 228.828 701.976C 229.672 701.632 230.102 700.98 230.102 700.043C 230.102 698.73 229.18 697.902 227.695 697.902C 226.773 697.902 226.031 698.214 225.211 698.957C 225.125 698.23 224.762 697.902 224.008 697.902C 223.77 697.902 223.586 697.929 223.211 698.023L 223.211 698.886zM 225.301 700.511C 225.301 700.121 225.41 699.882 225.758 699.558C 226.23 699.125 226.797 698.902 227.473 698.902C 228.375 698.902 228.898 699.336 228.898 700.078C 228.898 700.847 228.387 701.242 227.156 701.422C 225.938 701.589 225.688 701.644 225.301 701.828"/>
<path style="stroke:none; fill-rule:evenodd; fill:#000000" d="M 218.812 701.976L 216.348 705.504L 217.664 705.504L 219.43 702.879L 221.191 705.504L 222.523 705.504L 220.07 701.922L 222.66 698.203L 221.332 698.203L 219.469 701.015L 217.637 698.203L 216.277 698.203"/>
<path style="stroke:none; fill-rule:evenodd; fill:#000000" d="M 205.453 698.203L 202.602 706.757L 202.602 698.203L 201.398 698.203L 201.398 708.402L 203.188 708.402L 206.125 699.519L 209.113 708.402L 210.902 708.402L 210.902 698.203L 209.699 698.203L 209.699 706.757L 206.82 698.203"/>
<path style="stroke:none; fill-rule:evenodd; fill:#000000" d="M 192.809 698.886C 192.938 698.902 192.992 698.902 193.062 698.902C 193.473 698.902 193.699 699.109 193.699 699.468L 193.699 703.726C 193.699 705.011 194.652 705.703 196.453 705.703C 197.516 705.703 198.398 705.398 198.887 704.863C 199.223 704.492 199.359 704.082 199.391 703.367L 198.227 703.367C 198.129 704.218 197.602 704.601 196.52 704.601C 195.48 704.601 194.898 704.214 194.898 703.523L 194.898 703.218C 194.898 702.734 195.191 702.527 196.102 702.418C 197.734 702.211 197.984 702.156 198.426 701.976C 199.27 701.632 199.699 700.98 199.699 700.043C 199.699 698.73 198.777 697.902 197.297 697.902C 196.375 697.902 195.633 698.214 194.809 698.957C 194.727 698.23 194.363 697.902 193.605 697.902C 193.367 697.902 193.188 697.929 192.809 698.023L 192.809 698.886zM 194.898 700.511C 194.898 700.121 195.012 699.882 195.359 699.558C 195.828 699.125 196.395 698.902 197.074 698.902C 197.973 698.902 198.5 699.336 198.5 700.078C 198.5 700.847 197.988 701.242 196.758 701.422C 195.539 701.589 195.289 701.644 194.898 701.828"/>
<path style="stroke:none; fill-rule:evenodd; fill:#000000" d="M 186.699 705.504L 186.699 704.472C 187.293 705.308 188.012 705.703 188.957 705.703C 190.832 705.703 192.102 704.089 192.102 701.73C 192.102 700.539 191.781 699.566 191.184 698.875C 190.645 698.261 189.867 697.902 189.105 697.902C 188.191 697.902 187.551 698.289 186.898 699.195L 186.898 698.812C 186.898 697.812 187.023 697.203 187.316 696.793C 187.621 696.355 188.215 696.101 188.922 696.101C 189.449 696.101 189.918 696.246 190.238 696.504C 190.5 696.718 190.609 696.918 190.68 697.363L 191.855 697.363C 191.73 695.945 190.66 695.101 188.953 695.101C 187.867 695.101 186.938 695.453 186.465 696.043C 185.91 696.714 185.699 697.64 185.699 699.363L 185.699 705.504L 186.699 705.504zM 188.887 704.601C 187.637 704.601 186.898 703.558 186.898 701.761C 186.898 700.043 187.648 699 188.871 699C 190.137 699 190.898 700.058 190.898 701.8C 190.898 703.531 190.121 704.601 188.887 704.601"/>
<path style="stroke:none; fill-rule:evenodd; fill:#000000" d="M 182.102 699.703L 183.602 699.703L 183.602 698.203L 182.102 698.203L 182.102 699.703z"/>
<path style="stroke:none; fill-rule:evenodd; fill:#000000" d="M 481.328 337.707C 480.641 337.765 480.191 337.922 479.801 338.203C 479.109 338.711 478.699 339.593 478.699 340.625C 478.699 342.605 480.258 343.902 482.672 343.902C 485.016 343.902 486.5 342.636 486.5 340.636C 486.5 338.879 485.461 337.765 483.68 337.625L 483.68 338.812C 484.828 339.011 485.402 339.621 485.402 340.625C 485.402 341.925 484.371 342.703 482.672 342.703C 480.871 342.703 479.801 341.937 479.801 340.652C 479.801 339.66 480.352 339.039 481.328 338.898"/>
<path style="stroke:none; fill-rule:evenodd; fill:#000000" d="M 478.898 331.101L 478.898 336.605L 479.898 336.605L 479.898 332.488L 485.152 336.906L 486.199 336.906L 486.199 330.906L 485.199 330.906L 485.199 335.457L 479.898 331.105"/>
<path style="stroke:none; fill-rule:evenodd; fill:#000000" d="M 5.5 380.203L 10.1992 380.203L 10.1992 378.902L 0 378.902L 0 380.203L 4.3984 380.203L 4.3984 385.402L 0 385.402L 0 386.703L 10.1992 386.703L 10.1992 385.402L 5.5 385.402"/>
<path style="stroke:none; fill-rule:evenodd; fill:#000000" d="M 10.1797 371.101L 2.8984 371.101L 2.8984 372.3L 7.0352 372.3C 8.5234 372.3 9.5 373.062 9.5 374.238C 9.5 375.132 8.9414 375.703 8.0664 375.703L 2.8984 375.703L 2.8984 376.902L 8.5117 376.902C 9.7227 376.902 10.5 375.988 10.5 374.558C 10.5 373.476 10.125 372.789 9.1641 372.101L 10.1797 372.101"/>
<path style="stroke:none; fill-rule:evenodd; fill:#000000" d="M 0 369.203L 10.1992 369.203L 10.1992 368.203L 9.2617 368.203C 10.1016 367.644 10.5 366.906 10.5 365.886C 10.5 363.961 8.9336 362.703 6.5195 362.703C 4.1602 362.703 2.6992 363.882 2.6992 365.777C 2.6992 366.765 3.0664 367.468 3.8594 368.004L 0 368.004L 0 369.203zM 3.8008 366C 3.8008 364.726 4.918 363.902 6.6406 363.902C 8.2812 363.902 9.3984 364.754 9.3984 366C 9.3984 367.207 8.2969 368.004 6.6016 368.004C 4.9062 368.004 3.8008 367.207 3.8008 366"/>
<path style="stroke:none; fill-rule:evenodd; fill:#000000" d="M 0 361.402L 10.1992 361.402L 10.1992 360.402L 9.2617 360.402C 10.1016 359.843 10.5 359.105 10.5 358.086C 10.5 356.16 8.9336 354.902 6.5195 354.902C 4.1602 354.902 2.6992 356.082 2.6992 357.976C 2.6992 358.968 3.0664 359.668 3.8594 360.203L 0 360.203L 0 361.402zM 3.8008 358.199C 3.8008 356.925 4.918 356.101 6.6406 356.101C 8.2812 356.101 9.3984 356.953 9.3984 358.199C 9.3984 359.406 8.2969 360.203 6.6016 360.203C 4.9062 360.203 3.8008 359.406 3.8008 358.199"/>
<path style="stroke:none; fill-rule:evenodd; fill:#000000" d="M 0 353.504L 10.1992 353.504L 10.1992 352.3L 0 352.3L 0 353.504z"/>
<path style="stroke:none; fill-rule:evenodd; fill:#000000" d="M 6.8984 344.101C 5.7969 344.101 5.1367 344.187 4.6016 344.394C 3.418 344.871 2.6992 345.988 2.6992 347.355C 2.6992 349.39 4.2539 350.703 6.6406 350.703C 9.0273 350.703 10.5 349.437 10.5 347.39C 10.5 345.722 9.5586 344.566 7.9727 344.273L 7.9727 345.445C 8.9102 345.765 9.3984 346.422 9.3984 347.355C 9.3984 348.093 9.0664 348.722 8.457 349.109C 8.0391 349.39 7.6211 349.488 6.9023 349.5L 6.8984 344.101zM 5.8984 349.496C 4.6289 349.398 3.8008 348.574 3.8008 347.394C 3.8008 346.25 4.6914 345.367 5.8203 345.367C 5.8477 345.367 5.875 345.367 5.9023 345.379"/>
<path style="stroke:none; fill-rule:evenodd; fill:#000000" d="M 10.1992 338.402L 10.1992 334.464C 10.1992 331.886 8.2695 330.3 5.0938 330.3C 1.9336 330.3 0 331.871 0 334.464L 0 338.402L 10.1992 338.402zM 9.1016 337.101L 1.1016 337.101L 1.1016 334.687C 1.1016 332.668 2.4766 331.601 5.1094 331.601C 7.7148 331.601 9.1016 332.668 9.1016 334.687"/>
<path style="stroke:none; fill-rule:evenodd; fill:#000000" d="M 2.8984 327.402L 2.8984 328.601L 10.1992 328.601L 10.1992 327.402L 2.8984 327.402zM 0 327.402L 0 328.601L 1.4648 328.601L 1.4648 327.402"/>
<path style="stroke:none; fill-rule:evenodd; fill:#000000" d="M 9.5156 318.914C 9.5 319.039 9.5 319.097 9.5 319.168C 9.5 319.574 9.293 319.8 8.9336 319.8L 4.6758 319.8C 3.3906 319.8 2.6992 320.754 2.6992 322.554C 2.6992 323.617 3.0039 324.5 3.5391 324.988C 3.9102 325.324 4.3203 325.464 5.0352 325.492L 5.0352 324.328C 4.1836 324.23 3.8008 323.703 3.8008 322.625C 3.8008 321.586 4.1875 321 4.8789 321L 5.1836 321C 5.668 321 5.875 321.293 5.9844 322.207C 6.1914 323.836 6.2461 324.086 6.4258 324.531C 6.7695 325.375 7.4219 325.8 8.3594 325.8C 9.6719 325.8 10.5 324.879 10.5 323.398C 10.5 322.476 10.1875 321.734 9.4453 320.91C 10.1719 320.828 10.5 320.464 10.5 319.707C 10.5 319.468 10.4727 319.289 10.3789 318.91L 9.5156 318.914zM 7.8906 321.004C 8.2812 321.004 8.5195 321.113 8.8438 321.461C 9.2773 321.929 9.5 322.5 9.5 323.175C 9.5 324.078 9.0664 324.601 8.3242 324.601C 7.5547 324.601 7.1602 324.09 6.9805 322.859C 6.8125 321.64 6.7578 321.39 6.5742 321.004"/>
<path style="stroke:none; fill-rule:evenodd; fill:#000000" d="M 2.8984 312.8L 3.9297 312.8C 3.0938 313.394 2.6992 314.113 2.6992 315.058C 2.6992 316.933 4.3125 318.203 6.6719 318.203C 7.8633 318.203 8.8359 317.882 9.5273 317.289C 10.1406 316.746 10.5 315.968 10.5 315.207C 10.5 314.293 10.1133 313.656 9.207 313.004L 9.5898 313.004C 10.5898 313.004 11.1992 313.129 11.6094 313.418C 12.0469 313.722 12.3008 314.316 12.3008 315.023C 12.3008 315.55 12.1562 316.019 11.8984 316.336C 11.6836 316.601 11.4844 316.711 11.0391 316.781L 11.0391 317.957C 12.457 317.832 13.3008 316.761 13.3008 315.05C 13.3008 313.968 12.9492 313.039 12.3594 312.566C 11.6875 312.007 10.7617 311.8 9.0391 311.8L 2.8984 311.8L 2.8984 312.8zM 3.8008 314.988C 3.8008 313.738 4.8438 313.004 6.6406 313.004C 8.3594 313.004 9.4023 313.754 9.4023 314.976C 9.4023 316.238 8.3438 317.004 6.6016 317.004C 4.8711 317.004 3.8008 316.222 3.8008 314.988"/>
<path style="stroke:none; fill-rule:evenodd; fill:#000000" d="M 2.9102 309.8L 10.1992 309.8L 10.1992 308.601L 6.4023 308.601C 5.3555 308.601 4.668 308.343 4.2656 307.797C 4 307.441 3.9141 307.101 3.8984 306.308L 2.7422 306.308C 2.7148 306.5 2.6992 306.597 2.6992 306.746C 2.6992 307.484 3.1484 308.047 4.2305 308.703L 2.9102 308.703"/>
<path style="stroke:none; fill-rule:evenodd; fill:#000000" d="M 9.5156 298.711C 9.5 298.84 9.5 298.894 9.5 298.964C 9.5 299.375 9.293 299.601 8.9336 299.601L 4.6758 299.601C 3.3906 299.601 2.6992 300.554 2.6992 302.355C 2.6992 303.418 3.0039 304.3 3.5391 304.789C 3.9102 305.125 4.3203 305.261 5.0352 305.293L 5.0352 304.129C 4.1836 304.031 3.8008 303.504 3.8008 302.422C 3.8008 301.382 4.1875 300.8 4.8789 300.8L 5.1836 300.8C 5.668 300.8 5.875 301.093 5.9844 302.004C 6.1914 303.636 6.2461 303.886 6.4258 304.328C 6.7695 305.172 7.4219 305.601 8.3594 305.601C 9.6719 305.601 10.5 304.679 10.5 303.199C 10.5 302.277 10.1875 301.535 9.4453 300.711C 10.1719 300.625 10.5 300.261 10.5 299.507C 10.5 299.269 10.4727 299.09 10.3789 298.711L 9.5156 298.711zM 7.8906 300.8C 8.2812 300.8 8.5195 300.914 8.8438 301.261C 9.2773 301.73 9.5 302.297 9.5 302.976C 9.5 303.875 9.0664 304.402 8.3242 304.402C 7.5547 304.402 7.1602 303.89 6.9805 302.66C 6.8125 301.441 6.7578 301.191 6.5742 300.8"/>
<path style="stroke:none; fill-rule:evenodd; fill:#000000" d="M 2.9102 297.402L 10.1992 297.402L 10.1992 296.203L 5.6133 296.203C 4.5508 296.203 3.6992 295.453 3.6992 294.523C 3.6992 293.679 4.2305 293.203 5.1641 293.203L 10.1992 293.203L 10.1992 292.004L 5.6133 292.004C 4.5508 292.004 3.6992 291.226 3.6992 290.269C 3.6992 289.41 4.2461 288.902 5.1641 288.902L 10.1992 288.902L 10.1992 287.703L 4.7344 287.703C 3.4258 287.703 2.6992 288.457 2.6992 289.828C 2.6992 290.804 2.9844 291.394 3.7734 292.078C 3.0234 292.511 2.6992 293.101 2.6992 294.05C 2.6992 295.031 3.0625 295.672 3.9414 296.3L 2.9102 296.3"/>
<path style="stroke:none; fill-rule:evenodd; fill:#000000" d="M 417.801 215.402L 422.5 215.402L 422.5 214.101L 412.301 214.101L 412.301 215.402L 416.699 215.402L 416.699 220.601L 412.301 220.601L 412.301 221.902L 422.5 221.902L 422.5 220.601L 417.801 220.601"/>
<path style="stroke:none; fill-rule:evenodd; fill:#000000" d="M 422.48 206.3L 415.199 206.3L 415.199 207.504L 419.336 207.504C 420.824 207.504 421.801 208.261 421.801 209.437C 421.801 210.332 421.242 210.902 420.367 210.902L 415.199 210.902L 415.199 212.101L 420.812 212.101C 422.023 212.101 422.801 211.187 422.801 209.757C 422.801 208.679 422.426 207.992 421.465 207.3L 422.48 207.3"/>
<path style="stroke:none; fill-rule:evenodd; fill:#000000" d="M 412.301 204.504L 422.5 204.504L 422.5 203.504L 421.562 203.504C 422.402 202.945 422.801 202.203 422.801 201.183C 422.801 199.257 421.23 198.004 418.816 198.004C 416.461 198.004 415 199.183 415 201.078C 415 202.066 415.363 202.765 416.16 203.3L 412.301 203.3L 412.301 204.504zM 416.102 201.3C 416.102 200.023 417.219 199.203 418.941 199.203C 420.582 199.203 421.699 200.05 421.699 201.3C 421.699 202.507 420.598 203.3 418.902 203.3C 417.203 203.3 416.102 202.507 416.102 201.3"/>
<path style="stroke:none; fill-rule:evenodd; fill:#000000" d="M 412.301 196.703L 422.5 196.703L 422.5 195.703L 421.562 195.703C 422.402 195.144 422.801 194.406 422.801 193.386C 422.801 191.461 421.23 190.203 418.816 190.203C 416.461 190.203 415 191.382 415 193.277C 415 194.265 415.363 194.968 416.16 195.504L 412.301 195.504L 412.301 196.703zM 416.102 193.5C 416.102 192.226 417.219 191.402 418.941 191.402C 420.582 191.402 421.699 192.254 421.699 193.5C 421.699 194.707 420.598 195.504 418.902 195.504C 417.203 195.504 416.102 194.707 416.102 193.5"/>
<path style="stroke:none; fill-rule:evenodd; fill:#000000" d="M 412.301 188.8L 422.5 188.8L 422.5 187.601L 412.301 187.601L 412.301 188.8z"/>
<path style="stroke:none; fill-rule:evenodd; fill:#000000" d="M 419.199 179.402C 418.098 179.402 417.438 179.488 416.902 179.695C 415.719 180.172 415 181.289 415 182.656C 415 184.691 416.555 186.004 418.941 186.004C 421.328 186.004 422.801 184.738 422.801 182.691C 422.801 181.023 421.855 179.867 420.273 179.574L 420.273 180.746C 421.211 181.066 421.699 181.722 421.699 182.656C 421.699 183.394 421.367 184.019 420.758 184.41C 420.34 184.691 419.922 184.789 419.199 184.8L 419.199 179.402zM 418.199 184.797C 416.926 184.699 416.102 183.871 416.102 182.695C 416.102 181.547 416.992 180.668 418.121 180.668C 418.148 180.668 418.176 180.668 418.199 180.679"/>
<path style="stroke:none; fill-rule:evenodd; fill:#000000" d="M 412.301 172.504L 412.301 173.8L 422.5 173.8L 422.5 167.5L 421.398 167.5L 421.398 172.504"/>
<path style="stroke:none; fill-rule:evenodd; fill:#000000" d="M 421.812 159.613C 421.801 159.738 421.801 159.797 421.801 159.867C 421.801 160.273 421.594 160.504 421.234 160.504L 416.977 160.504C 415.691 160.504 415 161.453 415 163.257C 415 164.32 415.301 165.199 415.84 165.687C 416.211 166.023 416.621 166.164 417.336 166.191L 417.336 165.027C 416.484 164.929 416.102 164.406 416.102 163.324C 416.102 162.285 416.488 161.703 417.18 161.703L 417.484 161.703C 417.969 161.703 418.176 161.992 418.285 162.906C 418.492 164.539 418.547 164.785 418.727 165.23C 419.07 166.074 419.719 166.504 420.66 166.504C 421.973 166.504 422.801 165.582 422.801 164.097C 422.801 163.175 422.484 162.433 421.746 161.609C 422.473 161.527 422.801 161.164 422.801 160.41C 422.801 160.172 422.773 159.988 422.68 159.613L 421.812 159.613zM 420.191 161.703C 420.582 161.703 420.82 161.812 421.141 162.16C 421.574 162.632 421.801 163.199 421.801 163.875C 421.801 164.777 421.367 165.3 420.625 165.3C 419.855 165.3 419.461 164.789 419.281 163.558C 419.113 162.34 419.055 162.09 418.871 161.703"/>
<path style="stroke:none; fill-rule:evenodd; fill:#000000" d="M 422.5 151.547L 415.199 149.39L 415.199 150.707L 420.875 152.164L 415.199 153.605L 415.199 155.031L 420.875 156.433L 415.199 157.929L 415.199 159.218L 422.5 157.09L 422.5 155.773L 416.746 154.359L 422.5 152.875"/>
<path style="stroke:none; fill-rule:evenodd; fill:#000000" d="M 417.801 137.601L 422.5 137.601L 422.5 136.3L 412.301 136.3L 412.301 137.601L 416.699 137.601L 416.699 142.8L 412.301 142.8L 412.301 144.101L 422.5 144.101L 422.5 142.8L 417.801 142.8"/>
<path style="stroke:none; fill-rule:evenodd; fill:#000000" d="M 418.801 132.101C 418.801 132.84 419.133 133.515 419.699 133.929C 420.395 134.445 421.453 134.703 422.914 134.703C 425.582 134.703 427 133.804 427 132.101C 427 130.422 425.582 129.504 422.98 129.504C 421.441 129.504 420.414 129.75 419.699 130.277C 419.121 130.691 418.801 131.351 418.801 132.101zM 419.699 132.101C 419.699 131.031 420.773 130.504 422.898 130.504C 425.148 130.504 426.199 131.019 426.199 132.125C 426.199 133.172 425.105 133.703 422.934 133.703C 420.766 133.703 419.699 133.172 419.699 132.101"/>
<path style="stroke:none; fill-rule:evenodd; fill:#000000" d="M 417.602 117.601L 417.602 124.402L 418.602 124.402L 418.602 117.601L 417.602 117.601zM 419.898 117.601L 419.898 124.402L 420.898 124.402L 420.898 117.601"/>
<path style="stroke:none; fill-rule:evenodd; fill:#000000" d="M 412.602 105.703L 412.602 112.304L 413.801 112.304L 413.801 106.972C 417.172 109.324 419.242 110.285 422.5 111.023L 422.5 109.714C 419.328 109.172 416.609 107.933 413.633 105.703"/>
<path style="stroke:none; fill-rule:evenodd; fill:#000000" d="M 415.445 101.703L 422.5 101.703L 422.5 100.504L 412.598 100.504L 412.598 101.3C 414.121 101.726 414.328 102.004 414.566 103.875L 415.449 103.875"/>
<path style="stroke:none; fill-rule:evenodd; fill:#000000" d="M 421 96.3L 422.5 96.3L 422.5 94.8L 421 94.8L 421 96.3z"/>
<path style="stroke:none; fill-rule:evenodd; fill:#000000" d="M 420.23 92.8589C 421.844 92.625 422.801 91.562 422.801 90.058C 422.801 88.968 422.27 87.98 421.395 87.41C 420.434 86.781 419.219 86.504 417.422 86.504C 415.766 86.504 414.707 86.754 413.828 87.332C 413.035 87.871 412.602 88.726 412.602 89.8C 412.602 91.664 414 93.004 415.949 93.004C 417.797 93.004 419.102 91.75 419.102 89.964C 419.102 89.031 418.766 88.343 418 87.703C 420.379 87.718 421.699 88.507 421.699 89.937C 421.699 90.812 421.164 91.422 420.23 91.617L 420.23 92.8589zM 413.699 89.832C 413.699 88.687 414.648 87.82 415.926 87.82C 417.137 87.82 418 88.672 418 89.875C 418 91.058 417.18 91.8 415.859 91.8C 414.605 91.8 413.699 90.964 413.699 89.832"/>
<path style="stroke:#0000ff; stroke-width:0.5; fill:none" d="M 419.199 77.402L 419.199 37.504M 398.5 641.3L 388.301 635.203L 378.898 629.004L 370.199 622.902L 362 616.703L 354.199 610.601L 346.898 604.504L 340 598.3L 333.5 592.203L 327.199 586.101L 321.301 579.902L 315.602 573.8L 310.102 567.703L 304.898 561.504L 299.898 555.402L 295 549.3L 290.301 543.101L 285.801 537.004L 281.5 530.8L 277.199 524.703L 273.199 518.601L 269.199 512.402L 265.301 506.3L 261.602 500.203L 258 494.004L 254.398 487.902L 251 481.8L 247.699 475.601L 244.398 469.504L 241.199 463.3L 238.102 457.203L 235 451.101L 232.102 444.902L 229.199 438.8L 226.301 432.703L 223.602 426.504L 220.801 420.402L 218.199 414.3L 215.602 408.101L 213 402.004L 210.5 395.902L 208 389.703L 205.602 383.601L 203.199 377.402L 200.898 371.3L 198.602 365.203L 196.301 359.004L 194.102 352.902L 192 346.8L 189.801 340.601L 187.699 334.504L 185.602 328.402L 183.602 322.203L 181.602 316.101L 179.602 310.004L 177.699 303.8L 175.699 297.703L 173.898 291.504L 172 285.402L 170.199 279.3L 168.301 273.101L 166.602 267.004L 164.801 260.902L 163 254.703L 161.301 248.601L 159.602 242.504L 158 236.3L 156.301 230.203L 154.699 224.004L 153.102 217.902L 151.5 211.8L 149.898 205.601L 148.398 199.504L 146.801 193.402L 145.301 187.203L 143.801 181.101L 142.301 175.004L 140.898 168.8L 139.398 162.703L 138 156.601L 136.602 150.402L 135.102 144.3L 133.801 138.101L 132.398 132.004L 131 125.902L 129.699 119.703L 128.398 113.601L 127 107.504L 125.699 101.3L 124.398 95.203L 123.199 89.101L 121.898 82.902L 120.602 76.8L 119.398 70.703L 118.199 64.504L 116.898 58.402L 115.699 52.203L 114.5 46.101L 113.398 40.004L 112.199 33.8"/>
<path style="stroke:none; fill-rule:evenodd; fill:#000000" d="M 430.691 524.101C 428.672 524.117 427.5 525.476 427.5 527.808C 427.5 530.027 428.656 531.402 430.512 531.402C 431.766 531.402 432.555 530.746 432.906 529.406L 433.582 526.875C 433.922 525.59 434.441 525.004 435.242 525.004C 435.793 525.004 436.355 525.297 436.664 525.73C 436.945 526.14 437.102 526.785 437.102 527.613C 437.102 528.718 436.832 529.476 436.238 529.964C 435.785 530.343 435.289 530.511 434.652 530.504L 434.652 531.703C 435.586 531.687 436.199 531.507 436.754 531.101C 437.699 530.406 438.199 529.23 438.199 527.683C 438.199 526.468 437.922 525.476 437.418 524.82C 436.871 524.136 435.961 523.703 435.078 523.703C 433.82 523.703 432.898 524.488 432.52 525.871L 431.832 528.425C 431.496 529.656 431.105 530.101 430.32 530.101C 429.285 530.101 428.602 529.199 428.602 527.836C 428.602 526.222 429.348 525.316 430.691 525.304"/>
<path style="stroke:none; fill-rule:evenodd; fill:#000000" d="M 437.879 516.3L 430.602 516.3L 430.602 517.504L 434.734 517.504C 436.227 517.504 437.199 518.261 437.199 519.437C 437.199 520.332 436.645 520.902 435.766 520.902L 430.602 520.902L 430.602 522.101L 436.215 522.101C 437.422 522.101 438.199 521.187 438.199 519.757C 438.199 518.679 437.824 517.992 436.867 517.3L 437.879 517.3"/>
<path style="stroke:none; fill-rule:evenodd; fill:#000000" d="M 440.953 514.504L 440.953 513.3L 437.102 513.3C 437.863 512.699 438.199 512.023 438.199 511.086C 438.199 509.226 436.688 508.004 434.371 508.004C 431.93 508.004 430.398 509.187 430.398 511.101C 430.398 512.082 430.848 512.867 431.711 513.402L 430.609 513.402L 430.609 514.504L 440.953 514.504zM 431.5 511.293C 431.5 510.031 432.617 509.203 434.344 509.203C 435.984 509.203 437.102 510.043 437.102 511.293C 437.102 512.504 435.996 513.3 434.301 513.3C 432.605 513.3 431.5 512.504 431.5 511.293"/>
<path style="stroke:none; fill-rule:evenodd; fill:#000000" d="M 434.602 500.3C 433.496 500.3 432.84 500.386 432.301 500.597C 431.117 501.07 430.398 502.187 430.398 503.554C 430.398 505.593 431.953 506.906 434.344 506.906C 436.73 506.906 438.199 505.636 438.199 503.593C 438.199 501.922 437.258 500.765 435.676 500.472L 435.676 501.644C 436.609 501.964 437.102 502.621 437.102 503.554C 437.102 504.293 436.766 504.922 436.156 505.312C 435.738 505.59 435.324 505.687 434.602 505.703L 434.602 500.3zM 433.602 505.695C 432.328 505.597 431.5 504.773 431.5 503.597C 431.5 502.449 432.395 501.566 433.523 501.566C 433.547 501.566 433.574 501.566 433.602 501.582"/>
<path style="stroke:none; fill-rule:evenodd; fill:#000000" d="M 430.609 498.703L 437.898 498.703L 437.898 497.504L 434.102 497.504C 433.055 497.504 432.367 497.242 431.965 496.699C 431.699 496.343 431.613 496 431.602 495.211L 430.441 495.211C 430.414 495.402 430.398 495.496 430.398 495.648C 430.398 496.386 430.848 496.945 431.934 497.601L 430.609 497.601"/>
<path style="stroke:none; fill-rule:evenodd; fill:#000000" d="M 430.609 494.004L 437.898 494.004L 437.898 492.8L 433.871 492.8C 432.379 492.8 431.402 492.043 431.402 490.871C 431.402 489.976 431.961 489.402 432.84 489.402L 437.898 489.402L 437.898 488.203L 432.391 488.203C 431.18 488.203 430.398 489.101 430.398 490.5C 430.398 491.578 430.82 492.265 431.836 492.902L 430.609 492.902"/>
<path style="stroke:none; fill-rule:evenodd; fill:#000000" d="M 430.398 483.418C 430.398 485.464 431.859 486.703 434.301 486.703C 436.742 486.703 438.199 485.476 438.199 483.402C 438.199 481.355 436.742 480.101 434.355 480.101C 431.844 480.101 430.398 481.312 430.398 483.414L 430.398 483.418zM 431.5 483.402C 431.5 482.086 432.559 481.3 434.344 481.3C 436.031 481.3 437.102 482.113 437.102 483.402C 437.102 484.703 436.043 485.504 434.301 485.504C 432.57 485.504 431.5 484.703 431.5 483.402"/>
<path style="stroke:none; fill-rule:evenodd; fill:#000000" d="M 437.898 475.511L 430.602 472.699L 430.602 474.015L 436.516 476.086L 430.602 478.047L 430.602 479.363L 437.898 476.785"/>
<path style="stroke:none; fill-rule:evenodd; fill:#000000" d="M 437.215 465.011C 437.199 465.14 437.199 465.195 437.199 465.265C 437.199 465.675 436.992 465.902 436.633 465.902L 432.379 465.902C 431.094 465.902 430.398 466.851 430.398 468.656C 430.398 469.718 430.703 470.597 431.238 471.09C 431.609 471.425 432.02 471.562 432.734 471.59L 432.734 470.425C 431.887 470.332 431.5 469.804 431.5 468.722C 431.5 467.683 431.887 467.101 432.578 467.101L 432.883 467.101C 433.367 467.101 433.574 467.39 433.684 468.304C 433.891 469.937 433.945 470.187 434.125 470.629C 434.473 471.472 435.121 471.902 436.059 471.902C 437.371 471.902 438.199 470.98 438.199 469.5C 438.199 468.578 437.887 467.836 437.145 467.011C 437.871 466.925 438.199 466.562 438.199 465.808C 438.199 465.57 438.176 465.386 438.078 465.011L 437.215 465.011zM 435.59 467.101C 435.98 467.101 436.219 467.214 436.543 467.558C 436.977 468.031 437.199 468.597 437.199 469.277C 437.199 470.175 436.766 470.703 436.023 470.703C 435.254 470.703 434.863 470.191 434.68 468.957C 434.512 467.742 434.457 467.492 434.273 467.101"/>
<path style="stroke:none; fill-rule:evenodd; fill:#000000" d="M 434.602 457.504C 433.496 457.504 432.84 457.586 432.301 457.797C 431.117 458.269 430.398 459.386 430.398 460.754C 430.398 462.793 431.953 464.105 434.344 464.105C 436.73 464.105 438.199 462.84 438.199 460.793C 438.199 459.121 437.258 457.968 435.676 457.675L 435.676 458.847C 436.609 459.168 437.102 459.824 437.102 460.754C 437.102 461.496 436.766 462.121 436.156 462.511C 435.738 462.789 435.324 462.886 434.602 462.902L 434.602 457.504zM 433.602 462.894C 432.328 462.797 431.5 461.972 431.5 460.797C 431.5 459.648 432.395 458.765 433.523 458.765C 433.547 458.765 433.574 458.765 433.602 458.781"/>
<path style="stroke:none; fill-rule:evenodd; fill:#000000" d="M 437.898 445.246L 430.602 443.09L 430.602 444.406L 436.277 445.863L 430.602 447.304L 430.602 448.73L 436.277 450.132L 430.602 451.629L 430.602 452.918L 437.898 450.789L 437.898 449.472L 432.145 448.058L 437.898 446.578"/>
<path style="stroke:none; fill-rule:evenodd; fill:#000000" d="M 430.602 440.8L 430.602 442.004L 437.898 442.004L 437.898 440.8L 430.602 440.8zM 427.699 440.8L 427.699 442.004L 429.164 442.004L 429.164 440.8"/>
<path style="stroke:none; fill-rule:evenodd; fill:#000000" d="M 430.602 436.203L 430.602 437.402L 428.547 437.402L 428.547 438.601L 430.602 438.601L 430.602 439.601L 431.602 439.601L 431.602 438.601L 437.059 438.601C 437.785 438.601 438.199 438.09 438.199 437.168C 438.199 436.882 438.172 436.597 438.105 436.203L 437.145 436.203C 437.188 436.355 437.199 436.539 437.199 436.761C 437.199 437.261 437.062 437.402 436.551 437.402L 431.602 437.402L 431.602 436.203"/>
<path style="stroke:none; fill-rule:evenodd; fill:#000000" d="M 427.699 434.902L 437.898 434.902L 437.898 433.703L 433.871 433.703C 432.379 433.703 431.402 432.941 431.402 431.773C 431.402 431.406 431.527 431.039 431.738 430.765C 431.973 430.437 432.324 430.304 432.84 430.304L 437.902 430.304L 437.902 429.101L 432.391 429.101C 431.168 429.101 430.402 429.972 430.402 431.382C 430.402 432.406 430.711 433.023 431.57 433.703L 427.699 433.703"/>
<path style="stroke:none; fill-rule:evenodd; fill:#000000" d="M 430.691 415.902C 428.672 415.918 427.5 417.277 427.5 419.609C 427.5 421.828 428.656 423.203 430.512 423.203C 431.766 423.203 432.555 422.547 432.906 421.203L 433.582 418.675C 433.922 417.39 434.441 416.8 435.242 416.8C 435.793 416.8 436.355 417.097 436.664 417.531C 436.945 417.937 437.102 418.586 437.102 419.41C 437.102 420.519 436.832 421.273 436.238 421.765C 435.785 422.144 435.289 422.312 434.652 422.304L 434.652 423.504C 435.586 423.488 436.199 423.308 436.754 422.902C 437.699 422.207 438.199 421.031 438.199 419.48C 438.199 418.269 437.922 417.277 437.418 416.621C 436.871 415.937 435.961 415.504 435.078 415.504C 433.82 415.504 432.898 416.285 432.52 417.668L 431.832 420.226C 431.496 421.457 431.105 421.902 430.32 421.902C 429.285 421.902 428.602 421 428.602 419.636C 428.602 418.019 429.348 417.117 430.691 417.101"/>
<path style="stroke:none; fill-rule:evenodd; fill:#000000" d="M 430.602 411.3L 430.602 412.504L 428.547 412.504L 428.547 413.703L 430.602 413.703L 430.602 414.703L 431.602 414.703L 431.602 413.703L 437.059 413.703C 437.785 413.703 438.199 413.191 438.199 412.265C 438.199 411.984 438.172 411.699 438.105 411.3L 437.145 411.3C 437.188 411.457 437.199 411.636 437.199 411.859C 437.199 412.363 437.062 412.504 436.551 412.504L 431.602 412.504L 431.602 411.3"/>
<path style="stroke:none; fill-rule:evenodd; fill:#000000" d="M 430.609 410.004L 437.898 410.004L 437.898 408.8L 434.102 408.8C 433.055 408.8 432.367 408.543 431.965 407.996C 431.699 407.64 431.613 407.3 431.602 406.507L 430.441 406.507C 430.414 406.703 430.398 406.797 430.398 406.949C 430.398 407.683 430.848 408.246 431.934 408.902L 430.609 408.902"/>
<path style="stroke:none; fill-rule:evenodd; fill:#000000" d="M 434.602 399.101C 433.496 399.101 432.84 399.187 432.301 399.394C 431.117 399.871 430.398 400.988 430.398 402.355C 430.398 404.39 431.953 405.703 434.344 405.703C 436.73 405.703 438.199 404.437 438.199 402.39C 438.199 400.722 437.258 399.566 435.676 399.273L 435.676 400.445C 436.609 400.765 437.102 401.422 437.102 402.355C 437.102 403.093 436.766 403.722 436.156 404.109C 435.738 404.39 435.324 404.488 434.602 404.5L 434.602 399.101zM 433.602 404.496C 432.328 404.398 431.5 403.574 431.5 402.394C 431.5 401.25 432.395 400.367 433.523 400.367C 433.547 400.367 433.574 400.367 433.602 400.379"/>
<path style="stroke:none; fill-rule:evenodd; fill:#000000" d="M 430.602 394.902L 430.602 396.101L 428.547 396.101L 428.547 397.3L 430.602 397.3L 430.602 398.3L 431.602 398.3L 431.602 397.3L 437.059 397.3C 437.785 397.3 438.199 396.793 438.199 395.867C 438.199 395.582 438.172 395.3 438.105 394.902L 437.145 394.902C 437.188 395.054 437.199 395.238 437.199 395.461C 437.199 395.964 437.062 396.101 436.551 396.101L 431.602 396.101L 431.602 394.902"/>
<path style="stroke:none; fill-rule:evenodd; fill:#000000" d="M 433.027 388.007C 432.34 388.066 431.895 388.218 431.5 388.504C 430.809 389.007 430.402 389.894 430.402 390.922C 430.402 392.906 431.957 394.203 434.371 394.203C 436.715 394.203 438.199 392.937 438.199 390.937C 438.199 389.179 437.16 388.066 435.383 387.925L 435.383 389.113C 436.527 389.312 437.102 389.918 437.102 390.922C 437.102 392.222 436.07 393.004 434.371 393.004C 432.57 393.004 431.504 392.238 431.504 390.953C 431.504 389.961 432.051 389.34 433.027 389.199"/>
<path style="stroke:none; fill-rule:evenodd; fill:#000000" d="M 427.699 386.601L 437.898 386.601L 437.898 385.402L 433.871 385.402C 432.379 385.402 431.402 384.64 431.402 383.472C 431.402 383.105 431.527 382.738 431.738 382.464C 431.973 382.14 432.324 382.004 432.84 382.004L 437.902 382.004L 437.902 380.804L 432.391 380.804C 431.168 380.804 430.402 381.675 430.402 383.082C 430.402 384.105 430.711 384.726 431.57 385.402L 427.699 385.402"/>
<path style="stroke:none; fill-rule:evenodd; fill:#000000" d="M 436.398 378.703L 437.898 378.703L 437.898 377.8L 438.164 377.8C 439.176 377.8 439.469 377.996 439.5 378.703L 440 378.703C 440 377.703 439.355 377.203 438.121 377.203L 436.398 377.203"/>
<path style="stroke:none; fill-rule:evenodd; fill:#000000" d="M 430.859 362.836C 428.602 363.242 427.5 364.523 427.5 366.757C 427.5 368.125 427.934 369.226 428.773 369.98C 429.781 370.898 431.238 371.402 432.891 371.402C 434.57 371.402 436.016 370.886 437.008 369.922C 437.82 369.14 438.199 368.136 438.199 366.812C 438.199 364.328 436.863 362.929 434.176 362.625L 434.176 363.964C 434.883 364.078 435.363 364.214 435.77 364.425C 436.617 364.843 437.098 365.707 437.098 366.797C 437.098 368.816 435.457 370.101 432.879 370.101C 430.23 370.101 428.598 368.875 428.598 366.906C 428.598 366.086 428.859 365.316 429.266 364.898C 429.629 364.519 430.074 364.312 430.855 364.16"/>
<path style="stroke:none; fill-rule:evenodd; fill:#000000" d="M 430.398 358.214C 430.398 360.261 431.859 361.504 434.301 361.504C 436.742 361.504 438.199 360.277 438.199 358.203C 438.199 356.156 436.742 354.902 434.355 354.902C 431.844 354.902 430.398 356.113 430.398 358.214zM 431.5 358.203C 431.5 356.886 432.559 356.101 434.344 356.101C 436.031 356.101 437.102 356.914 437.102 358.203C 437.102 359.504 436.043 360.3 434.301 360.3C 432.57 360.3 431.5 359.504 431.5 358.203"/>
<path style="stroke:none; fill-rule:evenodd; fill:#000000" d="M 427.699 353.3L 437.898 353.3L 437.898 352.101L 427.699 352.101L 427.699 353.3z"/>
<path style="stroke:none; fill-rule:evenodd; fill:#000000" d="M 430.398 347.316C 430.398 349.363 431.859 350.601 434.301 350.601C 436.742 350.601 438.199 349.379 438.199 347.3C 438.199 345.254 436.742 344 434.355 344C 431.844 344 430.398 345.214 430.398 347.316zM 431.5 347.3C 431.5 345.988 432.559 345.203 434.344 345.203C 436.031 345.203 437.102 346.015 437.102 347.3C 437.102 348.605 436.043 349.402 434.301 349.402C 432.57 349.402 431.5 348.605 431.5 347.3"/>
<path style="stroke:none; fill-rule:evenodd; fill:#000000" d="M 430.609 342.3L 437.898 342.3L 437.898 341.101L 434.102 341.101C 433.055 341.101 432.367 340.843 431.965 340.297C 431.699 339.941 431.613 339.601 431.602 338.808L 430.441 338.808C 430.414 339 430.398 339.097 430.398 339.246C 430.398 339.984 430.848 340.547 431.934 341.203L 430.609 341.203"/>
<path style="stroke:none; fill-rule:evenodd; fill:#000000" d="M 436.398 337.402L 437.898 337.402L 437.898 336.504L 438.164 336.504C 439.176 336.504 439.469 336.699 439.5 337.402L 440 337.402C 440 336.402 439.355 335.902 438.121 335.902L 436.398 335.902"/>
<path style="stroke:none; fill-rule:evenodd; fill:#000000" d="M 437.215 323.414C 437.199 323.539 437.199 323.597 437.199 323.668C 437.199 324.074 436.992 324.3 436.633 324.3L 432.379 324.3C 431.094 324.3 430.398 325.254 430.398 327.054C 430.398 328.117 430.703 329 431.238 329.488C 431.609 329.824 432.02 329.964 432.734 329.992L 432.734 328.828C 431.887 328.73 431.5 328.203 431.5 327.125C 431.5 326.086 431.887 325.5 432.578 325.5L 432.883 325.5C 433.367 325.5 433.574 325.793 433.684 326.707C 433.891 328.336 433.945 328.586 434.125 329.031C 434.473 329.875 435.121 330.3 436.059 330.3C 437.371 330.3 438.199 329.379 438.199 327.898C 438.199 326.976 437.887 326.234 437.145 325.41C 437.871 325.328 438.199 324.964 438.199 324.207C 438.199 323.968 438.176 323.789 438.078 323.41L 437.215 323.414zM 435.59 325.504C 435.98 325.504 436.219 325.613 436.543 325.961C 436.977 326.429 437.199 327 437.199 327.675C 437.199 328.578 436.766 329.101 436.023 329.101C 435.254 329.101 434.863 328.59 434.68 327.359C 434.512 326.14 434.457 325.89 434.273 325.504"/>
<path style="stroke:none; fill-rule:evenodd; fill:#000000" d="M 430.609 322.101L 437.898 322.101L 437.898 320.902L 433.871 320.902C 432.379 320.902 431.402 320.14 431.402 318.972C 431.402 318.074 431.961 317.504 432.84 317.504L 437.898 317.504L 437.898 316.304L 432.391 316.304C 431.18 316.304 430.398 317.203 430.398 318.597C 430.398 319.675 430.82 320.367 431.836 321.004L 430.609 321.004"/>
<path style="stroke:none; fill-rule:evenodd; fill:#000000" d="M 427.699 308.402L 427.699 309.601L 431.488 309.601C 430.777 310.082 430.402 310.851 430.402 311.812C 430.402 313.679 431.914 314.902 434.23 314.902C 436.688 314.902 438.199 313.691 438.199 311.726C 438.199 310.726 437.828 310.031 436.934 309.402L 437.902 309.402L 437.902 308.402L 427.699 308.402zM 431.5 311.617C 431.5 310.382 432.605 309.601 434.328 309.601C 435.996 309.601 437.102 310.398 437.102 311.605C 437.102 312.867 435.984 313.703 434.301 313.703C 432.617 313.703 431.5 312.867 431.5 311.617"/>
<path style="stroke:none; fill-rule:evenodd; fill:#000000" d="M 433.199 301.004L 433.199 296.168L 432.102 296.168L 432.102 301.004L 428.801 301.004L 428.801 295.5L 427.699 295.5L 427.699 302.3L 437.902 302.3L 437.902 301.004"/>
<path style="stroke:none; fill-rule:evenodd; fill:#000000" d="M 430.602 293.004L 430.602 294.203L 437.898 294.203L 437.898 293.004L 430.602 293.004zM 427.699 293.004L 427.699 294.203L 429.164 294.203L 429.164 293.004"/>
<path style="stroke:none; fill-rule:evenodd; fill:#000000" d="M 430.609 290.902L 437.898 290.902L 437.898 289.703L 434.102 289.703C 433.055 289.703 432.367 289.441 431.965 288.898C 431.699 288.543 431.613 288.203 431.602 287.41L 430.441 287.41C 430.414 287.601 430.398 287.699 430.398 287.847C 430.398 288.586 430.848 289.144 431.934 289.8L 430.609 289.8"/>
<path style="stroke:none; fill-rule:evenodd; fill:#000000" d="M 432.609 281.172C 431.195 281.183 430.398 282.129 430.398 283.808C 430.398 285.504 431.27 286.601 432.609 286.601C 433.742 286.601 434.281 286.019 434.695 284.304L 434.961 283.226C 435.152 282.422 435.445 282.101 435.969 282.101C 436.645 282.101 437.102 282.789 437.102 283.808C 437.102 284.437 436.926 284.968 436.625 285.261C 436.422 285.445 436.219 285.527 435.719 285.597L 435.719 286.828C 437.395 286.773 438.199 285.824 438.199 283.914C 438.199 282.074 437.305 280.906 435.906 280.906C 434.832 280.906 434.238 281.515 433.891 282.953L 433.629 284.062C 433.41 285.004 433.105 285.406 432.594 285.406C 431.93 285.406 431.504 284.808 431.504 283.859C 431.504 282.925 431.883 282.425 432.609 282.398"/>
<path style="stroke:none; fill-rule:evenodd; fill:#000000" d="M 430.602 276.703L 430.602 277.902L 428.547 277.902L 428.547 279.101L 430.602 279.101L 430.602 280.101L 431.602 280.101L 431.602 279.101L 437.059 279.101C 437.785 279.101 438.199 278.59 438.199 277.668C 438.199 277.382 438.172 277.097 438.105 276.703L 437.145 276.703C 437.188 276.855 437.199 277.039 437.199 277.261C 437.199 277.761 437.062 277.902 436.551 277.902L 431.602 277.902L 431.602 276.703"/>
<path style="stroke:none; fill-rule:evenodd; fill:#000000" d="M 427.699 263.504L 427.699 264.703L 436.039 264.703L 427.699 270L 427.699 271.402L 437.898 271.402L 437.898 270.203L 429.625 270.203L 437.898 264.964L 437.898 263.504"/>
<path style="stroke:none; fill-rule:evenodd; fill:#000000" d="M 430.398 258.617C 430.398 260.664 431.859 261.902 434.301 261.902C 436.742 261.902 438.199 260.675 438.199 258.601C 438.199 256.554 436.742 255.3 434.355 255.3C 431.844 255.3 430.398 256.511 430.398 258.617zM 431.5 258.601C 431.5 257.285 432.559 256.504 434.344 256.504C 436.031 256.504 437.102 257.312 437.102 258.601C 437.102 259.906 436.043 260.703 434.301 260.703C 432.57 260.703 431.5 259.906 431.5 258.601"/>
<path style="stroke:none; fill-rule:evenodd; fill:#000000" d="M 430.609 253.601L 437.898 253.601L 437.898 252.402L 434.102 252.402C 433.055 252.402 432.367 252.144 431.965 251.597C 431.699 251.242 431.613 250.902 431.602 250.109L 430.441 250.109C 430.414 250.3 430.398 250.398 430.398 250.547C 430.398 251.285 430.848 251.847 431.934 252.504L 430.609 252.504"/>
<path style="stroke:none; fill-rule:evenodd; fill:#000000" d="M 430.609 248.902L 437.898 248.902L 437.898 247.703L 433.312 247.703C 432.254 247.703 431.402 246.953 431.402 246.023C 431.402 245.179 431.93 244.703 432.867 244.703L 437.898 244.703L 437.898 243.504L 433.312 243.504C 432.254 243.504 431.402 242.726 431.402 241.769C 431.402 240.91 431.945 240.402 432.867 240.402L 437.898 240.402L 437.898 239.203L 432.434 239.203C 431.125 239.203 430.402 239.957 430.402 241.328C 430.402 242.304 430.684 242.894 431.477 243.578C 430.723 244.011 430.402 244.601 430.402 245.55C 430.402 246.531 430.766 247.172 431.641 247.8L 430.609 247.8"/>
<path style="stroke:none; fill-rule:evenodd; fill:#000000" d="M 437.215 230.812C 437.199 230.937 437.199 230.996 437.199 231.066C 437.199 231.476 436.992 231.703 436.633 231.703L 432.379 231.703C 431.094 231.703 430.398 232.652 430.398 234.457C 430.398 235.519 430.703 236.398 431.238 236.886C 431.609 237.222 432.02 237.363 432.734 237.39L 432.734 236.226C 431.887 236.129 431.5 235.605 431.5 234.523C 431.5 233.484 431.887 232.902 432.578 232.902L 432.883 232.902C 433.367 232.902 433.574 233.191 433.684 234.105C 433.891 235.738 433.945 235.984 434.125 236.429C 434.473 237.273 435.121 237.703 436.059 237.703C 437.371 237.703 438.199 236.781 438.199 235.297C 438.199 234.375 437.887 233.636 437.145 232.808C 437.871 232.726 438.199 232.363 438.199 231.609C 438.199 231.371 438.176 231.187 438.078 230.812L 437.215 230.812zM 435.59 232.902C 435.98 232.902 436.219 233.015 436.543 233.359C 436.977 233.832 437.199 234.398 437.199 235.078C 437.199 235.976 436.766 236.504 436.023 236.504C 435.254 236.504 434.863 235.992 434.68 234.757C 434.512 233.539 434.457 233.293 434.273 232.902"/>
<path style="stroke:none; fill-rule:evenodd; fill:#000000" d="M 427.699 229.601L 437.898 229.601L 437.898 228.402L 427.699 228.402L 427.699 229.601z"/>
<path style="stroke:none; fill-rule:evenodd; fill:#000000" d="M 430.602 225.3L 430.602 226.504L 437.898 226.504L 437.898 225.3L 430.602 225.3zM 427.699 225.3L 427.699 226.504L 429.164 226.504L 429.164 225.3"/>
<path style="stroke:none; fill-rule:evenodd; fill:#000000" d="M 430.602 218.101L 430.602 223.605L 431.602 223.605L 431.602 219.488L 436.852 223.906L 437.898 223.906L 437.898 217.906L 436.898 217.906L 436.898 222.457L 431.602 218.105"/>
<path style="stroke:none; fill-rule:evenodd; fill:#000000" d="M 434.602 210.101C 433.496 210.101 432.84 210.187 432.301 210.394C 431.117 210.871 430.398 211.988 430.398 213.355C 430.398 215.39 431.953 216.703 434.344 216.703C 436.73 216.703 438.199 215.437 438.199 213.39C 438.199 211.722 437.258 210.566 435.676 210.273L 435.676 211.445C 436.609 211.765 437.102 212.422 437.102 213.355C 437.102 214.093 436.766 214.722 436.156 215.113C 435.738 215.39 435.324 215.488 434.602 215.5L 434.602 210.101zM 433.602 215.496C 432.328 215.398 431.5 214.574 431.5 213.394C 431.5 212.25 432.395 211.367 433.523 211.367C 433.547 211.367 433.574 211.367 433.602 211.379"/>
<path style="stroke:none; fill-rule:evenodd; fill:#000000" d="M 427.699 202.601L 427.699 203.8L 431.488 203.8C 430.777 204.285 430.402 205.05 430.402 206.011C 430.402 207.882 431.914 209.101 434.23 209.101C 436.688 209.101 438.199 207.89 438.199 205.929C 438.199 204.925 437.828 204.23 436.934 203.601L 437.902 203.601L 437.902 202.601L 427.699 202.601zM 431.5 205.82C 431.5 204.586 432.605 203.8 434.328 203.8C 435.996 203.8 437.102 204.597 437.102 205.804C 437.102 207.066 435.984 207.902 434.301 207.902C 432.617 207.902 431.5 207.066 431.5 205.82"/>
<path style="stroke:none; fill-rule:evenodd; fill:#000000" d="M 437.898 187.386L 427.699 184.797L 427.699 186.254L 435.98 188.129L 427.699 190.453L 427.699 191.851L 435.98 194.121L 427.699 196.039L 427.699 197.496L 437.898 194.875L 437.898 193.449L 429.516 191.168L 437.898 188.812"/>
<path style="stroke:none; fill-rule:evenodd; fill:#000000" d="M 434.602 177.402C 433.496 177.402 432.84 177.488 432.301 177.695C 431.117 178.172 430.398 179.289 430.398 180.656C 430.398 182.691 431.953 184.004 434.344 184.004C 436.73 184.004 438.199 182.738 438.199 180.691C 438.199 179.023 437.258 177.867 435.676 177.574L 435.676 178.746C 436.609 179.066 437.102 179.722 437.102 180.656C 437.102 181.394 436.766 182.019 436.156 182.41C 435.738 182.691 435.324 182.789 434.602 182.8L 434.602 177.402zM 433.602 182.797C 432.328 182.699 431.5 181.871 431.5 180.695C 431.5 179.547 432.395 178.668 433.523 178.668C 433.547 178.668 433.574 178.668 433.602 178.679"/>
<path style="stroke:none; fill-rule:evenodd; fill:#000000" d="M 430.602 174.703L 430.602 175.902L 437.898 175.902L 437.898 174.703L 430.602 174.703zM 427.699 174.703L 427.699 175.902L 429.164 175.902L 429.164 174.703"/>
<path style="stroke:none; fill-rule:evenodd; fill:#000000" d="M 430.602 167.902L 431.629 167.902C 430.793 168.496 430.398 169.214 430.398 170.16C 430.398 172.035 432.012 173.3 434.371 173.3C 435.562 173.3 436.535 172.984 437.23 172.386C 437.84 171.847 438.199 171.07 438.199 170.308C 438.199 169.39 437.816 168.754 436.906 168.101L 437.289 168.101C 438.289 168.101 438.898 168.226 439.309 168.519C 439.746 168.824 440 169.418 440 170.125C 440 170.648 439.855 171.121 439.598 171.437C 439.383 171.699 439.184 171.812 438.738 171.879L 438.738 173.054C 440.156 172.929 441 171.863 441 170.152C 441 169.066 440.648 168.136 440.062 167.664C 439.387 167.109 438.465 166.898 436.738 166.898L 430.602 166.898L 430.602 167.902zM 431.5 170.09C 431.5 168.84 432.543 168.101 434.344 168.101C 436.059 168.101 437.102 168.851 437.102 170.074C 437.102 171.34 436.043 172.101 434.301 172.101C 432.57 172.101 431.5 171.324 431.5 170.09"/>
<path style="stroke:none; fill-rule:evenodd; fill:#000000" d="M 427.699 164.902L 437.898 164.902L 437.898 163.703L 433.871 163.703C 432.379 163.703 431.402 162.941 431.402 161.773C 431.402 161.406 431.527 161.039 431.738 160.765C 431.973 160.437 432.324 160.304 432.84 160.304L 437.902 160.304L 437.902 159.101L 432.391 159.101C 431.168 159.101 430.402 159.972 430.402 161.382C 430.402 162.406 430.711 163.023 431.57 163.703L 427.699 163.703"/>
<path style="stroke:none; fill-rule:evenodd; fill:#000000" d="M 430.602 154.601L 430.602 155.8L 428.547 155.8L 428.547 157.004L 430.602 157.004L 430.602 158L 431.602 158L 431.602 157.004L 437.059 157.004C 437.785 157.004 438.199 156.492 438.199 155.566C 438.199 155.285 438.172 155 438.105 154.601L 437.145 154.601C 437.188 154.754 437.199 154.937 437.199 155.16C 437.199 155.664 437.062 155.8 436.551 155.8L 431.602 155.8L 431.602 154.601"/>
<path style="stroke:none; fill-rule:evenodd; fill:#000000" d="M 430.859 141.132C 428.602 141.539 427.5 142.824 427.5 145.054C 427.5 146.425 427.934 147.527 428.773 148.281C 429.781 149.199 431.238 149.703 432.891 149.703C 434.57 149.703 436.016 149.187 437.008 148.222C 437.82 147.441 438.199 146.437 438.199 145.113C 438.199 142.629 436.863 141.23 434.176 140.925L 434.176 142.265C 434.883 142.375 435.363 142.515 435.77 142.726C 436.617 143.144 437.098 144.007 437.098 145.097C 437.098 147.117 435.457 148.402 432.879 148.402C 430.23 148.402 428.598 147.175 428.598 145.207C 428.598 144.382 428.859 143.617 429.266 143.199C 429.629 142.82 430.074 142.613 430.855 142.461"/>
<path style="stroke:none; fill-rule:evenodd; fill:#000000" d="M 430.398 136.515C 430.398 138.562 431.859 139.8 434.301 139.8C 436.742 139.8 438.199 138.578 438.199 136.504C 438.199 134.457 436.742 133.203 434.355 133.203C 431.844 133.203 430.398 134.414 430.398 136.515zM 431.5 136.504C 431.5 135.187 432.559 134.402 434.344 134.402C 436.031 134.402 437.102 135.214 437.102 136.504C 437.102 137.804 436.043 138.601 434.301 138.601C 432.57 138.601 431.5 137.804 431.5 136.504"/>
<path style="stroke:none; fill-rule:evenodd; fill:#000000" d="M 430.609 131.504L 437.898 131.504L 437.898 130.3L 434.102 130.3C 433.055 130.3 432.367 130.043 431.965 129.496C 431.699 129.14 431.613 128.8 431.602 128.007L 430.441 128.007C 430.414 128.203 430.398 128.297 430.398 128.449C 430.398 129.183 430.848 129.746 431.934 130.402L 430.609 130.402"/>
<path style="stroke:none; fill-rule:evenodd; fill:#000000" d="M 430.609 126.8L 437.898 126.8L 437.898 125.601L 434.102 125.601C 433.055 125.601 432.367 125.343 431.965 124.797C 431.699 124.441 431.613 124.101 431.602 123.308L 430.441 123.308C 430.414 123.5 430.398 123.597 430.398 123.746C 430.398 124.484 430.848 125.047 431.934 125.703L 430.609 125.703"/>
<path style="stroke:none; fill-rule:evenodd; fill:#000000" d="M 434.602 116.004C 433.496 116.004 432.84 116.086 432.301 116.297C 431.117 116.769 430.398 117.886 430.398 119.254C 430.398 121.293 431.953 122.605 434.344 122.605C 436.73 122.605 438.199 121.34 438.199 119.293C 438.199 117.621 437.258 116.468 435.676 116.175L 435.676 117.347C 436.609 117.668 437.102 118.324 437.102 119.254C 437.102 119.996 436.766 120.621 436.156 121.011C 435.738 121.289 435.324 121.386 434.602 121.402L 434.602 116.004zM 433.602 121.394C 432.328 121.297 431.5 120.472 431.5 119.297C 431.5 118.148 432.395 117.265 433.523 117.265C 433.547 117.265 433.574 117.265 433.602 117.281"/>
<path style="stroke:none; fill-rule:evenodd; fill:#000000" d="M 433.027 108.808C 432.34 108.867 431.895 109.019 431.5 109.3C 430.809 109.808 430.402 110.695 430.402 111.722C 430.402 113.707 431.957 115.004 434.371 115.004C 436.715 115.004 438.199 113.738 438.199 111.738C 438.199 109.976 437.16 108.867 435.383 108.722L 435.383 109.914C 436.527 110.113 437.102 110.718 437.102 111.722C 437.102 113.023 436.07 113.8 434.371 113.8C 432.57 113.8 431.504 113.039 431.504 111.75C 431.504 110.761 432.051 110.136 433.027 109.996"/>
<path style="stroke:none; fill-rule:evenodd; fill:#000000" d="M 430.602 104.8L 430.602 106.004L 428.547 106.004L 428.547 107.203L 430.602 107.203L 430.602 108.203L 431.602 108.203L 431.602 107.203L 437.059 107.203C 437.785 107.203 438.199 106.691 438.199 105.765C 438.199 105.484 438.172 105.199 438.105 104.8L 437.145 104.8C 437.188 104.957 437.199 105.136 437.199 105.359C 437.199 105.863 437.062 106.004 436.551 106.004L 431.602 106.004L 431.602 104.8"/>
<path style="stroke:none; fill-rule:evenodd; fill:#000000" d="M 430.602 102.402L 430.602 103.601L 437.898 103.601L 437.898 102.402L 430.602 102.402zM 427.699 102.402L 427.699 103.601L 429.164 103.601L 429.164 102.402"/>
<path style="stroke:none; fill-rule:evenodd; fill:#000000" d="M 430.398 97.617C 430.398 99.664 431.859 100.902 434.301 100.902C 436.742 100.902 438.199 99.675 438.199 97.601C 438.199 95.554 436.742 94.3 434.355 94.3C 431.844 94.3 430.398 95.511 430.398 97.617zM 431.5 97.601C 431.5 96.285 432.559 95.504 434.344 95.504C 436.031 95.504 437.102 96.312 437.102 97.601C 437.102 98.906 436.043 99.703 434.301 99.703C 432.57 99.703 431.5 98.906 431.5 97.601"/>
<path style="stroke:none; fill-rule:evenodd; fill:#000000" d="M 430.609 92.601L 437.898 92.601L 437.898 91.402L 433.871 91.402C 432.379 91.402 431.402 90.64 431.402 89.472C 431.402 88.574 431.961 88.004 432.84 88.004L 437.898 88.004L 437.898 86.804L 432.391 86.804C 431.18 86.804 430.398 87.703 430.398 89.097C 430.398 90.175 430.82 90.867 431.836 91.504L 430.609 91.504"/>
<path style="stroke:#ff0000; stroke-width:0.5; fill:none" d="M 433.199 77.402L 433.199 37.504M 430.102 77.402L 436.301 77.402M 430.102 37.504L 436.301 37.504M 282 603.3L 280.602 603.3M 282 606.402L 282 600.203M 280.602 606.402L 280.602 600.203M 228.602 394.504L 228 394.504M 228.602 397.601L 228.602 391.402M 228 397.601L 228 391.402M 377.801 641.3L 377.5 641.3M 377.801 644.402L 377.801 638.203M 377.5 644.402L 377.5 638.203M 260.801 527.402L 260 527.402M 260.801 530.504L 260.801 524.3M 260 530.504L 260 524.3M 175.199 413.504L 174.102 413.504M 175.199 416.601L 175.199 410.402M 174.102 416.601L 174.102 410.402M 318.801 565.402L 317.801 565.402M 318.801 568.504L 318.801 562.3M 317.801 568.504L 317.801 562.3M 187.699 337.601L 185.699 337.601M 187.699 340.703L 187.699 334.504M 185.699 340.703L 185.699 334.504M 171.898 261.601L 170.898 261.601M 171.898 264.703L 171.898 258.504M 170.898 264.703L 170.898 258.504M 302.199 527.402L 301.5 527.402M 302.199 530.504L 302.199 524.3M 301.5 530.504L 301.5 524.3M 233.301 432.504L 232.801 432.504M 233.301 435.601L 233.301 429.402M 232.801 435.601L 232.801 429.402M 292.801 527.402L 292.398 527.402M 292.801 530.504L 292.801 524.3M 292.398 530.504L 292.398 524.3M 138 109.8L 136.898 109.8M 138 112.902L 138 106.703M 136.898 112.902L 136.898 106.703M 273.602 470.402L 273.102 470.402M 273.602 473.504L 273.602 467.3M 273.102 473.504L 273.102 467.3M 225.102 470.402L 223.5 470.402M 225.102 473.504L 225.102 467.3M 223.5 473.504L 223.5 467.3M 182.898 356.504L 181.699 356.504M 182.898 359.601L 182.898 353.402M 181.699 359.601L 181.699 353.402M 159.898 223.703L 159.398 223.703M 159.898 226.8L 159.898 220.601M 159.398 226.8L 159.398 220.601M 112.602 33.8L 111.301 33.8M 112.602 36.902L 112.602 30.703"/>
<path style="stroke:#ff0000; stroke-width:0.5; fill:none" d="M 111.301 36.902L 111.301 30.703M 343.199 584.3L 342.199 584.3M 343.199 587.402L 343.199 581.203M 342.199 587.402L 342.199 581.203M 229.801 394.504L 229.301 394.504M 229.801 397.601L 229.801 391.402M 229.301 397.601L 229.301 391.402M 189.699 299.601L 188.898 299.601M 189.699 302.703L 189.699 296.504M 188.898 302.703L 188.898 296.504"/>
<path style="stroke:#ff0000; stroke-width:0.5; fill:none" d="M 284.449 603.3L 278.148 603.3"/>
<path style="stroke:#ff0000; stroke-width:0.5; fill:none" d="M 281.301 606.453L 281.301 600.152"/>
<path style="stroke:#ff0000; stroke-width:0.5; fill:none" d="M 231.449 394.504L 225.148 394.504"/>
<path style="stroke:#ff0000; stroke-width:0.5; fill:none" d="M 228.301 397.652L 228.301 391.351"/>
<path style="stroke:#ff0000; stroke-width:0.5; fill:none" d="M 380.75 641.3L 374.449 641.3"/>
<path style="stroke:#ff0000; stroke-width:0.5; fill:none" d="M 377.602 644.453L 377.602 638.152"/>
<path style="stroke:#ff0000; stroke-width:0.5; fill:none" d="M 263.551 527.402L 257.25 527.402"/>
<path style="stroke:#ff0000; stroke-width:0.5; fill:none" d="M 260.398 530.55L 260.398 524.254"/>
<path style="stroke:#ff0000; stroke-width:0.5; fill:none" d="M 177.75 413.504L 171.449 413.504"/>
<path style="stroke:#ff0000; stroke-width:0.5; fill:none" d="M 174.602 416.652L 174.602 410.351"/>
<path style="stroke:#ff0000; stroke-width:0.5; fill:none" d="M 321.449 565.402L 315.148 565.402"/>
<path style="stroke:#ff0000; stroke-width:0.5; fill:none" d="M 318.301 568.55L 318.301 562.254"/>
<path style="stroke:#ff0000; stroke-width:0.5; fill:none" d="M 189.852 337.601L 183.551 337.601"/>
<path style="stroke:#ff0000; stroke-width:0.5; fill:none" d="M 186.699 340.754L 186.699 334.453"/>
<path style="stroke:#ff0000; stroke-width:0.5; fill:none" d="M 174.551 261.601L 168.25 261.601"/>
<path style="stroke:#ff0000; stroke-width:0.5; fill:none" d="M 171.398 264.754L 171.398 258.453"/>
<path style="stroke:#ff0000; stroke-width:0.5; fill:none" d="M 304.949 527.402L 298.648 527.402"/>
<path style="stroke:#ff0000; stroke-width:0.5; fill:none" d="M 301.801 530.55L 301.801 524.254"/>
<path style="stroke:#ff0000; stroke-width:0.5; fill:none" d="M 236.148 432.504L 229.852 432.504"/>
<path style="stroke:#ff0000; stroke-width:0.5; fill:none" d="M 233 435.652L 233 429.351"/>
<path style="stroke:#ff0000; stroke-width:0.5; fill:none" d="M 295.75 527.402L 289.449 527.402"/>
<path style="stroke:#ff0000; stroke-width:0.5; fill:none" d="M 292.602 530.55L 292.602 524.254"/>
<path style="stroke:#ff0000; stroke-width:0.5; fill:none" d="M 140.648 109.8L 134.352 109.8"/>
<path style="stroke:#ff0000; stroke-width:0.5; fill:none" d="M 137.5 112.953L 137.5 106.652"/>
<path style="stroke:#ff0000; stroke-width:0.5; fill:none" d="M 276.449 470.402L 270.148 470.402"/>
<path style="stroke:#ff0000; stroke-width:0.5; fill:none" d="M 273.301 473.55L 273.301 467.254"/>
<path style="stroke:#ff0000; stroke-width:0.5; fill:none" d="M 227.449 470.402L 221.148 470.402"/>
<path style="stroke:#ff0000; stroke-width:0.5; fill:none" d="M 224.301 473.55L 224.301 467.254"/>
<path style="stroke:#ff0000; stroke-width:0.5; fill:none" d="M 185.449 356.504L 179.148 356.504"/>
<path style="stroke:#ff0000; stroke-width:0.5; fill:none" d="M 182.301 359.652L 182.301 353.351"/>
<path style="stroke:#ff0000; stroke-width:0.5; fill:none" d="M 162.852 223.703L 156.551 223.703"/>
<path style="stroke:#ff0000; stroke-width:0.5; fill:none" d="M 159.699 226.851L 159.699 220.55"/>
<path style="stroke:#ff0000; stroke-width:0.5; fill:none" d="M 115.148 33.8L 108.852 33.8"/>
<path style="stroke:#ff0000; stroke-width:0.5; fill:none" d="M 112 36.953L 112 30.652"/>
<path style="stroke:#ff0000; stroke-width:0.5; fill:none" d="M 345.852 584.3L 339.551 584.3"/>
<path style="stroke:#ff0000; stroke-width:0.5; fill:none" d="M 342.699 587.453L 342.699 581.152"/>
<path style="stroke:#ff0000; stroke-width:0.5; fill:none" d="M 232.648 394.504L 226.352 394.504"/>
<path style="stroke:#ff0000; stroke-width:0.5; fill:none" d="M 229.5 397.652L 229.5 391.351"/>
<path style="stroke:#ff0000; stroke-width:0.5; fill:none" d="M 192.449 299.601L 186.148 299.601"/>
<path style="stroke:#ff0000; stroke-width:0.5; fill:none" d="M 189.301 302.754L 189.301 296.453"/>
<path style="stroke:#ff0000; stroke-width:0.5; fill:none" d="M 436.352 57.504L 430.051 57.504"/>
<path style="stroke:#ff0000; stroke-width:0.5; fill:none" d="M 433.199 60.652L 433.199 54.351"/>
<path style="stroke:#000000; stroke-width:1; fill:none" d="M 446.5 653.902L 446.5 20.703L 26.5 20.703L 26.5 653.902L 446.5 653.902"/>
</g>
</svg>