<?xml version="1.0" encoding="ISO-8859-1" standalone="yes"?>
<svg xmlns="http://www.w3.org/2000/svg" width="738.767" height="981.665">
  <defs> 
    <marker id="ArrowEnd" viewBox="0 0 10 10" refX="0" refY="5" 
     markerUnits="strokeWidth" 
     markerWidth="4" 
     markerHeight="3" 
     orient="auto"> 
        <path d="M 0 0 L 10 5 L 0 10 z" /> 
    </marker>
    <marker id="ArrowStart" viewBox="0 0 10 10" refX="10" refY="5" 
     markerUnits="strokeWidth" 
     markerWidth="4" 
     markerHeight="3" 
     orient="auto"> 
        <path d="M 10 0 L 0 5 L 10 10 z" /> 
    </marker> </defs>
<g>
<path style="stroke:#000000; stroke-width:1; fill:none" d="M 529.134 803.236L 529.134 796.935M 529.134 178.435L 529.134 184.736"/>
<path style="stroke:none; fill-rule:evenodd; fill:#000000" d="M 523.935 815.583C 523.935 816.509 524.345 817.349 525.032 817.868C 525.9 818.513 527.22 818.833 529.04 818.833C 532.368 818.833 534.134 817.712 534.134 815.583C 534.134 813.482 532.368 812.333 529.126 812.333C 527.204 812.333 525.927 812.642 525.032 813.298C 524.329 813.818 523.935 814.646 523.935 815.583zM 525.032 815.583C 525.032 814.212 526.372 813.532 529.021 813.532C 531.825 813.532 533.134 814.196 533.134 815.614C 533.134 816.954 531.767 817.634 529.064 817.634C 526.361 817.634 525.032 816.954 525.032 815.583z"/>
<path style="stroke:#000000; stroke-width:1; fill:none" d="M 445.134 803.236L 445.134 796.935M 445.134 178.435L 445.134 184.736"/>
<path style="stroke:none; fill-rule:evenodd; fill:#000000" d="M 439.935 827.282C 439.935 828.208 440.345 829.048 441.032 829.567C 441.9 830.212 443.22 830.532 445.04 830.532C 448.368 830.532 450.134 829.411 450.134 827.282C 450.134 825.181 448.368 824.032 445.126 824.032C 443.204 824.032 441.927 824.341 441.032 825.001C 440.329 825.517 439.935 826.345 439.935 827.282zM 441.032 827.282C 441.032 825.911 442.372 825.235 445.021 825.235C 447.825 825.235 449.134 825.899 449.134 827.313C 449.134 828.653 447.767 829.333 445.064 829.333C 442.361 829.333 441.032 828.653 441.032 827.282z"/>
<path style="stroke:none; fill-rule:evenodd; fill:#000000" d="M 448.333 822.134L 449.833 822.134L 449.833 820.634L 448.333 820.634L 448.333 822.134z"/>
<path style="stroke:none; fill-rule:evenodd; fill:#000000" d="M 448.634 812.404L 448.634 817.583C 447.822 817.458 447.306 817.013 446.595 815.806L 445.837 814.415C 445.083 813.04 444.064 812.333 442.845 812.333C 442.021 812.333 441.251 812.669 440.72 813.251C 440.189 813.833 439.935 814.556 439.935 815.486C 439.935 816.736 440.38 817.665 441.216 818.208C 441.743 818.556 442.353 818.708 443.353 818.736L 443.353 817.501C 442.696 817.458 442.298 817.376 441.982 817.208C 441.392 816.884 441.036 816.239 441.036 815.497C 441.036 814.376 441.833 813.532 442.892 813.532C 443.669 813.532 444.337 813.997 444.837 814.88L 445.564 816.169C 446.732 818.243 447.665 818.845 449.837 818.958L 449.837 812.404L 448.634 812.404z"/>
<path style="stroke:#000000; stroke-width:1; fill:none" d="M 361.134 803.236L 361.134 796.935M 361.134 178.435L 361.134 184.736"/>
<path style="stroke:none; fill-rule:evenodd; fill:#000000" d="M 355.935 827.282C 355.935 828.208 356.345 829.048 357.032 829.567C 357.9 830.212 359.22 830.532 361.04 830.532C 364.368 830.532 366.134 829.411 366.134 827.282C 366.134 825.181 364.368 824.032 361.126 824.032C 359.204 824.032 357.927 824.341 357.032 825.001C 356.329 825.517 355.935 826.345 355.935 827.282zM 357.032 827.282C 357.032 825.911 358.372 825.235 361.021 825.235C 363.825 825.235 365.134 825.899 365.134 827.313C 365.134 828.653 363.767 829.333 361.064 829.333C 358.361 829.333 357.032 828.653 357.032 827.282z"/>
<path style="stroke:none; fill-rule:evenodd; fill:#000000" d="M 364.333 822.134L 365.833 822.134L 365.833 820.634L 364.333 820.634L 364.333 822.134z"/>
<path style="stroke:none; fill-rule:evenodd; fill:#000000" d="M 363.435 814.833L 365.833 814.833L 365.833 813.634L 363.435 813.634L 363.435 812.154L 362.333 812.154L 362.333 813.634L 355.935 813.634L 355.935 814.544L 362.142 819.04L 363.435 819.04L 363.435 814.833zM 362.333 814.833L 362.333 817.962L 358.009 814.833L 362.333 814.833z"/>
<path style="stroke:#000000; stroke-width:1; fill:none" d="M 277.134 803.236L 277.134 796.935M 277.134 178.435L 277.134 184.736"/>
<path style="stroke:none; fill-rule:evenodd; fill:#000000" d="M 271.935 827.282C 271.935 828.208 272.345 829.048 273.032 829.567C 273.9 830.212 275.22 830.532 277.04 830.532C 280.368 830.532 282.134 829.411 282.134 827.282C 282.134 825.181 280.368 824.032 277.126 824.032C 275.204 824.032 273.923 824.341 273.032 825.001C 272.329 825.517 271.935 826.345 271.935 827.282zM 273.032 827.282C 273.032 825.911 274.372 825.235 277.021 825.235C 279.825 825.235 281.134 825.899 281.134 827.313C 281.134 828.653 279.767 829.333 277.064 829.333C 274.361 829.333 273.032 828.653 273.032 827.282z"/>
<path style="stroke:none; fill-rule:evenodd; fill:#000000" d="M 280.333 822.134L 281.833 822.134L 281.833 820.634L 280.333 820.634L 280.333 822.134z"/>
<path style="stroke:none; fill-rule:evenodd; fill:#000000" d="M 274.532 812.462C 272.904 812.7 271.935 813.763 271.935 815.279C 271.935 816.368 272.466 817.349 273.345 817.939C 274.306 818.556 275.517 818.833 277.314 818.833C 278.97 818.833 280.029 818.579 280.907 817.993C 281.7 817.458 282.134 816.587 282.134 815.493C 282.134 813.599 280.732 812.236 278.786 812.236C 276.939 812.236 275.634 813.513 275.634 815.318C 275.634 816.314 276.013 817.095 276.736 817.634C 274.357 817.618 273.036 816.825 273.036 815.396C 273.036 814.517 273.583 813.907 274.536 813.708L 274.532 812.462zM 276.736 815.404C 276.736 814.193 277.56 813.435 278.884 813.435C 280.126 813.435 281.036 814.29 281.036 815.446C 281.036 816.618 280.087 817.501 278.814 817.501C 277.587 817.501 276.736 816.646 276.736 815.404z"/>
<path style="stroke:#000000; stroke-width:1; fill:none" d="M 193.134 803.236L 193.134 796.935M 193.134 178.435L 193.134 184.736"/>
<path style="stroke:none; fill-rule:evenodd; fill:#000000" d="M 187.935 827.282C 187.935 828.208 188.345 829.048 189.032 829.567C 189.9 830.212 191.22 830.532 193.04 830.532C 196.368 830.532 198.134 829.411 198.134 827.282C 198.134 825.181 196.368 824.032 193.126 824.032C 191.204 824.032 189.923 824.341 189.032 825.001C 188.329 825.517 187.935 826.345 187.935 827.282zM 189.032 827.282C 189.032 825.911 190.372 825.235 193.021 825.235C 195.825 825.235 197.134 825.899 197.134 827.313C 197.134 828.653 195.767 829.333 193.064 829.333C 190.361 829.333 189.032 828.653 189.032 827.282z"/>
<path style="stroke:none; fill-rule:evenodd; fill:#000000" d="M 196.333 822.134L 197.833 822.134L 197.833 820.634L 196.333 820.634L 196.333 822.134z"/>
<path style="stroke:none; fill-rule:evenodd; fill:#000000" d="M 192.618 813.958C 192.005 812.962 191.501 812.634 190.568 812.634C 189.025 812.634 187.935 813.837 187.935 815.583C 187.935 817.314 189.025 818.532 190.568 818.532C 191.489 818.532 191.989 818.204 192.618 817.22C 193.161 818.368 193.982 818.935 195.068 818.935C 196.88 818.935 198.134 817.556 198.134 815.583C 198.134 813.614 196.88 812.232 195.083 812.232C 193.982 812.232 193.161 812.798 192.618 813.958zM 189.032 815.583C 189.032 814.517 189.646 813.833 190.607 813.833C 191.521 813.833 192.134 814.532 192.134 815.583C 192.134 816.638 191.521 817.333 190.591 817.333C 189.646 817.333 189.032 816.638 189.032 815.583zM 193.134 815.583C 193.134 814.306 193.915 813.435 195.075 813.435C 196.251 813.435 197.032 814.306 197.032 815.614C 197.032 816.861 196.236 817.736 195.075 817.736C 193.915 817.736 193.134 816.864 193.134 815.583z"/>
<path style="stroke:#000000; stroke-width:1; fill:none" d="M 109.134 803.236L 109.134 796.935M 109.134 178.435L 109.134 184.736"/>
<path style="stroke:none; fill-rule:evenodd; fill:#000000" d="M 106.782 815.833L 113.833 815.833L 113.833 814.634L 103.931 814.634L 103.931 815.435C 105.454 815.861 105.665 816.134 105.903 818.005L 106.782 818.005L 106.782 815.833z"/>
<path style="stroke:#000000; stroke-width:1; fill:none" d="M 529.134 772.032L 522.833 772.032M 109.134 772.032L 115.435 772.032"/>
<path style="stroke:none; fill-rule:evenodd; fill:#000000" d="M 540.782 770.333L 547.833 770.333L 547.833 769.134L 537.931 769.134L 537.931 769.935C 539.454 770.361 539.665 770.634 539.904 772.505L 540.782 772.505L 540.782 770.333z"/>
<path style="stroke:#000000; stroke-width:1; fill:none" d="M 529.134 709.532L 522.833 709.532M 109.134 709.532L 115.435 709.532"/>
<path style="stroke:none; fill-rule:evenodd; fill:#000000" d="M 546.634 704.404L 546.634 709.583C 545.822 709.458 545.306 709.013 544.595 707.806L 543.837 706.415C 543.083 705.04 542.064 704.333 540.845 704.333C 540.021 704.333 539.251 704.669 538.72 705.251C 538.189 705.833 537.935 706.556 537.935 707.486C 537.935 708.736 538.38 709.665 539.216 710.208C 539.743 710.556 540.353 710.708 541.353 710.736L 541.353 709.501C 540.696 709.458 540.298 709.376 539.982 709.208C 539.392 708.884 539.036 708.239 539.036 707.497C 539.036 706.376 539.833 705.532 540.892 705.532C 541.669 705.532 542.337 705.997 542.837 706.88L 543.564 708.169C 544.732 710.243 545.665 710.845 547.837 710.958L 547.837 704.404L 546.634 704.404z"/>
<path style="stroke:#000000; stroke-width:1; fill:none" d="M 529.134 647.032L 522.833 647.032M 109.134 647.032L 115.435 647.032"/>
<path style="stroke:none; fill-rule:evenodd; fill:#000000" d="M 543.236 645.841L 543.236 645.15C 543.236 643.755 543.853 643.036 545.044 643.036C 546.29 643.036 547.032 643.818 547.032 645.122C 547.032 646.486 546.372 647.154 544.95 647.236L 544.95 648.486C 545.743 648.431 546.255 648.29 546.7 648.052C 547.65 647.544 548.134 646.564 548.134 645.204C 548.134 643.154 546.923 641.833 545.056 641.833C 543.802 641.833 543.107 642.329 542.7 643.532C 542.337 642.603 541.642 642.134 540.654 642.134C 538.954 642.134 537.935 643.271 537.935 645.165C 537.935 647.169 539.017 648.236 541.114 648.279L 541.114 647.029C 540.529 647.013 540.2 646.954 539.896 646.798C 539.364 646.517 539.036 645.892 539.036 645.111C 539.036 644.005 539.669 643.337 540.704 643.337C 541.392 643.337 541.806 643.595 542.029 644.157C 542.165 644.501 542.22 644.95 542.236 645.841L 543.236 645.841z"/>
<path style="stroke:#000000; stroke-width:1; fill:none" d="M 529.134 584.532L 522.833 584.532M 109.134 584.532L 115.435 584.532"/>
<path style="stroke:none; fill-rule:evenodd; fill:#000000" d="M 545.435 581.833L 547.833 581.833L 547.833 580.634L 545.435 580.634L 545.435 579.154L 544.333 579.154L 544.333 580.634L 537.935 580.634L 537.935 581.544L 544.142 586.04L 545.435 586.04L 545.435 581.833zM 544.333 581.833L 544.333 584.962L 540.009 581.833L 544.333 581.833z"/>
<path style="stroke:#000000; stroke-width:1; fill:none" d="M 529.134 522.032L 522.833 522.032M 109.134 522.032L 115.435 522.032"/>
<path style="stroke:none; fill-rule:evenodd; fill:#000000" d="M 537.935 517.255L 537.935 522.392L 543.314 523.138L 543.314 521.986C 542.661 521.404 542.435 520.919 542.435 520.138C 542.435 518.786 543.329 517.935 544.775 517.935C 546.181 517.935 547.032 518.775 547.032 520.138C 547.032 521.228 546.497 521.896 545.4 522.196L 545.4 523.446C 546.204 523.275 546.595 523.138 546.954 522.841C 547.704 522.279 548.134 521.271 548.134 520.146C 548.134 518.138 546.693 516.736 544.611 516.736C 542.665 516.736 541.333 518.04 541.333 519.95C 541.333 520.654 541.505 521.212 541.896 521.79L 539.134 521.396L 539.134 517.255L 537.935 517.255z"/>
<path style="stroke:#000000; stroke-width:1; fill:none" d="M 529.134 459.634L 522.833 459.634M 109.134 459.634L 115.435 459.634"/>
<path style="stroke:none; fill-rule:evenodd; fill:#000000" d="M 540.532 454.564C 538.904 454.798 537.935 455.864 537.935 457.376C 537.935 458.47 538.466 459.45 539.345 460.036C 540.306 460.654 541.517 460.935 543.314 460.935C 544.97 460.935 546.029 460.681 546.907 460.091C 547.7 459.56 548.134 458.689 548.134 457.591C 548.134 455.696 546.732 454.333 544.786 454.333C 542.939 454.333 541.634 455.614 541.634 457.419C 541.634 458.411 542.013 459.193 542.736 459.736C 540.357 459.72 539.036 458.927 539.036 457.493C 539.036 456.618 539.583 456.005 540.536 455.81L 540.532 454.564zM 542.736 457.505C 542.736 456.29 543.56 455.532 544.884 455.532C 546.126 455.532 547.036 456.392 547.036 457.544C 547.036 458.716 546.087 459.603 544.814 459.603C 543.587 459.603 542.736 458.743 542.736 457.501L 542.736 457.505z"/>
<path style="stroke:#000000; stroke-width:1; fill:none" d="M 529.134 397.134L 522.833 397.134M 109.134 397.134L 115.435 397.134"/>
<path style="stroke:none; fill-rule:evenodd; fill:#000000" d="M 537.935 391.736L 537.935 398.337L 539.134 398.337L 539.134 393.001C 542.505 395.357 544.575 396.318 547.833 397.056L 547.833 395.747C 544.665 395.204 541.943 393.962 538.97 391.736L 537.935 391.736z"/>
<path style="stroke:#000000; stroke-width:1; fill:none" d="M 529.134 334.634L 522.833 334.634M 109.134 334.634L 115.435 334.634"/>
<path style="stroke:none; fill-rule:evenodd; fill:#000000" d="M 542.618 331.06C 542.005 330.064 541.501 329.732 540.568 329.732C 539.025 329.732 537.935 330.939 537.935 332.685C 537.935 334.415 539.025 335.634 540.568 335.634C 541.489 335.634 541.989 335.306 542.618 334.322C 543.161 335.466 543.982 336.032 545.068 336.032C 546.88 336.032 548.134 334.654 548.134 332.685C 548.134 330.712 546.88 329.333 545.083 329.333C 543.982 329.333 543.161 329.9 542.618 331.06zM 539.032 332.685C 539.032 331.618 539.646 330.935 540.607 330.935C 541.521 330.935 542.134 331.63 542.134 332.685C 542.134 333.736 541.521 334.435 540.591 334.435C 539.646 334.435 539.032 333.736 539.032 332.685zM 543.134 332.685C 543.134 331.404 543.915 330.532 545.075 330.532C 546.251 330.532 547.032 331.407 547.032 332.712C 547.032 333.962 546.236 334.833 545.075 334.833C 543.915 334.833 543.134 333.962 543.134 332.685z"/>
<path style="stroke:#000000; stroke-width:1; fill:none" d="M 529.134 272.134L 522.833 272.134M 109.134 272.134L 115.435 272.134"/>
<path style="stroke:none; fill-rule:evenodd; fill:#000000" d="M 545.568 273.29C 547.177 273.056 548.134 271.997 548.134 270.489C 548.134 269.404 547.607 268.411 546.728 267.841C 545.767 267.212 544.556 266.935 542.755 266.935C 541.099 266.935 540.04 267.185 539.161 267.763C 538.368 268.302 537.935 269.157 537.935 270.236C 537.935 272.099 539.333 273.435 541.282 273.435C 543.13 273.435 544.435 272.181 544.435 270.396C 544.435 269.462 544.099 268.779 543.333 268.134C 545.712 268.15 547.032 268.939 547.032 270.368C 547.032 271.243 546.497 271.853 545.568 272.048L 545.568 273.29zM 539.032 270.263C 539.032 269.118 539.982 268.251 541.263 268.251C 542.47 268.251 543.333 269.103 543.333 270.306C 543.333 271.493 542.513 272.232 541.193 272.232C 539.939 272.232 539.036 271.396 539.036 270.263L 539.032 270.263z"/>
<path style="stroke:#000000; stroke-width:1; fill:none" d="M 529.134 209.634L 522.833 209.634M 109.134 209.634L 115.435 209.634"/>
<path style="stroke:none; fill-rule:evenodd; fill:#000000" d="M 540.782 211.833L 547.833 211.833L 547.833 210.634L 537.931 210.634L 537.931 211.435C 539.454 211.861 539.665 212.134 539.904 214.005L 540.782 214.005L 540.782 211.833z"/>
<path style="stroke:none; fill-rule:evenodd; fill:#000000" d="M 537.935 203.884C 537.935 204.81 538.345 205.65 539.032 206.165C 539.9 206.814 541.22 207.134 543.04 207.134C 546.368 207.134 548.134 206.013 548.134 203.884C 548.134 201.782 546.368 200.634 543.126 200.634C 541.204 200.634 539.923 200.943 539.032 201.599C 538.329 202.118 537.935 202.946 537.935 203.884zM 539.032 203.884C 539.032 202.513 540.372 201.833 543.021 201.833C 545.825 201.833 547.134 202.497 547.134 203.911C 547.134 205.255 545.767 205.935 543.064 205.935C 540.361 205.935 539.032 205.255 539.032 203.884z"/>
<path style="stroke:#000000; stroke-width:1; fill:none" d="M 529.134 803.236L 529.134 178.435L 109.134 178.435L 109.134 803.236L 529.134 803.236"/>
<path style="stroke:none; fill-rule:evenodd; fill:#000000" d="M 371.032 860.333L 367.634 860.333C 366.458 860.333 365.935 859.774 365.935 858.513L 365.935 857.603C 365.935 856.97 365.825 856.353 365.654 855.935L 364.13 855.935L 364.13 856.255C 364.611 856.591 364.708 856.954 364.736 858.31C 364.747 859.989 365.017 860.493 366.13 860.97C 364.993 861.528 364.536 862.243 364.536 863.403C 364.536 865.165 365.642 866.134 367.638 866.134L 372.333 866.134L 372.333 855.935L 371.036 855.935L 371.032 860.333zM 371.032 861.435L 371.032 865.032L 367.857 865.032C 367.118 865.032 366.696 864.919 366.372 864.63C 366.021 864.329 365.833 863.856 365.833 863.228C 365.833 861.993 366.458 861.435 367.857 861.435L 371.032 861.435z"/>
<path style="stroke:none; fill-rule:evenodd; fill:#000000" d="M 356.333 859.235C 356.333 860.337 356.419 860.997 356.626 861.532C 357.103 862.716 358.22 863.435 359.587 863.435C 361.626 863.435 362.935 861.88 362.935 859.493C 362.935 857.106 361.669 855.634 359.622 855.634C 357.954 855.634 356.798 856.575 356.505 858.161L 357.677 858.161C 357.997 857.224 358.654 856.735 359.587 856.735C 360.325 856.735 360.954 857.067 361.345 857.677C 361.622 858.095 361.72 858.513 361.732 859.231L 356.333 859.235zM 361.728 860.235C 361.63 861.505 360.806 862.333 359.626 862.333C 358.482 862.333 357.599 861.442 357.599 860.313C 357.599 860.286 357.599 860.259 357.611 860.231L 361.728 860.235z"/>
<path style="stroke:none; fill-rule:evenodd; fill:#000000" d="M 349.603 861.228C 349.614 862.638 350.56 863.435 352.243 863.435C 353.939 863.435 355.036 862.563 355.036 861.224C 355.036 860.091 354.454 859.552 352.736 859.138L 351.657 858.872C 350.853 858.681 350.536 858.392 350.536 857.864C 350.536 857.188 351.22 856.731 352.239 856.731C 352.868 856.731 353.4 856.911 353.693 857.208C 353.876 857.411 353.958 857.614 354.029 858.118L 355.259 858.118C 355.204 856.438 354.255 855.634 352.349 855.634C 350.505 855.634 349.337 856.532 349.337 857.927C 349.337 859.001 349.946 859.599 351.388 859.942L 352.493 860.204C 353.435 860.423 353.837 860.728 353.837 861.239C 353.837 861.903 353.239 862.333 352.29 862.333C 351.361 862.333 350.857 861.95 350.829 861.224L 349.603 861.228z"/>
<path style="stroke:none; fill-rule:evenodd; fill:#000000" d="M 346.634 863.235L 347.833 863.235L 347.833 855.935L 346.634 855.935L 346.634 863.235zM 346.634 866.134L 347.833 866.134L 347.833 864.669L 346.634 864.669L 346.634 866.134z"/>
<path style="stroke:none; fill-rule:evenodd; fill:#000000" d="M 338.736 866.134L 339.935 866.134L 339.935 862.345C 340.415 863.056 341.185 863.435 342.146 863.435C 344.013 863.435 345.236 861.919 345.236 859.603C 345.236 857.145 344.025 855.634 342.06 855.634C 341.06 855.634 340.361 856.005 339.736 856.899L 339.736 855.935L 338.736 855.935L 338.736 866.134zM 341.95 862.333C 340.716 862.333 339.935 861.228 339.935 859.505C 339.935 857.837 340.732 856.735 341.935 856.735C 343.196 856.735 344.032 857.853 344.032 859.532C 344.032 861.216 343.196 862.333 341.95 862.333z"/>
<path style="stroke:none; fill-rule:evenodd; fill:#000000" d="M 331.134 855.954L 331.134 863.235L 332.333 863.235L 332.333 859.099C 332.333 857.61 333.095 856.634 334.271 856.634C 335.165 856.634 335.736 857.192 335.736 858.067L 335.736 863.235L 336.935 863.235L 336.935 857.622C 336.935 856.411 336.025 855.634 334.591 855.634C 333.513 855.634 332.822 856.009 332.134 856.97L 332.134 855.954L 331.134 855.954z"/>
<path style="stroke:none; fill-rule:evenodd; fill:#000000" d="M 322.544 856.618C 322.669 856.634 322.728 856.634 322.798 856.634C 323.208 856.634 323.435 856.841 323.435 857.2L 323.435 861.458C 323.435 862.743 324.384 863.435 326.189 863.435C 327.251 863.435 328.13 863.13 328.618 862.595C 328.954 862.224 329.095 861.813 329.122 861.099L 327.958 861.099C 327.861 861.95 327.337 862.333 326.255 862.333C 325.216 862.333 324.634 861.946 324.634 861.255L 324.634 860.95C 324.634 860.466 324.923 860.259 325.837 860.149C 327.47 859.942 327.72 859.888 328.161 859.708C 329.005 859.364 329.435 858.712 329.435 857.774C 329.435 856.462 328.513 855.634 327.029 855.634C 326.107 855.634 325.368 855.946 324.544 856.688C 324.458 855.962 324.095 855.634 323.341 855.634C 323.103 855.634 322.919 855.661 322.544 855.755L 322.544 856.618zM 324.634 858.243C 324.634 857.853 324.747 857.614 325.091 857.29C 325.564 856.856 326.13 856.634 326.81 856.634C 327.708 856.634 328.236 857.067 328.236 857.81C 328.236 858.579 327.724 858.974 326.489 859.153C 325.271 859.321 325.025 859.376 324.634 859.56L 324.634 858.243z"/>
<path style="stroke:none; fill-rule:evenodd; fill:#000000" d="M 320.134 866.134L 321.333 866.134L 321.333 855.935L 320.134 855.935L 320.134 866.134z"/>
<path style="stroke:none; fill-rule:evenodd; fill:#000000" d="M 312.634 860.634L 307.798 860.634L 307.798 861.735L 312.634 861.735L 312.634 865.032L 307.134 865.032L 307.134 866.134L 313.935 866.134L 313.935 855.935L 312.634 855.935L 312.634 860.634z"/>
<path style="stroke:none; fill-rule:evenodd; fill:#000000" d="M 305.736 863.224L 305.736 855.935L 304.532 855.935L 304.532 859.731C 304.532 860.778 304.275 861.466 303.728 861.868C 303.372 862.134 303.032 862.22 302.239 862.235L 302.239 863.392C 302.435 863.419 302.529 863.435 302.681 863.435C 303.415 863.435 303.978 862.985 304.634 861.903L 304.634 863.224L 305.736 863.224z"/>
<path style="stroke:none; fill-rule:evenodd; fill:#000000" d="M 294.544 856.618C 294.669 856.634 294.728 856.634 294.798 856.634C 295.208 856.634 295.435 856.841 295.435 857.2L 295.435 861.458C 295.435 862.743 296.384 863.435 298.189 863.435C 299.251 863.435 300.13 863.13 300.618 862.595C 300.954 862.224 301.095 861.813 301.122 861.099L 299.958 861.099C 299.861 861.95 299.337 862.333 298.255 862.333C 297.216 862.333 296.634 861.946 296.634 861.255L 296.634 860.95C 296.634 860.466 296.923 860.259 297.837 860.149C 299.47 859.942 299.72 859.888 300.161 859.708C 301.005 859.364 301.435 858.712 301.435 857.774C 301.435 856.462 300.513 855.634 299.029 855.634C 298.107 855.634 297.368 855.946 296.544 856.688C 296.458 855.962 296.095 855.634 295.341 855.634C 295.103 855.634 294.919 855.661 294.544 855.755L 294.544 856.618zM 296.634 858.243C 296.634 857.853 296.747 857.614 297.091 857.29C 297.564 856.856 298.13 856.634 298.81 856.634C 299.708 856.634 300.236 857.067 300.236 857.81C 300.236 858.579 299.724 858.974 298.489 859.153C 297.271 859.321 297.025 859.376 296.634 859.56L 296.634 858.243z"/>
<path style="stroke:none; fill-rule:evenodd; fill:#000000" d="M 287.642 860.806C 287.696 861.493 287.853 861.942 288.134 862.333C 288.642 863.024 289.529 863.435 290.556 863.435C 292.54 863.435 293.833 861.876 293.833 859.462C 293.833 857.118 292.568 855.634 290.568 855.634C 288.81 855.634 287.696 856.673 287.556 858.454L 288.743 858.454C 288.943 857.306 289.552 856.731 290.556 856.731C 291.857 856.731 292.634 857.763 292.634 859.462C 292.634 861.263 291.868 862.333 290.583 862.333C 289.595 862.333 288.97 861.782 288.829 860.806L 287.642 860.806z"/>
<path style="stroke:none; fill-rule:evenodd; fill:#000000" d="M 283.634 863.235L 284.833 863.235L 284.833 865.286L 286.032 865.286L 286.032 863.235L 287.032 863.235L 287.032 862.235L 286.032 862.235L 286.032 856.778C 286.032 856.048 285.525 855.634 284.599 855.634C 284.314 855.634 284.032 855.661 283.634 855.731L 283.634 856.688C 283.786 856.649 283.97 856.634 284.193 856.634C 284.693 856.634 284.833 856.77 284.833 857.282L 284.833 862.235L 283.634 862.235L 283.634 863.235z"/>
<path style="stroke:none; fill-rule:evenodd; fill:#000000" d="M 281.236 863.235L 282.435 863.235L 282.435 855.935L 281.236 855.935L 281.236 863.235zM 281.236 866.134L 282.435 866.134L 282.435 864.669L 281.236 864.669L 281.236 866.134z"/>
<path style="stroke:none; fill-rule:evenodd; fill:#000000" d="M 276.446 863.435C 278.493 863.435 279.736 861.978 279.736 859.532C 279.736 857.091 278.509 855.634 276.435 855.634C 274.388 855.634 273.134 857.091 273.134 859.478C 273.134 861.989 274.345 863.435 276.446 863.435zM 276.435 862.333C 275.118 862.333 274.333 861.274 274.333 859.493C 274.333 857.806 275.146 856.731 276.435 856.731C 277.736 856.731 278.532 857.79 278.532 859.532C 278.532 861.263 277.736 862.333 276.435 862.333z"/>
<path style="stroke:none; fill-rule:evenodd; fill:#000000" d="M 271.435 863.224L 271.435 855.935L 270.236 855.935L 270.236 859.962C 270.236 861.454 269.474 862.435 268.306 862.435C 267.407 862.435 266.833 861.872 266.833 860.997L 266.833 855.935L 265.634 855.935L 265.634 861.442C 265.634 862.653 266.532 863.435 267.931 863.435C 269.009 863.435 269.7 863.017 270.333 862.001L 270.333 863.224L 271.435 863.224z"/>
<path style="stroke:none; fill-rule:evenodd; fill:#000000" d="M 561.79 517.767C 559.532 518.173 558.435 519.454 558.435 521.689C 558.435 523.056 558.868 524.157 559.708 524.911C 560.716 525.833 562.173 526.333 563.825 526.333C 565.505 526.333 566.95 525.818 567.943 524.857C 568.755 524.075 569.134 523.068 569.134 521.743C 569.134 519.259 567.798 517.864 565.111 517.556L 565.111 518.896C 565.814 519.009 566.294 519.15 566.704 519.357C 567.552 519.775 568.032 520.642 568.032 521.728C 568.032 523.751 566.392 525.032 563.814 525.032C 561.165 525.032 559.532 523.806 559.532 521.837C 559.532 521.017 559.794 520.247 560.2 519.829C 560.56 519.454 561.009 519.243 561.79 519.091L 561.79 517.767z"/>
<path style="stroke:none; fill-rule:evenodd; fill:#000000" d="M 561.333 513.15C 561.333 515.196 562.79 516.435 565.236 516.435C 567.677 516.435 569.134 515.208 569.134 513.134C 569.134 511.087 567.677 509.833 565.29 509.833C 562.779 509.833 561.333 511.044 561.333 513.146L 561.333 513.15zM 562.435 513.134C 562.435 511.818 563.493 511.032 565.275 511.032C 566.962 511.032 568.036 511.845 568.036 513.134C 568.036 514.435 566.978 515.236 565.236 515.236C 563.505 515.236 562.435 514.435 562.435 513.134z"/>
<path style="stroke:none; fill-rule:evenodd; fill:#000000" d="M 561.544 508.134L 568.833 508.134L 568.833 506.935L 564.247 506.935C 563.185 506.935 562.333 506.185 562.333 505.255C 562.333 504.411 562.864 503.935 563.798 503.935L 568.833 503.935L 568.833 502.736L 564.247 502.736C 563.185 502.736 562.333 501.958 562.333 501.001C 562.333 500.142 562.88 499.634 563.798 499.634L 568.833 499.634L 568.833 498.435L 563.368 498.435C 562.06 498.435 561.333 499.189 561.333 500.56C 561.333 501.536 561.618 502.126 562.407 502.81C 561.657 503.243 561.333 503.833 561.333 504.782C 561.333 505.763 561.696 506.404 562.575 507.032L 561.544 507.032L 561.544 508.134z"/>
<path style="stroke:none; fill-rule:evenodd; fill:#000000" d="M 571.888 496.634L 571.888 495.435L 568.032 495.435C 568.794 494.829 569.134 494.154 569.134 493.22C 569.134 491.361 567.622 490.134 565.306 490.134C 562.861 490.134 561.333 491.318 561.333 493.236C 561.333 494.212 561.779 494.997 562.646 495.532L 561.544 495.532L 561.544 496.634L 571.888 496.634zM 562.435 493.427C 562.435 492.161 563.552 491.333 565.275 491.333C 566.915 491.333 568.032 492.173 568.032 493.427C 568.032 494.638 566.931 495.435 565.236 495.435C 563.54 495.435 562.435 494.638 562.435 493.427z"/>
<path style="stroke:none; fill-rule:evenodd; fill:#000000" d="M 561.333 485.849C 561.333 487.896 562.79 489.134 565.236 489.134C 567.677 489.134 569.134 487.907 569.134 485.833C 569.134 483.786 567.677 482.532 565.29 482.532C 562.779 482.532 561.333 483.743 561.333 485.849zM 562.435 485.833C 562.435 484.517 563.493 483.736 565.275 483.736C 566.962 483.736 568.036 484.544 568.036 485.833C 568.036 487.138 566.978 487.935 565.236 487.935C 563.505 487.935 562.435 487.138 562.435 485.833z"/>
<path style="stroke:none; fill-rule:evenodd; fill:#000000" d="M 561.544 480.935L 568.833 480.935L 568.833 479.736L 564.806 479.736C 563.314 479.736 562.333 478.974 562.333 477.806C 562.333 476.907 562.896 476.333 563.771 476.333L 568.833 476.333L 568.833 475.134L 563.325 475.134C 562.114 475.134 561.333 476.032 561.333 477.431C 561.333 478.509 561.751 479.2 562.767 479.833L 561.544 479.833L 561.544 480.935z"/>
<path style="stroke:none; fill-rule:evenodd; fill:#000000" d="M 565.532 466.935C 564.431 466.935 563.771 467.017 563.236 467.228C 562.052 467.7 561.333 468.818 561.333 470.189C 561.333 472.224 562.888 473.536 565.275 473.536C 567.661 473.536 569.134 472.271 569.134 470.224C 569.134 468.556 568.193 467.4 566.607 467.107L 566.607 468.279C 567.544 468.599 568.032 469.255 568.032 470.189C 568.032 470.927 567.7 471.552 567.091 471.943C 566.673 472.224 566.255 472.322 565.536 472.333L 565.532 466.935zM 564.532 472.329C 563.263 472.232 562.435 471.404 562.435 470.228C 562.435 469.079 563.325 468.196 564.454 468.196C 564.482 468.196 564.509 468.196 564.536 468.212L 564.532 472.329z"/>
<path style="stroke:none; fill-rule:evenodd; fill:#000000" d="M 561.544 465.333L 568.833 465.333L 568.833 464.134L 564.806 464.134C 563.314 464.134 562.333 463.372 562.333 462.204C 562.333 461.306 562.896 460.736 563.771 460.736L 568.833 460.736L 568.833 459.536L 563.325 459.536C 562.114 459.536 561.333 460.435 561.333 461.829C 561.333 462.907 561.751 463.599 562.767 464.236L 561.544 464.236L 561.544 465.333z"/>
<path style="stroke:none; fill-rule:evenodd; fill:#000000" d="M 561.532 454.935L 561.532 456.134L 559.482 456.134L 559.482 457.333L 561.532 457.333L 561.532 458.333L 562.532 458.333L 562.532 457.333L 567.989 457.333C 568.72 457.333 569.134 456.822 569.134 455.9C 569.134 455.614 569.107 455.329 569.036 454.935L 568.079 454.935C 568.118 455.087 568.134 455.271 568.134 455.493C 568.134 455.993 567.997 456.134 567.486 456.134L 562.532 456.134L 562.532 454.935L 561.532 454.935z"/>
<path style="stroke:none; fill-rule:evenodd; fill:#000000" d="M 88.4345 654.736L 88.4345 651.333C 88.4345 650.161 88.9931 649.634 90.2548 649.634L 91.1649 649.634C 91.7978 649.634 92.4149 649.529 92.8329 649.353L 92.8329 647.829L 92.5126 647.829C 92.1767 648.31 91.8134 648.407 90.4579 648.435C 88.7782 648.45 88.2743 648.716 87.7978 649.829C 87.2392 648.693 86.5243 648.236 85.3642 648.236C 83.6025 648.236 82.6337 649.341 82.6337 651.337L 82.6337 656.036L 92.8329 656.036L 92.8329 654.736L 88.4345 654.736zM 87.3329 654.736L 83.7353 654.736L 83.7353 651.556C 83.7353 650.822 83.8485 650.396 84.1376 650.072C 84.4384 649.72 84.911 649.532 85.5399 649.532C 86.7743 649.532 87.3329 650.157 87.3329 651.556L 87.3329 654.736z"/>
<path style="stroke:none; fill-rule:evenodd; fill:#000000" d="M 89.5321 640.032C 88.4306 640.032 87.7704 640.118 87.2353 640.329C 86.0517 640.802 85.3329 641.919 85.3329 643.286C 85.3329 645.325 86.8876 646.638 89.2743 646.638C 91.661 646.638 93.1337 645.368 93.1337 643.325C 93.1337 641.654 92.1923 640.497 90.6064 640.204L 90.6064 641.376C 91.5439 641.696 92.0321 642.353 92.0321 643.286C 92.0321 644.025 91.7001 644.654 91.0907 645.044C 90.6728 645.322 90.2548 645.419 89.536 645.435L 89.5321 640.032zM 88.5321 645.427C 87.2626 645.329 86.4345 644.505 86.4345 643.329C 86.4345 642.181 87.3251 641.298 88.454 641.298C 88.4814 641.298 88.5087 641.298 88.536 641.314L 88.5321 645.427z"/>
<path style="stroke:none; fill-rule:evenodd; fill:#000000" d="M 87.5399 633.302C 86.1298 633.318 85.3329 634.263 85.3329 635.943C 85.3329 637.638 86.204 638.736 87.5439 638.736C 88.6767 638.736 89.2157 638.154 89.6298 636.439L 89.8954 635.357C 90.0868 634.556 90.3759 634.236 90.9032 634.236C 91.579 634.236 92.036 634.919 92.036 635.939C 92.036 636.568 91.8564 637.099 91.5595 637.396C 91.3564 637.575 91.1532 637.661 90.6493 637.732L 90.6493 638.958C 92.329 638.904 93.1337 637.954 93.1337 636.048C 93.1337 634.208 92.2353 633.036 90.8407 633.036C 89.7665 633.036 89.1689 633.646 88.8251 635.087L 88.5634 636.193C 88.3446 637.134 88.0399 637.536 87.5282 637.536C 86.8642 637.536 86.4345 636.939 86.4345 635.993C 86.4345 635.06 86.8173 634.56 87.5439 634.529L 87.5399 633.302z"/>
<path style="stroke:none; fill-rule:evenodd; fill:#000000" d="M 85.5321 630.333L 85.5321 631.532L 92.8329 631.532L 92.8329 630.333L 85.5321 630.333zM 82.6337 630.333L 82.6337 631.532L 84.0985 631.532L 84.0985 630.333L 82.6337 630.333z"/>
<path style="stroke:none; fill-rule:evenodd; fill:#000000" d="M 82.6337 622.435L 82.6337 623.634L 86.4228 623.634C 85.7118 624.114 85.3329 624.884 85.3329 625.845C 85.3329 627.712 86.8485 628.935 89.1649 628.935C 91.622 628.935 93.1337 627.724 93.1337 625.759C 93.1337 624.759 92.7626 624.064 91.8681 623.435L 92.8329 623.435L 92.8329 622.435L 82.6337 622.435zM 86.4345 625.65C 86.4345 624.415 87.5399 623.634 89.2626 623.634C 90.9306 623.634 92.0321 624.431 92.0321 625.638C 92.0321 626.896 90.9149 627.736 89.2353 627.736C 87.5517 627.736 86.4345 626.9 86.4345 625.65z"/>
<path style="stroke:none; fill-rule:evenodd; fill:#000000" d="M 92.8134 614.833L 85.5321 614.833L 85.5321 616.032L 89.6689 616.032C 91.1571 616.032 92.1337 616.794 92.1337 617.97C 92.1337 618.864 91.5751 619.435 90.7001 619.435L 85.5321 619.435L 85.5321 620.634L 91.1454 620.634C 92.3564 620.634 93.1337 619.72 93.1337 618.29C 93.1337 617.208 92.7587 616.521 91.7978 615.833L 92.8134 615.833L 92.8134 614.833z"/>
<path style="stroke:none; fill-rule:evenodd; fill:#000000" d="M 92.1493 606.243C 92.1337 606.372 92.1337 606.427 92.1337 606.497C 92.1337 606.907 91.9267 607.134 91.5673 607.134L 87.3095 607.134C 86.0243 607.134 85.3329 608.083 85.3329 609.888C 85.3329 610.95 85.6376 611.829 86.1728 612.322C 86.5439 612.657 86.954 612.794 87.6689 612.822L 87.6689 611.657C 86.8173 611.564 86.4345 611.036 86.4345 609.954C 86.4345 608.915 86.8212 608.333 87.5126 608.333L 87.8173 608.333C 88.3017 608.333 88.5087 608.622 88.6181 609.536C 88.8251 611.169 88.8798 611.419 89.0595 611.861C 89.4032 612.704 90.0556 613.134 90.9931 613.134C 92.3056 613.134 93.1337 612.212 93.1337 610.732C 93.1337 609.81 92.8212 609.068 92.079 608.243C 92.8056 608.157 93.1337 607.794 93.1337 607.04C 93.1337 606.802 93.1064 606.618 93.0126 606.243L 92.1493 606.243zM 90.5243 608.333C 90.9149 608.333 91.1532 608.446 91.4775 608.79C 91.911 609.263 92.1337 609.829 92.1337 610.509C 92.1337 611.407 91.7001 611.935 90.9579 611.935C 90.1884 611.935 89.7939 611.423 89.6142 610.189C 89.4462 608.974 89.3915 608.724 89.2079 608.333L 90.5243 608.333z"/>
<path style="stroke:none; fill-rule:evenodd; fill:#000000" d="M 82.6337 605.134L 92.8329 605.134L 92.8329 603.935L 82.6337 603.935L 82.6337 605.134z"/>
<path style="stroke:none; fill-rule:evenodd; fill:#000000" d="M 88.1337 596.435L 88.1337 591.599L 87.0321 591.599L 87.0321 596.435L 83.7353 596.435L 83.7353 590.931L 82.6337 590.931L 82.6337 597.736L 92.8329 597.736L 92.8329 596.435L 88.1337 596.435z"/>
<path style="stroke:none; fill-rule:evenodd; fill:#000000" d="M 85.5439 589.435L 92.8329 589.435L 92.8329 588.236L 89.036 588.236C 87.9892 588.236 87.3017 587.974 86.8993 587.431C 86.6337 587.075 86.5478 586.732 86.5321 585.943L 85.3759 585.943C 85.3485 586.134 85.3329 586.228 85.3329 586.38C 85.3329 587.118 85.7821 587.677 86.8642 588.333L 85.5439 588.333L 85.5439 589.435z"/>
<path style="stroke:none; fill-rule:evenodd; fill:#000000" d="M 92.1493 578.243C 92.1337 578.372 92.1337 578.427 92.1337 578.497C 92.1337 578.907 91.9267 579.134 91.5673 579.134L 87.3095 579.134C 86.0243 579.134 85.3329 580.083 85.3329 581.888C 85.3329 582.95 85.6376 583.829 86.1728 584.322C 86.5439 584.657 86.954 584.794 87.6689 584.822L 87.6689 583.657C 86.8173 583.564 86.4345 583.036 86.4345 581.954C 86.4345 580.915 86.8212 580.333 87.5126 580.333L 87.8173 580.333C 88.3017 580.333 88.5087 580.622 88.6181 581.536C 88.8251 583.169 88.8798 583.419 89.0595 583.861C 89.4032 584.704 90.0556 585.134 90.9931 585.134C 92.3056 585.134 93.1337 584.212 93.1337 582.732C 93.1337 581.81 92.8212 581.068 92.079 580.243C 92.8056 580.157 93.1337 579.794 93.1337 579.04C 93.1337 578.802 93.1064 578.618 93.0126 578.243L 92.1493 578.243zM 90.5243 580.333C 90.9149 580.333 91.1532 580.446 91.4775 580.79C 91.911 581.263 92.1337 581.829 92.1337 582.509C 92.1337 583.407 91.7001 583.935 90.9579 583.935C 90.1884 583.935 89.7939 583.423 89.6142 582.189C 89.4462 580.974 89.3915 580.724 89.2079 580.333L 90.5243 580.333z"/>
<path style="stroke:none; fill-rule:evenodd; fill:#000000" d="M 87.9618 571.439C 87.2743 571.497 86.8251 571.654 86.4345 571.935C 85.7431 572.443 85.3329 573.325 85.3329 574.357C 85.3329 576.337 86.8915 577.634 89.3056 577.634C 91.6493 577.634 93.1337 576.368 93.1337 574.368C 93.1337 572.611 92.0946 571.497 90.3134 571.357L 90.3134 572.544C 91.4618 572.743 92.036 573.353 92.036 574.357C 92.036 575.657 91.0048 576.435 89.3056 576.435C 87.5048 576.435 86.4345 575.669 86.4345 574.384C 86.4345 573.392 86.9853 572.771 87.9618 572.63L 87.9618 571.439z"/>
<path style="stroke:none; fill-rule:evenodd; fill:#000000" d="M 85.5321 567.435L 85.5321 568.634L 83.4814 568.634L 83.4814 569.833L 85.5321 569.833L 85.5321 570.833L 86.5321 570.833L 86.5321 569.833L 91.9892 569.833C 92.7196 569.833 93.1337 569.322 93.1337 568.4C 93.1337 568.114 93.1064 567.829 93.036 567.435L 92.079 567.435C 92.1181 567.587 92.1337 567.771 92.1337 567.993C 92.1337 568.493 91.997 568.634 91.4853 568.634L 86.5321 568.634L 86.5321 567.435L 85.5321 567.435z"/>
<path style="stroke:none; fill-rule:evenodd; fill:#000000" d="M 85.5321 565.032L 85.5321 566.236L 92.8329 566.236L 92.8329 565.032L 85.5321 565.032zM 82.6337 565.032L 82.6337 566.236L 84.0985 566.236L 84.0985 565.032L 82.6337 565.032z"/>
<path style="stroke:none; fill-rule:evenodd; fill:#000000" d="M 85.3329 560.247C 85.3329 562.294 86.7899 563.532 89.2353 563.532C 91.6767 563.532 93.1337 562.31 93.1337 560.236C 93.1337 558.189 91.6767 556.935 89.2899 556.935C 86.7782 556.935 85.3329 558.146 85.3329 560.247zM 86.4345 560.236C 86.4345 558.919 87.4931 558.134 89.2743 558.134C 90.9618 558.134 92.036 558.946 92.036 560.236C 92.036 561.536 90.9775 562.333 89.2353 562.333C 87.5048 562.333 86.4345 561.536 86.4345 560.236z"/>
<path style="stroke:none; fill-rule:evenodd; fill:#000000" d="M 85.5439 555.236L 92.8329 555.236L 92.8329 554.032L 88.8056 554.032C 87.3134 554.032 86.3329 553.275 86.3329 552.103C 86.3329 551.208 86.8954 550.634 87.7704 550.634L 92.8329 550.634L 92.8329 549.435L 87.3251 549.435C 86.1142 549.435 85.3329 550.333 85.3329 551.732C 85.3329 552.81 85.7509 553.497 86.7665 554.134L 85.5439 554.134L 85.5439 555.236z"/>
<path style="stroke:none; fill-rule:evenodd; fill:#000000" d="M 87.5399 542.302C 86.1298 542.318 85.3329 543.263 85.3329 544.943C 85.3329 546.638 86.204 547.736 87.5439 547.736C 88.6767 547.736 89.2157 547.154 89.6298 545.439L 89.8954 544.357C 90.0868 543.556 90.3759 543.236 90.9032 543.236C 91.579 543.236 92.036 543.919 92.036 544.939C 92.036 545.568 91.8564 546.099 91.5595 546.396C 91.3564 546.575 91.1532 546.661 90.6493 546.732L 90.6493 547.958C 92.329 547.904 93.1337 546.954 93.1337 545.048C 93.1337 543.208 92.2353 542.036 90.8407 542.036C 89.7665 542.036 89.1689 542.646 88.8251 544.087L 88.5634 545.193C 88.3446 546.134 88.0399 546.536 87.5282 546.536C 86.8642 546.536 86.4345 545.939 86.4345 544.993C 86.4345 544.06 86.8173 543.56 87.5439 543.529L 87.5399 542.302z"/>
<path style="stroke:none; fill-rule:evenodd; fill:#000000" d="M 85.3329 533.747C 85.3329 535.794 86.7899 537.032 89.2353 537.032C 91.6767 537.032 93.1337 535.81 93.1337 533.736C 93.1337 531.689 91.6767 530.435 89.2899 530.435C 86.7782 530.435 85.3329 531.646 85.3329 533.747zM 86.4345 533.736C 86.4345 532.419 87.4931 531.634 89.2743 531.634C 90.9618 531.634 92.036 532.446 92.036 533.736C 92.036 535.036 90.9775 535.833 89.2353 535.833C 87.5048 535.833 86.4345 535.036 86.4345 533.736z"/>
<path style="stroke:none; fill-rule:evenodd; fill:#000000" d="M 85.5321 526.134L 85.5321 527.333L 84.3798 527.333C 83.8876 527.333 83.6337 527.06 83.6337 526.532C 83.6337 526.439 83.6337 526.396 83.6337 526.134L 82.7001 526.134C 82.6493 526.404 82.6337 526.556 82.6337 526.798C 82.6337 527.884 83.247 528.532 84.2939 528.532L 85.5321 528.532L 85.5321 529.536L 86.5321 529.536L 86.5321 528.532L 92.8329 528.532L 92.8329 527.333L 86.5321 527.333L 86.5321 526.134L 85.5321 526.134z"/>
<path style="stroke:none; fill-rule:evenodd; fill:#000000" d="M 88.1337 519.333L 88.1337 513.814L 87.0321 513.814L 87.0321 519.333L 83.7353 519.333L 83.7353 513.532L 82.6337 513.532L 82.6337 520.634L 92.8329 520.634L 92.8329 513.333L 91.7353 513.333L 91.7353 519.333L 88.1337 519.333z"/>
<path style="stroke:none; fill-rule:evenodd; fill:#000000" d="M 92.1493 505.146C 92.1337 505.271 92.1337 505.329 92.1337 505.4C 92.1337 505.806 91.9267 506.032 91.5673 506.032L 87.3095 506.032C 86.0243 506.032 85.3329 506.986 85.3329 508.786C 85.3329 509.849 85.6376 510.732 86.1728 511.22C 86.5439 511.556 86.954 511.696 87.6689 511.724L 87.6689 510.56C 86.8173 510.462 86.4345 509.935 86.4345 508.857C 86.4345 507.818 86.8212 507.232 87.5126 507.232L 87.8173 507.232C 88.3017 507.232 88.5087 507.525 88.6181 508.439C 88.8251 510.068 88.8798 510.318 89.0595 510.763C 89.4032 511.607 90.0556 512.032 90.9931 512.032C 92.3056 512.032 93.1337 511.111 93.1337 509.63C 93.1337 508.708 92.8212 507.966 92.079 507.142C 92.8056 507.06 93.1337 506.696 93.1337 505.939C 93.1337 505.7 93.1064 505.521 93.0126 505.142L 92.1493 505.146zM 90.5243 507.236C 90.9149 507.236 91.1532 507.345 91.4775 507.693C 91.911 508.161 92.1337 508.732 92.1337 509.407C 92.1337 510.31 91.7001 510.833 90.9579 510.833C 90.1884 510.833 89.7939 510.322 89.6142 509.091C 89.4462 507.872 89.3915 507.622 89.2079 507.236L 90.5243 507.236z"/>
<path style="stroke:none; fill-rule:evenodd; fill:#000000" d="M 87.9618 498.239C 87.2743 498.298 86.8251 498.45 86.4345 498.736C 85.7431 499.239 85.3329 500.126 85.3329 501.154C 85.3329 503.138 86.8915 504.435 89.3056 504.435C 91.6493 504.435 93.1337 503.169 93.1337 501.169C 93.1337 499.411 92.0946 498.298 90.3134 498.157L 90.3134 499.345C 91.4618 499.544 92.036 500.15 92.036 501.154C 92.036 502.454 91.0048 503.236 89.3056 503.236C 87.5048 503.236 86.4345 502.47 86.4345 501.185C 86.4345 500.193 86.9853 499.572 87.9618 499.431L 87.9618 498.239z"/>
<path style="stroke:none; fill-rule:evenodd; fill:#000000" d="M 82.6337 496.833L 92.8329 496.833L 92.8329 495.634L 88.8056 495.634C 87.3134 495.634 86.3329 494.872 86.3329 493.704C 86.3329 493.337 86.4618 492.97 86.6689 492.696C 86.9071 492.372 87.2548 492.236 87.7743 492.236L 92.8329 492.236L 92.8329 491.036L 87.3251 491.036C 86.1025 491.036 85.3329 491.907 85.3329 493.314C 85.3329 494.337 85.6454 494.958 86.5048 495.634L 82.6337 495.634L 82.6337 496.833z"/>
<path style="stroke:none; fill-rule:evenodd; fill:#000000" d="M 85.5321 482.532L 85.5321 483.736L 83.4814 483.736L 83.4814 484.935L 85.5321 484.935L 85.5321 485.935L 86.5321 485.935L 86.5321 484.935L 91.9892 484.935C 92.7196 484.935 93.1337 484.423 93.1337 483.497C 93.1337 483.216 93.1064 482.931 93.036 482.532L 92.079 482.532C 92.1181 482.689 92.1337 482.868 92.1337 483.091C 92.1337 483.595 91.997 483.736 91.4853 483.736L 86.5321 483.736L 86.5321 482.532L 85.5321 482.532z"/>
<path style="stroke:none; fill-rule:evenodd; fill:#000000" d="M 82.6337 481.236L 92.8329 481.236L 92.8329 480.032L 88.8056 480.032C 87.3134 480.032 86.3329 479.275 86.3329 478.103C 86.3329 477.736 86.4618 477.368 86.6689 477.099C 86.9071 476.771 87.2548 476.634 87.7743 476.634L 92.8329 476.634L 92.8329 475.435L 87.3251 475.435C 86.1025 475.435 85.3329 476.306 85.3329 477.712C 85.3329 478.736 85.6454 479.357 86.5048 480.032L 82.6337 480.032L 82.6337 481.236z"/>
<path style="stroke:none; fill-rule:evenodd; fill:#000000" d="M 89.5321 467.333C 88.4306 467.333 87.7704 467.419 87.2353 467.626C 86.0517 468.103 85.3329 469.22 85.3329 470.587C 85.3329 472.622 86.8876 473.935 89.2743 473.935C 91.661 473.935 93.1337 472.669 93.1337 470.622C 93.1337 468.954 92.1923 467.798 90.6064 467.505L 90.6064 468.677C 91.5439 468.997 92.0321 469.654 92.0321 470.587C 92.0321 471.325 91.7001 471.954 91.0907 472.341C 90.6728 472.622 90.2548 472.72 89.536 472.732L 89.5321 467.333zM 88.5321 472.728C 87.2626 472.63 86.4345 471.806 86.4345 470.626C 86.4345 469.482 87.3251 468.599 88.454 468.599C 88.4814 468.599 88.5087 468.599 88.536 468.611L 88.5321 472.728z"/>
<path style="stroke:none; fill-rule:evenodd; fill:#000000" d="M 88.1337 460.236L 88.1337 455.4L 87.0321 455.4L 87.0321 460.236L 83.7353 460.236L 83.7353 454.732L 82.6337 454.732L 82.6337 461.532L 92.8329 461.532L 92.8329 460.236L 88.1337 460.236z"/>
<path style="stroke:none; fill-rule:evenodd; fill:#000000" d="M 85.5321 452.134L 85.5321 453.333L 92.8329 453.333L 92.8329 452.134L 85.5321 452.134zM 82.6337 452.134L 82.6337 453.333L 84.0985 453.333L 84.0985 452.134L 82.6337 452.134z"/>
<path style="stroke:none; fill-rule:evenodd; fill:#000000" d="M 85.5439 450.134L 92.8329 450.134L 92.8329 448.935L 89.036 448.935C 87.9892 448.935 87.3017 448.673 86.8993 448.13C 86.6337 447.775 86.5478 447.435 86.5321 446.642L 85.3759 446.642C 85.3485 446.833 85.3329 446.931 85.3329 447.079C 85.3329 447.818 85.7821 448.376 86.8642 449.032L 85.5439 449.032L 85.5439 450.134z"/>
<path style="stroke:none; fill-rule:evenodd; fill:#000000" d="M 87.5399 440.404C 86.1298 440.415 85.3329 441.361 85.3329 443.04C 85.3329 444.736 86.204 445.833 87.5439 445.833C 88.6767 445.833 89.2157 445.251 89.6298 443.536L 89.8954 442.458C 90.0868 441.654 90.3759 441.333 90.9032 441.333C 91.579 441.333 92.036 442.021 92.036 443.04C 92.036 443.669 91.8564 444.2 91.5595 444.493C 91.3564 444.677 91.1532 444.759 90.6493 444.829L 90.6493 446.06C 92.329 446.005 93.1337 445.056 93.1337 443.146C 93.1337 441.306 92.2353 440.138 90.8407 440.138C 89.7665 440.138 89.1689 440.747 88.8251 442.185L 88.5634 443.294C 88.3446 444.236 88.0399 444.638 87.5282 444.638C 86.8642 444.638 86.4345 444.04 86.4345 443.091C 86.4345 442.157 86.8173 441.657 87.5439 441.63L 87.5399 440.404z"/>
<path style="stroke:none; fill-rule:evenodd; fill:#000000" d="M 85.5321 435.935L 85.5321 437.134L 83.4814 437.134L 83.4814 438.333L 85.5321 438.333L 85.5321 439.333L 86.5321 439.333L 86.5321 438.333L 91.9892 438.333C 92.7196 438.333 93.1337 437.822 93.1337 436.9C 93.1337 436.614 93.1064 436.329 93.036 435.935L 92.079 435.935C 92.1181 436.087 92.1337 436.271 92.1337 436.493C 92.1337 436.993 91.997 437.134 91.4853 437.134L 86.5321 437.134L 86.5321 435.935L 85.5321 435.935z"/>
<path style="stroke:none; fill-rule:evenodd; fill:#000000" d="M 83.7353 426.736L 83.7353 423.431L 82.6337 423.431L 82.6337 431.439L 83.7353 431.439L 83.7353 428.036L 92.8329 428.036L 92.8329 426.736L 83.7353 426.736z"/>
<path style="stroke:none; fill-rule:evenodd; fill:#000000" d="M 89.5321 415.935C 88.4306 415.935 87.7704 416.017 87.2353 416.228C 86.0517 416.7 85.3329 417.818 85.3329 419.189C 85.3329 421.224 86.8876 422.536 89.2743 422.536C 91.661 422.536 93.1337 421.271 93.1337 419.224C 93.1337 417.556 92.1923 416.4 90.6064 416.107L 90.6064 417.279C 91.5439 417.599 92.0321 418.255 92.0321 419.189C 92.0321 419.927 91.7001 420.552 91.0907 420.943C 90.6728 421.224 90.2548 421.322 89.536 421.333L 89.5321 415.935zM 88.5321 421.329C 87.2626 421.232 86.4345 420.404 86.4345 419.228C 86.4345 418.079 87.3251 417.196 88.454 417.196C 88.4814 417.196 88.5087 417.196 88.536 417.212L 88.5321 421.329z"/>
<path style="stroke:none; fill-rule:evenodd; fill:#000000" d="M 85.5439 414.333L 92.8329 414.333L 92.8329 413.134L 88.8056 413.134C 87.3134 413.134 86.3329 412.372 86.3329 411.204C 86.3329 410.306 86.8954 409.736 87.7704 409.736L 92.8329 409.736L 92.8329 408.536L 87.3251 408.536C 86.1142 408.536 85.3329 409.435 85.3329 410.829C 85.3329 411.907 85.7509 412.599 86.7665 413.236L 85.5439 413.236L 85.5439 414.333z"/>
<path style="stroke:none; fill-rule:evenodd; fill:#000000" d="M 85.7899 394.466C 83.5321 394.872 82.4345 396.157 82.4345 398.388C 82.4345 399.755 82.8681 400.857 83.7079 401.611C 84.7157 402.532 86.1728 403.032 87.8251 403.032C 89.5048 403.032 90.9501 402.517 91.9423 401.556C 92.7548 400.775 93.1337 399.771 93.1337 398.443C 93.1337 395.958 91.7978 394.564 89.1103 394.255L 89.1103 395.599C 89.8134 395.708 90.2939 395.849 90.704 396.056C 91.5517 396.474 92.0321 397.341 92.0321 398.427C 92.0321 400.45 90.3915 401.732 87.8134 401.732C 85.1649 401.732 83.5321 400.505 83.5321 398.54C 83.5321 397.716 83.7939 396.95 84.2001 396.529C 84.5595 396.154 85.0087 395.943 85.7899 395.79L 85.7899 394.466z"/>
<path style="stroke:none; fill-rule:evenodd; fill:#000000" d="M 85.3329 389.849C 85.3329 391.896 86.7899 393.134 89.2353 393.134C 91.6767 393.134 93.1337 391.907 93.1337 389.833C 93.1337 387.786 91.6767 386.532 89.2899 386.532C 86.7782 386.532 85.3329 387.743 85.3329 389.849zM 86.4345 389.833C 86.4345 388.517 87.4931 387.736 89.2743 387.736C 90.9618 387.736 92.036 388.544 92.036 389.833C 92.036 391.138 90.9775 391.935 89.2353 391.935C 87.5048 391.935 86.4345 391.138 86.4345 389.833z"/>
<path style="stroke:none; fill-rule:evenodd; fill:#000000" d="M 85.5439 384.833L 92.8329 384.833L 92.8329 383.634L 88.247 383.634C 87.1845 383.634 86.3329 382.884 86.3329 381.958C 86.3329 381.111 86.8642 380.634 87.7978 380.634L 92.8329 380.634L 92.8329 379.435L 88.247 379.435C 87.1845 379.435 86.3329 378.657 86.3329 377.7C 86.3329 376.841 86.8798 376.333 87.7978 376.333L 92.8329 376.333L 92.8329 375.134L 87.3681 375.134C 86.0595 375.134 85.3329 375.888 85.3329 377.259C 85.3329 378.239 85.6181 378.825 86.4071 379.513C 85.6571 379.943 85.3329 380.532 85.3329 381.482C 85.3329 382.462 85.6962 383.103 86.5751 383.732L 85.5439 383.732L 85.5439 384.833z"/>
<path style="stroke:none; fill-rule:evenodd; fill:#000000" d="M 95.8876 373.333L 95.8876 372.134L 92.0321 372.134C 92.7939 371.529 93.1337 370.853 93.1337 369.919C 93.1337 368.06 91.622 366.833 89.3056 366.833C 86.8603 366.833 85.3329 368.021 85.3329 369.935C 85.3329 370.911 85.7782 371.696 86.6454 372.236L 85.5439 372.236L 85.5439 373.333L 95.8876 373.333zM 86.4345 370.126C 86.4345 368.861 87.5517 368.036 89.2743 368.036C 90.9149 368.036 92.0321 368.876 92.0321 370.126C 92.0321 371.337 90.9306 372.134 89.2353 372.134C 87.5399 372.134 86.4345 371.337 86.4345 370.126z"/>
<path style="stroke:none; fill-rule:evenodd; fill:#000000" d="M 85.3329 362.548C 85.3329 364.595 86.7899 365.833 89.2353 365.833C 91.6767 365.833 93.1337 364.611 93.1337 362.532C 93.1337 360.486 91.6767 359.232 89.2899 359.232C 86.7782 359.232 85.3329 360.446 85.3329 362.548zM 86.4345 362.532C 86.4345 361.216 87.4931 360.435 89.2743 360.435C 90.9618 360.435 92.036 361.247 92.036 362.532C 92.036 363.837 90.9775 364.634 89.2353 364.634C 87.5048 364.634 86.4345 363.837 86.4345 362.532z"/>
<path style="stroke:none; fill-rule:evenodd; fill:#000000" d="M 85.5439 357.532L 92.8329 357.532L 92.8329 356.333L 88.8056 356.333C 87.3134 356.333 86.3329 355.572 86.3329 354.404C 86.3329 353.505 86.8954 352.935 87.7704 352.935L 92.8329 352.935L 92.8329 351.736L 87.3251 351.736C 86.1142 351.736 85.3329 352.634 85.3329 354.029C 85.3329 355.107 85.7509 355.798 86.7665 356.435L 85.5439 356.435L 85.5439 357.532z"/>
<path style="stroke:none; fill-rule:evenodd; fill:#000000" d="M 89.5321 343.634C 88.4306 343.634 87.7704 343.72 87.2353 343.927C 86.0517 344.404 85.3329 345.521 85.3329 346.888C 85.3329 348.923 86.8876 350.236 89.2743 350.236C 91.661 350.236 93.1337 348.97 93.1337 346.923C 93.1337 345.255 92.1923 344.099 90.6064 343.806L 90.6064 344.978C 91.5439 345.298 92.0321 345.954 92.0321 346.888C 92.0321 347.626 91.7001 348.251 91.0907 348.642C 90.6728 348.923 90.2548 349.021 89.536 349.032L 89.5321 343.634zM 88.5321 349.029C 87.2626 348.931 86.4345 348.103 86.4345 346.927C 86.4345 345.779 87.3251 344.9 88.454 344.9C 88.4814 344.9 88.5087 344.9 88.536 344.911L 88.5321 349.029z"/>
<path style="stroke:none; fill-rule:evenodd; fill:#000000" d="M 85.5439 342.032L 92.8329 342.032L 92.8329 340.833L 88.8056 340.833C 87.3134 340.833 86.3329 340.072 86.3329 338.904C 86.3329 338.005 86.8954 337.435 87.7704 337.435L 92.8329 337.435L 92.8329 336.236L 87.3251 336.236C 86.1142 336.236 85.3329 337.134 85.3329 338.529C 85.3329 339.607 85.7509 340.298 86.7665 340.935L 85.5439 340.935L 85.5439 342.032z"/>
<path style="stroke:none; fill-rule:evenodd; fill:#000000" d="M 85.5321 331.634L 85.5321 332.833L 83.4814 332.833L 83.4814 334.032L 85.5321 334.032L 85.5321 335.032L 86.5321 335.032L 86.5321 334.032L 91.9892 334.032C 92.7196 334.032 93.1337 333.525 93.1337 332.599C 93.1337 332.314 93.1064 332.032 93.036 331.634L 92.079 331.634C 92.1181 331.786 92.1337 331.97 92.1337 332.193C 92.1337 332.696 91.997 332.833 91.4853 332.833L 86.5321 332.833L 86.5321 331.634L 85.5321 331.634z"/>
<path style="stroke:none; fill-rule:evenodd; fill:#000000" d="M 87.5399 325.2C 86.1298 325.216 85.3329 326.161 85.3329 327.841C 85.3329 329.536 86.204 330.634 87.5439 330.634C 88.6767 330.634 89.2157 330.052 89.6298 328.337L 89.8954 327.255C 90.0868 326.454 90.3759 326.134 90.9032 326.134C 91.579 326.134 92.036 326.822 92.036 327.841C 92.036 328.47 91.8564 329.001 91.5595 329.294C 91.3564 329.478 91.1532 329.56 90.6493 329.63L 90.6493 330.861C 92.329 330.806 93.1337 329.857 93.1337 327.946C 93.1337 326.107 92.2353 324.935 90.8407 324.935C 89.7665 324.935 89.1689 325.544 88.8251 326.986L 88.5634 328.095C 88.3446 329.036 88.0399 329.439 87.5282 329.439C 86.8642 329.439 86.4345 328.837 86.4345 327.892C 86.4345 326.958 86.8173 326.458 87.5439 326.431L 87.5399 325.2z"/>
<path style="stroke:#ff0000; stroke-width:40; fill:none" d="M 529.134 772.032L 209.634 772.032M 529.134 709.532L 493.236 709.532M 529.134 647.032L 500.935 647.032M 529.134 584.532L 518.736 584.532M 529.134 522.032L 520.532 522.032M 529.134 459.634L 525.435 459.634M 529.134 397.134L 526.236 397.134M 529.134 334.634L 526.736 334.634M 529.134 272.134L 527.435 272.134M 529.134 209.634L 527.634 209.634"/>
<path style="stroke:#000000; stroke-width:1; fill:none" d="M 529.134 803.236L 529.134 178.435L 109.134 178.435L 109.134 803.236L 529.134 803.236"/>
</g>
</svg>