<?xml version="1.0" encoding="ISO-8859-1" standalone="yes"?>
<svg xmlns="http://www.w3.org/2000/svg" width="489.5" height="705.898">
  <defs> 
    <marker id="ArrowEnd" viewBox="0 0 10 10" refX="0" refY="5" 
     markerUnits="strokeWidth" 
     markerWidth="4" 
     markerHeight="3" 
     orient="auto"> 
        <path d="M 0 0 L 10 5 L 0 10 z" /> 
    </marker>
    <marker id="ArrowStart" viewBox="0 0 10 10" refX="10" refY="5" 
     markerUnits="strokeWidth" 
     markerWidth="4" 
     markerHeight="3" 
     orient="auto"> 
        <path d="M 10 0 L 0 5 L 10 10 z" /> 
    </marker> </defs>
<g>
<path style="stroke:#000000; stroke-width:1; fill:none" d="M 446.699 641.602L 446.699 635.301M 446.699 16.801L 446.699 23.102"/>
<path style="stroke:none; fill-rule:evenodd; fill:#000000" d="M 441.5 665.648C 441.5 666.574 441.91 667.414 442.597 667.934C 443.465 668.578 444.785 668.898 446.605 668.898C 449.933 668.898 451.699 667.777 451.699 665.648C 451.699 663.547 449.933 662.398 446.691 662.398C 444.769 662.398 443.492 662.707 442.597 663.367C 441.894 663.883 441.5 664.711 441.5 665.648zM 442.597 665.648C 442.597 664.277 443.937 663.602 446.586 663.602C 449.39 663.602 450.699 664.266 450.699 665.68C 450.699 667.02 449.332 667.699 446.629 667.699C 443.926 667.699 442.597 667.02 442.597 665.648z"/>
<path style="stroke:none; fill-rule:evenodd; fill:#000000" d="M 449.898 660.5L 451.398 660.5L 451.398 659L 449.898 659L 449.898 660.5z"/>
<path style="stroke:none; fill-rule:evenodd; fill:#000000" d="M 450.199 650.77L 450.199 655.949C 449.387 655.824 448.871 655.379 448.16 654.172L 447.402 652.781C 446.648 651.406 445.629 650.699 444.41 650.699C 443.586 650.699 442.816 651.035 442.285 651.617C 441.754 652.199 441.5 652.922 441.5 653.852C 441.5 655.102 441.945 656.031 442.781 656.574C 443.308 656.922 443.918 657.074 444.918 657.102L 444.918 655.867C 444.261 655.824 443.863 655.742 443.547 655.574C 442.957 655.25 442.601 654.605 442.601 653.863C 442.601 652.742 443.398 651.898 444.457 651.898C 445.234 651.898 445.902 652.363 446.402 653.246L 447.129 654.535C 448.297 656.609 449.23 657.211 451.402 657.324L 451.402 650.77L 450.199 650.77z"/>
<path style="stroke:#000000; stroke-width:1; fill:none" d="M 408.5 641.602L 408.5 635.301M 408.5 16.801L 408.5 23.102"/>
<path style="stroke:none; fill-rule:evenodd; fill:#000000" d="M 403.301 665.648C 403.301 666.574 403.707 667.414 404.398 667.934C 405.261 668.578 406.586 668.898 408.406 668.898C 411.73 668.898 413.5 667.777 413.5 665.648C 413.5 663.547 411.73 662.398 408.488 662.398C 406.57 662.398 405.289 662.707 404.398 663.367C 403.691 663.883 403.297 664.711 403.297 665.648L 403.301 665.648zM 404.398 665.648C 404.398 664.277 405.738 663.602 408.387 663.602C 411.187 663.602 412.5 664.266 412.5 665.68C 412.5 667.02 411.133 667.699 408.429 667.699C 405.726 667.699 404.398 667.02 404.398 665.648z"/>
<path style="stroke:none; fill-rule:evenodd; fill:#000000" d="M 411.699 660.5L 413.199 660.5L 413.199 659L 411.699 659L 411.699 660.5z"/>
<path style="stroke:none; fill-rule:evenodd; fill:#000000" d="M 410.801 653.199L 413.199 653.199L 413.199 652L 410.801 652L 410.801 650.52L 409.699 650.52L 409.699 652L 403.301 652L 403.301 652.91L 409.504 657.406L 410.801 657.406L 410.801 653.199zM 409.699 653.199L 409.699 656.328L 405.375 653.199L 409.699 653.199z"/>
<path style="stroke:#000000; stroke-width:1; fill:none" d="M 370.301 641.602L 370.301 635.301M 370.301 16.801L 370.301 23.102"/>
<path style="stroke:none; fill-rule:evenodd; fill:#000000" d="M 365.097 665.648C 365.097 666.574 365.508 667.414 366.199 667.934C 367.062 668.578 368.387 668.898 370.207 668.898C 373.531 668.898 375.297 667.777 375.297 665.648C 375.297 663.547 373.531 662.398 370.289 662.398C 368.371 662.398 367.09 662.707 366.199 663.367C 365.492 663.883 365.097 664.711 365.097 665.648zM 366.199 665.648C 366.199 664.277 367.539 663.602 370.187 663.602C 372.988 663.602 374.301 664.266 374.301 665.68C 374.301 667.02 372.933 667.699 370.23 667.699C 367.523 667.699 366.199 667.02 366.199 665.648z"/>
<path style="stroke:none; fill-rule:evenodd; fill:#000000" d="M 373.5 660.5L 375 660.5L 375 659L 373.5 659L 373.5 660.5z"/>
<path style="stroke:none; fill-rule:evenodd; fill:#000000" d="M 367.699 650.828C 366.07 651.066 365.097 652.129 365.097 653.645C 365.097 654.734 365.629 655.715 366.508 656.305C 367.469 656.922 368.679 657.199 370.476 657.199C 372.137 657.199 373.195 656.945 374.074 656.359C 374.867 655.824 375.301 654.953 375.301 653.859C 375.301 651.965 373.898 650.602 371.953 650.602C 370.101 650.602 368.801 651.879 368.801 653.684C 368.801 654.68 369.176 655.461 369.898 656C 367.519 655.984 366.199 655.191 366.199 653.762C 366.199 652.883 366.746 652.273 367.699 652.074L 367.699 650.828zM 369.898 653.77C 369.898 652.559 370.722 651.801 372.051 651.801C 373.293 651.801 374.199 652.656 374.199 653.812C 374.199 654.984 373.25 655.867 371.98 655.867C 370.75 655.867 369.898 655.012 369.898 653.77z"/>
<path style="stroke:#000000; stroke-width:1; fill:none" d="M 332.199 641.602L 332.199 635.301M 332.199 16.801L 332.199 23.102"/>
<path style="stroke:none; fill-rule:evenodd; fill:#000000" d="M 327 665.648C 327 666.574 327.41 667.414 328.097 667.934C 328.965 668.578 330.285 668.898 332.105 668.898C 335.433 668.898 337.199 667.777 337.199 665.648C 337.199 663.547 335.433 662.398 332.191 662.398C 330.269 662.398 328.992 662.707 328.097 663.367C 327.394 663.883 327 664.711 327 665.648zM 328.097 665.648C 328.097 664.277 329.437 663.602 332.086 663.602C 334.89 663.602 336.199 664.266 336.199 665.68C 336.199 667.02 334.832 667.699 332.129 667.699C 329.426 667.699 328.097 667.02 328.097 665.648z"/>
<path style="stroke:none; fill-rule:evenodd; fill:#000000" d="M 335.398 660.5L 336.898 660.5L 336.898 659L 335.398 659L 335.398 660.5z"/>
<path style="stroke:none; fill-rule:evenodd; fill:#000000" d="M 331.683 652.324C 331.07 651.328 330.566 651 329.633 651C 328.09 651 327 652.203 327 653.949C 327 655.68 328.09 656.898 329.633 656.898C 330.554 656.898 331.054 656.57 331.683 655.586C 332.226 656.734 333.047 657.301 334.133 657.301C 335.945 657.301 337.199 655.922 337.199 653.949C 337.199 651.98 335.945 650.598 334.148 650.598C 333.047 650.598 332.226 651.164 331.683 652.324zM 328.097 653.949C 328.097 652.883 328.711 652.199 329.672 652.199C 330.586 652.199 331.199 652.898 331.199 653.949C 331.199 655.004 330.586 655.699 329.656 655.699C 328.711 655.699 328.097 655.004 328.097 653.949zM 332.199 653.949C 332.199 652.672 332.98 651.801 334.14 651.801C 335.316 651.801 336.097 652.672 336.097 653.98C 336.097 655.227 335.301 656.102 334.14 656.102C 332.98 656.102 332.199 655.23 332.199 653.949z"/>
<path style="stroke:#000000; stroke-width:1; fill:none" d="M 294 641.602L 294 635.301M 294 16.801L 294 23.102"/>
<path style="stroke:none; fill-rule:evenodd; fill:#000000" d="M 291.644 654.199L 298.699 654.199L 298.699 653L 288.797 653L 288.797 653.801C 290.32 654.227 290.527 654.5 290.765 656.371L 291.648 656.371L 291.644 654.199z"/>
<path style="stroke:#000000; stroke-width:1; fill:none" d="M 255.801 641.602L 255.801 635.301M 255.801 16.801L 255.801 23.102"/>
<path style="stroke:none; fill-rule:evenodd; fill:#000000" d="M 253.445 665.898L 260.5 665.898L 260.5 664.699L 250.597 664.699L 250.597 665.5C 252.121 665.926 252.328 666.199 252.566 668.07L 253.445 668.07L 253.445 665.898z"/>
<path style="stroke:none; fill-rule:evenodd; fill:#000000" d="M 259 660.5L 260.5 660.5L 260.5 659L 259 659L 259 660.5z"/>
<path style="stroke:none; fill-rule:evenodd; fill:#000000" d="M 259.301 650.77L 259.301 655.949C 258.488 655.824 257.972 655.379 257.258 654.172L 256.504 652.781C 255.75 651.406 254.726 650.699 253.511 650.699C 252.687 650.699 251.918 651.035 251.387 651.617C 250.855 652.199 250.601 652.922 250.601 653.852C 250.601 655.102 251.047 656.031 251.879 656.574C 252.41 656.922 253.019 657.074 254.019 657.102L 254.019 655.867C 253.359 655.824 252.965 655.742 252.648 655.574C 252.058 655.25 251.703 654.605 251.703 653.863C 251.703 652.742 252.496 651.898 253.554 651.898C 254.336 651.898 255.004 652.363 255.504 653.246L 256.226 654.535C 257.398 656.609 258.332 657.211 260.504 657.324L 260.504 650.77L 259.301 650.77z"/>
<path style="stroke:#000000; stroke-width:1; fill:none" d="M 217.597 641.602L 217.597 635.301M 217.597 16.801L 217.597 23.102"/>
<path style="stroke:none; fill-rule:evenodd; fill:#000000" d="M 215.246 665.898L 222.301 665.898L 222.301 664.699L 212.398 664.699L 212.398 665.5C 213.922 665.926 214.129 666.199 214.367 668.07L 215.246 668.07L 215.246 665.898z"/>
<path style="stroke:none; fill-rule:evenodd; fill:#000000" d="M 220.801 660.5L 222.301 660.5L 222.301 659L 220.801 659L 220.801 660.5z"/>
<path style="stroke:none; fill-rule:evenodd; fill:#000000" d="M 219.898 653.199L 222.301 653.199L 222.301 652L 219.898 652L 219.898 650.52L 218.801 650.52L 218.801 652L 212.398 652L 212.398 652.91L 218.605 657.406L 219.898 657.406L 219.898 653.199zM 218.801 653.199L 218.801 656.328L 214.472 653.199L 218.801 653.199z"/>
<path style="stroke:#000000; stroke-width:1; fill:none" d="M 179.398 641.602L 179.398 635.301M 179.398 16.801L 179.398 23.102"/>
<path style="stroke:none; fill-rule:evenodd; fill:#000000" d="M 177.047 665.898L 184.097 665.898L 184.097 664.699L 174.195 664.699L 174.195 665.5C 175.719 665.926 175.929 666.199 176.168 668.07L 177.047 668.07L 177.047 665.898z"/>
<path style="stroke:none; fill-rule:evenodd; fill:#000000" d="M 182.597 660.5L 184.101 660.5L 184.101 659L 182.597 659L 182.597 660.5z"/>
<path style="stroke:none; fill-rule:evenodd; fill:#000000" d="M 176.801 650.828C 175.168 651.066 174.199 652.129 174.199 653.645C 174.199 654.734 174.73 655.715 175.609 656.305C 176.57 656.922 177.781 657.199 179.578 657.199C 181.234 657.199 182.297 656.945 183.172 656.359C 183.969 655.824 184.398 654.953 184.398 653.859C 184.398 651.965 183 650.602 181.051 650.602C 179.203 650.602 177.898 651.879 177.898 653.684C 177.898 654.68 178.277 655.461 179 656C 176.621 655.984 175.301 655.191 175.301 653.762C 175.301 652.883 175.847 652.273 176.801 652.074L 176.801 650.828zM 179 653.77C 179 652.559 179.824 651.801 181.148 651.801C 182.39 651.801 183.301 652.656 183.301 653.812C 183.301 654.984 182.351 655.867 181.082 655.867C 179.851 655.867 179 655.012 179 653.77z"/>
<path style="stroke:#000000; stroke-width:1; fill:none" d="M 141.199 641.602L 141.199 635.301M 141.199 16.801L 141.199 23.102"/>
<path style="stroke:none; fill-rule:evenodd; fill:#000000" d="M 138.847 665.898L 145.898 665.898L 145.898 664.699L 135.996 664.699L 135.996 665.5C 137.519 665.926 137.73 666.199 137.969 668.07L 138.847 668.07L 138.847 665.898z"/>
<path style="stroke:none; fill-rule:evenodd; fill:#000000" d="M 144.398 660.5L 145.898 660.5L 145.898 659L 144.398 659L 144.398 660.5z"/>
<path style="stroke:none; fill-rule:evenodd; fill:#000000" d="M 140.683 652.324C 140.07 651.328 139.566 651 138.633 651C 137.09 651 136 652.203 136 653.949C 136 655.68 137.09 656.898 138.633 656.898C 139.554 656.898 140.054 656.57 140.683 655.586C 141.226 656.734 142.047 657.301 143.133 657.301C 144.945 657.301 146.199 655.922 146.199 653.949C 146.199 651.98 144.945 650.598 143.148 650.598C 142.047 650.598 141.226 651.164 140.683 652.324zM 137.097 653.949C 137.097 652.883 137.711 652.199 138.672 652.199C 139.586 652.199 140.199 652.898 140.199 653.949C 140.199 655.004 139.586 655.699 138.656 655.699C 137.711 655.699 137.097 655.004 137.097 653.949zM 141.199 653.949C 141.199 652.672 141.98 651.801 143.14 651.801C 144.316 651.801 145.097 652.672 145.097 653.98C 145.097 655.227 144.301 656.102 143.14 656.102C 141.98 656.102 141.199 655.23 141.199 653.949z"/>
<path style="stroke:#000000; stroke-width:1; fill:none" d="M 103.097 641.602L 103.097 635.301M 103.097 16.801L 103.097 23.102"/>
<path style="stroke:none; fill-rule:evenodd; fill:#000000" d="M 106.597 650.77L 106.597 655.949C 105.789 655.824 105.269 655.379 104.558 654.172L 103.804 652.781C 103.047 651.406 102.027 650.699 100.812 650.699C 99.9842 650.699 99.2192 651.035 98.6872 651.617C 98.1522 652.199 97.9022 652.922 97.9022 653.852C 97.9022 655.102 98.3472 656.031 99.1792 656.574C 99.7072 656.922 100.32 657.074 101.32 657.102L 101.32 655.867C 100.66 655.824 100.261 655.742 99.9492 655.574C 99.3592 655.25 99.0042 654.605 99.0042 653.863C 99.0042 652.742 99.7972 651.898 100.855 651.898C 101.637 651.898 102.304 652.363 102.804 653.246L 103.527 654.535C 104.699 656.609 105.629 657.211 107.801 657.324L 107.801 650.77L 106.597 650.77z"/>
<path style="stroke:#000000; stroke-width:1; fill:none" d="M 64.8982 641.602L 64.8982 635.301M 64.8982 16.801L 64.8982 23.102"/>
<path style="stroke:none; fill-rule:evenodd; fill:#000000" d="M 68.3982 662.469L 68.3982 667.648C 67.5902 667.523 67.0702 667.078 66.3592 665.871L 65.6012 664.48C 64.8472 663.105 63.8282 662.398 62.6092 662.398C 61.7852 662.398 61.0152 662.734 60.4842 663.316C 59.9532 663.898 59.7032 664.621 59.7032 665.551C 59.7032 666.801 60.1442 667.73 60.9802 668.273C 61.5082 668.621 62.1212 668.773 63.1212 668.801L 63.1212 667.566C 62.4612 667.523 62.0622 667.441 61.7502 667.273C 61.1602 666.949 60.8012 666.305 60.8012 665.562C 60.8012 664.441 61.5972 663.602 62.6562 663.602C 63.4332 663.602 64.1012 664.062 64.6052 664.945L 65.3282 666.234C 66.5002 668.309 67.4292 668.91 69.6012 669.023L 69.6012 662.469L 68.3982 662.469z"/>
<path style="stroke:none; fill-rule:evenodd; fill:#000000" d="M 68.0972 660.5L 69.6012 660.5L 69.6012 659L 68.0972 659L 68.0972 660.5z"/>
<path style="stroke:none; fill-rule:evenodd; fill:#000000" d="M 68.3982 650.77L 68.3982 655.949C 67.5902 655.824 67.0702 655.379 66.3592 654.172L 65.6012 652.781C 64.8472 651.406 63.8282 650.699 62.6092 650.699C 61.7852 650.699 61.0152 651.035 60.4842 651.617C 59.9532 652.199 59.7032 652.922 59.7032 653.852C 59.7032 655.102 60.1442 656.031 60.9802 656.574C 61.5082 656.922 62.1212 657.074 63.1212 657.102L 63.1212 655.867C 62.4612 655.824 62.0622 655.742 61.7502 655.574C 61.1602 655.25 60.8012 654.605 60.8012 653.863C 60.8012 652.742 61.5972 651.898 62.6562 651.898C 63.4332 651.898 64.1012 652.363 64.6052 653.246L 65.3282 654.535C 66.5002 656.609 67.4292 657.211 69.6012 657.324L 69.6012 650.77L 68.3982 650.77z"/>
<path style="stroke:#000000; stroke-width:1; fill:none" d="M 26.6992 641.602L 26.6992 635.301M 26.6992 16.801L 26.6992 23.102"/>
<path style="stroke:none; fill-rule:evenodd; fill:#000000" d="M 30.1992 662.469L 30.1992 667.648C 29.3867 667.523 28.8711 667.078 28.1601 665.871L 27.4023 664.48C 26.6484 663.105 25.6289 662.398 24.4101 662.398C 23.5859 662.398 22.8164 662.734 22.2851 663.316C 21.7539 663.898 21.5 664.621 21.5 665.551C 21.5 666.801 21.9453 667.73 22.7812 668.273C 23.3086 668.621 23.918 668.773 24.918 668.801L 24.918 667.566C 24.2617 667.523 23.8633 667.441 23.5469 667.273C 22.957 666.949 22.6015 666.305 22.6015 665.562C 22.6015 664.441 23.3984 663.602 24.457 663.602C 25.2344 663.602 25.9023 664.062 26.4023 664.945L 27.1289 666.234C 28.2969 668.309 29.2304 668.91 31.4023 669.023L 31.4023 662.469L 30.1992 662.469z"/>
<path style="stroke:none; fill-rule:evenodd; fill:#000000" d="M 29.8984 660.5L 31.3984 660.5L 31.3984 659L 29.8984 659L 29.8984 660.5z"/>
<path style="stroke:none; fill-rule:evenodd; fill:#000000" d="M 29 653.199L 31.3984 653.199L 31.3984 652L 29 652L 29 650.52L 27.8984 650.52L 27.8984 652L 21.5 652L 21.5 652.91L 27.707 657.406L 29 657.406L 29 653.199zM 27.8984 653.199L 27.8984 656.328L 23.5742 653.199L 27.8984 653.199z"/>
<path style="stroke:#000000; stroke-width:1; fill:none" d="M 446.699 641.602L 440.398 641.602M 26.6992 641.602L 33 641.602"/>
<path style="stroke:none; fill-rule:evenodd; fill:#000000" d="M 460.801 652.105L 460.801 651.418C 460.801 650.02 461.418 649.301 462.609 649.301C 463.855 649.301 464.597 650.082 464.597 651.387C 464.597 652.75 463.937 653.418 462.515 653.504L 462.515 654.754C 463.308 654.695 463.82 654.555 464.265 654.316C 465.215 653.812 465.699 652.828 465.699 651.469C 465.699 649.422 464.488 648.102 462.621 648.102C 461.367 648.102 460.672 648.598 460.265 649.797C 459.902 648.867 459.207 648.402 458.219 648.402C 456.519 648.402 455.5 649.535 455.5 651.43C 455.5 653.434 456.582 654.5 458.679 654.543L 458.679 653.293C 458.094 653.277 457.765 653.223 457.461 653.066C 456.929 652.781 456.601 652.156 456.601 651.379C 456.601 650.27 457.234 649.602 458.269 649.602C 458.957 649.602 459.371 649.859 459.594 650.422C 459.73 650.77 459.785 651.215 459.801 652.105L 460.801 652.105z"/>
<path style="stroke:none; fill-rule:evenodd; fill:#000000" d="M 455.5 640.719L 455.5 645.859L 460.879 646.602L 460.879 645.449C 460.226 644.867 460 644.387 460 643.605C 460 642.254 460.894 641.398 462.34 641.398C 463.746 641.398 464.597 642.238 464.597 643.602C 464.597 644.695 464.062 645.363 462.965 645.66L 462.965 646.91C 463.769 646.742 464.16 646.602 464.519 646.309C 465.269 645.746 465.699 644.734 465.699 643.613C 465.699 641.605 464.258 640.199 462.176 640.199C 460.23 640.199 458.898 641.508 458.898 643.414C 458.898 644.117 459.07 644.68 459.461 645.254L 456.699 644.863L 456.699 640.723L 455.5 640.719z"/>
<path style="stroke:none; fill-rule:evenodd; fill:#000000" d="M 455.5 635.852C 455.5 636.773 455.91 637.613 456.597 638.133C 457.465 638.777 458.785 639.098 460.605 639.098C 463.933 639.098 465.699 637.98 465.699 635.848C 465.699 633.746 463.933 632.598 460.691 632.598C 458.769 632.598 457.488 632.906 456.597 633.566C 455.894 634.082 455.5 634.91 455.5 635.848L 455.5 635.852zM 456.597 635.852C 456.597 634.48 457.937 633.801 460.586 633.801C 463.39 633.801 464.699 634.465 464.699 635.879C 464.699 637.223 463.332 637.898 460.629 637.898C 457.926 637.898 456.597 637.219 456.597 635.852z"/>
<path style="stroke:none; fill-rule:evenodd; fill:#000000" d="M 455.5 628.051C 455.5 628.977 455.91 629.816 456.597 630.332C 457.465 630.977 458.785 631.301 460.605 631.301C 463.933 631.301 465.699 630.18 465.699 628.051C 465.699 625.949 463.933 624.801 460.691 624.801C 458.769 624.801 457.488 625.105 456.597 625.766C 455.894 626.285 455.5 627.109 455.5 628.051zM 456.597 628.051C 456.597 626.68 457.937 626 460.586 626C 463.39 626 464.699 626.664 464.699 628.078C 464.699 629.422 463.332 630.098 460.629 630.098C 457.926 630.098 456.597 629.422 456.597 628.051z"/>
<path style="stroke:#000000; stroke-width:1; fill:none" d="M 446.699 563.5L 440.398 563.5M 26.6992 563.5L 33 563.5"/>
<path style="stroke:none; fill-rule:evenodd; fill:#000000" d="M 463 572.5L 465.398 572.5L 465.398 571.301L 463 571.301L 463 569.82L 461.898 569.82L 461.898 571.301L 455.5 571.301L 455.5 572.211L 461.707 576.707L 463 576.707L 463 572.5zM 461.898 572.5L 461.898 575.629L 457.574 572.5L 461.898 572.5z"/>
<path style="stroke:none; fill-rule:evenodd; fill:#000000" d="M 455.5 565.449C 455.5 566.375 455.91 567.215 456.597 567.734C 457.465 568.379 458.785 568.699 460.605 568.699C 463.933 568.699 465.699 567.578 465.699 565.449C 465.699 563.348 463.933 562.199 460.691 562.199C 458.769 562.199 457.488 562.508 456.597 563.164C 455.894 563.684 455.5 564.512 455.5 565.449zM 456.597 565.449C 456.597 564.078 457.937 563.398 460.586 563.398C 463.39 563.398 464.699 564.062 464.699 565.48C 464.699 566.82 463.332 567.5 460.629 567.5C 457.926 567.5 456.597 566.82 456.597 565.449z"/>
<path style="stroke:none; fill-rule:evenodd; fill:#000000" d="M 455.5 557.75C 455.5 558.676 455.91 559.516 456.597 560.031C 457.465 560.68 458.785 561 460.605 561C 463.933 561 465.699 559.879 465.699 557.75C 465.699 555.648 463.933 554.5 460.691 554.5C 458.769 554.5 457.488 554.809 456.597 555.465C 455.894 555.984 455.5 556.812 455.5 557.75zM 456.597 557.75C 456.597 556.379 457.937 555.699 460.586 555.699C 463.39 555.699 464.699 556.363 464.699 557.777C 464.699 559.121 463.332 559.801 460.629 559.801C 457.926 559.801 456.597 559.121 456.597 557.75z"/>
<path style="stroke:none; fill-rule:evenodd; fill:#000000" d="M 455.5 549.949C 455.5 550.875 455.91 551.715 456.597 552.234C 457.465 552.879 458.785 553.199 460.605 553.199C 463.933 553.199 465.699 552.078 465.699 549.949C 465.699 547.848 463.933 546.699 460.691 546.699C 458.769 546.699 457.488 547.008 456.597 547.664C 455.894 548.184 455.5 549.012 455.5 549.949zM 456.597 549.949C 456.597 548.578 457.937 547.898 460.586 547.898C 463.39 547.898 464.699 548.562 464.699 549.98C 464.699 551.32 463.332 552 460.629 552C 457.926 552 456.597 551.32 456.597 549.949z"/>
<path style="stroke:#000000; stroke-width:1; fill:none" d="M 446.699 485.398L 440.398 485.398M 26.6992 485.398L 33 485.398"/>
<path style="stroke:none; fill-rule:evenodd; fill:#000000" d="M 463 494.398L 465.398 494.398L 465.398 493.199L 463 493.199L 463 491.719L 461.898 491.719L 461.898 493.199L 455.5 493.199L 455.5 494.109L 461.707 498.609L 463 498.609L 463 494.398zM 461.898 494.398L 461.898 497.531L 457.574 494.398L 461.898 494.398z"/>
<path style="stroke:none; fill-rule:evenodd; fill:#000000" d="M 455.5 484.52L 455.5 489.656L 460.879 490.402L 460.879 489.25C 460.226 488.668 460 488.184 460 487.402C 460 486.055 460.894 485.199 462.34 485.199C 463.746 485.199 464.597 486.039 464.597 487.402C 464.597 488.496 464.062 489.164 462.965 489.461L 462.965 490.711C 463.769 490.543 464.16 490.402 464.519 490.105C 465.269 489.547 465.699 488.535 465.699 487.41C 465.699 485.406 464.258 484 462.176 484C 460.23 484 458.898 485.309 458.898 487.215C 458.898 487.918 459.07 488.48 459.461 489.055L 456.699 488.66L 456.699 484.52L 455.5 484.52z"/>
<path style="stroke:none; fill-rule:evenodd; fill:#000000" d="M 455.5 479.648C 455.5 480.574 455.91 481.414 456.597 481.934C 457.465 482.578 458.785 482.898 460.605 482.898C 463.933 482.898 465.699 481.777 465.699 479.648C 465.699 477.547 463.933 476.398 460.691 476.398C 458.769 476.398 457.488 476.707 456.597 477.367C 455.894 477.883 455.5 478.711 455.5 479.648zM 456.597 479.648C 456.597 478.277 457.937 477.602 460.586 477.602C 463.39 477.602 464.699 478.266 464.699 479.68C 464.699 481.02 463.332 481.699 460.629 481.699C 457.926 481.699 456.597 481.02 456.597 479.648z"/>
<path style="stroke:none; fill-rule:evenodd; fill:#000000" d="M 455.5 471.852C 455.5 472.773 455.91 473.613 456.597 474.133C 457.465 474.777 458.785 475.098 460.605 475.098C 463.933 475.098 465.699 473.98 465.699 471.848C 465.699 469.746 463.933 468.598 460.691 468.598C 458.769 468.598 457.488 468.906 456.597 469.566C 455.894 470.086 455.5 470.91 455.5 471.848L 455.5 471.852zM 456.597 471.852C 456.597 470.48 457.937 469.801 460.586 469.801C 463.39 469.801 464.699 470.465 464.699 471.879C 464.699 473.223 463.332 473.898 460.629 473.898C 457.926 473.898 456.597 473.219 456.597 471.852z"/>
<path style="stroke:#000000; stroke-width:1; fill:none" d="M 446.699 407.301L 440.398 407.301M 26.6992 407.301L 33 407.301"/>
<path style="stroke:none; fill-rule:evenodd; fill:#000000" d="M 455.5 414.219L 455.5 419.359L 460.879 420.102L 460.879 418.949C 460.226 418.367 460 417.887 460 417.105C 460 415.754 460.894 414.898 462.34 414.898C 463.746 414.898 464.597 415.738 464.597 417.102C 464.597 418.195 464.062 418.863 462.965 419.16L 462.965 420.41C 463.769 420.242 464.16 420.102 464.519 419.809C 465.269 419.246 465.699 418.234 465.699 417.113C 465.699 415.105 464.258 413.699 462.176 413.699C 460.23 413.699 458.898 415.008 458.898 416.914C 458.898 417.617 459.07 418.18 459.461 418.754L 456.699 418.363L 456.699 414.223L 455.5 414.219z"/>
<path style="stroke:none; fill-rule:evenodd; fill:#000000" d="M 455.5 409.25C 455.5 410.176 455.91 411.016 456.597 411.531C 457.465 412.18 458.785 412.5 460.605 412.5C 463.933 412.5 465.699 411.379 465.699 409.25C 465.699 407.148 463.933 406 460.691 406C 458.769 406 457.488 406.309 456.597 406.965C 455.894 407.484 455.5 408.312 455.5 409.25zM 456.597 409.25C 456.597 407.879 457.937 407.199 460.586 407.199C 463.39 407.199 464.699 407.863 464.699 409.277C 464.699 410.621 463.332 411.301 460.629 411.301C 457.926 411.301 456.597 410.621 456.597 409.25z"/>
<path style="stroke:none; fill-rule:evenodd; fill:#000000" d="M 455.5 401.551C 455.5 402.477 455.91 403.316 456.597 403.832C 457.465 404.477 458.785 404.801 460.605 404.801C 463.933 404.801 465.699 403.68 465.699 401.551C 465.699 399.449 463.933 398.301 460.691 398.301C 458.769 398.301 457.488 398.605 456.597 399.266C 455.894 399.785 455.5 400.609 455.5 401.551zM 456.597 401.551C 456.597 400.18 457.937 399.5 460.586 399.5C 463.39 399.5 464.699 400.164 464.699 401.578C 464.699 402.922 463.332 403.598 460.629 403.598C 457.926 403.598 456.597 402.922 456.597 401.551z"/>
<path style="stroke:none; fill-rule:evenodd; fill:#000000" d="M 455.5 393.75C 455.5 394.676 455.91 395.516 456.597 396.031C 457.465 396.68 458.785 397 460.605 397C 463.933 397 465.699 395.879 465.699 393.75C 465.699 391.648 463.933 390.5 460.691 390.5C 458.769 390.5 457.488 390.809 456.597 391.465C 455.894 391.984 455.5 392.812 455.5 393.75zM 456.597 393.75C 456.597 392.379 457.937 391.699 460.586 391.699C 463.39 391.699 464.699 392.363 464.699 393.777C 464.699 395.121 463.332 395.801 460.629 395.801C 457.926 395.801 456.597 395.121 456.597 393.75z"/>
<path style="stroke:#000000; stroke-width:1; fill:none" d="M 446.699 329.199L 440.398 329.199M 26.6992 329.199L 33 329.199"/>
<path style="stroke:none; fill-rule:evenodd; fill:#000000" d="M 455.5 336.121L 455.5 341.258L 460.879 342.004L 460.879 340.852C 460.226 340.27 460 339.785 460 339.004C 460 337.652 460.894 336.801 462.34 336.801C 463.746 336.801 464.597 337.641 464.597 339.004C 464.597 340.094 464.062 340.762 462.965 341.062L 462.965 342.312C 463.769 342.141 464.16 342.004 464.519 341.707C 465.269 341.145 465.699 340.137 465.699 339.012C 465.699 337.004 464.258 335.602 462.176 335.602C 460.23 335.602 458.898 336.906 458.898 338.816C 458.898 339.52 459.07 340.078 459.461 340.656L 456.699 340.262L 456.699 336.121L 455.5 336.121z"/>
<path style="stroke:none; fill-rule:evenodd; fill:#000000" d="M 455.5 328.32L 455.5 333.457L 460.879 334.203L 460.879 333.051C 460.226 332.469 460 331.984 460 331.203C 460 329.855 460.894 329 462.34 329C 463.746 329 464.597 329.84 464.597 331.203C 464.597 332.297 464.062 332.965 462.965 333.262L 462.965 334.512C 463.769 334.344 464.16 334.203 464.519 333.906C 465.269 333.348 465.699 332.336 465.699 331.211C 465.699 329.203 464.258 327.801 462.176 327.801C 460.23 327.801 458.898 329.105 458.898 331.016C 458.898 331.719 459.07 332.277 459.461 332.855L 456.699 332.461L 456.699 328.32L 455.5 328.32z"/>
<path style="stroke:none; fill-rule:evenodd; fill:#000000" d="M 455.5 323.449C 455.5 324.375 455.91 325.215 456.597 325.734C 457.465 326.379 458.785 326.699 460.605 326.699C 463.933 326.699 465.699 325.578 465.699 323.449C 465.699 321.348 463.933 320.199 460.691 320.199C 458.769 320.199 457.488 320.508 456.597 321.164C 455.894 321.684 455.5 322.512 455.5 323.449zM 456.597 323.449C 456.597 322.078 457.937 321.398 460.586 321.398C 463.39 321.398 464.699 322.062 464.699 323.48C 464.699 324.82 463.332 325.5 460.629 325.5C 457.926 325.5 456.597 324.82 456.597 323.449z"/>
<path style="stroke:none; fill-rule:evenodd; fill:#000000" d="M 455.5 315.648C 455.5 316.574 455.91 317.414 456.597 317.934C 457.465 318.578 458.785 318.898 460.605 318.898C 463.933 318.898 465.699 317.777 465.699 315.648C 465.699 313.547 463.933 312.398 460.691 312.398C 458.769 312.398 457.488 312.707 456.597 313.367C 455.894 313.883 455.5 314.711 455.5 315.648zM 456.597 315.648C 456.597 314.277 457.937 313.602 460.586 313.602C 463.39 313.602 464.699 314.266 464.699 315.68C 464.699 317.02 463.332 317.699 460.629 317.699C 457.926 317.699 456.597 317.02 456.597 315.648z"/>
<path style="stroke:#000000; stroke-width:1; fill:none" d="M 446.699 251.102L 440.398 251.102M 26.6992 251.102L 33 251.102"/>
<path style="stroke:none; fill-rule:evenodd; fill:#000000" d="M 458.097 257.727C 456.469 257.965 455.5 259.031 455.5 260.543C 455.5 261.637 456.031 262.613 456.91 263.203C 457.871 263.82 459.082 264.102 460.879 264.102C 462.535 264.102 463.594 263.848 464.472 263.258C 465.265 262.723 465.699 261.855 465.699 260.758C 465.699 258.863 464.297 257.5 462.351 257.5C 460.504 257.5 459.199 258.777 459.199 260.582C 459.199 261.578 459.578 262.359 460.301 262.898C 457.922 262.887 456.601 262.094 456.601 260.66C 456.601 259.781 457.148 259.172 458.101 258.977L 458.097 257.727zM 460.301 260.672C 460.301 259.457 461.125 258.699 462.449 258.699C 463.691 258.699 464.601 259.559 464.601 260.711C 464.601 261.883 463.652 262.766 462.379 262.766C 461.152 262.766 460.301 261.91 460.301 260.668L 460.301 260.672z"/>
<path style="stroke:none; fill-rule:evenodd; fill:#000000" d="M 455.5 253.051C 455.5 253.977 455.91 254.816 456.597 255.332C 457.465 255.977 458.785 256.301 460.605 256.301C 463.933 256.301 465.699 255.18 465.699 253.051C 465.699 250.949 463.933 249.801 460.691 249.801C 458.769 249.801 457.488 250.105 456.597 250.766C 455.894 251.285 455.5 252.109 455.5 253.051zM 456.597 253.051C 456.597 251.68 457.937 251 460.586 251C 463.39 251 464.699 251.664 464.699 253.078C 464.699 254.422 463.332 255.098 460.629 255.098C 457.926 255.098 456.597 254.422 456.597 253.051z"/>
<path style="stroke:none; fill-rule:evenodd; fill:#000000" d="M 455.5 245.352C 455.5 246.273 455.91 247.113 456.597 247.633C 457.465 248.277 458.785 248.598 460.605 248.598C 463.933 248.598 465.699 247.48 465.699 245.348C 465.699 243.246 463.933 242.098 460.691 242.098C 458.769 242.098 457.488 242.406 456.597 243.066C 455.894 243.582 455.5 244.41 455.5 245.348L 455.5 245.352zM 456.597 245.352C 456.597 243.98 457.937 243.301 460.586 243.301C 463.39 243.301 464.699 243.965 464.699 245.379C 464.699 246.723 463.332 247.398 460.629 247.398C 457.926 247.398 456.597 246.719 456.597 245.352z"/>
<path style="stroke:none; fill-rule:evenodd; fill:#000000" d="M 455.5 237.551C 455.5 238.477 455.91 239.316 456.597 239.832C 457.465 240.477 458.785 240.801 460.605 240.801C 463.933 240.801 465.699 239.68 465.699 237.551C 465.699 235.449 463.933 234.301 460.691 234.301C 458.769 234.301 457.488 234.605 456.597 235.266C 455.894 235.785 455.5 236.609 455.5 237.551zM 456.597 237.551C 456.597 236.18 457.937 235.5 460.586 235.5C 463.39 235.5 464.699 236.164 464.699 237.578C 464.699 238.922 463.332 239.598 460.629 239.598C 457.926 239.598 456.597 238.922 456.597 237.551z"/>
<path style="stroke:#000000; stroke-width:1; fill:none" d="M 446.699 173L 440.398 173M 26.6992 173L 33 173"/>
<path style="stroke:none; fill-rule:evenodd; fill:#000000" d="M 458.097 179.629C 456.469 179.867 455.5 180.93 455.5 182.441C 455.5 183.535 456.031 184.516 456.91 185.105C 457.871 185.719 459.082 186 460.879 186C 462.535 186 463.594 185.746 464.472 185.156C 465.265 184.625 465.699 183.754 465.699 182.66C 465.699 180.762 464.297 179.398 462.351 179.398C 460.504 179.398 459.199 180.68 459.199 182.484C 459.199 183.48 459.578 184.262 460.301 184.801C 457.922 184.785 456.601 183.992 456.601 182.562C 456.601 181.684 457.148 181.074 458.101 180.875L 458.097 179.629zM 460.301 182.57C 460.301 181.355 461.125 180.602 462.449 180.602C 463.691 180.602 464.601 181.457 464.601 182.613C 464.601 183.781 463.652 184.668 462.379 184.668C 461.152 184.668 460.301 183.812 460.301 182.57z"/>
<path style="stroke:none; fill-rule:evenodd; fill:#000000" d="M 455.5 172.121L 455.5 177.258L 460.879 178.004L 460.879 176.852C 460.226 176.27 460 175.785 460 175.004C 460 173.652 460.894 172.801 462.34 172.801C 463.746 172.801 464.597 173.641 464.597 175.004C 464.597 176.094 464.062 176.762 462.965 177.062L 462.965 178.312C 463.769 178.141 464.16 178.004 464.519 177.707C 465.269 177.145 465.699 176.137 465.699 175.012C 465.699 173.004 464.258 171.602 462.176 171.602C 460.23 171.602 458.898 172.906 458.898 174.816C 458.898 175.52 459.07 176.078 459.461 176.656L 456.699 176.262L 456.699 172.121L 455.5 172.121z"/>
<path style="stroke:none; fill-rule:evenodd; fill:#000000" d="M 455.5 167.25C 455.5 168.176 455.91 169.016 456.597 169.531C 457.465 170.18 458.785 170.5 460.605 170.5C 463.933 170.5 465.699 169.379 465.699 167.25C 465.699 165.148 463.933 164 460.691 164C 458.769 164 457.488 164.309 456.597 164.965C 455.894 165.484 455.5 166.312 455.5 167.25zM 456.597 167.25C 456.597 165.879 457.937 165.199 460.586 165.199C 463.39 165.199 464.699 165.863 464.699 167.277C 464.699 168.621 463.332 169.301 460.629 169.301C 457.926 169.301 456.597 168.621 456.597 167.25z"/>
<path style="stroke:none; fill-rule:evenodd; fill:#000000" d="M 455.5 159.449C 455.5 160.375 455.91 161.215 456.597 161.734C 457.465 162.379 458.785 162.699 460.605 162.699C 463.933 162.699 465.699 161.578 465.699 159.449C 465.699 157.348 463.933 156.199 460.691 156.199C 458.769 156.199 457.488 156.508 456.597 157.164C 455.894 157.684 455.5 158.512 455.5 159.449zM 456.597 159.449C 456.597 158.078 457.937 157.398 460.586 157.398C 463.39 157.398 464.699 158.062 464.699 159.48C 464.699 160.82 463.332 161.5 460.629 161.5C 457.926 161.5 456.597 160.82 456.597 159.449z"/>
<path style="stroke:#000000; stroke-width:1; fill:none" d="M 446.699 94.898L 440.398 94.898M 26.6992 94.898L 33 94.898"/>
<path style="stroke:none; fill-rule:evenodd; fill:#000000" d="M 455.5 101.199L 455.5 107.801L 456.699 107.801L 456.699 102.469C 460.07 104.82 462.14 105.781 465.398 106.52L 465.398 105.211C 462.23 104.668 459.508 103.43 456.535 101.199L 455.5 101.199z"/>
<path style="stroke:none; fill-rule:evenodd; fill:#000000" d="M 455.5 96.852C 455.5 97.773 455.91 98.613 456.597 99.133C 457.465 99.777 458.785 100.098 460.605 100.098C 463.933 100.098 465.699 98.98 465.699 96.848C 465.699 94.746 463.933 93.598 460.691 93.598C 458.769 93.598 457.488 93.906 456.597 94.566C 455.894 95.082 455.5 95.91 455.5 96.848L 455.5 96.852zM 456.597 96.852C 456.597 95.48 457.937 94.801 460.586 94.801C 463.39 94.801 464.699 95.465 464.699 96.879C 464.699 98.223 463.332 98.898 460.629 98.898C 457.926 98.898 456.597 98.219 456.597 96.852z"/>
<path style="stroke:none; fill-rule:evenodd; fill:#000000" d="M 455.5 89.148C 455.5 90.074 455.91 90.914 456.597 91.434C 457.465 92.078 458.785 92.398 460.605 92.398C 463.933 92.398 465.699 91.277 465.699 89.148C 465.699 87.047 463.933 85.898 460.691 85.898C 458.769 85.898 457.488 86.207 456.597 86.867C 455.894 87.383 455.5 88.211 455.5 89.148zM 456.597 89.148C 456.597 87.777 457.937 87.102 460.586 87.102C 463.39 87.102 464.699 87.766 464.699 89.18C 464.699 90.52 463.332 91.199 460.629 91.199C 457.926 91.199 456.597 90.52 456.597 89.148z"/>
<path style="stroke:none; fill-rule:evenodd; fill:#000000" d="M 455.5 81.352C 455.5 82.273 455.91 83.113 456.597 83.633C 457.465 84.277 458.785 84.598 460.605 84.598C 463.933 84.598 465.699 83.48 465.699 81.348C 465.699 79.246 463.933 78.098 460.691 78.098C 458.769 78.098 457.488 78.406 456.597 79.066C 455.894 79.582 455.5 80.41 455.5 81.348L 455.5 81.352zM 456.597 81.352C 456.597 79.98 457.937 79.301 460.586 79.301C 463.39 79.301 464.699 79.965 464.699 81.379C 464.699 82.723 463.332 83.398 460.629 83.398C 457.926 83.398 456.597 82.719 456.597 81.352z"/>
<path style="stroke:#000000; stroke-width:1; fill:none" d="M 446.699 16.801L 440.398 16.801M 26.6992 16.801L 33 16.801"/>
<path style="stroke:none; fill-rule:evenodd; fill:#000000" d="M 455.5 23.102L 455.5 29.703L 456.699 29.703L 456.699 24.367C 460.07 26.723 462.14 27.684 465.398 28.422L 465.398 27.113C 462.23 26.57 459.508 25.328 456.535 23.102L 455.5 23.102z"/>
<path style="stroke:none; fill-rule:evenodd; fill:#000000" d="M 455.5 15.922L 455.5 21.059L 460.879 21.801L 460.879 20.652C 460.226 20.07 460 19.586 460 18.805C 460 17.453 460.894 16.602 462.34 16.602C 463.746 16.602 464.597 17.438 464.597 18.801C 464.597 19.895 464.062 20.562 462.965 20.859L 462.965 22.109C 463.769 21.941 464.16 21.801 464.519 21.508C 465.269 20.945 465.699 19.934 465.699 18.812C 465.699 16.805 464.258 15.398 462.176 15.398C 460.23 15.398 458.898 16.707 458.898 18.617C 458.898 19.316 459.07 19.879 459.461 20.453L 456.699 20.062L 456.699 15.922L 455.5 15.922z"/>
<path style="stroke:none; fill-rule:evenodd; fill:#000000" d="M 455.5 11.051C 455.5 11.977 455.91 12.816 456.597 13.332C 457.465 13.977 458.785 14.301 460.605 14.301C 463.933 14.301 465.699 13.18 465.699 11.051C 465.699 8.94897 463.933 7.80103 460.691 7.80103C 458.769 7.80103 457.488 8.10498 456.597 8.76599C 455.894 9.28497 455.5 10.109 455.5 11.051zM 456.597 11.051C 456.597 9.67999 457.937 9 460.586 9C 463.39 9 464.699 9.664 464.699 11.078C 464.699 12.422 463.332 13.098 460.629 13.098C 457.926 13.098 456.597 12.422 456.597 11.051z"/>
<path style="stroke:none; fill-rule:evenodd; fill:#000000" d="M 455.5 3.25C 455.5 4.17603 455.91 5.01599 456.597 5.53101C 457.465 6.17999 458.785 6.5 460.605 6.5C 463.933 6.5 465.699 5.37903 465.699 3.25C 465.699 1.14801 463.933 0 460.691 0C 458.769 0 457.488 0.309021 456.597 0.965027C 455.894 1.48401 455.5 2.31201 455.5 3.25zM 456.597 3.25C 456.597 1.87903 457.937 1.19897 460.586 1.19897C 463.39 1.19897 464.699 1.86298 464.699 3.27698C 464.699 4.62097 463.332 5.30103 460.629 5.30103C 457.926 5.30103 456.597 4.62097 456.597 3.25z"/>
<path style="stroke:#000000; stroke-width:1; fill:none" d="M 446.699 641.602L 446.699 16.801L 26.6992 16.801L 26.6992 641.602L 446.699 641.602"/>
<path style="stroke:none; fill-rule:evenodd; fill:#000000" d="M 283.801 700.102L 280.398 700.102C 279.226 700.102 278.699 699.539 278.699 698.277L 278.699 697.367C 278.699 696.738 278.594 696.121 278.418 695.699L 276.894 695.699L 276.894 696.02C 277.375 696.355 277.472 696.719 277.5 698.078C 277.515 699.758 277.781 700.258 278.894 700.734C 277.758 701.293 277.301 702.008 277.301 703.168C 277.301 704.934 278.406 705.898 280.402 705.898L 285.101 705.898L 285.101 695.699L 283.801 695.699L 283.801 700.102zM 283.801 701.199L 283.801 704.801L 280.621 704.801C 279.887 704.801 279.461 704.684 279.137 704.398C 278.785 704.098 278.601 703.625 278.601 702.992C 278.601 701.762 279.222 701.199 280.621 701.199L 283.801 701.199z"/>
<path style="stroke:none; fill-rule:evenodd; fill:#000000" d="M 269.097 699C 269.097 700.102 269.183 700.762 269.394 701.301C 269.867 702.484 270.984 703.199 272.351 703.199C 274.39 703.199 275.703 701.645 275.703 699.258C 275.703 696.871 274.433 695.398 272.39 695.398C 270.719 695.398 269.562 696.344 269.269 697.926L 270.441 697.926C 270.765 696.988 271.418 696.5 272.351 696.5C 273.09 696.5 273.719 696.832 274.109 697.445C 274.387 697.859 274.484 698.277 274.5 699L 269.097 699zM 274.492 700C 274.394 701.273 273.57 702.098 272.394 702.098C 271.246 702.098 270.363 701.207 270.363 700.078C 270.363 700.051 270.363 700.027 270.379 700L 274.492 700z"/>
<path style="stroke:none; fill-rule:evenodd; fill:#000000" d="M 266.5 705.898L 267.699 705.898L 267.699 695.699L 266.5 695.699L 266.5 705.898z"/>
<path style="stroke:none; fill-rule:evenodd; fill:#000000" d="M 258.008 696.387C 258.137 696.398 258.191 696.398 258.261 696.398C 258.672 696.398 258.898 696.605 258.898 696.969L 258.898 701.223C 258.898 702.508 259.851 703.199 261.652 703.199C 262.715 703.199 263.597 702.898 264.086 702.363C 264.422 701.992 264.558 701.578 264.59 700.867L 263.426 700.867C 263.328 701.715 262.801 702.098 261.719 702.098C 260.679 702.098 260.097 701.711 260.097 701.02L 260.097 700.719C 260.097 700.234 260.39 700.027 261.301 699.914C 262.933 699.711 263.183 699.652 263.625 699.473C 264.469 699.129 264.898 698.48 264.898 697.539C 264.898 696.227 263.976 695.398 262.496 695.398C 261.574 695.398 260.832 695.715 260.008 696.453C 259.926 695.727 259.562 695.398 258.804 695.398C 258.566 695.398 258.387 695.426 258.008 695.523L 258.008 696.387zM 260.097 698.012C 260.097 697.617 260.211 697.379 260.558 697.059C 261.027 696.625 261.594 696.398 262.273 696.398C 263.172 696.398 263.699 696.836 263.699 697.574C 263.699 698.348 263.187 698.738 261.957 698.922C 260.738 699.09 260.488 699.145 260.097 699.328L 260.097 698.012z"/>
<path style="stroke:none; fill-rule:evenodd; fill:#000000" d="M 254.097 703L 255.301 703L 255.301 705.051L 256.5 705.051L 256.5 703L 257.5 703L 257.5 702L 256.5 702L 256.5 696.543C 256.5 695.812 255.988 695.398 255.062 695.398C 254.781 695.398 254.496 695.426 254.097 695.496L 254.097 696.457C 254.254 696.414 254.433 696.398 254.656 696.398C 255.16 696.398 255.301 696.539 255.301 697.047L 255.301 702L 254.097 702L 254.097 703z"/>
<path style="stroke:none; fill-rule:evenodd; fill:#000000" d="M 251.699 703L 252.898 703L 252.898 695.699L 251.699 695.699L 251.699 703zM 251.699 705.898L 252.898 705.898L 252.898 704.438L 251.699 704.438L 251.699 705.898z"/>
<path style="stroke:none; fill-rule:evenodd; fill:#000000" d="M 246.711 695.699L 243.894 703L 245.211 703L 247.285 697.086L 249.242 703L 250.558 703L 247.984 695.699L 246.711 695.699z"/>
<path style="stroke:none; fill-rule:evenodd; fill:#000000" d="M 236.5 699C 236.5 700.102 236.582 700.762 236.793 701.301C 237.269 702.484 238.383 703.199 239.754 703.199C 241.789 703.199 243.101 701.645 243.101 699.258C 243.101 696.871 241.836 695.398 239.789 695.398C 238.121 695.398 236.965 696.344 236.672 697.926L 237.844 697.926C 238.164 696.988 238.82 696.5 239.754 696.5C 240.492 696.5 241.117 696.832 241.508 697.445C 241.789 697.859 241.887 698.277 241.898 699L 236.5 699zM 241.894 700C 241.797 701.273 240.969 702.098 239.793 702.098C 238.644 702.098 237.761 701.207 237.761 700.078C 237.761 700.051 237.761 700.027 237.777 700L 241.894 700z"/>
<path style="stroke:none; fill-rule:evenodd; fill:#000000" d="M 229.398 700.398L 224.566 700.398L 224.566 701.5L 229.398 701.5L 229.398 704.801L 223.898 704.801L 223.898 705.898L 230.699 705.898L 230.699 695.699L 229.398 695.699L 229.398 700.398z"/>
<path style="stroke:none; fill-rule:evenodd; fill:#000000" d="M 221.301 705.898L 222.5 705.898L 222.5 695.699L 221.301 695.699L 221.301 705.898z"/>
<path style="stroke:none; fill-rule:evenodd; fill:#000000" d="M 213.597 695.719L 213.597 703L 214.801 703L 214.801 698.863C 214.801 697.375 215.558 696.398 216.738 696.398C 217.633 696.398 218.199 696.957 218.199 697.832L 218.199 703L 219.398 703L 219.398 697.387C 219.398 696.18 218.488 695.398 217.054 695.398C 215.976 695.398 215.289 695.773 214.601 696.734L 214.601 695.719L 213.597 695.719z"/>
<path style="stroke:none; fill-rule:evenodd; fill:#000000" d="M 208.41 699.477L 205.945 703L 207.261 703L 209.027 700.375L 210.793 703L 212.121 703L 209.672 699.418L 212.261 695.699L 210.929 695.699L 209.07 698.516L 207.234 695.699L 205.879 695.699L 208.41 699.477z"/>
<path style="stroke:none; fill-rule:evenodd; fill:#000000" d="M 199.097 700.398L 194.265 700.398L 194.265 701.5L 199.097 701.5L 199.097 704.801L 193.597 704.801L 193.597 705.898L 200.398 705.898L 200.398 695.699L 199.101 695.699L 199.097 700.398z"/>
<path style="stroke:none; fill-rule:evenodd; fill:#000000" d="M 192.258 697.883C 192.179 698.527 191.855 698.898 191.351 698.898C 190.996 698.898 190.691 698.617 190.523 698.109C 190.445 697.883 190.344 697.512 190.242 697.082L 192.832 691.445L 191.777 691.445L 189.875 695.488C 189.515 693.285 189.336 692.484 189.133 692.047C 188.887 691.559 188.527 691.301 188.117 691.301C 187.679 691.301 187.332 691.578 187.14 692.086C 187.019 692.395 186.972 692.707 186.961 693.25L 187.195 693.25C 187.285 692.641 187.543 692.301 187.945 692.301C 188.285 692.301 188.574 692.516 188.754 692.91C 188.898 693.203 188.976 693.496 189.133 694.332L 189.437 695.785C 189.445 695.82 189.461 695.898 189.48 696.012C 189.738 697.469 190.14 698.844 190.41 699.246C 190.656 699.609 190.992 699.801 191.363 699.801C 192.047 699.801 192.402 699.215 192.527 697.887L 192.258 697.883z"/>
<path style="stroke:none; fill-rule:evenodd; fill:#000000" d="M 482 397.801L 482 394.402C 482 393.227 482.558 392.699 483.82 392.699L 484.73 392.699C 485.363 392.699 485.98 392.594 486.398 392.418L 486.398 390.895L 486.078 390.895C 485.742 391.379 485.379 391.473 484.023 391.5C 482.344 391.516 481.84 391.781 481.363 392.898C 480.804 391.758 480.09 391.301 478.929 391.301C 477.168 391.301 476.199 392.406 476.199 394.406L 476.199 399.102L 486.398 399.102L 486.398 397.801L 482 397.801zM 480.898 397.801L 477.301 397.801L 477.301 394.621C 477.301 393.887 477.414 393.461 477.703 393.137C 478.004 392.785 478.476 392.602 479.105 392.602C 480.34 392.602 480.898 393.223 480.898 394.621L 480.898 397.801z"/>
<path style="stroke:none; fill-rule:evenodd; fill:#000000" d="M 483.097 383.102C 481.996 383.102 481.336 383.184 480.801 383.395C 479.617 383.867 478.898 384.984 478.898 386.352C 478.898 388.391 480.453 389.703 482.84 389.703C 485.226 389.703 486.699 388.438 486.699 386.391C 486.699 384.719 485.758 383.566 484.172 383.273L 484.172 384.445C 485.109 384.766 485.597 385.422 485.597 386.352C 485.597 387.094 485.265 387.719 484.656 388.109C 484.238 388.387 483.82 388.484 483.101 388.5L 483.097 383.102zM 482.097 388.492C 480.828 388.395 480 387.57 480 386.395C 480 385.246 480.89 384.363 482.019 384.363C 482.047 384.363 482.074 384.363 482.101 384.379L 482.097 388.492z"/>
<path style="stroke:none; fill-rule:evenodd; fill:#000000" d="M 481.105 376.367C 479.695 376.383 478.898 377.328 478.898 379.008C 478.898 380.703 479.769 381.801 481.109 381.801C 482.242 381.801 482.781 381.219 483.195 379.504L 483.461 378.422C 483.652 377.621 483.941 377.301 484.469 377.301C 485.144 377.301 485.601 377.984 485.601 379.008C 485.601 379.637 485.422 380.164 485.125 380.461C 484.922 380.641 484.719 380.727 484.215 380.797L 484.215 382.027C 485.894 381.973 486.699 381.023 486.699 379.113C 486.699 377.273 485.801 376.102 484.406 376.102C 483.332 376.102 482.734 376.711 482.39 378.152L 482.129 379.262C 481.91 380.199 481.605 380.602 481.094 380.602C 480.429 380.602 480 380.004 480 379.059C 480 378.125 480.383 377.625 481.109 377.598L 481.105 376.367z"/>
<path style="stroke:none; fill-rule:evenodd; fill:#000000" d="M 479.097 371.898L 479.097 373.102L 477.047 373.102L 477.047 374.301L 479.097 374.301L 479.097 375.301L 480.097 375.301L 480.097 374.301L 485.554 374.301C 486.285 374.301 486.699 373.789 486.699 372.863C 486.699 372.582 486.672 372.297 486.601 371.898L 485.644 371.898C 485.683 372.055 485.699 372.234 485.699 372.457C 485.699 372.961 485.562 373.102 485.051 373.102L 480.097 373.102L 480.097 371.898L 479.097 371.898z"/>
<path style="stroke:none; fill-rule:evenodd; fill:#000000" d="M 479.097 368L 479.097 369.199L 477.945 369.199C 477.453 369.199 477.199 368.926 477.199 368.398C 477.199 368.305 477.199 368.262 477.199 368L 476.265 368C 476.215 368.27 476.199 368.422 476.199 368.664C 476.199 369.75 476.812 370.398 477.859 370.398L 479.097 370.398L 479.097 371.402L 480.097 371.402L 480.097 370.398L 486.398 370.398L 486.398 369.199L 480.097 369.199L 480.097 368L 479.097 368z"/>
<path style="stroke:none; fill-rule:evenodd; fill:#000000" d="M 479.109 366.699L 486.398 366.699L 486.398 365.5L 482.601 365.5C 481.554 365.5 480.867 365.242 480.465 364.695C 480.199 364.34 480.113 364 480.097 363.207L 478.941 363.207C 478.914 363.398 478.898 363.496 478.898 363.645C 478.898 364.383 479.347 364.945 480.429 365.602L 479.109 365.602L 479.109 366.699z"/>
<path style="stroke:none; fill-rule:evenodd; fill:#000000" d="M 485.715 355.609C 485.699 355.738 485.699 355.793 485.699 355.863C 485.699 356.273 485.492 356.5 485.133 356.5L 480.875 356.5C 479.59 356.5 478.898 357.449 478.898 359.254C 478.898 360.316 479.203 361.195 479.738 361.688C 480.109 362.023 480.519 362.16 481.234 362.188L 481.234 361.023C 480.383 360.93 480 360.402 480 359.32C 480 358.281 480.387 357.699 481.078 357.699L 481.383 357.699C 481.867 357.699 482.074 357.988 482.183 358.902C 482.39 360.535 482.445 360.785 482.625 361.227C 482.969 362.07 483.621 362.5 484.558 362.5C 485.871 362.5 486.699 361.578 486.699 360.098C 486.699 359.176 486.387 358.434 485.644 357.609C 486.371 357.523 486.699 357.16 486.699 356.406C 486.699 356.168 486.672 355.984 486.578 355.609L 485.715 355.609zM 484.09 357.699C 484.48 357.699 484.719 357.812 485.043 358.156C 485.476 358.629 485.699 359.195 485.699 359.875C 485.699 360.773 485.265 361.301 484.523 361.301C 483.754 361.301 483.359 360.789 483.179 359.555C 483.011 358.34 482.957 358.09 482.773 357.699L 484.09 357.699z"/>
<path style="stroke:none; fill-rule:evenodd; fill:#000000" d="M 479.109 354.301L 486.398 354.301L 486.398 353.102L 481.812 353.102C 480.75 353.102 479.898 352.352 479.898 351.422C 479.898 350.578 480.429 350.102 481.363 350.102L 486.398 350.102L 486.398 348.898L 481.812 348.898C 480.75 348.898 479.898 348.125 479.898 347.168C 479.898 346.309 480.445 345.801 481.363 345.801L 486.398 345.801L 486.398 344.602L 480.933 344.602C 479.625 344.602 478.898 345.355 478.898 346.727C 478.898 347.703 479.183 348.289 479.972 348.977C 479.222 349.41 478.898 349.996 478.898 350.949C 478.898 351.926 479.261 352.57 480.14 353.199L 479.109 353.199L 479.109 354.301z"/>
<path style="stroke:none; fill-rule:evenodd; fill:#000000" d="M 483.097 336.398C 481.996 336.398 481.336 336.484 480.801 336.695C 479.617 337.168 478.898 338.285 478.898 339.652C 478.898 341.691 480.453 343.004 482.84 343.004C 485.226 343.004 486.699 341.734 486.699 339.691C 486.699 338.02 485.758 336.863 484.172 336.57L 484.172 337.742C 485.109 338.062 485.597 338.719 485.597 339.652C 485.597 340.391 485.265 341.02 484.656 341.41C 484.238 341.688 483.82 341.785 483.101 341.801L 483.097 336.398zM 482.097 341.793C 480.828 341.695 480 340.871 480 339.695C 480 338.547 480.89 337.664 482.019 337.664C 482.047 337.664 482.074 337.664 482.101 337.68L 482.097 341.793z"/>
<path style="stroke:none; fill-rule:evenodd; fill:#000000" d="M 486.398 321.484L 476.199 318.895L 476.199 320.352L 484.48 322.227L 476.199 324.551L 476.199 325.949L 484.48 328.219L 476.199 330.137L 476.199 331.594L 486.398 328.973L 486.398 327.547L 478.011 325.266L 486.398 322.91L 486.398 321.484z"/>
<path style="stroke:none; fill-rule:evenodd; fill:#000000" d="M 485.715 311.211C 485.699 311.336 485.699 311.395 485.699 311.465C 485.699 311.871 485.492 312.102 485.133 312.102L 480.875 312.102C 479.59 312.102 478.898 313.051 478.898 314.855C 478.898 315.914 479.203 316.797 479.738 317.285C 480.109 317.621 480.519 317.762 481.234 317.789L 481.234 316.625C 480.383 316.527 480 316.004 480 314.922C 480 313.883 480.387 313.301 481.078 313.301L 481.383 313.301C 481.867 313.301 482.074 313.59 482.183 314.504C 482.39 316.137 482.445 316.383 482.625 316.828C 482.969 317.672 483.621 318.102 484.558 318.102C 485.871 318.102 486.699 317.18 486.699 315.695C 486.699 314.773 486.387 314.031 485.644 313.207C 486.371 313.125 486.699 312.762 486.699 312.008C 486.699 311.77 486.672 311.586 486.578 311.211L 485.715 311.211zM 484.09 313.301C 484.48 313.301 484.719 313.41 485.043 313.758C 485.476 314.23 485.699 314.797 485.699 315.473C 485.699 316.375 485.265 316.898 484.523 316.898C 483.754 316.898 483.359 316.387 483.179 315.156C 483.011 313.938 482.957 313.688 482.773 313.301L 484.09 313.301z"/>
<path style="stroke:none; fill-rule:evenodd; fill:#000000" d="M 486.398 306.91L 479.097 304.098L 479.097 305.41L 485.011 307.484L 479.097 309.445L 479.097 310.762L 486.398 308.184L 486.398 306.91z"/>
<path style="stroke:none; fill-rule:evenodd; fill:#000000" d="M 483.097 296.699C 481.996 296.699 481.336 296.785 480.801 296.992C 479.617 297.469 478.898 298.586 478.898 299.953C 478.898 301.988 480.453 303.301 482.84 303.301C 485.226 303.301 486.699 302.035 486.699 299.988C 486.699 298.32 485.758 297.164 484.172 296.871L 484.172 298.043C 485.109 298.363 485.597 299.02 485.597 299.953C 485.597 300.691 485.265 301.32 484.656 301.707C 484.238 301.988 483.82 302.086 483.101 302.098L 483.097 296.699zM 482.097 302.094C 480.828 301.996 480 301.172 480 299.992C 480 298.848 480.89 297.965 482.019 297.965C 482.047 297.965 482.074 297.965 482.101 297.977L 482.097 302.094z"/>
<path style="stroke:none; fill-rule:evenodd; fill:#000000" d="M 476.199 295.199L 486.398 295.199L 486.398 294L 476.199 294L 476.199 295.199z"/>
<path style="stroke:none; fill-rule:evenodd; fill:#000000" d="M 483.097 285.801C 481.996 285.801 481.336 285.883 480.801 286.094C 479.617 286.566 478.898 287.684 478.898 289.055C 478.898 291.09 480.453 292.402 482.84 292.402C 485.226 292.402 486.699 291.137 486.699 289.09C 486.699 287.422 485.758 286.266 484.172 285.973L 484.172 287.145C 485.109 287.465 485.597 288.121 485.597 289.055C 485.597 289.793 485.265 290.418 484.656 290.809C 484.238 291.09 483.82 291.188 483.101 291.199L 483.097 285.801zM 482.097 291.195C 480.828 291.098 480 290.27 480 289.094C 480 287.945 480.89 287.062 482.019 287.062C 482.047 287.062 482.074 287.062 482.101 287.078L 482.097 291.195z"/>
<path style="stroke:none; fill-rule:evenodd; fill:#000000" d="M 479.109 284.301L 486.398 284.301L 486.398 283.102L 482.371 283.102C 480.879 283.102 479.898 282.34 479.898 281.172C 479.898 280.273 480.461 279.699 481.336 279.699L 486.398 279.699L 486.398 278.5L 480.89 278.5C 479.679 278.5 478.898 279.398 478.898 280.797C 478.898 281.875 479.316 282.566 480.332 283.199L 479.109 283.199L 479.109 284.301z"/>
<path style="stroke:none; fill-rule:evenodd; fill:#000000" d="M 479.097 271.699L 480.129 271.699C 479.293 272.293 478.898 273.012 478.898 273.957C 478.898 275.832 480.511 277.102 482.871 277.102C 484.062 277.102 485.035 276.781 485.726 276.184C 486.34 275.645 486.699 274.867 486.699 274.105C 486.699 273.191 486.312 272.555 485.406 271.898L 485.789 271.898C 486.789 271.898 487.398 272.023 487.808 272.316C 488.246 272.621 488.5 273.215 488.5 273.922C 488.5 274.445 488.355 274.918 488.097 275.234C 487.883 275.496 487.683 275.609 487.238 275.68L 487.238 276.855C 488.656 276.73 489.5 275.66 489.5 273.949C 489.5 272.867 489.148 271.934 488.558 271.465C 487.887 270.906 486.961 270.699 485.238 270.699L 479.097 270.699L 479.097 271.699zM 480 273.887C 480 272.637 481.043 271.902 482.84 271.902C 484.558 271.902 485.601 272.652 485.601 273.871C 485.601 275.137 484.543 275.898 482.801 275.898C 481.07 275.898 480 275.121 480 273.887z"/>
<path style="stroke:none; fill-rule:evenodd; fill:#000000" d="M 479.097 266.098L 479.097 267.301L 477.047 267.301L 477.047 268.5L 479.097 268.5L 479.097 269.5L 480.097 269.5L 480.097 268.5L 485.554 268.5C 486.285 268.5 486.699 267.988 486.699 267.066C 486.699 266.781 486.672 266.496 486.601 266.098L 485.644 266.098C 485.683 266.254 485.699 266.434 485.699 266.656C 485.699 267.16 485.562 267.301 485.051 267.301L 480.097 267.301L 480.097 266.098L 479.097 266.098z"/>
<path style="stroke:none; fill-rule:evenodd; fill:#000000" d="M 476.199 264.801L 486.398 264.801L 486.398 263.602L 482.371 263.602C 480.879 263.602 479.898 262.84 479.898 261.672C 479.898 261.305 480.027 260.938 480.234 260.664C 480.472 260.336 480.82 260.199 481.34 260.199L 486.398 260.199L 486.398 259L 480.89 259C 479.668 259 478.898 259.871 478.898 261.281C 478.898 262.301 479.211 262.922 480.07 263.602L 476.199 263.602L 476.199 264.801z"/>
<path style="stroke:none; fill-rule:evenodd; fill:#000000" d="M 3.1875 385.898C 1.17191 385.914 0 387.273 0 389.605C 0 391.824 1.15231 393.199 3.0117 393.199C 4.2656 393.199 5.0547 392.543 5.4062 391.203L 6.082 388.672C 6.41801 387.387 6.94141 386.801 7.7422 386.801C 8.29301 386.801 8.8554 387.098 9.164 387.531C 9.4453 387.938 9.6015 388.582 9.6015 389.41C 9.6015 390.516 9.332 391.273 8.7383 391.766C 8.2851 392.145 7.789 392.312 7.15231 392.301L 7.15231 393.5C 8.08591 393.488 8.6953 393.305 9.25391 392.902C 10.1992 392.203 10.6992 391.031 10.6992 389.48C 10.6992 388.266 10.4219 387.273 9.91801 386.617C 9.3711 385.934 8.46091 385.5 7.5781 385.5C 6.3203 385.5 5.3945 386.285 5.0195 387.668L 4.332 390.223C 3.9961 391.453 3.6054 391.902 2.8203 391.902C 1.7851 391.902 1.0976 390.996 1.0976 389.633C 1.0976 388.02 1.8476 387.113 3.1875 387.102L 3.1875 385.898z"/>
<path style="stroke:none; fill-rule:evenodd; fill:#000000" d="M 0.199203 375.801L 0.199203 377L 8.539 377L 0.199203 382.297L 0.199203 383.699L 10.3984 383.699L 10.3984 382.5L 2.125 382.5L 10.3984 377.262L 10.3984 375.801L 0.199203 375.801z"/>
<path style="stroke:none; fill-rule:evenodd; fill:#000000" d="M 3.3476 371.102L 10.3984 371.102L 10.3984 369.898L 0.496101 369.898L 0.496101 370.699C 2.0195 371.125 2.2304 371.402 2.4687 373.273L 3.3476 373.273L 3.3476 371.102z"/>
<path style="stroke:none; fill-rule:evenodd; fill:#000000" d="M 8.1328 366.156C 9.7422 365.922 10.6992 364.863 10.6992 363.355C 10.6992 362.27 10.1719 361.277 9.29301 360.707C 8.332 360.078 7.1211 359.801 5.3203 359.801C 3.664 359.801 2.6054 360.051 1.7265 360.629C 0.933601 361.168 0.5 362.023 0.5 363.102C 0.5 364.965 1.89841 366.301 3.8476 366.301C 5.6953 366.301 7 365.047 7 363.262C 7 362.328 6.664 361.645 5.89841 361C 8.27731 361.016 9.5976 361.805 9.5976 363.234C 9.5976 364.109 9.0625 364.719 8.1328 364.914L 8.1328 366.156zM 1.5976 363.129C 1.5976 361.984 2.54691 361.117 3.8281 361.117C 5.0351 361.117 5.89841 361.969 5.89841 363.172C 5.89841 364.359 5.0781 365.098 3.7578 365.098C 2.50391 365.098 1.6015 364.262 1.6015 363.129L 1.5976 363.129z"/>
<path style="stroke:none; fill-rule:evenodd; fill:#000000" d="M 8.1328 358.457C 9.7422 358.223 10.6992 357.16 10.6992 355.656C 10.6992 354.566 10.1719 353.578 9.29301 353.008C 8.332 352.379 7.1211 352.102 5.3203 352.102C 3.664 352.102 2.6054 352.352 1.7265 352.93C 0.933601 353.469 0.5 354.324 0.5 355.398C 0.5 357.262 1.89841 358.602 3.8476 358.602C 5.6953 358.602 7 357.348 7 355.562C 7 354.629 6.664 353.941 5.89841 353.301C 8.27731 353.316 9.5976 354.105 9.5976 355.535C 9.5976 356.41 9.0625 357.02 8.1328 357.215L 8.1328 358.457zM 1.5976 355.43C 1.5976 354.285 2.54691 353.418 3.8281 353.418C 5.0351 353.418 5.89841 354.27 5.89841 355.473C 5.89841 356.656 5.0781 357.398 3.7578 357.398C 2.50391 357.398 1.6015 356.562 1.6015 355.43L 1.5976 355.43z"/>
<path style="stroke:none; fill-rule:evenodd; fill:#000000" d="M 3.3476 347.801L 10.3984 347.801L 10.3984 346.602L 0.496101 346.602L 0.496101 347.398C 2.0195 347.824 2.2304 348.102 2.4687 349.973L 3.3476 349.973L 3.3476 347.801z"/>
<path style="stroke:none; fill-rule:evenodd; fill:#000000" d="M 0.199203 342.801L 10.3984 342.801L 10.3984 341.801L 9.46091 341.801C 10.3008 341.242 10.6992 340.504 10.6992 339.484C 10.6992 337.559 9.1328 336.301 6.7187 336.301C 4.35941 336.301 2.89841 337.48 2.89841 339.375C 2.89841 340.363 3.2656 341.066 4.0586 341.602L 0.199203 341.602L 0.199203 342.801zM 4 339.598C 4 338.324 5.1172 337.5 6.83981 337.5C 8.4804 337.5 9.5976 338.352 9.5976 339.598C 9.5976 340.805 8.4961 341.602 6.8008 341.602C 5.1054 341.602 4 340.805 4 339.598z"/>
<path style="stroke:none; fill-rule:evenodd; fill:#000000" d="M 3.0976 330L 4.12891 330C 3.29301 330.594 2.89841 331.312 2.89841 332.258C 2.89841 334.133 4.5117 335.398 6.8711 335.398C 8.0625 335.398 9.0351 335.082 9.7265 334.484C 10.3398 333.945 10.6992 333.168 10.6992 332.406C 10.6992 331.488 10.3125 330.852 9.4062 330.199L 9.789 330.199C 10.789 330.199 11.3984 330.324 11.8086 330.617C 12.2461 330.922 12.5 331.516 12.5 332.223C 12.5 332.746 12.3554 333.219 12.0976 333.535C 11.8828 333.797 11.6836 333.91 11.2383 333.977L 11.2383 335.152C 12.6562 335.027 13.5 333.961 13.5 332.25C 13.5 331.164 13.1484 330.234 12.5586 329.762C 11.8867 329.207 10.9609 328.996 9.2383 328.996L 3.0976 328.996L 3.0976 330zM 4 332.188C 4 330.938 5.04301 330.199 6.83981 330.199C 8.5586 330.199 9.6015 330.949 9.6015 332.172C 9.6015 333.438 8.54301 334.199 6.8008 334.199C 5.0703 334.199 4 333.422 4 332.188z"/>
<path style="stroke:none; fill-rule:evenodd; fill:#000000" d="M 3.1875 315.801C 1.17191 315.812 0 317.176 0 319.508C 0 321.727 1.15231 323.102 3.0117 323.102C 4.2656 323.102 5.0547 322.441 5.4062 321.102L 6.082 318.574C 6.41801 317.289 6.94141 316.699 7.7422 316.699C 8.29301 316.699 8.8554 316.996 9.164 317.43C 9.4453 317.836 9.6015 318.48 9.6015 319.309C 9.6015 320.414 9.332 321.172 8.7383 321.664C 8.2851 322.043 7.789 322.211 7.15231 322.199L 7.15231 323.402C 8.08591 323.387 8.6953 323.203 9.25391 322.801C 10.1992 322.102 10.6992 320.93 10.6992 319.379C 10.6992 318.164 10.4219 317.176 9.91801 316.52C 9.3711 315.836 8.46091 315.402 7.5781 315.402C 6.3203 315.402 5.3945 316.184 5.0195 317.566L 4.332 320.125C 3.9961 321.352 3.6054 321.801 2.8203 321.801C 1.7851 321.801 1.0976 320.898 1.0976 319.531C 1.0976 317.918 1.8476 317.016 3.1875 317L 3.1875 315.801z"/>
<path style="stroke:none; fill-rule:evenodd; fill:#000000" d="M 13.4531 314L 13.4531 312.801L 9.5976 312.801C 10.3594 312.195 10.6992 311.52 10.6992 310.586C 10.6992 308.727 9.1875 307.5 6.8711 307.5C 4.4258 307.5 2.89841 308.684 2.89841 310.602C 2.89841 311.578 3.3437 312.363 4.21091 312.898L 3.10941 312.898L 3.10941 314L 13.4531 314zM 4 310.793C 4 309.527 5.1172 308.699 6.83981 308.699C 8.4804 308.699 9.5976 309.539 9.5976 310.793C 9.5976 312.004 8.4961 312.801 6.8008 312.801C 5.1054 312.801 4 312.004 4 310.793z"/>
<path style="stroke:none; fill-rule:evenodd; fill:#000000" d="M 7.0976 299.801C 5.9961 299.801 5.33591 299.883 4.8008 300.094C 3.6172 300.566 2.89841 301.684 2.89841 303.055C 2.89841 305.09 4.4531 306.402 6.83981 306.402C 9.2265 306.402 10.6992 305.137 10.6992 303.09C 10.6992 301.422 9.7578 300.266 8.17191 299.973L 8.17191 301.145C 9.10941 301.465 9.5976 302.121 9.5976 303.055C 9.5976 303.793 9.2656 304.418 8.6562 304.809C 8.2383 305.09 7.8203 305.188 7.1015 305.199L 7.0976 299.801zM 6.0976 305.195C 4.8281 305.098 4 304.27 4 303.094C 4 301.945 4.8906 301.062 6.0195 301.062C 6.04691 301.062 6.0742 301.062 6.1015 301.078L 6.0976 305.195z"/>
<path style="stroke:none; fill-rule:evenodd; fill:#000000" d="M 5.52731 292.605C 4.83981 292.664 4.3906 292.816 4 293.102C 3.3086 293.605 2.89841 294.492 2.89841 295.52C 2.89841 297.504 4.457 298.801 6.8711 298.801C 9.21481 298.801 10.6992 297.535 10.6992 295.535C 10.6992 293.777 9.6601 292.664 7.87891 292.523L 7.87891 293.711C 9.02731 293.91 9.6015 294.516 9.6015 295.52C 9.6015 296.82 8.5703 297.602 6.8711 297.602C 5.0703 297.602 4 296.836 4 295.551C 4 294.559 4.5508 293.938 5.52731 293.797L 5.52731 292.605z"/>
<path style="stroke:none; fill-rule:evenodd; fill:#000000" d="M 3.0976 288.598L 3.0976 289.801L 1.04691 289.801L 1.04691 291L 3.0976 291L 3.0976 292L 4.0976 292L 4.0976 291L 9.5547 291C 10.2851 291 10.6992 290.488 10.6992 289.566C 10.6992 289.281 10.6719 288.996 10.6015 288.598L 9.6445 288.598C 9.6836 288.754 9.6992 288.934 9.6992 289.156C 9.6992 289.66 9.5625 289.801 9.0508 289.801L 4.0976 289.801L 4.0976 288.598L 3.0976 288.598z"/>
<path style="stroke:none; fill-rule:evenodd; fill:#000000" d="M 3.10941 287.301L 10.3984 287.301L 10.3984 286.102L 6.6015 286.102C 5.5547 286.102 4.8672 285.84 4.46481 285.297C 4.1992 284.941 4.1133 284.598 4.0976 283.809L 2.94141 283.809C 2.914 284 2.89841 284.094 2.89841 284.246C 2.89841 284.984 3.3476 285.543 4.4297 286.199L 3.10941 286.199L 3.10941 287.301z"/>
<path style="stroke:none; fill-rule:evenodd; fill:#000000" d="M 10.3789 277L 3.0976 277L 3.0976 278.199L 7.23441 278.199C 8.7226 278.199 9.6992 278.961 9.6992 280.137C 9.6992 281.031 9.1406 281.598 8.2656 281.598L 3.0976 281.598L 3.0976 282.801L 8.71091 282.801C 9.92191 282.801 10.6992 281.887 10.6992 280.457C 10.6992 279.375 10.3242 278.688 9.3633 278L 10.3789 278L 10.3789 277z"/>
<path style="stroke:none; fill-rule:evenodd; fill:#000000" d="M 3.10941 274.898L 10.3984 274.898L 10.3984 273.699L 5.8125 273.699C 4.75 273.699 3.89841 272.949 3.89841 272.023C 3.89841 271.18 4.4297 270.699 5.3633 270.699L 10.3984 270.699L 10.3984 269.5L 5.8125 269.5C 4.75 269.5 3.89841 268.727 3.89841 267.766C 3.89841 266.906 4.4453 266.398 5.3633 266.398L 10.3984 266.398L 10.3984 265.199L 4.9336 265.199C 3.625 265.199 2.89841 265.953 2.89841 267.324C 2.89841 268.305 3.1836 268.891 3.9726 269.578C 3.2226 270.012 2.89841 270.598 2.89841 271.547C 2.89841 272.527 3.2617 273.172 4.1406 273.801L 3.10941 273.801L 3.10941 274.898z"/>
<path style="stroke:none; fill-rule:evenodd; fill:#000000" d="M 40.3012 140.801L 40.3012 137.402C 40.3012 136.227 40.8592 135.699 42.1212 135.699L 43.0312 135.699C 43.6642 135.699 44.2772 135.594 44.6992 135.418L 44.6992 133.895L 44.3792 133.895C 44.0432 134.379 43.6792 134.473 42.3202 134.5C 40.6442 134.516 40.1402 134.781 39.6642 135.898C 39.1052 134.758 38.3902 134.301 37.2302 134.301C 35.4692 134.301 34.5 135.406 34.5 137.406L 34.5 142.102L 44.6992 142.102L 44.6992 140.801L 40.3012 140.801zM 39.1992 140.801L 35.5972 140.801L 35.5972 137.621C 35.5972 136.887 35.7152 136.461 36.0002 136.137C 36.3012 135.785 36.7732 135.602 37.4062 135.602C 38.6402 135.602 39.1992 136.223 39.1992 137.621L 39.1992 140.801z"/>
<path style="stroke:none; fill-rule:evenodd; fill:#000000" d="M 44.0112 125.809C 44.0002 125.938 44.0002 125.992 44.0002 126.062C 44.0002 126.473 43.7932 126.699 43.4332 126.699L 39.1762 126.699C 37.8902 126.699 37.1992 127.652 37.1992 129.453C 37.1992 130.516 37.5002 131.398 38.0392 131.887C 38.4102 132.223 38.8202 132.359 39.5352 132.391L 39.5352 131.227C 38.6832 131.129 38.3012 130.602 38.3012 129.52C 38.3012 128.48 38.6872 127.898 39.3792 127.898L 39.6832 127.898C 40.1682 127.898 40.3752 128.191 40.4842 129.102C 40.6912 130.734 40.7462 130.984 40.9262 131.426C 41.2692 132.27 41.9182 132.699 42.8592 132.699C 44.1722 132.699 45.0002 131.777 45.0002 130.297C 45.0002 129.375 44.6832 128.633 43.9452 127.809C 44.6722 127.723 45.0002 127.359 45.0002 126.605C 45.0002 126.367 44.9722 126.188 44.8792 125.809L 44.0112 125.809zM 42.3902 127.898C 42.7812 127.898 43.0192 128.012 43.3402 128.359C 43.7732 128.828 44.0002 129.395 44.0002 130.074C 44.0002 130.973 43.5662 131.5 42.8242 131.5C 42.0542 131.5 41.6602 130.988 41.4802 129.758C 41.3122 128.539 41.2542 128.289 41.0702 127.898L 42.3902 127.898z"/>
<path style="stroke:none; fill-rule:evenodd; fill:#000000" d="M 44.6992 117.742L 37.3982 115.59L 37.3982 116.902L 43.0742 118.359L 37.3982 119.801L 37.3982 121.23L 43.0742 122.629L 37.3982 124.129L 37.3982 125.414L 44.6992 123.289L 44.6992 121.973L 38.9452 120.559L 44.6992 119.074L 44.6992 117.742z"/>
<path style="stroke:none; fill-rule:evenodd; fill:#000000" d="M 44.6992 110.301L 44.6992 106.363C 44.6992 103.781 42.7692 102.199 39.5942 102.199C 36.4292 102.199 34.5 103.77 34.5 106.363L 34.5 110.301L 44.6992 110.301zM 43.5972 109L 35.6012 109L 35.6012 106.586C 35.6012 104.566 36.9722 103.5 39.6052 103.5C 42.2112 103.5 43.5972 104.566 43.5972 106.586L 43.5972 109z"/>
<path style="stroke:none; fill-rule:evenodd; fill:#000000" d="M 44.0112 93.91C 44.0002 94.035 44.0002 94.094 44.0002 94.164C 44.0002 94.574 43.7932 94.801 43.4332 94.801L 39.1762 94.801C 37.8902 94.801 37.1992 95.75 37.1992 97.555C 37.1992 98.617 37.5002 99.496 38.0392 99.984C 38.4102 100.32 38.8202 100.461 39.5352 100.488L 39.5352 99.324C 38.6832 99.227 38.3012 98.703 38.3012 97.621C 38.3012 96.582 38.6872 96 39.3792 96L 39.6832 96C 40.1682 96 40.3752 96.289 40.4842 97.203C 40.6912 98.836 40.7462 99.082 40.9262 99.527C 41.2692 100.371 41.9182 100.801 42.8592 100.801C 44.1722 100.801 45.0002 99.879 45.0002 98.395C 45.0002 97.473 44.6832 96.734 43.9452 95.906C 44.6722 95.824 45.0002 95.461 45.0002 94.707C 45.0002 94.469 44.9722 94.285 44.8792 93.91L 44.0112 93.91zM 42.3902 96C 42.7812 96 43.0192 96.113 43.3402 96.457C 43.7732 96.93 44.0002 97.496 44.0002 98.176C 44.0002 99.074 43.5662 99.602 42.8242 99.602C 42.0542 99.602 41.6602 99.09 41.4802 97.855C 41.3122 96.637 41.2542 96.391 41.0702 96L 42.3902 96z"/>
<path style="stroke:none; fill-rule:evenodd; fill:#000000" d="M 37.3982 90L 37.3982 91.199L 35.3472 91.199L 35.3472 92.398L 37.3982 92.398L 37.3982 93.398L 38.3982 93.398L 38.3982 92.398L 43.8552 92.398C 44.5862 92.398 45.0002 91.891 45.0002 90.965C 45.0002 90.68 44.9722 90.398 44.9022 90L 43.9412 90C 43.9842 90.152 44.0002 90.336 44.0002 90.559C 44.0002 91.062 43.8592 91.199 43.3512 91.199L 38.3982 91.199L 38.3982 90L 37.3982 90z"/>
<path style="stroke:none; fill-rule:evenodd; fill:#000000" d="M 44.0112 82.211C 44.0002 82.336 44.0002 82.395 44.0002 82.465C 44.0002 82.871 43.7932 83.102 43.4332 83.102L 39.1762 83.102C 37.8902 83.102 37.1992 84.051 37.1992 85.855C 37.1992 86.918 37.5002 87.797 38.0392 88.285C 38.4102 88.621 38.8202 88.762 39.5352 88.789L 39.5352 87.625C 38.6832 87.527 38.3012 87.004 38.3012 85.922C 38.3012 84.883 38.6872 84.301 39.3792 84.301L 39.6832 84.301C 40.1682 84.301 40.3752 84.59 40.4842 85.504C 40.6912 87.137 40.7462 87.383 40.9262 87.828C 41.2692 88.672 41.9182 89.102 42.8592 89.102C 44.1722 89.102 45.0002 88.18 45.0002 86.695C 45.0002 85.773 44.6832 85.031 43.9452 84.207C 44.6722 84.125 45.0002 83.762 45.0002 83.008C 45.0002 82.77 44.9722 82.586 44.8792 82.211L 44.0112 82.211zM 42.3902 84.301C 42.7812 84.301 43.0192 84.41 43.3402 84.758C 43.7732 85.23 44.0002 85.797 44.0002 86.473C 44.0002 87.375 43.5662 87.898 42.8242 87.898C 42.0542 87.898 41.6602 87.387 41.4802 86.156C 41.3122 84.938 41.2542 84.688 41.0702 84.301L 42.3902 84.301z"/>
<path style="stroke:#0000ff; stroke-width:1; fill:none" d="M 40.0002 73.5L 40.0002 33.602M 446.699 608.801L 369.597 608.801L 369.597 607.199L 375.199 607.199L 375.199 605.699L 389.301 605.699L 389.301 604.102L 405.199 604.102L 405.199 602.5L 412 602.5L 412 601L 416 601L 416 599.398L 416.199 599.398L 416.199 597.898L 415.398 597.898L 415.398 596.301L 412 596.301L 412 594.699L 404.801 594.699L 404.801 593.199L 392.301 593.199L 392.301 591.602L 376.699 591.602L 376.699 590.102L 358.898 590.102L 358.898 588.5L 344.699 588.5L 344.699 586.898L 332.398 586.898L 332.398 585.398L 319.699 585.398L 319.699 583.801L 304.199 583.801L 304.199 582.199L 283.199 582.199L 283.199 580.699L 257.801 580.699L 257.801 579.102L 227.301 579.102L 227.301 577.602L 192.597 577.602L 192.597 576L 160.398 576L 160.398 574.398L 130.5 574.398L 130.5 572.898L 109.199 572.898L 109.199 571.301L 86.0002 571.301L 86.0002 569.699L 67.8012 569.699L 67.8012 568.199L 91.8982 568.199L 91.8982 566.602L 128.5 566.602L 128.5 565.102L 168.097 565.102L 168.097 563.5L 204.5 563.5L 204.5 561.898L 226.597 561.898L 226.597 560.398L 234 560.398L 234 558.801L 237.898 558.801L 237.898 557.301L 239.699 557.301L 239.699 555.699L 239.398 555.699L 239.398 554.102L 244.5 554.102L 244.5 552.602L 260.801 552.602L 260.801 551L 268.398 551L 268.398 549.398L 277.301 549.398L 277.301 547.898L 284.199 547.898L 284.199 546.301L 302.199 546.301L 302.199 544.801L 326.301 544.801L 326.301 543.199L 344.097 543.199L 344.097 541.602L 358.301 541.602L 358.301 540.102L 357.199 540.102L 357.199 538.5L 350.898 538.5L 350.898 536.898L 340.199 536.898L 340.199 535.398L 324 535.398L 324 533.801L 316.301 533.801L 316.301 532.301L 312.398 532.301L 312.398 530.699L 321.301 530.699"/>
<path style="stroke:#0000ff; stroke-width:1; fill:none" d="M 321.301 530.699L 321.301 529.102L 331.801 529.102L 331.801 527.602L 335.199 527.602L 335.199 526L 330.801 526L 330.801 524.398L 326.898 524.398L 326.898 522.898L 326.199 522.898L 326.199 521.301L 324.597 521.301L 324.597 519.801L 323.699 519.801L 323.699 518.199L 328.097 518.199L 328.097 516.602L 330.097 516.602L 330.097 515.102L 330.801 515.102L 330.801 513.5L 329.398 513.5L 329.398 512L 324.898 512L 324.898 510.398L 324.097 510.398L 324.097 508.801L 328.097 508.801L 328.097 507.301L 336.597 507.301L 336.597 505.699L 343.898 505.699L 343.898 504.102L 348.199 504.102L 348.199 502.602L 346 502.602L 346 501L 337.097 501L 337.097 499.5L 320.097 499.5L 320.097 497.898L 301.097 497.898L 301.097 496.301L 276.5 496.301L 276.5 494.801L 256.597 494.801L 256.597 493.199L 233 493.199L 233 491.602L 213.301 491.602L 213.301 490.102L 200.301 490.102L 200.301 488.5L 179.801 488.5L 179.801 487L 161.301 487L 161.301 485.398L 149.898 485.398L 149.898 483.801L 139.301 483.801L 139.301 482.301L 124.199 482.301L 124.199 480.699L 97.3982 480.699L 97.3982 479.199L 67.3012 479.199L 67.3012 477.602L 51.5002 477.602L 51.5002 476L 45.3012 476L 45.3012 474.5L 51.5002 474.5L 51.5002 472.898L 69.6992 472.898L 69.6992 471.301L 92.5002 471.301L 92.5002 469.801L 108.199 469.801L 108.199 468.199L 106.5 468.199L 106.5 466.699L 97.8982 466.699L 97.8982 465.102L 88.3012 465.102L 88.3012 463.5L 91.3012 463.5L 91.3012 462L 105.199 462L 105.199 460.398L 128 460.398L 128 458.801L 145.898 458.801L 145.898 457.301L 165.301 457.301L 165.301 455.699L 173.398 455.699L 173.398 454.199L 188.398 454.199L 188.398 452.602L 192.5 452.602L 192.5 451L 186.097 451L 186.097 449.5L 170.398 449.5"/>
<path style="stroke:#0000ff; stroke-width:1; fill:none" d="M 170.398 449.5L 170.398 447.898L 159.398 447.898L 159.398 446.301L 155.801 446.301L 155.801 444.801L 158 444.801L 158 443.199L 161 443.199L 161 441.699L 161.301 441.699L 161.301 440.102L 155.398 440.102L 155.398 438.5L 148.699 438.5L 148.699 437L 136.801 437L 136.801 435.398L 128.898 435.398L 128.898 433.898L 131.801 433.898L 131.801 432.301L 148.699 432.301L 148.699 430.699L 177.097 430.699L 177.097 429.199L 206 429.199L 206 427.602L 226 427.602L 226 426L 235.301 426L 235.301 424.5L 234.301 424.5L 234.301 422.898L 230.199 422.898L 230.199 421.398L 223.597 421.398L 223.597 419.801L 214.5 419.801L 214.5 418.199L 210 418.199L 210 416.699L 205.801 416.699L 205.801 415.102L 210.301 415.102L 210.301 413.5L 225 413.5L 225 412L 246.097 412L 246.097 410.398L 267.801 410.398L 267.801 408.898L 280.301 408.898L 280.301 407.301L 284.301 407.301L 284.301 405.699L 282.699 405.699L 282.699 404.199L 277.597 404.199L 277.597 402.602L 270.699 402.602L 270.699 401.102L 259.597 401.102L 259.597 399.5L 249.199 399.5L 249.199 397.898L 235.398 397.898L 235.398 396.398L 221.898 396.398L 221.898 394.801L 208.699 394.801L 208.699 393.199L 198.898 393.199L 198.898 391.699L 193.5 391.699L 193.5 390.102L 189.801 390.102L 189.801 388.602L 185.199 388.602L 185.199 387L 183.199 387L 183.199 385.398L 184.097 385.398L 184.097 383.898L 184.5 383.898L 184.5 382.301L 188.301 382.301L 188.301 380.699L 183.597 380.699L 183.597 379.199L 182.597 379.199L 182.597 377.602L 182.199 377.602L 182.199 376.102L 174.301 376.102L 174.301 374.5L 164.398 374.5L 164.398 372.898L 154.097 372.898L 154.097 371.398L 148.301 371.398L 148.301 369.801L 146.097 369.801L 146.097 368.199L 143.898 368.199"/>
<path style="stroke:#0000ff; stroke-width:1; fill:none" d="M 143.898 368.199L 143.898 366.699L 138 366.699L 138 365.102L 137.301 365.102L 137.301 363.602L 139.199 363.602L 139.199 362L 147.199 362L 147.199 360.398L 155.5 360.398L 155.5 358.898L 162.5 358.898L 162.5 357.301L 173.801 357.301L 173.801 355.801L 177.597 355.801L 177.597 354.199L 178.398 354.199L 178.398 352.602L 174.801 352.602L 174.801 351.102L 167.699 351.102L 167.699 349.5L 160.699 349.5L 160.699 347.898L 152.801 347.898L 152.801 346.398L 145.597 346.398L 145.597 344.801L 141 344.801L 141 343.301L 143.301 343.301L 143.301 341.699L 149.398 341.699L 149.398 340.102L 160.5 340.102L 160.5 338.602L 172.199 338.602L 172.199 337L 183.301 337L 183.301 335.398L 195 335.398L 195 333.898L 203 333.898L 203 332.301L 209.301 332.301L 209.301 330.801L 210.301 330.801L 210.301 329.199L 210.898 329.199L 210.898 327.602L 205.199 327.602L 205.199 326.102L 198.301 326.102L 198.301 324.5L 189.199 324.5L 189.199 323L 181.398 323L 181.398 321.398L 169.199 321.398L 169.199 319.801L 165.398 319.801L 165.398 318.301L 156 318.301L 156 316.699L 150 316.699L 150 315.102L 148 315.102L 148 313.602L 151.398 313.602L 151.398 312L 156.699 312L 156.699 310.5L 162.597 310.5L 162.597 308.898L 168.398 308.898L 168.398 307.301L 180.199 307.301L 180.199 305.801L 192.801 305.801L 192.801 304.199L 205.199 304.199L 205.199 302.602L 213.097 302.602L 213.097 301.102L 215.398 301.102L 215.398 299.5L 216.801 299.5L 216.801 298L 212.898 298L 212.898 296.398L 211.597 296.398L 211.597 294.801L 210.5 294.801L 210.5 293.301L 211.398 293.301L 211.398 291.699L 220.398 291.699L 220.398 290.102L 239.398 290.102L 239.398 288.602L 264.398 288.602L 264.398 287L 277.5 287"/>
<path style="stroke:#0000ff; stroke-width:1; fill:none" d="M 277.5 287L 277.5 285.5L 283.301 285.5L 283.301 283.898L 280.5 283.898L 280.5 282.301L 271.801 282.301L 271.801 280.801L 262.398 280.801L 262.398 279.199L 252.398 279.199L 252.398 277.699L 240.699 277.699L 240.699 276.102L 232.699 276.102L 232.699 274.5L 224.5 274.5L 224.5 273L 217.801 273L 217.801 271.398L 210.5 271.398L 210.5 269.801L 194.199 269.801L 194.199 268.301L 185.301 268.301L 185.301 266.699L 181.301 266.699L 181.301 265.199L 180.398 265.199L 180.398 263.602L 183.898 263.602L 183.898 262L 191.097 262L 191.097 260.5L 198.801 260.5L 198.801 258.898L 201.097 258.898L 201.097 257.301L 200.097 257.301L 200.097 255.801L 198 255.801L 198 254.199L 194.898 254.199L 194.898 252.699L 191.699 252.699L 191.699 251.102L 188.398 251.102L 188.398 249.5L 188.398 248L 193.597 248L 193.597 246.398L 207.898 246.398L 207.898 244.898L 216.801 244.898L 216.801 243.301L 219.898 243.301L 219.898 241.699L 220.398 241.699L 220.398 240.199L 226.699 240.199L 226.699 238.602L 248 238.602L 248 237L 279.398 237L 279.398 235.5L 306 235.5L 306 233.898L 328.398 233.898L 328.398 232.398L 346 232.398L 346 230.801L 355.699 230.801L 355.699 229.199L 358.097 229.199L 358.097 227.699L 355 227.699L 355 226.102L 349.199 226.102L 349.199 224.5L 337.597 224.5L 337.597 223L 325.301 223L 325.301 221.398L 315.898 221.398L 315.898 219.898L 306.898 219.898L 306.898 218.301L 298.5 218.301L 298.5 216.699L 291.097 216.699L 291.097 215.199L 284.801 215.199L 284.801 213.602L 277.398 213.602L 277.398 212L 275.5 212L 275.5 210.5L 267.898 210.5L 267.898 208.898L 255 208.898L 255 207.398L 243.699 207.398L 243.699 205.801L 239.597 205.801L 239.597 204.199"/>
<path style="stroke:#0000ff; stroke-width:1; fill:none" d="M 239.597 204.199L 233.597 204.199L 233.597 202.699L 228.398 202.699L 228.398 201.102L 222.597 201.102L 222.597 199.602L 213 199.602L 213 198L 203.898 198L 203.898 196.398L 198.801 196.398L 198.801 194.898L 197.199 194.898L 197.199 193.301L 198.801 193.301L 198.801 191.699L 200.301 191.699L 200.301 190.199L 198.301 190.199L 198.301 188.602L 198.597 188.602L 198.597 187.102L 199.398 187.102L 199.398 185.5L 198.199 185.5L 198.199 183.898L 200.097 183.898L 200.097 182.398L 200.5 182.398L 200.5 180.801L 202 180.801L 202 179.199L 205.301 179.199L 205.301 177.699L 206.301 177.699L 206.301 176.102L 208.898 176.102L 208.898 174.602L 215.097 174.602L 215.097 173L 216.5 173L 216.5 171.398L 221.199 171.398L 221.199 169.898L 225.097 169.898L 225.097 168.301L 228.597 168.301L 228.597 166.801L 233.597 166.801L 233.597 165.199L 236.097 165.199L 236.097 163.602L 241.301 163.602L 241.301 162.102L 246.801 162.102L 246.801 160.5L 251.801 160.5L 251.801 158.898L 255.398 158.898L 255.398 157.398L 259.097 157.398L 259.097 155.801L 261.801 155.801L 261.801 154.301L 264.898 154.301L 264.898 152.699L 265.898 152.699L 265.898 151.102L 266.597 151.102L 266.597 149.602L 269 149.602L 269 148L 270.597 148L 270.597 146.398L 272.597 146.398L 272.597 144.898L 276.801 144.898L 276.801 143.301L 280.199 143.301L 280.199 141.801L 283.597 141.801L 283.597 140.199L 284.301 140.199L 284.301 138.602L 285.199 138.602L 285.199 137.102L 285.398 137.102L 285.398 135.5L 285.898 135.5L 285.898 133.898L 285.898 132.398L 286.199 132.398L 286.199 130.801L 287.097 130.801L 287.097 129.301L 292.5 129.301L 292.5 127.699L 295.801 127.699L 295.801 126.102L 299.199 126.102L 299.199 124.602L 303.301 124.602L 303.301 123L 306.699 123"/>
<path style="stroke:#0000ff; stroke-width:1; fill:none" d="M 306.699 123L 306.699 121.5L 307.097 121.5L 307.097 119.898L 327.398 119.898L 327.398 118.301L 336.5 118.301L 336.5 116.801L 319.597 116.801L 319.597 115.199L 319.097 115.199L 319.097 113.602L 313.699 113.602L 313.699 112.102L 309 112.102L 309 110.5L 310.199 110.5L 310.199 109L 310.5 109L 310.5 107.398L 310.801 107.398L 310.801 105.801L 309.699 105.801L 309.699 104.301L 309.5 104.301L 309.5 102.699L 309.398 102.699L 309.398 101.102L 311.097 101.102L 311.097 99.602L 314 99.602L 314 98L 314.097 98L 314.097 96.5L 314.5 96.5L 314.5 94.898L 312.699 94.898L 312.699 93.301L 310.398 93.301L 310.398 91.801L 310.199 91.801L 310.199 90.199L 309.801 90.199L 309.801 88.699L 309.097 88.699L 309.097 87.102L 310.898 87.102L 310.898 85.5L 312.699 85.5L 312.699 84L 313.301 84L 313.301 82.398L 446.699 82.398"/>
<path style="stroke:#000000; stroke-width:1; fill:none" d="M 446.699 641.602L 446.699 16.801L 26.6992 16.801L 26.6992 641.602L 446.699 641.602"/>
</g>
</svg>