<?xml version="1.0" encoding="ISO-8859-1" standalone="yes"?>
<svg xmlns="http://www.w3.org/2000/svg" width="489.5" height="705.898">
  <defs> 
    <marker id="ArrowEnd" viewBox="0 0 10 10" refX="0" refY="5" 
     markerUnits="strokeWidth" 
     markerWidth="4" 
     markerHeight="3" 
     orient="auto"> 
        <path d="M 0 0 L 10 5 L 0 10 z" /> 
    </marker>
    <marker id="ArrowStart" viewBox="0 0 10 10" refX="10" refY="5" 
     markerUnits="strokeWidth" 
     markerWidth="4" 
     markerHeight="3" 
     orient="auto"> 
        <path d="M 10 0 L 0 5 L 10 10 z" /> 
    </marker> </defs>
<g>
<path style="stroke:#000000; stroke-width:1; fill:none" d="M 446.699 650L 446.699 643.699M 446.699 16.801L 446.699 23.102"/>
<path style="stroke:none; fill-rule:evenodd; fill:#000000" d="M 444.347 662.602L 451.398 662.602L 451.398 661.398L 441.496 661.398L 441.496 662.199C 443.019 662.625 443.23 662.902 443.469 664.773L 444.347 664.773L 444.347 662.602z"/>
<path style="stroke:#000000; stroke-width:1; fill:none" d="M 400 650L 400 643.699M 400 16.801L 400 23.102"/>
<path style="stroke:none; fill-rule:evenodd; fill:#000000" d="M 403.5 659.168L 403.5 664.348C 402.687 664.223 402.172 663.777 401.457 662.57L 400.703 661.184C 399.949 659.809 398.926 659.098 397.711 659.098C 396.887 659.098 396.117 659.434 395.586 660.016C 395.054 660.602 394.801 661.32 394.801 662.254C 394.801 663.5 395.246 664.43 396.082 664.973C 396.609 665.32 397.219 665.473 398.219 665.5L 398.219 664.266C 397.562 664.227 397.164 664.141 396.847 663.973C 396.258 663.652 395.902 663.008 395.902 662.262C 395.902 661.141 396.695 660.301 397.754 660.301C 398.535 660.301 399.203 660.762 399.703 661.645L 400.429 662.934C 401.597 665.008 402.531 665.613 404.703 665.723L 404.703 659.168L 403.5 659.168z"/>
<path style="stroke:#000000; stroke-width:1; fill:none" d="M 353.398 650L 353.398 643.699M 353.398 16.801L 353.398 23.102"/>
<path style="stroke:none; fill-rule:evenodd; fill:#000000" d="M 353.5 663.105L 353.5 662.418C 353.5 661.02 354.117 660.301 355.308 660.301C 356.554 660.301 357.301 661.082 357.301 662.387C 357.301 663.75 356.637 664.418 355.215 664.504L 355.215 665.754C 356.008 665.695 356.523 665.555 356.969 665.316C 357.914 664.812 358.398 663.828 358.398 662.469C 358.398 660.422 357.187 659.102 355.32 659.102C 354.066 659.102 353.371 659.598 352.965 660.797C 352.605 659.867 351.906 659.402 350.918 659.402C 349.219 659.402 348.199 660.535 348.199 662.43C 348.199 664.434 349.285 665.5 351.379 665.543L 351.379 664.293C 350.793 664.277 350.465 664.223 350.164 664.066C 349.629 663.781 349.301 663.156 349.301 662.379C 349.301 661.27 349.933 660.602 350.969 660.602C 351.66 660.602 352.07 660.859 352.293 661.422C 352.429 661.77 352.484 662.215 352.5 663.105L 353.5 663.105z"/>
<path style="stroke:#000000; stroke-width:1; fill:none" d="M 306.699 650L 306.699 643.699M 306.699 16.801L 306.699 23.102"/>
<path style="stroke:none; fill-rule:evenodd; fill:#000000" d="M 309 661.602L 311.398 661.602L 311.398 660.398L 309 660.398L 309 658.922L 307.898 658.922L 307.898 660.398L 301.5 660.398L 301.5 661.309L 307.707 665.809L 309 665.809L 309 661.602zM 307.898 661.602L 307.898 664.73L 303.574 661.602L 307.898 661.602z"/>
<path style="stroke:#000000; stroke-width:1; fill:none" d="M 260 650L 260 643.699M 260 16.801L 260 23.102"/>
<path style="stroke:none; fill-rule:evenodd; fill:#000000" d="M 254.801 659.52L 254.801 664.656L 260.176 665.402L 260.176 664.25C 259.523 663.668 259.301 663.184 259.301 662.402C 259.301 661.055 260.195 660.199 261.64 660.199C 263.047 660.199 263.898 661.039 263.898 662.402C 263.898 663.496 263.363 664.164 262.261 664.461L 262.261 665.711C 263.07 665.543 263.457 665.402 263.82 665.105C 264.57 664.547 265 663.535 265 662.41C 265 660.406 263.554 659 261.472 659C 259.531 659 258.199 660.309 258.199 662.215C 258.199 662.918 258.371 663.48 258.761 664.055L 256 663.66L 256 659.52L 254.801 659.52z"/>
<path style="stroke:#000000; stroke-width:1; fill:none" d="M 213.398 650L 213.398 643.699M 213.398 16.801L 213.398 23.102"/>
<path style="stroke:none; fill-rule:evenodd; fill:#000000" d="M 210.801 659.227C 209.168 659.465 208.199 660.531 208.199 662.043C 208.199 663.137 208.73 664.113 209.609 664.703C 210.57 665.32 211.781 665.602 213.578 665.602C 215.234 665.602 216.297 665.348 217.172 664.758C 217.969 664.223 218.398 663.355 218.398 662.258C 218.398 660.363 217 659 215.051 659C 213.203 659 211.898 660.277 211.898 662.086C 211.898 663.078 212.277 663.859 213 664.398C 210.621 664.387 209.301 663.594 209.301 662.16C 209.301 661.281 209.847 660.672 210.801 660.477L 210.801 659.227zM 213 662.172C 213 660.957 213.824 660.199 215.148 660.199C 216.39 660.199 217.301 661.059 217.301 662.211C 217.301 663.383 216.351 664.266 215.082 664.266C 213.851 664.266 213 663.41 213 662.168L 213 662.172z"/>
<path style="stroke:#000000; stroke-width:1; fill:none" d="M 166.699 650L 166.699 643.699M 166.699 16.801L 166.699 23.102"/>
<path style="stroke:none; fill-rule:evenodd; fill:#000000" d="M 161.5 658.898L 161.5 665.504L 162.699 665.504L 162.699 660.168C 166.07 662.523 168.14 663.484 171.398 664.223L 171.398 662.91C 168.23 662.367 165.508 661.129 162.535 658.902L 161.5 658.898z"/>
<path style="stroke:#000000; stroke-width:1; fill:none" d="M 120 650L 120 643.699M 120 16.801L 120 23.102"/>
<path style="stroke:none; fill-rule:evenodd; fill:#000000" d="M 119.48 660.727C 118.871 659.727 118.367 659.398 117.433 659.398C 115.887 659.398 114.801 660.605 114.801 662.352C 114.801 664.082 115.887 665.301 117.433 665.301C 118.355 665.301 118.855 664.973 119.48 663.988C 120.023 665.133 120.847 665.699 121.933 665.699C 123.746 665.699 125 664.32 125 662.348C 125 660.379 123.746 658.996 121.949 658.996C 120.847 658.996 120.023 659.562 119.48 660.727zM 115.898 662.352C 115.898 661.281 116.511 660.602 117.469 660.602C 118.387 660.602 119 661.297 119 662.352C 119 663.402 118.387 664.102 117.457 664.102C 116.511 664.102 115.898 663.402 115.898 662.352zM 120 662.352C 120 661.07 120.781 660.199 121.941 660.199C 123.117 660.199 123.898 661.07 123.898 662.379C 123.898 663.629 123.101 664.5 121.941 664.5C 120.781 664.5 120 663.629 120 662.352z"/>
<path style="stroke:#000000; stroke-width:1; fill:none" d="M 73.3982 650L 73.3982 643.699M 73.3982 16.801L 73.3982 23.102"/>
<path style="stroke:none; fill-rule:evenodd; fill:#000000" d="M 75.8322 665.457C 77.4412 665.223 78.3982 664.16 78.3982 662.656C 78.3982 661.566 77.8712 660.578 76.9922 660.008C 76.0312 659.379 74.8202 659.102 73.0232 659.102C 71.3632 659.102 70.3042 659.352 69.4262 659.93C 68.6332 660.469 68.1992 661.324 68.1992 662.398C 68.1992 664.262 69.6012 665.602 71.5472 665.602C 73.3942 665.602 74.6992 664.348 74.6992 662.562C 74.6992 661.629 74.3632 660.941 73.5972 660.301C 75.9802 660.316 77.3012 661.105 77.3012 662.535C 77.3012 663.41 76.7652 664.02 75.8322 664.215L 75.8322 665.457zM 69.3012 662.43C 69.3012 661.285 70.2462 660.418 71.5272 660.418C 72.7342 660.418 73.5972 661.27 73.5972 662.473C 73.5972 663.656 72.7772 664.398 71.4572 664.398C 70.2072 664.398 69.3012 663.562 69.3012 662.43z"/>
<path style="stroke:#000000; stroke-width:1; fill:none" d="M 26.6992 650L 26.6992 643.699M 26.6992 16.801L 26.6992 23.102"/>
<path style="stroke:none; fill-rule:evenodd; fill:#000000" d="M 24.3476 670.398L 31.3984 670.398L 31.3984 669.199L 21.4961 669.199L 21.4961 670C 23.0195 670.426 23.2304 670.699 23.4687 672.57L 24.3476 672.57L 24.3476 670.398z"/>
<path style="stroke:none; fill-rule:evenodd; fill:#000000" d="M 21.5 662.352C 21.5 663.273 21.9101 664.113 22.5976 664.633C 23.4648 665.277 24.7851 665.598 26.6054 665.598C 29.9336 665.598 31.6992 664.48 31.6992 662.348C 31.6992 660.246 29.9336 659.098 26.6914 659.098C 24.7695 659.098 23.4883 659.406 22.5976 660.066C 21.8945 660.582 21.5 661.41 21.5 662.348L 21.5 662.352zM 22.5976 662.352C 22.5976 660.98 23.9375 660.301 26.5859 660.301C 29.3906 660.301 30.6992 660.965 30.6992 662.379C 30.6992 663.723 29.332 664.398 26.6289 664.398C 23.9258 664.398 22.5976 663.719 22.5976 662.352z"/>
<path style="stroke:#000000; stroke-width:1; fill:none" d="M 446.699 650L 440.398 650M 26.6992 650L 33 650"/>
<path style="stroke:none; fill-rule:evenodd; fill:#000000" d="M 460.801 660.508L 460.801 659.816C 460.801 658.422 461.418 657.699 462.609 657.699C 463.855 657.699 464.597 658.484 464.597 659.789C 464.597 661.148 463.937 661.816 462.515 661.902L 462.515 663.152C 463.308 663.098 463.82 662.957 464.265 662.719C 465.215 662.211 465.699 661.23 465.699 659.867C 465.699 657.82 464.488 656.5 462.621 656.5C 461.367 656.5 460.672 656.996 460.265 658.195C 459.902 657.266 459.207 656.801 458.219 656.801C 456.519 656.801 455.5 657.938 455.5 659.828C 455.5 661.836 456.582 662.902 458.679 662.941L 458.679 661.691C 458.094 661.68 457.765 661.621 457.461 661.465C 456.929 661.184 456.601 660.559 456.601 659.777C 456.601 658.672 457.234 658.004 458.269 658.004C 458.957 658.004 459.371 658.262 459.594 658.824C 459.73 659.168 459.785 659.613 459.801 660.508L 460.801 660.508z"/>
<path style="stroke:none; fill-rule:evenodd; fill:#000000" d="M 455.5 649.121L 455.5 654.258L 460.879 655.004L 460.879 653.852C 460.226 653.27 460 652.785 460 652.004C 460 650.652 460.894 649.801 462.34 649.801C 463.746 649.801 464.597 650.641 464.597 652.004C 464.597 653.094 464.062 653.762 462.965 654.062L 462.965 655.312C 463.769 655.141 464.16 655.004 464.519 654.707C 465.269 654.145 465.699 653.137 465.699 652.012C 465.699 650.004 464.258 648.602 462.176 648.602C 460.23 648.602 458.898 649.906 458.898 651.816C 458.898 652.52 459.07 653.078 459.461 653.656L 456.699 653.262L 456.699 649.121L 455.5 649.121z"/>
<path style="stroke:none; fill-rule:evenodd; fill:#000000" d="M 455.5 644.25C 455.5 645.176 455.91 646.016 456.597 646.531C 457.465 647.18 458.785 647.5 460.605 647.5C 463.933 647.5 465.699 646.379 465.699 644.25C 465.699 642.148 463.933 641 460.691 641C 458.769 641 457.488 641.309 456.597 641.965C 455.894 642.484 455.5 643.312 455.5 644.25zM 456.597 644.25C 456.597 642.879 457.937 642.199 460.586 642.199C 463.39 642.199 464.699 642.863 464.699 644.277C 464.699 645.621 463.332 646.301 460.629 646.301C 457.926 646.301 456.597 645.621 456.597 644.25z"/>
<path style="stroke:none; fill-rule:evenodd; fill:#000000" d="M 455.5 636.449C 455.5 637.375 455.91 638.215 456.597 638.734C 457.465 639.379 458.785 639.699 460.605 639.699C 463.933 639.699 465.699 638.578 465.699 636.449C 465.699 634.348 463.933 633.199 460.691 633.199C 458.769 633.199 457.488 633.508 456.597 634.164C 455.894 634.684 455.5 635.512 455.5 636.449zM 456.597 636.449C 456.597 635.078 457.937 634.398 460.586 634.398C 463.39 634.398 464.699 635.062 464.699 636.48C 464.699 637.82 463.332 638.5 460.629 638.5C 457.926 638.5 456.597 637.82 456.597 636.449z"/>
<path style="stroke:#000000; stroke-width:1; fill:none" d="M 446.699 570.898L 440.398 570.898M 26.6992 570.898L 33 570.898"/>
<path style="stroke:none; fill-rule:evenodd; fill:#000000" d="M 463 579.898L 465.398 579.898L 465.398 578.699L 463 578.699L 463 577.219L 461.898 577.219L 461.898 578.699L 455.5 578.699L 455.5 579.609L 461.707 584.109L 463 584.109L 463 579.898zM 461.898 579.898L 461.898 583.031L 457.574 579.898L 461.898 579.898z"/>
<path style="stroke:none; fill-rule:evenodd; fill:#000000" d="M 455.5 572.852C 455.5 573.773 455.91 574.613 456.597 575.133C 457.465 575.777 458.785 576.098 460.605 576.098C 463.933 576.098 465.699 574.98 465.699 572.848C 465.699 570.746 463.933 569.598 460.691 569.598C 458.769 569.598 457.488 569.906 456.597 570.566C 455.894 571.082 455.5 571.91 455.5 572.848L 455.5 572.852zM 456.597 572.852C 456.597 571.48 457.937 570.801 460.586 570.801C 463.39 570.801 464.699 571.465 464.699 572.879C 464.699 574.223 463.332 574.898 460.629 574.898C 457.926 574.898 456.597 574.219 456.597 572.852z"/>
<path style="stroke:none; fill-rule:evenodd; fill:#000000" d="M 455.5 565.148C 455.5 566.074 455.91 566.914 456.597 567.434C 457.465 568.078 458.785 568.398 460.605 568.398C 463.933 568.398 465.699 567.277 465.699 565.148C 465.699 563.047 463.933 561.898 460.691 561.898C 458.769 561.898 457.488 562.207 456.597 562.867C 455.894 563.383 455.5 564.211 455.5 565.148zM 456.597 565.148C 456.597 563.777 457.937 563.102 460.586 563.102C 463.39 563.102 464.699 563.766 464.699 565.18C 464.699 566.52 463.332 567.199 460.629 567.199C 457.926 567.199 456.597 566.52 456.597 565.148z"/>
<path style="stroke:none; fill-rule:evenodd; fill:#000000" d="M 455.5 557.352C 455.5 558.273 455.91 559.113 456.597 559.633C 457.465 560.277 458.785 560.598 460.605 560.598C 463.933 560.598 465.699 559.48 465.699 557.348C 465.699 555.246 463.933 554.098 460.691 554.098C 458.769 554.098 457.488 554.406 456.597 555.066C 455.894 555.582 455.5 556.41 455.5 557.348L 455.5 557.352zM 456.597 557.352C 456.597 555.98 457.937 555.301 460.586 555.301C 463.39 555.301 464.699 555.965 464.699 557.379C 464.699 558.723 463.332 559.398 460.629 559.398C 457.926 559.398 456.597 558.719 456.597 557.352z"/>
<path style="stroke:#000000; stroke-width:1; fill:none" d="M 446.699 491.699L 440.398 491.699M 26.6992 491.699L 33 491.699"/>
<path style="stroke:none; fill-rule:evenodd; fill:#000000" d="M 463 500.699L 465.398 500.699L 465.398 499.5L 463 499.5L 463 498.02L 461.898 498.02L 461.898 499.5L 455.5 499.5L 455.5 500.41L 461.707 504.906L 463 504.906L 463 500.699zM 461.898 500.699L 461.898 503.828L 457.574 500.699L 461.898 500.699z"/>
<path style="stroke:none; fill-rule:evenodd; fill:#000000" d="M 455.5 490.82L 455.5 495.957L 460.879 496.703L 460.879 495.551C 460.226 494.969 460 494.484 460 493.703C 460 492.355 460.894 491.5 462.34 491.5C 463.746 491.5 464.597 492.34 464.597 493.703C 464.597 494.797 464.062 495.465 462.965 495.762L 462.965 497.012C 463.769 496.844 464.16 496.703 464.519 496.406C 465.269 495.848 465.699 494.836 465.699 493.711C 465.699 491.703 464.258 490.301 462.176 490.301C 460.23 490.301 458.898 491.605 458.898 493.516C 458.898 494.219 459.07 494.777 459.461 495.355L 456.699 494.961L 456.699 490.82L 455.5 490.82z"/>
<path style="stroke:none; fill-rule:evenodd; fill:#000000" d="M 455.5 485.949C 455.5 486.875 455.91 487.715 456.597 488.234C 457.465 488.879 458.785 489.199 460.605 489.199C 463.933 489.199 465.699 488.078 465.699 485.949C 465.699 483.848 463.933 482.699 460.691 482.699C 458.769 482.699 457.488 483.008 456.597 483.664C 455.894 484.184 455.5 485.012 455.5 485.949zM 456.597 485.949C 456.597 484.578 457.937 483.898 460.586 483.898C 463.39 483.898 464.699 484.562 464.699 485.98C 464.699 487.32 463.332 488 460.629 488C 457.926 488 456.597 487.32 456.597 485.949z"/>
<path style="stroke:none; fill-rule:evenodd; fill:#000000" d="M 455.5 478.148C 455.5 479.074 455.91 479.914 456.597 480.434C 457.465 481.078 458.785 481.398 460.605 481.398C 463.933 481.398 465.699 480.277 465.699 478.148C 465.699 476.047 463.933 474.898 460.691 474.898C 458.769 474.898 457.488 475.207 456.597 475.867C 455.894 476.383 455.5 477.211 455.5 478.148zM 456.597 478.148C 456.597 476.777 457.937 476.102 460.586 476.102C 463.39 476.102 464.699 476.766 464.699 478.18C 464.699 479.52 463.332 480.199 460.629 480.199C 457.926 480.199 456.597 479.52 456.597 478.148z"/>
<path style="stroke:#000000; stroke-width:1; fill:none" d="M 446.699 412.602L 440.398 412.602M 26.6992 412.602L 33 412.602"/>
<path style="stroke:none; fill-rule:evenodd; fill:#000000" d="M 455.5 419.52L 455.5 424.656L 460.879 425.402L 460.879 424.25C 460.226 423.668 460 423.184 460 422.402C 460 421.055 460.894 420.199 462.34 420.199C 463.746 420.199 464.597 421.039 464.597 422.402C 464.597 423.496 464.062 424.164 462.965 424.461L 462.965 425.711C 463.769 425.543 464.16 425.402 464.519 425.105C 465.269 424.547 465.699 423.535 465.699 422.41C 465.699 420.406 464.258 419 462.176 419C 460.23 419 458.898 420.309 458.898 422.215C 458.898 422.918 459.07 423.48 459.461 424.055L 456.699 423.66L 456.699 419.52L 455.5 419.52z"/>
<path style="stroke:none; fill-rule:evenodd; fill:#000000" d="M 455.5 414.551C 455.5 415.477 455.91 416.316 456.597 416.832C 457.465 417.477 458.785 417.801 460.605 417.801C 463.933 417.801 465.699 416.68 465.699 414.551C 465.699 412.449 463.933 411.301 460.691 411.301C 458.769 411.301 457.488 411.605 456.597 412.266C 455.894 412.785 455.5 413.609 455.5 414.551zM 456.597 414.551C 456.597 413.18 457.937 412.5 460.586 412.5C 463.39 412.5 464.699 413.164 464.699 414.578C 464.699 415.922 463.332 416.598 460.629 416.598C 457.926 416.598 456.597 415.922 456.597 414.551z"/>
<path style="stroke:none; fill-rule:evenodd; fill:#000000" d="M 455.5 406.852C 455.5 407.773 455.91 408.613 456.597 409.133C 457.465 409.777 458.785 410.098 460.605 410.098C 463.933 410.098 465.699 408.98 465.699 406.848C 465.699 404.746 463.933 403.598 460.691 403.598C 458.769 403.598 457.488 403.906 456.597 404.566C 455.894 405.086 455.5 405.91 455.5 406.848L 455.5 406.852zM 456.597 406.852C 456.597 405.48 457.937 404.801 460.586 404.801C 463.39 404.801 464.699 405.465 464.699 406.879C 464.699 408.223 463.332 408.898 460.629 408.898C 457.926 408.898 456.597 408.219 456.597 406.852z"/>
<path style="stroke:none; fill-rule:evenodd; fill:#000000" d="M 455.5 399.051C 455.5 399.977 455.91 400.816 456.597 401.332C 457.465 401.977 458.785 402.301 460.605 402.301C 463.933 402.301 465.699 401.18 465.699 399.051C 465.699 396.949 463.933 395.801 460.691 395.801C 458.769 395.801 457.488 396.105 456.597 396.766C 455.894 397.285 455.5 398.109 455.5 399.051zM 456.597 399.051C 456.597 397.68 457.937 397 460.586 397C 463.39 397 464.699 397.664 464.699 399.078C 464.699 400.422 463.332 401.098 460.629 401.098C 457.926 401.098 456.597 400.422 456.597 399.051z"/>
<path style="stroke:#000000; stroke-width:1; fill:none" d="M 446.699 333.398L 440.398 333.398M 26.6992 333.398L 33 333.398"/>
<path style="stroke:none; fill-rule:evenodd; fill:#000000" d="M 455.5 340.32L 455.5 345.457L 460.879 346.203L 460.879 345.051C 460.226 344.469 460 343.984 460 343.203C 460 341.855 460.894 341 462.34 341C 463.746 341 464.597 341.84 464.597 343.203C 464.597 344.297 464.062 344.965 462.965 345.262L 462.965 346.512C 463.769 346.344 464.16 346.203 464.519 345.906C 465.269 345.348 465.699 344.336 465.699 343.211C 465.699 341.203 464.258 339.801 462.176 339.801C 460.23 339.801 458.898 341.105 458.898 343.016C 458.898 343.719 459.07 344.277 459.461 344.855L 456.699 344.461L 456.699 340.32L 455.5 340.32z"/>
<path style="stroke:none; fill-rule:evenodd; fill:#000000" d="M 455.5 332.52L 455.5 337.656L 460.879 338.402L 460.879 337.25C 460.226 336.668 460 336.184 460 335.402C 460 334.055 460.894 333.199 462.34 333.199C 463.746 333.199 464.597 334.039 464.597 335.402C 464.597 336.496 464.062 337.164 462.965 337.461L 462.965 338.711C 463.769 338.543 464.16 338.402 464.519 338.105C 465.269 337.547 465.699 336.535 465.699 335.41C 465.699 333.406 464.258 332 462.176 332C 460.23 332 458.898 333.309 458.898 335.215C 458.898 335.918 459.07 336.48 459.461 337.055L 456.699 336.66L 456.699 332.52L 455.5 332.52z"/>
<path style="stroke:none; fill-rule:evenodd; fill:#000000" d="M 455.5 327.648C 455.5 328.574 455.91 329.414 456.597 329.934C 457.465 330.578 458.785 330.898 460.605 330.898C 463.933 330.898 465.699 329.777 465.699 327.648C 465.699 325.547 463.933 324.398 460.691 324.398C 458.769 324.398 457.488 324.707 456.597 325.367C 455.894 325.883 455.5 326.711 455.5 327.648zM 456.597 327.648C 456.597 326.277 457.937 325.602 460.586 325.602C 463.39 325.602 464.699 326.266 464.699 327.68C 464.699 329.02 463.332 329.699 460.629 329.699C 457.926 329.699 456.597 329.02 456.597 327.648z"/>
<path style="stroke:none; fill-rule:evenodd; fill:#000000" d="M 455.5 319.852C 455.5 320.773 455.91 321.613 456.597 322.133C 457.465 322.777 458.785 323.098 460.605 323.098C 463.933 323.098 465.699 321.98 465.699 319.848C 465.699 317.746 463.933 316.598 460.691 316.598C 458.769 316.598 457.488 316.906 456.597 317.566C 455.894 318.086 455.5 318.91 455.5 319.848L 455.5 319.852zM 456.597 319.852C 456.597 318.48 457.937 317.801 460.586 317.801C 463.39 317.801 464.699 318.465 464.699 319.879C 464.699 321.223 463.332 321.898 460.629 321.898C 457.926 321.898 456.597 321.219 456.597 319.852z"/>
<path style="stroke:#000000; stroke-width:1; fill:none" d="M 446.699 254.301L 440.398 254.301M 26.6992 254.301L 33 254.301"/>
<path style="stroke:none; fill-rule:evenodd; fill:#000000" d="M 458.097 260.93C 456.469 261.164 455.5 262.23 455.5 263.742C 455.5 264.836 456.031 265.816 456.91 266.402C 457.871 267.02 459.082 267.301 460.879 267.301C 462.535 267.301 463.594 267.047 464.472 266.457C 465.265 265.926 465.699 265.055 465.699 263.957C 465.699 262.062 464.297 260.699 462.351 260.699C 460.504 260.699 459.199 261.98 459.199 263.785C 459.199 264.777 459.578 265.559 460.301 266.102C 457.922 266.086 456.601 265.293 456.601 263.859C 456.601 262.984 457.148 262.371 458.101 262.176L 458.097 260.93zM 460.301 263.871C 460.301 262.656 461.125 261.898 462.449 261.898C 463.691 261.898 464.601 262.758 464.601 263.91C 464.601 265.082 463.652 265.969 462.379 265.969C 461.152 265.969 460.301 265.109 460.301 263.867L 460.301 263.871z"/>
<path style="stroke:none; fill-rule:evenodd; fill:#000000" d="M 455.5 256.25C 455.5 257.176 455.91 258.016 456.597 258.531C 457.465 259.18 458.785 259.5 460.605 259.5C 463.933 259.5 465.699 258.379 465.699 256.25C 465.699 254.148 463.933 253 460.691 253C 458.769 253 457.488 253.309 456.597 253.965C 455.894 254.484 455.5 255.312 455.5 256.25zM 456.597 256.25C 456.597 254.879 457.937 254.199 460.586 254.199C 463.39 254.199 464.699 254.863 464.699 256.277C 464.699 257.621 463.332 258.301 460.629 258.301C 457.926 258.301 456.597 257.621 456.597 256.25z"/>
<path style="stroke:none; fill-rule:evenodd; fill:#000000" d="M 455.5 248.551C 455.5 249.477 455.91 250.316 456.597 250.832C 457.465 251.477 458.785 251.801 460.605 251.801C 463.933 251.801 465.699 250.68 465.699 248.551C 465.699 246.449 463.933 245.301 460.691 245.301C 458.769 245.301 457.488 245.605 456.597 246.266C 455.894 246.785 455.5 247.609 455.5 248.551zM 456.597 248.551C 456.597 247.18 457.937 246.5 460.586 246.5C 463.39 246.5 464.699 247.164 464.699 248.578C 464.699 249.922 463.332 250.598 460.629 250.598C 457.926 250.598 456.597 249.922 456.597 248.551z"/>
<path style="stroke:none; fill-rule:evenodd; fill:#000000" d="M 455.5 240.75C 455.5 241.676 455.91 242.516 456.597 243.031C 457.465 243.68 458.785 244 460.605 244C 463.933 244 465.699 242.879 465.699 240.75C 465.699 238.648 463.933 237.5 460.691 237.5C 458.769 237.5 457.488 237.809 456.597 238.465C 455.894 238.984 455.5 239.812 455.5 240.75zM 456.597 240.75C 456.597 239.379 457.937 238.699 460.586 238.699C 463.39 238.699 464.699 239.363 464.699 240.777C 464.699 242.121 463.332 242.801 460.629 242.801C 457.926 242.801 456.597 242.121 456.597 240.75z"/>
<path style="stroke:#000000; stroke-width:1; fill:none" d="M 446.699 175.102L 440.398 175.102M 26.6992 175.102L 33 175.102"/>
<path style="stroke:none; fill-rule:evenodd; fill:#000000" d="M 458.097 181.727C 456.469 181.965 455.5 183.031 455.5 184.543C 455.5 185.637 456.031 186.613 456.91 187.203C 457.871 187.82 459.082 188.102 460.879 188.102C 462.535 188.102 463.594 187.848 464.472 187.258C 465.265 186.723 465.699 185.855 465.699 184.758C 465.699 182.863 464.297 181.5 462.351 181.5C 460.504 181.5 459.199 182.777 459.199 184.582C 459.199 185.578 459.578 186.359 460.301 186.898C 457.922 186.887 456.601 186.094 456.601 184.66C 456.601 183.781 457.148 183.172 458.101 182.977L 458.097 181.727zM 460.301 184.672C 460.301 183.457 461.125 182.699 462.449 182.699C 463.691 182.699 464.601 183.559 464.601 184.711C 464.601 185.883 463.652 186.766 462.379 186.766C 461.152 186.766 460.301 185.91 460.301 184.668L 460.301 184.672z"/>
<path style="stroke:none; fill-rule:evenodd; fill:#000000" d="M 455.5 174.219L 455.5 179.359L 460.879 180.102L 460.879 178.949C 460.226 178.367 460 177.887 460 177.105C 460 175.754 460.894 174.898 462.34 174.898C 463.746 174.898 464.597 175.738 464.597 177.102C 464.597 178.195 464.062 178.863 462.965 179.16L 462.965 180.41C 463.769 180.242 464.16 180.102 464.519 179.809C 465.269 179.246 465.699 178.234 465.699 177.113C 465.699 175.105 464.258 173.699 462.176 173.699C 460.23 173.699 458.898 175.008 458.898 176.918C 458.898 177.617 459.07 178.18 459.461 178.754L 456.699 178.363L 456.699 174.223L 455.5 174.219z"/>
<path style="stroke:none; fill-rule:evenodd; fill:#000000" d="M 455.5 169.352C 455.5 170.273 455.91 171.113 456.597 171.633C 457.465 172.277 458.785 172.598 460.605 172.598C 463.933 172.598 465.699 171.48 465.699 169.348C 465.699 167.246 463.933 166.098 460.691 166.098C 458.769 166.098 457.488 166.406 456.597 167.066C 455.894 167.582 455.5 168.41 455.5 169.348L 455.5 169.352zM 456.597 169.352C 456.597 167.98 457.937 167.301 460.586 167.301C 463.39 167.301 464.699 167.965 464.699 169.379C 464.699 170.723 463.332 171.398 460.629 171.398C 457.926 171.398 456.597 170.719 456.597 169.352z"/>
<path style="stroke:none; fill-rule:evenodd; fill:#000000" d="M 455.5 161.551C 455.5 162.477 455.91 163.316 456.597 163.832C 457.465 164.477 458.785 164.801 460.605 164.801C 463.933 164.801 465.699 163.68 465.699 161.551C 465.699 159.449 463.933 158.301 460.691 158.301C 458.769 158.301 457.488 158.605 456.597 159.266C 455.894 159.785 455.5 160.609 455.5 161.551zM 456.597 161.551C 456.597 160.18 457.937 159.5 460.586 159.5C 463.39 159.5 464.699 160.164 464.699 161.578C 464.699 162.922 463.332 163.598 460.629 163.598C 457.926 163.598 456.597 162.922 456.597 161.551z"/>
<path style="stroke:#000000; stroke-width:1; fill:none" d="M 446.699 96L 440.398 96M 26.6992 96L 33 96"/>
<path style="stroke:none; fill-rule:evenodd; fill:#000000" d="M 455.5 102.301L 455.5 108.902L 456.699 108.902L 456.699 103.57C 460.07 105.922 462.14 106.883 465.398 107.621L 465.398 106.312C 462.23 105.77 459.508 104.531 456.535 102.301L 455.5 102.301z"/>
<path style="stroke:none; fill-rule:evenodd; fill:#000000" d="M 455.5 97.949C 455.5 98.875 455.91 99.715 456.597 100.234C 457.465 100.879 458.785 101.199 460.605 101.199C 463.933 101.199 465.699 100.078 465.699 97.949C 465.699 95.848 463.933 94.699 460.691 94.699C 458.769 94.699 457.488 95.008 456.597 95.664C 455.894 96.184 455.5 97.012 455.5 97.949zM 456.597 97.949C 456.597 96.578 457.937 95.898 460.586 95.898C 463.39 95.898 464.699 96.562 464.699 97.98C 464.699 99.32 463.332 100 460.629 100C 457.926 100 456.597 99.32 456.597 97.949z"/>
<path style="stroke:none; fill-rule:evenodd; fill:#000000" d="M 455.5 90.25C 455.5 91.176 455.91 92.016 456.597 92.531C 457.465 93.18 458.785 93.5 460.605 93.5C 463.933 93.5 465.699 92.379 465.699 90.25C 465.699 88.148 463.933 87 460.691 87C 458.769 87 457.488 87.309 456.597 87.965C 455.894 88.484 455.5 89.312 455.5 90.25zM 456.597 90.25C 456.597 88.879 457.937 88.199 460.586 88.199C 463.39 88.199 464.699 88.863 464.699 90.277C 464.699 91.621 463.332 92.301 460.629 92.301C 457.926 92.301 456.597 91.621 456.597 90.25z"/>
<path style="stroke:none; fill-rule:evenodd; fill:#000000" d="M 455.5 82.449C 455.5 83.375 455.91 84.215 456.597 84.734C 457.465 85.379 458.785 85.699 460.605 85.699C 463.933 85.699 465.699 84.578 465.699 82.449C 465.699 80.348 463.933 79.199 460.691 79.199C 458.769 79.199 457.488 79.508 456.597 80.164C 455.894 80.684 455.5 81.512 455.5 82.449zM 456.597 82.449C 456.597 81.078 457.937 80.398 460.586 80.398C 463.39 80.398 464.699 81.062 464.699 82.48C 464.699 83.82 463.332 84.5 460.629 84.5C 457.926 84.5 456.597 83.82 456.597 82.449z"/>
<path style="stroke:#000000; stroke-width:1; fill:none" d="M 446.699 16.801L 440.398 16.801M 26.6992 16.801L 33 16.801"/>
<path style="stroke:none; fill-rule:evenodd; fill:#000000" d="M 455.5 23.102L 455.5 29.703L 456.699 29.703L 456.699 24.367C 460.07 26.723 462.14 27.684 465.398 28.422L 465.398 27.113C 462.23 26.57 459.508 25.328 456.535 23.102L 455.5 23.102z"/>
<path style="stroke:none; fill-rule:evenodd; fill:#000000" d="M 455.5 15.922L 455.5 21.059L 460.879 21.801L 460.879 20.652C 460.226 20.07 460 19.586 460 18.805C 460 17.453 460.894 16.602 462.34 16.602C 463.746 16.602 464.597 17.438 464.597 18.801C 464.597 19.895 464.062 20.562 462.965 20.859L 462.965 22.109C 463.769 21.941 464.16 21.801 464.519 21.508C 465.269 20.945 465.699 19.934 465.699 18.812C 465.699 16.805 464.258 15.398 462.176 15.398C 460.23 15.398 458.898 16.707 458.898 18.617C 458.898 19.316 459.07 19.879 459.461 20.453L 456.699 20.062L 456.699 15.922L 455.5 15.922z"/>
<path style="stroke:none; fill-rule:evenodd; fill:#000000" d="M 455.5 11.051C 455.5 11.977 455.91 12.816 456.597 13.332C 457.465 13.977 458.785 14.301 460.605 14.301C 463.933 14.301 465.699 13.18 465.699 11.051C 465.699 8.94897 463.933 7.80103 460.691 7.80103C 458.769 7.80103 457.488 8.10498 456.597 8.76599C 455.894 9.28497 455.5 10.109 455.5 11.051zM 456.597 11.051C 456.597 9.67999 457.937 9 460.586 9C 463.39 9 464.699 9.664 464.699 11.078C 464.699 12.422 463.332 13.098 460.629 13.098C 457.926 13.098 456.597 12.422 456.597 11.051z"/>
<path style="stroke:none; fill-rule:evenodd; fill:#000000" d="M 455.5 3.25C 455.5 4.17603 455.91 5.01599 456.597 5.53101C 457.465 6.17999 458.785 6.5 460.605 6.5C 463.933 6.5 465.699 5.37903 465.699 3.25C 465.699 1.14801 463.933 0 460.691 0C 458.769 0 457.488 0.309021 456.597 0.965027C 455.894 1.48401 455.5 2.31201 455.5 3.25zM 456.597 3.25C 456.597 1.87903 457.937 1.19897 460.586 1.19897C 463.39 1.19897 464.699 1.86298 464.699 3.27698C 464.699 4.62097 463.332 5.30103 460.629 5.30103C 457.926 5.30103 456.597 4.62097 456.597 3.25z"/>
<path style="stroke:#000000; stroke-width:1; fill:none" d="M 446.699 650L 446.699 16.801L 26.6992 16.801L 26.6992 650L 446.699 650"/>
<path style="stroke:none; fill-rule:evenodd; fill:#000000" d="M 283.801 700.102L 280.398 700.102C 279.226 700.102 278.699 699.539 278.699 698.277L 278.699 697.367C 278.699 696.738 278.594 696.121 278.418 695.699L 276.894 695.699L 276.894 696.02C 277.375 696.355 277.472 696.719 277.5 698.078C 277.515 699.758 277.781 700.258 278.894 700.734C 277.758 701.293 277.301 702.008 277.301 703.168C 277.301 704.934 278.406 705.898 280.402 705.898L 285.101 705.898L 285.101 695.699L 283.801 695.699L 283.801 700.102zM 283.801 701.199L 283.801 704.801L 280.621 704.801C 279.887 704.801 279.461 704.684 279.137 704.398C 278.785 704.098 278.601 703.625 278.601 702.992C 278.601 701.762 279.222 701.199 280.621 701.199L 283.801 701.199z"/>
<path style="stroke:none; fill-rule:evenodd; fill:#000000" d="M 269.097 699C 269.097 700.102 269.183 700.762 269.394 701.301C 269.867 702.484 270.984 703.199 272.351 703.199C 274.39 703.199 275.703 701.645 275.703 699.258C 275.703 696.871 274.433 695.398 272.39 695.398C 270.719 695.398 269.562 696.344 269.269 697.926L 270.441 697.926C 270.765 696.988 271.418 696.5 272.351 696.5C 273.09 696.5 273.719 696.832 274.109 697.445C 274.387 697.859 274.484 698.277 274.5 699L 269.097 699zM 274.492 700C 274.394 701.273 273.57 702.098 272.394 702.098C 271.246 702.098 270.363 701.207 270.363 700.078C 270.363 700.051 270.363 700.027 270.379 700L 274.492 700z"/>
<path style="stroke:none; fill-rule:evenodd; fill:#000000" d="M 266.5 705.898L 267.699 705.898L 267.699 695.699L 266.5 695.699L 266.5 705.898z"/>
<path style="stroke:none; fill-rule:evenodd; fill:#000000" d="M 258.008 696.387C 258.137 696.398 258.191 696.398 258.261 696.398C 258.672 696.398 258.898 696.605 258.898 696.969L 258.898 701.223C 258.898 702.508 259.851 703.199 261.652 703.199C 262.715 703.199 263.597 702.898 264.086 702.363C 264.422 701.992 264.558 701.578 264.59 700.867L 263.426 700.867C 263.328 701.715 262.801 702.098 261.719 702.098C 260.679 702.098 260.097 701.711 260.097 701.02L 260.097 700.719C 260.097 700.234 260.39 700.027 261.301 699.914C 262.933 699.711 263.183 699.652 263.625 699.473C 264.469 699.129 264.898 698.48 264.898 697.539C 264.898 696.227 263.976 695.398 262.496 695.398C 261.574 695.398 260.832 695.715 260.008 696.453C 259.926 695.727 259.562 695.398 258.804 695.398C 258.566 695.398 258.387 695.426 258.008 695.523L 258.008 696.387zM 260.097 698.012C 260.097 697.617 260.211 697.379 260.558 697.059C 261.027 696.625 261.594 696.398 262.273 696.398C 263.172 696.398 263.699 696.836 263.699 697.574C 263.699 698.348 263.187 698.738 261.957 698.922C 260.738 699.09 260.488 699.145 260.097 699.328L 260.097 698.012z"/>
<path style="stroke:none; fill-rule:evenodd; fill:#000000" d="M 254.097 703L 255.301 703L 255.301 705.051L 256.5 705.051L 256.5 703L 257.5 703L 257.5 702L 256.5 702L 256.5 696.543C 256.5 695.812 255.988 695.398 255.062 695.398C 254.781 695.398 254.496 695.426 254.097 695.496L 254.097 696.457C 254.254 696.414 254.433 696.398 254.656 696.398C 255.16 696.398 255.301 696.539 255.301 697.047L 255.301 702L 254.097 702L 254.097 703z"/>
<path style="stroke:none; fill-rule:evenodd; fill:#000000" d="M 251.699 703L 252.898 703L 252.898 695.699L 251.699 695.699L 251.699 703zM 251.699 705.898L 252.898 705.898L 252.898 704.438L 251.699 704.438L 251.699 705.898z"/>
<path style="stroke:none; fill-rule:evenodd; fill:#000000" d="M 246.711 695.699L 243.894 703L 245.211 703L 247.285 697.086L 249.242 703L 250.558 703L 247.984 695.699L 246.711 695.699z"/>
<path style="stroke:none; fill-rule:evenodd; fill:#000000" d="M 236.5 699C 236.5 700.102 236.582 700.762 236.793 701.301C 237.269 702.484 238.383 703.199 239.754 703.199C 241.789 703.199 243.101 701.645 243.101 699.258C 243.101 696.871 241.836 695.398 239.789 695.398C 238.121 695.398 236.965 696.344 236.672 697.926L 237.844 697.926C 238.164 696.988 238.82 696.5 239.754 696.5C 240.492 696.5 241.117 696.832 241.508 697.445C 241.789 697.859 241.887 698.277 241.898 699L 236.5 699zM 241.894 700C 241.797 701.273 240.969 702.098 239.793 702.098C 238.644 702.098 237.761 701.207 237.761 700.078C 237.761 700.051 237.761 700.027 237.777 700L 241.894 700z"/>
<path style="stroke:none; fill-rule:evenodd; fill:#000000" d="M 229.398 700.398L 224.566 700.398L 224.566 701.5L 229.398 701.5L 229.398 704.801L 223.898 704.801L 223.898 705.898L 230.699 705.898L 230.699 695.699L 229.398 695.699L 229.398 700.398z"/>
<path style="stroke:none; fill-rule:evenodd; fill:#000000" d="M 221.301 705.898L 222.5 705.898L 222.5 695.699L 221.301 695.699L 221.301 705.898z"/>
<path style="stroke:none; fill-rule:evenodd; fill:#000000" d="M 213.597 695.719L 213.597 703L 214.801 703L 214.801 698.863C 214.801 697.375 215.558 696.398 216.738 696.398C 217.633 696.398 218.199 696.957 218.199 697.832L 218.199 703L 219.398 703L 219.398 697.387C 219.398 696.18 218.488 695.398 217.054 695.398C 215.976 695.398 215.289 695.773 214.601 696.734L 214.601 695.719L 213.597 695.719z"/>
<path style="stroke:none; fill-rule:evenodd; fill:#000000" d="M 208.41 699.477L 205.945 703L 207.261 703L 209.027 700.375L 210.793 703L 212.121 703L 209.672 699.418L 212.261 695.699L 210.929 695.699L 209.07 698.516L 207.234 695.699L 205.879 695.699L 208.41 699.477z"/>
<path style="stroke:none; fill-rule:evenodd; fill:#000000" d="M 199.097 700.398L 194.265 700.398L 194.265 701.5L 199.097 701.5L 199.097 704.801L 193.597 704.801L 193.597 705.898L 200.398 705.898L 200.398 695.699L 199.101 695.699L 199.097 700.398z"/>
<path style="stroke:none; fill-rule:evenodd; fill:#000000" d="M 192.258 697.883C 192.179 698.527 191.855 698.898 191.351 698.898C 190.996 698.898 190.691 698.617 190.523 698.109C 190.445 697.883 190.344 697.512 190.242 697.082L 192.832 691.445L 191.777 691.445L 189.875 695.488C 189.515 693.285 189.336 692.484 189.133 692.047C 188.887 691.559 188.527 691.301 188.117 691.301C 187.679 691.301 187.332 691.578 187.14 692.086C 187.019 692.395 186.972 692.707 186.961 693.25L 187.195 693.25C 187.285 692.641 187.543 692.301 187.945 692.301C 188.285 692.301 188.574 692.516 188.754 692.91C 188.898 693.203 188.976 693.496 189.133 694.332L 189.437 695.785C 189.445 695.82 189.461 695.898 189.48 696.012C 189.738 697.469 190.14 698.844 190.41 699.246C 190.656 699.609 190.992 699.801 191.363 699.801C 192.047 699.801 192.402 699.215 192.527 697.887L 192.258 697.883z"/>
<path style="stroke:none; fill-rule:evenodd; fill:#000000" d="M 482 402L 482 398.602C 482 397.426 482.558 396.902 483.82 396.902L 484.73 396.902C 485.363 396.902 485.98 396.793 486.398 396.617L 486.398 395.094L 486.078 395.094C 485.742 395.578 485.379 395.676 484.023 395.699C 482.344 395.715 481.84 395.984 481.363 397.098C 480.804 395.961 480.09 395.5 478.929 395.5C 477.168 395.5 476.199 396.605 476.199 398.605L 476.199 403.301L 486.398 403.301L 486.398 402L 482 402zM 480.898 402L 477.301 402L 477.301 398.82C 477.301 398.086 477.414 397.66 477.703 397.34C 478.004 396.984 478.476 396.801 479.105 396.801C 480.34 396.801 480.898 397.422 480.898 398.82L 480.898 402z"/>
<path style="stroke:none; fill-rule:evenodd; fill:#000000" d="M 483.097 387.301C 481.996 387.301 481.336 387.383 480.801 387.594C 479.617 388.066 478.898 389.184 478.898 390.555C 478.898 392.59 480.453 393.902 482.84 393.902C 485.226 393.902 486.699 392.637 486.699 390.59C 486.699 388.922 485.758 387.766 484.172 387.473L 484.172 388.645C 485.109 388.965 485.597 389.621 485.597 390.555C 485.597 391.293 485.265 391.918 484.656 392.309C 484.238 392.59 483.82 392.688 483.101 392.699L 483.097 387.301zM 482.097 392.695C 480.828 392.598 480 391.77 480 390.594C 480 389.445 480.89 388.562 482.019 388.562C 482.047 388.562 482.074 388.562 482.101 388.578L 482.097 392.695z"/>
<path style="stroke:none; fill-rule:evenodd; fill:#000000" d="M 481.105 380.566C 479.695 380.582 478.898 381.527 478.898 383.207C 478.898 384.902 479.769 386 481.109 386C 482.242 386 482.781 385.418 483.195 383.703L 483.461 382.621C 483.652 381.82 483.941 381.5 484.469 381.5C 485.144 381.5 485.601 382.188 485.601 383.207C 485.601 383.836 485.422 384.367 485.125 384.66C 484.922 384.844 484.719 384.926 484.215 384.996L 484.215 386.227C 485.894 386.172 486.699 385.223 486.699 383.312C 486.699 381.473 485.801 380.301 484.406 380.301C 483.332 380.301 482.734 380.91 482.39 382.352L 482.129 383.461C 481.91 384.402 481.605 384.805 481.094 384.805C 480.429 384.805 480 384.203 480 383.258C 480 382.324 480.383 381.824 481.109 381.797L 481.105 380.566z"/>
<path style="stroke:none; fill-rule:evenodd; fill:#000000" d="M 479.097 376.098L 479.097 377.301L 477.047 377.301L 477.047 378.5L 479.097 378.5L 479.097 379.5L 480.097 379.5L 480.097 378.5L 485.554 378.5C 486.285 378.5 486.699 377.988 486.699 377.066C 486.699 376.781 486.672 376.496 486.601 376.098L 485.644 376.098C 485.683 376.254 485.699 376.434 485.699 376.656C 485.699 377.16 485.562 377.301 485.051 377.301L 480.097 377.301L 480.097 376.098L 479.097 376.098z"/>
<path style="stroke:none; fill-rule:evenodd; fill:#000000" d="M 479.097 372.199L 479.097 373.398L 477.945 373.398C 477.453 373.398 477.199 373.125 477.199 372.602C 477.199 372.504 477.199 372.461 477.199 372.199L 476.265 372.199C 476.215 372.469 476.199 372.621 476.199 372.863C 476.199 373.949 476.812 374.602 477.859 374.602L 479.097 374.602L 479.097 375.602L 480.097 375.602L 480.097 374.602L 486.398 374.602L 486.398 373.398L 480.097 373.398L 480.097 372.199L 479.097 372.199z"/>
<path style="stroke:none; fill-rule:evenodd; fill:#000000" d="M 479.109 370.898L 486.398 370.898L 486.398 369.699L 482.601 369.699C 481.554 369.699 480.867 369.441 480.465 368.895C 480.199 368.539 480.113 368.199 480.097 367.406L 478.941 367.406C 478.914 367.598 478.898 367.695 478.898 367.844C 478.898 368.582 479.347 369.145 480.429 369.801L 479.109 369.801L 479.109 370.898z"/>
<path style="stroke:none; fill-rule:evenodd; fill:#000000" d="M 485.715 359.809C 485.699 359.938 485.699 359.992 485.699 360.062C 485.699 360.473 485.492 360.699 485.133 360.699L 480.875 360.699C 479.59 360.699 478.898 361.652 478.898 363.453C 478.898 364.516 479.203 365.398 479.738 365.887C 480.109 366.223 480.519 366.359 481.234 366.391L 481.234 365.227C 480.383 365.129 480 364.602 480 363.52C 480 362.48 480.387 361.898 481.078 361.898L 481.383 361.898C 481.867 361.898 482.074 362.191 482.183 363.102C 482.39 364.734 482.445 364.984 482.625 365.426C 482.969 366.27 483.621 366.699 484.558 366.699C 485.871 366.699 486.699 365.777 486.699 364.297C 486.699 363.375 486.387 362.633 485.644 361.809C 486.371 361.723 486.699 361.359 486.699 360.605C 486.699 360.367 486.672 360.188 486.578 359.809L 485.715 359.809zM 484.09 361.898C 484.48 361.898 484.719 362.012 485.043 362.359C 485.476 362.828 485.699 363.395 485.699 364.074C 485.699 364.973 485.265 365.5 484.523 365.5C 483.754 365.5 483.359 364.988 483.179 363.758C 483.011 362.539 482.957 362.289 482.773 361.898L 484.09 361.898z"/>
<path style="stroke:none; fill-rule:evenodd; fill:#000000" d="M 479.109 358.5L 486.398 358.5L 486.398 357.301L 481.812 357.301C 480.75 357.301 479.898 356.551 479.898 355.621C 479.898 354.777 480.429 354.301 481.363 354.301L 486.398 354.301L 486.398 353.102L 481.812 353.102C 480.75 353.102 479.898 352.324 479.898 351.367C 479.898 350.508 480.445 350 481.363 350L 486.398 350L 486.398 348.801L 480.933 348.801C 479.625 348.801 478.898 349.555 478.898 350.926C 478.898 351.902 479.183 352.492 479.972 353.176C 479.222 353.609 478.898 354.199 478.898 355.148C 478.898 356.129 479.261 356.77 480.14 357.398L 479.109 357.398L 479.109 358.5z"/>
<path style="stroke:none; fill-rule:evenodd; fill:#000000" d="M 483.097 340.602C 481.996 340.602 481.336 340.684 480.801 340.895C 479.617 341.367 478.898 342.484 478.898 343.852C 478.898 345.891 480.453 347.203 482.84 347.203C 485.226 347.203 486.699 345.938 486.699 343.891C 486.699 342.219 485.758 341.066 484.172 340.773L 484.172 341.945C 485.109 342.266 485.597 342.922 485.597 343.852C 485.597 344.594 485.265 345.219 484.656 345.609C 484.238 345.887 483.82 345.984 483.101 346L 483.097 340.602zM 482.097 345.992C 480.828 345.895 480 345.07 480 343.895C 480 342.746 480.89 341.863 482.019 341.863C 482.047 341.863 482.074 341.863 482.101 341.879L 482.097 345.992z"/>
<path style="stroke:none; fill-rule:evenodd; fill:#000000" d="M 486.398 325.684L 476.199 323.094L 476.199 324.551L 484.48 326.426L 476.199 328.75L 476.199 330.148L 484.48 332.418L 476.199 334.336L 476.199 335.793L 486.398 333.176L 486.398 331.746L 478.011 329.465L 486.398 327.113L 486.398 325.684z"/>
<path style="stroke:none; fill-rule:evenodd; fill:#000000" d="M 485.715 315.41C 485.699 315.535 485.699 315.594 485.699 315.664C 485.699 316.074 485.492 316.301 485.133 316.301L 480.875 316.301C 479.59 316.301 478.898 317.25 478.898 319.055C 478.898 320.117 479.203 320.996 479.738 321.484C 480.109 321.82 480.519 321.961 481.234 321.988L 481.234 320.824C 480.383 320.727 480 320.203 480 319.121C 480 318.082 480.387 317.5 481.078 317.5L 481.383 317.5C 481.867 317.5 482.074 317.789 482.183 318.703C 482.39 320.336 482.445 320.586 482.625 321.027C 482.969 321.871 483.621 322.301 484.558 322.301C 485.871 322.301 486.699 321.379 486.699 319.895C 486.699 318.973 486.387 318.234 485.644 317.406C 486.371 317.324 486.699 316.961 486.699 316.207C 486.699 315.969 486.672 315.785 486.578 315.41L 485.715 315.41zM 484.09 317.5C 484.48 317.5 484.719 317.613 485.043 317.957C 485.476 318.43 485.699 318.996 485.699 319.676C 485.699 320.574 485.265 321.102 484.523 321.102C 483.754 321.102 483.359 320.59 483.179 319.355C 483.011 318.137 482.957 317.891 482.773 317.5L 484.09 317.5z"/>
<path style="stroke:none; fill-rule:evenodd; fill:#000000" d="M 486.398 311.109L 479.097 308.297L 479.097 309.613L 485.011 311.684L 479.097 313.645L 479.097 314.961L 486.398 312.383L 486.398 311.109z"/>
<path style="stroke:none; fill-rule:evenodd; fill:#000000" d="M 483.097 300.898C 481.996 300.898 481.336 300.984 480.801 301.195C 479.617 301.668 478.898 302.785 478.898 304.152C 478.898 306.191 480.453 307.504 482.84 307.504C 485.226 307.504 486.699 306.234 486.699 304.191C 486.699 302.52 485.758 301.363 484.172 301.07L 484.172 302.242C 485.109 302.562 485.597 303.219 485.597 304.152C 485.597 304.891 485.265 305.52 484.656 305.91C 484.238 306.188 483.82 306.285 483.101 306.301L 483.097 300.898zM 482.097 306.293C 480.828 306.195 480 305.371 480 304.195C 480 303.047 480.89 302.164 482.019 302.164C 482.047 302.164 482.074 302.164 482.101 302.18L 482.097 306.293z"/>
<path style="stroke:none; fill-rule:evenodd; fill:#000000" d="M 476.199 299.398L 486.398 299.398L 486.398 298.199L 476.199 298.199L 476.199 299.398z"/>
<path style="stroke:none; fill-rule:evenodd; fill:#000000" d="M 483.097 290C 481.996 290 481.336 290.086 480.801 290.293C 479.617 290.77 478.898 291.887 478.898 293.254C 478.898 295.289 480.453 296.602 482.84 296.602C 485.226 296.602 486.699 295.336 486.699 293.289C 486.699 291.621 485.758 290.465 484.172 290.172L 484.172 291.344C 485.109 291.664 485.597 292.32 485.597 293.254C 485.597 293.992 485.265 294.617 484.656 295.008C 484.238 295.289 483.82 295.387 483.101 295.398L 483.097 290zM 482.097 295.395C 480.828 295.297 480 294.469 480 293.293C 480 292.145 480.89 291.266 482.019 291.266C 482.047 291.266 482.074 291.266 482.101 291.277L 482.097 295.395z"/>
<path style="stroke:none; fill-rule:evenodd; fill:#000000" d="M 479.109 288.5L 486.398 288.5L 486.398 287.301L 482.371 287.301C 480.879 287.301 479.898 286.539 479.898 285.371C 479.898 284.473 480.461 283.902 481.336 283.902L 486.398 283.902L 486.398 282.699L 480.89 282.699C 479.679 282.699 478.898 283.602 478.898 284.996C 478.898 286.074 479.316 286.766 480.332 287.398L 479.109 287.398L 479.109 288.5z"/>
<path style="stroke:none; fill-rule:evenodd; fill:#000000" d="M 479.097 275.898L 480.129 275.898C 479.293 276.492 478.898 277.211 478.898 278.156C 478.898 280.031 480.511 281.301 482.871 281.301C 484.062 281.301 485.035 280.98 485.726 280.387C 486.34 279.844 486.699 279.066 486.699 278.305C 486.699 277.391 486.312 276.754 485.406 276.102L 485.789 276.102C 486.789 276.102 487.398 276.227 487.808 276.516C 488.246 276.82 488.5 277.414 488.5 278.121C 488.5 278.648 488.355 279.117 488.097 279.434C 487.883 279.699 487.683 279.809 487.238 279.879L 487.238 281.055C 488.656 280.93 489.5 279.859 489.5 278.148C 489.5 277.066 489.148 276.137 488.558 275.664C 487.887 275.105 486.961 274.898 485.238 274.898L 479.097 274.898L 479.097 275.898zM 480 278.086C 480 276.836 481.043 276.102 482.84 276.102C 484.558 276.102 485.601 276.852 485.601 278.074C 485.601 279.336 484.543 280.102 482.801 280.102C 481.07 280.102 480 279.32 480 278.086z"/>
<path style="stroke:none; fill-rule:evenodd; fill:#000000" d="M 479.097 270.301L 479.097 271.5L 477.047 271.5L 477.047 272.699L 479.097 272.699L 479.097 273.699L 480.097 273.699L 480.097 272.699L 485.554 272.699C 486.285 272.699 486.699 272.188 486.699 271.266C 486.699 270.98 486.672 270.695 486.601 270.301L 485.644 270.301C 485.683 270.453 485.699 270.637 485.699 270.859C 485.699 271.359 485.562 271.5 485.051 271.5L 480.097 271.5L 480.097 270.301L 479.097 270.301z"/>
<path style="stroke:none; fill-rule:evenodd; fill:#000000" d="M 476.199 269L 486.398 269L 486.398 267.801L 482.371 267.801C 480.879 267.801 479.898 267.039 479.898 265.871C 479.898 265.504 480.027 265.137 480.234 264.863C 480.472 264.535 480.82 264.402 481.34 264.402L 486.398 264.402L 486.398 263.199L 480.89 263.199C 479.668 263.199 478.898 264.07 478.898 265.48C 478.898 266.504 479.211 267.121 480.07 267.801L 476.199 267.801L 476.199 269z"/>
<path style="stroke:none; fill-rule:evenodd; fill:#000000" d="M 3.1875 386.602C 1.17191 386.613 0 387.977 0 390.305C 0 392.527 1.15231 393.898 3.0117 393.898C 4.2656 393.898 5.0547 393.242 5.4062 391.902L 6.082 389.371C 6.41801 388.09 6.94141 387.5 7.7422 387.5C 8.29301 387.5 8.8554 387.797 9.164 388.23C 9.4453 388.637 9.6015 389.281 9.6015 390.109C 9.6015 391.215 9.332 391.973 8.7383 392.465C 8.2851 392.844 7.789 393.012 7.15231 393L 7.15231 394.199C 8.08591 394.188 8.6953 394.004 9.25391 393.602C 10.1992 392.902 10.6992 391.73 10.6992 390.18C 10.6992 388.965 10.4219 387.973 9.91801 387.316C 9.3711 386.633 8.46091 386.199 7.5781 386.199C 6.3203 386.199 5.3945 386.984 5.0195 388.367L 4.332 390.926C 3.9961 392.152 3.6054 392.602 2.8203 392.602C 1.7851 392.602 1.0976 391.695 1.0976 390.332C 1.0976 388.719 1.8476 387.816 3.1875 387.801L 3.1875 386.602z"/>
<path style="stroke:none; fill-rule:evenodd; fill:#000000" d="M 0.199203 376.5L 0.199203 377.699L 8.539 377.699L 0.199203 382.996L 0.199203 384.398L 10.3984 384.398L 10.3984 383.199L 2.125 383.199L 10.3984 377.961L 10.3984 376.5L 0.199203 376.5z"/>
<path style="stroke:none; fill-rule:evenodd; fill:#000000" d="M 3.3476 371.801L 10.3984 371.801L 10.3984 370.602L 0.496101 370.602L 0.496101 371.398C 2.0195 371.824 2.2304 372.102 2.4687 373.973L 3.3476 373.973L 3.3476 371.801z"/>
<path style="stroke:none; fill-rule:evenodd; fill:#000000" d="M 8.1328 366.859C 9.7422 366.621 10.6992 365.562 10.6992 364.055C 10.6992 362.969 10.1719 361.98 9.29301 361.406C 8.332 360.781 7.1211 360.5 5.3203 360.5C 3.664 360.5 2.6054 360.75 1.7265 361.328C 0.933601 361.867 0.5 362.723 0.5 363.801C 0.5 365.664 1.89841 367 3.8476 367C 5.6953 367 7 365.746 7 363.961C 7 363.027 6.664 362.344 5.89841 361.699C 8.27731 361.715 9.5976 362.508 9.5976 363.934C 9.5976 364.809 9.0625 365.418 8.1328 365.613L 8.1328 366.859zM 1.5976 363.828C 1.5976 362.684 2.54691 361.816 3.8281 361.816C 5.0351 361.816 5.89841 362.672 5.89841 363.871C 5.89841 365.059 5.0781 365.801 3.7578 365.801C 2.50391 365.801 1.6015 364.961 1.6015 363.828L 1.5976 363.828z"/>
<path style="stroke:none; fill-rule:evenodd; fill:#000000" d="M 8.1328 359.156C 9.7422 358.922 10.6992 357.863 10.6992 356.355C 10.6992 355.27 10.1719 354.277 9.29301 353.707C 8.332 353.078 7.1211 352.801 5.3203 352.801C 3.664 352.801 2.6054 353.051 1.7265 353.629C 0.933601 354.168 0.5 355.023 0.5 356.102C 0.5 357.965 1.89841 359.301 3.8476 359.301C 5.6953 359.301 7 358.047 7 356.262C 7 355.328 6.664 354.645 5.89841 354C 8.27731 354.016 9.5976 354.805 9.5976 356.234C 9.5976 357.109 9.0625 357.719 8.1328 357.914L 8.1328 359.156zM 1.5976 356.129C 1.5976 354.984 2.54691 354.117 3.8281 354.117C 5.0351 354.117 5.89841 354.969 5.89841 356.172C 5.89841 357.359 5.0781 358.098 3.7578 358.098C 2.50391 358.098 1.6015 357.262 1.6015 356.129L 1.5976 356.129z"/>
<path style="stroke:none; fill-rule:evenodd; fill:#000000" d="M 3.3476 348.5L 10.3984 348.5L 10.3984 347.301L 0.496101 347.301L 0.496101 348.098C 2.0195 348.527 2.2304 348.801 2.4687 350.672L 3.3476 350.672L 3.3476 348.5z"/>
<path style="stroke:none; fill-rule:evenodd; fill:#000000" d="M 1.3008 339.301L 1.3008 335.996L 0.199203 335.996L 0.199203 344.008L 1.3008 344.008L 1.3008 340.602L 10.3984 340.602L 10.3984 339.301L 1.3008 339.301z"/>
<path style="stroke:none; fill-rule:evenodd; fill:#000000" d="M 3.1875 323.5C 1.17191 323.516 0 324.875 0 327.207C 0 329.426 1.15231 330.801 3.0117 330.801C 4.2656 330.801 5.0547 330.145 5.4062 328.801L 6.082 326.273C 6.41801 324.988 6.94141 324.398 7.7422 324.398C 8.29301 324.398 8.8554 324.695 9.164 325.129C 9.4453 325.535 9.6015 326.184 9.6015 327.008C 9.6015 328.117 9.332 328.871 8.7383 329.363C 8.2851 329.742 7.789 329.91 7.15231 329.902L 7.15231 331.102C 8.08591 331.086 8.6953 330.906 9.25391 330.5C 10.1992 329.805 10.6992 328.629 10.6992 327.078C 10.6992 325.867 10.4219 324.875 9.91801 324.219C 9.3711 323.535 8.46091 323.102 7.5781 323.102C 6.3203 323.102 5.3945 323.883 5.0195 325.266L 4.332 327.824C 3.9961 329.055 3.6054 329.5 2.8203 329.5C 1.7851 329.5 1.0976 328.598 1.0976 327.234C 1.0976 325.617 1.8476 324.715 3.1875 324.699L 3.1875 323.5z"/>
<path style="stroke:none; fill-rule:evenodd; fill:#000000" d="M 13.4531 321.699L 13.4531 320.5L 9.5976 320.5C 10.3594 319.895 10.6992 319.219 10.6992 318.285C 10.6992 316.426 9.1875 315.199 6.8711 315.199C 4.4258 315.199 2.89841 316.387 2.89841 318.301C 2.89841 319.277 3.3437 320.062 4.21091 320.602L 3.10941 320.602L 3.10941 321.699L 13.4531 321.699zM 4 318.492C 4 317.227 5.1172 316.402 6.83981 316.402C 8.4804 316.402 9.5976 317.242 9.5976 318.492C 9.5976 319.703 8.4961 320.5 6.8008 320.5C 5.1054 320.5 4 319.703 4 318.492z"/>
<path style="stroke:none; fill-rule:evenodd; fill:#000000" d="M 7.0976 307.5C 5.9961 307.5 5.33591 307.586 4.8008 307.793C 3.6172 308.27 2.89841 309.387 2.89841 310.754C 2.89841 312.789 4.4531 314.102 6.83981 314.102C 9.2265 314.102 10.6992 312.836 10.6992 310.789C 10.6992 309.121 9.7578 307.965 8.17191 307.672L 8.17191 308.844C 9.10941 309.164 9.5976 309.82 9.5976 310.754C 9.5976 311.492 9.2656 312.117 8.6562 312.508C 8.2383 312.789 7.8203 312.887 7.1015 312.898L 7.0976 307.5zM 6.0976 312.895C 4.8281 312.797 4 311.969 4 310.793C 4 309.645 4.8906 308.766 6.0195 308.766C 6.04691 308.766 6.0742 308.766 6.1015 308.777L 6.0976 312.895z"/>
<path style="stroke:none; fill-rule:evenodd; fill:#000000" d="M 5.52731 300.305C 4.83981 300.363 4.3906 300.52 4 300.801C 3.3086 301.309 2.89841 302.191 2.89841 303.223C 2.89841 305.203 4.457 306.5 6.8711 306.5C 9.21481 306.5 10.6992 305.234 10.6992 303.234C 10.6992 301.477 9.6601 300.363 7.87891 300.223L 7.87891 301.41C 9.02731 301.609 9.6015 302.219 9.6015 303.223C 9.6015 304.523 8.5703 305.301 6.8711 305.301C 5.0703 305.301 4 304.535 4 303.25C 4 302.258 4.5508 301.637 5.52731 301.496L 5.52731 300.305z"/>
<path style="stroke:none; fill-rule:evenodd; fill:#000000" d="M 3.0976 296.301L 3.0976 297.5L 1.04691 297.5L 1.04691 298.699L 3.0976 298.699L 3.0976 299.699L 4.0976 299.699L 4.0976 298.699L 9.5547 298.699C 10.2851 298.699 10.6992 298.188 10.6992 297.266C 10.6992 296.98 10.6719 296.695 10.6015 296.301L 9.6445 296.301C 9.6836 296.453 9.6992 296.637 9.6992 296.859C 9.6992 297.359 9.5625 297.5 9.0508 297.5L 4.0976 297.5L 4.0976 296.301L 3.0976 296.301z"/>
<path style="stroke:none; fill-rule:evenodd; fill:#000000" d="M 3.10941 295L 10.3984 295L 10.3984 293.801L 6.6015 293.801C 5.5547 293.801 4.8672 293.539 4.46481 292.996C 4.1992 292.641 4.1133 292.301 4.0976 291.508L 2.94141 291.508C 2.914 291.699 2.89841 291.797 2.89841 291.945C 2.89841 292.684 3.3476 293.242 4.4297 293.898L 3.10941 293.898L 3.10941 295z"/>
<path style="stroke:none; fill-rule:evenodd; fill:#000000" d="M 10.3789 284.699L 3.0976 284.699L 3.0976 285.898L 7.23441 285.898C 8.7226 285.898 9.6992 286.66 9.6992 287.836C 9.6992 288.73 9.1406 289.301 8.2656 289.301L 3.0976 289.301L 3.0976 290.5L 8.71091 290.5C 9.92191 290.5 10.6992 289.586 10.6992 288.156C 10.6992 287.074 10.3242 286.387 9.3633 285.699L 10.3789 285.699L 10.3789 284.699z"/>
<path style="stroke:none; fill-rule:evenodd; fill:#000000" d="M 3.10941 282.602L 10.3984 282.602L 10.3984 281.398L 5.8125 281.398C 4.75 281.398 3.89841 280.648 3.89841 279.723C 3.89841 278.879 4.4297 278.398 5.3633 278.398L 10.3984 278.398L 10.3984 277.199L 5.8125 277.199C 4.75 277.199 3.89841 276.426 3.89841 275.469C 3.89841 274.609 4.4453 274.102 5.3633 274.102L 10.3984 274.102L 10.3984 272.898L 4.9336 272.898C 3.625 272.898 2.89841 273.656 2.89841 275.023C 2.89841 276.004 3.1836 276.59 3.9726 277.277C 3.2226 277.711 2.89841 278.297 2.89841 279.246C 2.89841 280.227 3.2617 280.871 4.1406 281.5L 3.10941 281.5L 3.10941 282.602z"/>
<path style="stroke:none; fill-rule:evenodd; fill:#000000" d="M 40.3012 140.801L 40.3012 137.402C 40.3012 136.227 40.8592 135.699 42.1212 135.699L 43.0312 135.699C 43.6642 135.699 44.2772 135.594 44.6992 135.418L 44.6992 133.895L 44.3792 133.895C 44.0432 134.379 43.6792 134.473 42.3202 134.5C 40.6442 134.516 40.1402 134.781 39.6642 135.898C 39.1052 134.758 38.3902 134.301 37.2302 134.301C 35.4692 134.301 34.5 135.406 34.5 137.406L 34.5 142.102L 44.6992 142.102L 44.6992 140.801L 40.3012 140.801zM 39.1992 140.801L 35.5972 140.801L 35.5972 137.621C 35.5972 136.887 35.7152 136.461 36.0002 136.137C 36.3012 135.785 36.7732 135.602 37.4062 135.602C 38.6402 135.602 39.1992 136.223 39.1992 137.621L 39.1992 140.801z"/>
<path style="stroke:none; fill-rule:evenodd; fill:#000000" d="M 44.0112 125.809C 44.0002 125.938 44.0002 125.992 44.0002 126.062C 44.0002 126.473 43.7932 126.699 43.4332 126.699L 39.1762 126.699C 37.8902 126.699 37.1992 127.652 37.1992 129.453C 37.1992 130.516 37.5002 131.398 38.0392 131.887C 38.4102 132.223 38.8202 132.359 39.5352 132.391L 39.5352 131.227C 38.6832 131.129 38.3012 130.602 38.3012 129.52C 38.3012 128.48 38.6872 127.898 39.3792 127.898L 39.6832 127.898C 40.1682 127.898 40.3752 128.191 40.4842 129.102C 40.6912 130.734 40.7462 130.984 40.9262 131.426C 41.2692 132.27 41.9182 132.699 42.8592 132.699C 44.1722 132.699 45.0002 131.777 45.0002 130.297C 45.0002 129.375 44.6832 128.633 43.9452 127.809C 44.6722 127.723 45.0002 127.359 45.0002 126.605C 45.0002 126.367 44.9722 126.188 44.8792 125.809L 44.0112 125.809zM 42.3902 127.898C 42.7812 127.898 43.0192 128.012 43.3402 128.359C 43.7732 128.828 44.0002 129.395 44.0002 130.074C 44.0002 130.973 43.5662 131.5 42.8242 131.5C 42.0542 131.5 41.6602 130.988 41.4802 129.758C 41.3122 128.539 41.2542 128.289 41.0702 127.898L 42.3902 127.898z"/>
<path style="stroke:none; fill-rule:evenodd; fill:#000000" d="M 44.6992 117.742L 37.3982 115.59L 37.3982 116.902L 43.0742 118.359L 37.3982 119.801L 37.3982 121.23L 43.0742 122.629L 37.3982 124.129L 37.3982 125.414L 44.6992 123.289L 44.6992 121.973L 38.9452 120.559L 44.6992 119.074L 44.6992 117.742z"/>
<path style="stroke:none; fill-rule:evenodd; fill:#000000" d="M 44.6992 110.301L 44.6992 106.363C 44.6992 103.781 42.7692 102.199 39.5942 102.199C 36.4292 102.199 34.5 103.77 34.5 106.363L 34.5 110.301L 44.6992 110.301zM 43.5972 109L 35.6012 109L 35.6012 106.586C 35.6012 104.566 36.9722 103.5 39.6052 103.5C 42.2112 103.5 43.5972 104.566 43.5972 106.586L 43.5972 109z"/>
<path style="stroke:none; fill-rule:evenodd; fill:#000000" d="M 44.0112 93.91C 44.0002 94.035 44.0002 94.094 44.0002 94.164C 44.0002 94.574 43.7932 94.801 43.4332 94.801L 39.1762 94.801C 37.8902 94.801 37.1992 95.75 37.1992 97.555C 37.1992 98.617 37.5002 99.496 38.0392 99.984C 38.4102 100.32 38.8202 100.461 39.5352 100.488L 39.5352 99.324C 38.6832 99.227 38.3012 98.703 38.3012 97.621C 38.3012 96.582 38.6872 96 39.3792 96L 39.6832 96C 40.1682 96 40.3752 96.289 40.4842 97.203C 40.6912 98.836 40.7462 99.082 40.9262 99.527C 41.2692 100.371 41.9182 100.801 42.8592 100.801C 44.1722 100.801 45.0002 99.879 45.0002 98.395C 45.0002 97.473 44.6832 96.734 43.9452 95.906C 44.6722 95.824 45.0002 95.461 45.0002 94.707C 45.0002 94.469 44.9722 94.285 44.8792 93.91L 44.0112 93.91zM 42.3902 96C 42.7812 96 43.0192 96.113 43.3402 96.457C 43.7732 96.93 44.0002 97.496 44.0002 98.176C 44.0002 99.074 43.5662 99.602 42.8242 99.602C 42.0542 99.602 41.6602 99.09 41.4802 97.855C 41.3122 96.637 41.2542 96.391 41.0702 96L 42.3902 96z"/>
<path style="stroke:none; fill-rule:evenodd; fill:#000000" d="M 37.3982 90L 37.3982 91.199L 35.3472 91.199L 35.3472 92.398L 37.3982 92.398L 37.3982 93.398L 38.3982 93.398L 38.3982 92.398L 43.8552 92.398C 44.5862 92.398 45.0002 91.891 45.0002 90.965C 45.0002 90.68 44.9722 90.398 44.9022 90L 43.9412 90C 43.9842 90.152 44.0002 90.336 44.0002 90.559C 44.0002 91.062 43.8592 91.199 43.3512 91.199L 38.3982 91.199L 38.3982 90L 37.3982 90z"/>
<path style="stroke:none; fill-rule:evenodd; fill:#000000" d="M 44.0112 82.211C 44.0002 82.336 44.0002 82.395 44.0002 82.465C 44.0002 82.871 43.7932 83.102 43.4332 83.102L 39.1762 83.102C 37.8902 83.102 37.1992 84.051 37.1992 85.855C 37.1992 86.918 37.5002 87.797 38.0392 88.285C 38.4102 88.621 38.8202 88.762 39.5352 88.789L 39.5352 87.625C 38.6832 87.527 38.3012 87.004 38.3012 85.922C 38.3012 84.883 38.6872 84.301 39.3792 84.301L 39.6832 84.301C 40.1682 84.301 40.3752 84.59 40.4842 85.504C 40.6912 87.137 40.7462 87.383 40.9262 87.828C 41.2692 88.672 41.9182 89.102 42.8592 89.102C 44.1722 89.102 45.0002 88.18 45.0002 86.695C 45.0002 85.773 44.6832 85.031 43.9452 84.207C 44.6722 84.125 45.0002 83.762 45.0002 83.008C 45.0002 82.77 44.9722 82.586 44.8792 82.211L 44.0112 82.211zM 42.3902 84.301C 42.7812 84.301 43.0192 84.41 43.3402 84.758C 43.7732 85.23 44.0002 85.797 44.0002 86.473C 44.0002 87.375 43.5662 87.898 42.8242 87.898C 42.0542 87.898 41.6602 87.387 41.4802 86.156C 41.3122 84.938 41.2542 84.688 41.0702 84.301L 42.3902 84.301z"/>
<path style="stroke:#0000ff; stroke-width:1; fill:none" d="M 40.0002 73.5L 40.0002 33.602M 446.699 616.801L 121.5 616.801L 121.5 615.199L 124.097 615.199L 124.097 613.602L 126.301 613.602L 126.301 612L 127.199 612L 127.199 610.398L 124.898 610.398L 124.898 608.801L 114.398 608.801L 114.398 607.301L 98.8012 607.301L 98.8012 605.699L 89.8982 605.699L 89.8982 604.102L 91.1992 604.102L 91.1992 602.5L 96.0002 602.5L 96.0002 600.898L 101.199 600.898L 101.199 599.301L 109.301 599.301L 109.301 597.801L 114.699 597.801L 114.699 596.199L 115.5 596.199L 115.5 594.602L 118.398 594.602L 118.398 593L 120.699 593L 120.699 591.398L 114.597 591.398L 114.597 589.801L 107.398 589.801L 107.398 588.301L 107.097 588.301L 107.097 586.699L 106.301 586.699L 106.301 585.102L 102.398 585.102L 102.398 583.5L 97.6992 583.5L 97.6992 581.898L 91.1992 581.898L 91.1992 580.301L 81.8982 580.301L 81.8982 578.801L 76.6992 578.801L 76.6992 577.199L 73.8012 577.199L 73.8012 575.602L 64.8012 575.602L 64.8012 574L 60.0972 574L 60.0972 572.398L 63.8982 572.398L 63.8982 570.898L 64.8012 570.898L 64.8012 569.301L 62.8012 569.301L 62.8012 567.699L 58.8982 567.699L 58.8982 566.102L 53.3982 566.102L 53.3982 564.5L 50.3982 564.5L 50.3982 562.898L 51.8012 562.898L 51.8012 561.398L 52.6992 561.398L 52.6992 559.801L 53.0002 559.801L 53.0002 558.199L 56.5002 558.199L 56.5002 556.602L 62.8012 556.602L 62.8012 555L 70.5002 555L 70.5002 553.398L 79.8012 553.398L 79.8012 551.898L 91.0972 551.898L 91.0972 550.301L 101.898 550.301L 101.898 548.699L 111.898 548.699L 111.898 547.102L 119 547.102L 119 545.5L 126.398 545.5L 126.398 543.898L 135.301 543.898L 135.301 542.398L 143.801 542.398L 143.801 540.801L 153.5 540.801L 153.5 539.199L 166 539.199L 166 537.602L 182.801 537.602"/>
<path style="stroke:#0000ff; stroke-width:1; fill:none" d="M 182.801 537.602L 182.801 536L 201.898 536L 201.898 534.398L 216.301 534.398L 216.301 532.898L 227.699 532.898L 227.699 531.301L 238.898 531.301L 238.898 529.699L 246.699 529.699L 246.699 528.102L 252 528.102L 252 526.5L 255.597 526.5L 255.597 524.898L 257.898 524.898L 257.898 523.398L 257.097 523.398L 257.097 521.801L 250 521.801L 250 520.199L 236 520.199L 236 518.602L 219.398 518.602L 219.398 517L 207.199 517L 207.199 515.398L 195.699 515.398L 195.699 513.898L 180.398 513.898L 180.398 512.301L 166.699 512.301L 166.699 510.699L 158.398 510.699L 158.398 509.102L 155.699 509.102L 155.699 507.5L 157 507.5L 157 505.898L 162.898 505.898L 162.898 504.398L 174.597 504.398L 174.597 502.801L 186.597 502.801L 186.597 501.199L 192 501.199L 192 499.602L 191.801 499.602L 191.801 498L 185.801 498L 185.801 496.398L 176.097 496.398L 176.097 494.898L 170.398 494.898L 170.398 493.301L 166.398 493.301L 166.398 491.699L 163 491.699L 163 490.102L 162.398 490.102L 162.398 488.5L 162.5 488.5L 162.5 487L 163.5 487L 163.5 485.398L 165.097 485.398L 165.097 483.801L 163.699 483.801L 163.699 482.199L 160 482.199L 160 480.602L 156.801 480.602L 156.801 479L 153.097 479L 153.097 477.5L 149.398 477.5L 149.398 475.898L 148.301 475.898L 148.301 474.301L 148.597 474.301L 148.597 472.699L 150.301 472.699L 150.301 471.102L 154.597 471.102L 154.597 469.5L 161.301 469.5L 161.301 468L 167.597 468L 167.597 466.398L 176.801 466.398L 176.801 464.801L 190.301 464.801L 190.301 463.199L 200.199 463.199L 200.199 461.602L 204.801 461.602L 204.801 460L 208.5 460L 208.5 458.5L 211.097 458.5L 211.097 456.898L 212.801 456.898L 212.801 455.301L 216.597 455.301"/>
<path style="stroke:#0000ff; stroke-width:1; fill:none" d="M 216.597 455.301L 216.597 453.699L 221.097 453.699L 221.097 452.102L 224.699 452.102L 224.699 450.5L 226.597 450.5L 226.597 449L 227.301 449L 227.301 447.398L 226.801 447.398L 226.801 445.801L 225.898 445.801L 225.898 444.199L 223.398 444.199L 223.398 442.602L 219.898 442.602L 219.898 441L 217.199 441L 217.199 439.5L 215.699 439.5L 215.699 437.898L 217.199 437.898L 217.199 436.301L 223.301 436.301L 223.301 434.699L 234.801 434.699L 234.801 433.102L 247.199 433.102L 247.199 431.5L 257.597 431.5L 257.597 430L 267.898 430L 267.898 428.398L 278.097 428.398L 278.097 426.801L 288.699 426.801L 288.699 425.199L 300.199 425.199L 300.199 423.602L 309.5 423.602L 309.5 422L 315.699 422L 315.699 420.5L 319.301 420.5L 319.301 418.898L 322.199 418.898L 322.199 417.301L 325 417.301L 325 415.699L 326.898 415.699L 326.898 414.102L 326 414.102L 326 412.602L 323.301 412.602L 323.301 411L 318.801 411L 318.801 409.398L 310.801 409.398L 310.801 407.801L 301.398 407.801L 301.398 406.199L 293.398 406.199L 293.398 404.602L 286.699 404.602L 286.699 403.102L 279.699 403.102L 279.699 401.5L 274.199 401.5L 274.199 399.898L 269.398 399.898L 269.398 398.301L 263.5 398.301L 263.5 396.699L 257.5 396.699L 257.5 395.102L 251.5 395.102L 251.5 393.602L 247.199 393.602L 247.199 392L 244.199 392L 244.199 390.398L 241.699 390.398L 241.699 388.801L 240.699 388.801L 240.699 387.199L 240.398 387.199L 240.398 385.602L 240.097 385.602L 240.097 384.102L 239.801 384.102L 239.801 382.5L 239.301 382.5L 239.301 380.898L 239.597 380.898L 239.597 379.301L 240.898 379.301L 240.898 377.699L 242.5 377.699L 242.5 376.102L 244.597 376.102L 244.597 374.602L 246.898 374.602L 246.898 373L 250 373"/>
<path style="stroke:#0000ff; stroke-width:1; fill:none" d="M 250 373L 250 371.398L 255.5 371.398L 255.5 369.801L 262.597 369.801L 262.597 368.199L 269.699 368.199L 269.699 366.602L 275.699 366.602L 275.699 365.102L 281 365.102L 281 363.5L 285.699 363.5L 285.699 361.898L 289.199 361.898L 289.199 360.301L 291.699 360.301L 291.699 358.699L 292.597 358.699L 292.597 357.102L 292 357.102L 292 355.602L 290.301 355.602L 290.301 354L 288.5 354L 288.5 352.398L 288.597 352.398L 288.597 350.801L 288.898 350.801L 288.898 349.199L 288.097 349.199L 288.097 347.602L 287.301 347.602L 287.301 346.102L 287.199 346.102L 287.199 344.5L 287.801 344.5L 287.801 342.898L 287.597 342.898L 287.597 341.301L 287.699 341.301L 287.699 339.699L 288.699 339.699L 288.699 338.102L 290.398 338.102L 290.398 336.602L 292.199 336.602L 292.199 335L 293.199 335L 293.199 333.398L 294.097 333.398L 294.097 331.801L 294 331.801L 294 330.199L 293.398 330.199L 293.398 328.699L 294.199 328.699L 294.199 327.102L 295.199 327.102L 295.199 325.5L 295.301 325.5L 295.301 323.898L 297.597 323.898L 297.597 322.301L 301.097 322.301L 301.097 320.699L 303.199 320.699L 303.199 319.199L 304.597 319.199L 304.597 317.602L 303.5 317.602L 303.5 316L 301.398 316L 301.398 314.398L 300.699 314.398L 300.699 312.801L 301 312.801L 301 311.199L 301.898 311.199L 301.898 309.699L 301.898 308.102L 301.898 306.5L 301.597 306.5L 301.597 304.898L 301 304.898L 301 303.301L 300.398 303.301L 300.398 301.699L 300.398 300.199L 301.199 300.199L 301.199 298.602L 301.097 298.602L 301.097 297L 301.398 297L 301.398 295.398L 302.199 295.398L 302.199 293.801L 302.597 293.801L 302.597 292.199L 302.5 292.199L 302.5 290.699L 302.898 290.699L 302.898 289.102L 303.199 289.102L 303.199 287.5"/>
<path style="stroke:#0000ff; stroke-width:1; fill:none" d="M 303.199 287.5L 302.801 287.5L 302.801 285.898L 302.597 285.898L 302.597 284.301L 302.5 284.301L 302.5 282.699L 302 282.699L 302 281.199L 301.699 281.199L 301.699 279.602L 301.898 279.602L 301.898 278L 302.199 278L 302.199 276.398L 302.398 276.398L 302.398 274.801L 302.5 274.801L 302.5 273.199L 302.301 273.199L 302.301 271.699L 302.097 271.699L 302.097 270.102L 301.801 270.102L 301.801 268.5L 301.5 268.5L 301.5 266.898L 306.199 266.898L 306.199 265.301L 312.398 265.301L 312.398 263.699L 309.801 263.699L 309.801 262.199L 303.699 262.199L 303.699 260.602L 302 260.602L 302 259L 302.199 259L 302.199 257.398L 303.097 257.398L 303.097 255.801L 304.801 255.801L 304.801 254.301L 306.199 254.301L 306.199 252.699L 308.199 252.699L 308.199 251.102L 310.199 251.102L 310.199 249.5L 311.898 249.5L 311.898 247.898L 314.398 247.898L 314.398 246.301L 317.398 246.301L 317.398 244.801L 320 244.801L 320 243.199L 321.699 243.199L 321.699 241.602L 323.801 241.602L 323.801 240L 326.597 240L 326.597 238.398L 329.699 238.398L 329.699 236.801L 332.097 236.801L 332.097 235.301L 334.398 235.301L 334.398 233.699L 337.699 233.699L 337.699 232.102L 340.5 232.102L 340.5 230.5L 343.398 230.5L 343.398 228.898L 347.301 228.898L 347.301 227.301L 350.597 227.301L 350.597 225.801L 352.801 225.801L 352.801 224.199L 354 224.199L 354 222.602L 354.199 222.602L 354.199 221L 353.898 221L 353.898 219.398L 353.597 219.398L 353.597 217.801L 353.597 216.301L 354 216.301L 354 214.699L 353.801 214.699L 353.801 213.102L 352.898 213.102L 352.898 211.5L 353.097 211.5L 353.097 209.898L 354 209.898L 354 208.301L 353.398 208.301L 353.398 206.801L 351.597 206.801L 351.597 205.199L 350.699 205.199"/>
<path style="stroke:#0000ff; stroke-width:1; fill:none" d="M 350.699 205.199L 350.699 203.602L 350.5 203.602L 350.5 202L 350.398 202L 350.398 200.398L 349.898 200.398L 349.898 198.801L 349.597 198.801L 349.597 197.301L 350.097 197.301L 350.097 195.699L 350.699 195.699L 350.699 194.102L 351 194.102L 351 192.5L 351.898 192.5L 351.898 190.898L 353.097 190.898L 353.097 189.301L 354.199 189.301L 354.199 187.801L 355.199 187.801L 355.199 186.199L 356.398 186.199L 356.398 184.602L 357.597 184.602L 357.597 183L 358.699 183L 358.699 181.398L 360.301 181.398L 360.301 179.801L 361.898 179.801L 361.898 178.301L 363.398 178.301L 363.398 176.699L 365.199 176.699L 365.199 175.102L 366.801 175.102L 366.801 173.5L 368.398 173.5L 368.398 171.898L 369.5 171.898L 369.5 170.398L 370 170.398L 370 168.801L 370.199 168.801L 370.199 167.199L 370.597 167.199L 370.597 165.602L 371.398 165.602L 371.398 164L 372 164L 372 162.398L 372 160.898L 372.398 160.898L 372.398 159.301L 373.301 159.301L 373.301 157.699L 374.301 157.699L 374.301 156.102L 374.898 156.102L 374.898 154.5L 375.597 154.5L 375.597 152.898L 376.5 152.898L 376.5 151.398L 377.301 151.398L 377.301 149.801L 377.699 149.801L 377.699 148.199L 378.097 148.199L 378.097 146.602L 378.597 146.602L 378.597 145L 379.597 145L 379.597 143.398L 380.898 143.398L 380.898 141.898L 381.199 141.898L 381.199 140.301L 381.301 140.301L 381.301 138.699L 382.199 138.699L 382.199 137.102L 383.199 137.102L 383.199 135.5L 383.898 135.5L 383.898 133.898L 384.898 133.898L 384.898 132.398L 386.199 132.398L 386.199 130.801L 387.199 130.801L 387.199 129.199L 388 129.199L 388 127.602L 389 127.602L 389 126L 389.898 126L 389.898 124.398L 390.699 124.398L 390.699 122.898L 391.398 122.898L 391.398 121.301"/>
<path style="stroke:#0000ff; stroke-width:1; fill:none" d="M 391.398 121.301L 392.5 121.301L 392.5 119.699L 394.5 119.699L 394.5 118.102L 399.597 118.102L 399.597 116.5L 407.597 116.5L 407.597 114.898L 411.097 114.898L 411.097 113.398L 409.199 113.398L 409.199 111.801L 407.301 111.801L 407.301 110.199L 405.398 110.199L 405.398 108.602L 403.199 108.602L 403.199 107L 401.699 107L 401.699 105.398L 400.801 105.398L 400.801 103.898L 400.699 103.898L 400.699 102.301L 400.301 102.301L 400.301 100.699L 400.199 100.699L 400.199 99.102L 400.898 99.102L 400.898 97.5L 401.5 97.5L 401.5 96L 401.597 96L 401.597 94.398L 402.199 94.398L 402.199 92.801L 403.097 92.801L 403.097 91.199L 403.597 91.199L 403.597 89.602L 404.097 89.602L 404.097 88L 404.398 88L 404.398 86.5L 404.898 86.5L 404.898 84.898L 405.597 84.898L 405.597 83.301L 446.699 83.301"/>
<path style="stroke:#000000; stroke-width:1; fill:none" d="M 446.699 650L 446.699 16.801L 26.6992 16.801L 26.6992 650L 446.699 650"/>
</g>
</svg>